<?xml version="1.0" encoding="UTF-8" standalone="no"?>
<!-- Created with Inkscape (http://www.inkscape.org/) -->

<svg
   xmlns:dc="http://purl.org/dc/elements/1.1/"
   xmlns:cc="http://creativecommons.org/ns#"
   xmlns:rdf="http://www.w3.org/1999/02/22-rdf-syntax-ns#"
   xmlns:svg="http://www.w3.org/2000/svg"
   xmlns="http://www.w3.org/2000/svg"
   xmlns:sodipodi="http://sodipodi.sourceforge.net/DTD/sodipodi-0.dtd"
   xmlns:inkscape="http://www.inkscape.org/namespaces/inkscape"
   width="1540"
   height="608"
   id="svg2"
   inkscape:label="Pozadí"
   version="1.1"
   inkscape:version="0.48.1 "
   sodipodi:docname="sverak.svg">
  <defs
     id="defs3" />
  <sodipodi:namedview
     id="base"
     pagecolor="#ffffff"
     bordercolor="#666666"
     borderopacity="1.0"
     inkscape:pageopacity="0.0"
     inkscape:pageshadow="2"
     inkscape:zoom="0.69"
     inkscape:cx="779.70599"
     inkscape:cy="322.43605"
     inkscape:document-units="px"
     inkscape:current-layer="layer1"
     showgrid="false"
     inkscape:window-width="1280"
     inkscape:window-height="874"
     inkscape:window-x="-4"
     inkscape:window-y="-4"
     inkscape:window-maximized="1"
     inkscape:snap-page="true"
     showborder="true"
     width="0px" />
  <metadata
     id="metadata6">
    <rdf:RDF>
      <cc:Work
         rdf:about="">
        <dc:format>image/svg+xml</dc:format>
        <dc:type
           rdf:resource="http://purl.org/dc/dcmitype/StillImage" />
        <dc:title></dc:title>
      </cc:Work>
    </rdf:RDF>
  </metadata>
  <g
     inkscape:label="Vrstva 1"
     inkscape:groupmode="layer"
     id="layer1"
     transform="translate(0,-444.36219)">
    <path
       inkscape:connector-curvature="0"
       id="path3023"
       d="M 82.111576,1052.3622 C 23.587362,1030.6347 62.459535,935.09996 172.00685,831.42953 l 28.27377,-26.75684 -24.90666,-4.00627 c -30.44312,-4.89691 -53.06409,-20.01671 -60.9398,-40.73178 -7.68837,-20.22132 -2.85872,-31.70869 17.1679,-40.83354 34.17503,-15.57102 73.89344,-7.84293 104.93355,20.41771 17.28353,15.73533 10.49367,20.22921 105.74602,-69.99174 135.10533,-127.96956 158.8116,-157.20571 140.07886,-172.75239 -33.96142,-28.18586 -257.01638,51.20916 -427.916838,152.31425 -27.7491,16.41652 -50.4530625,27.18863 -50.4530625,23.9383 0,-8.13189 101.1309805,-65.28973 190.0419005,-107.40927 153.31414,-72.62897 279.46963,-103.05541 301.68882,-72.76167 17.18105,23.42449 -0.14805,44.64137 -161.52379,197.7745 -70.40865,66.81162 -75.99981,73.83777 -68.41771,85.97855 4.54127,7.27161 15.60851,13.56097 24.59375,13.97639 11.70849,0.54117 12.9958,1.62031 4.5446,3.80932 -10.24782,2.65409 -11.22315,7.60458 -7.44942,37.80896 6.50876,52.09266 -9.44302,92.76002 -55.83978,142.35821 -48.42614,51.76768 -119.71736,88.86308 -149.517384,77.79998 z m 71.611114,-29.2549 c 87.47727,-50.07111 142.14103,-135.20591 124.53841,-193.9584 -7.6258,-25.45229 -8.78383,-26.29815 -36.01608,-26.29815 -26.7734,0 -30.67792,2.64678 -80.57443,54.62026 -61.26566,63.81576 -92.430013,113.83635 -92.518093,148.49689 -0.108635,42.5268 29.673157,48.5624 84.570193,17.1394 z m 77.20357,-248.57489 c 17.31369,-18.42978 12.63456,-23.82043 -34.41056,-39.64255 -25.8925,-8.70828 -35.61527,-9.31987 -50.45344,-3.17371 -20.86591,8.6429 -23.78535,25.34704 -6.98715,39.98058 26.69615,23.25635 71.37108,24.6355 91.85115,2.83568 z m 33.46843,12.84024 c 0,-1.35197 -4.00571,-5.78228 -8.90146,-9.84551 -6.77076,-5.61905 -10.85761,-5.03067 -17.07254,2.45793 -6.93919,8.36163 -5.59771,9.8455 8.90149,9.8455 9.38996,0 17.07251,-1.10612 17.07251,-2.45792 z m 831.24891,80.47116 c -26.1599,-7.85247 -37.0169,-18.68176 -37.0169,-36.92263 0,-22.95919 10.0444,-38.91865 55.4581,-88.11491 42.3488,-45.87639 58.2053,-81.25312 54.0897,-120.67903 l -2.1313,-20.41676 -35.8052,22.65938 c -59.4626,37.63038 -109.4827,45.18214 -119.8758,18.09807 -4.7995,-12.50692 12.9895,-34.92025 27.7157,-34.92025 7.5443,0 6.4677,3.27583 -4.4084,13.40841 -33.0178,30.76052 11.5639,34.7342 67.8604,6.04838 55.378,-28.21772 66.2342,-39.26476 70.964,-72.21128 10.5669,-73.61164 38.4544,-115.66146 71.247,-107.431 11.8307,2.9693 16.6989,8.52819 16.6989,19.06779 0,16.78602 -31.1509,69.38816 -58.5107,98.80216 -14.2642,15.33529 -18.7729,27.41048 -20.9896,56.21698 -3.5812,46.53204 -28.1207,95.66873 -74.1191,148.41103 -43.5448,49.92949 -45.9122,68.18968 -10.7605,83.00442 41.0869,17.31592 221.8228,4.14568 380.9631,-27.7609 56.5213,-11.33201 89.0293,-9.50841 46.5783,2.61325 -110.6759,31.60225 -374.0783,56.29998 -427.9577,40.12689 z m 125.8779,-345.93666 c 26.7552,-41.39642 32.6731,-64.09176 16.7115,-64.09176 -13.7333,0 -41.1959,35.7927 -46.0839,60.06248 -2.3608,11.72269 -5.7361,26.44056 -7.5001,32.7065 -6.8515,24.3338 12.1721,9.538 36.8725,-28.67722 z M 472.96583,845.46554 c -19.34212,-23.30621 44.79762,-153.28658 75.6408,-153.28658 7.98255,0 18.79439,6.11094 24.02596,13.57988 9.20297,13.13897 10.40729,12.26088 37.10007,-27.04602 31.19526,-45.93711 69.97263,-90.6954 78.57579,-90.6954 7.87817,0 7.08236,27.06758 -1.14829,39.06068 -5.57186,8.1186 -6.52658,7.56995 -5.66107,-3.25502 0.57302,-7.16125 0.70402,-15.67183 0.29198,-18.91247 -0.41206,-3.24078 -22.5595,23.70856 -49.21556,59.88746 -45.11826,61.23567 -48.05719,67.20701 -42.54115,86.43972 3.25877,11.36294 10.66959,27.90123 16.46877,36.75155 l 10.54369,16.09159 16.35559,-15.26278 c 8.99591,-8.39461 22.66238,-26.98102 30.37022,-41.3033 l 14.01424,-26.04034 1.93623,33.27372 c 1.61264,27.70862 4.51894,34.45049 17.37646,40.30865 21.24799,9.68137 59.2507,-1.5669 79.92289,-23.65566 l 16.26208,-17.37629 -4.55755,21.15787 c -3.63299,16.86377 -2.47142,21.15785 5.72436,21.15785 5.65545,0 10.28253,2.92938 10.28253,6.5101 0,8.82745 -15.19514,8.24151 -24.37637,-0.93973 -5.59322,-5.59322 -12.52078,-5.34963 -27.79611,0.97776 -38.48564,15.94129 -84.53965,5.15643 -84.53965,-19.79747 0,-17.63844 -9.45276,-16.03423 -18.16291,3.08249 -18.03213,39.57672 -51.84344,30.49759 -68.43739,-18.37692 l -8.58613,-25.28877 -41.63251,56.21178 c -22.89811,30.9164 -43.60082,56.21151 -46.00624,56.21151 -2.4053,0 -7.90892,-4.2596 -12.2298,-9.46586 z m 57.30585,-60.08363 c 23.95007,-31.88072 38.52777,-57.16797 36.30148,-62.97011 -5.21228,-13.58248 -22.22296,-18.82438 -32.74663,-10.0908 -15.44041,12.81462 -54.59872,97.97955 -54.59872,118.74692 0,23.02869 -1.76441,24.60818 51.04387,-45.68601 z m 335.32889,-12.02798 c -2.57988,-6.7241 -0.0749,-19.48603 5.852,-29.81369 10.12079,-17.63466 9.88075,-18.42019 -10.27556,-33.57277 -11.35095,-8.53365 -30.15957,-21.05294 -41.7963,-27.82087 -11.6369,-6.7677 -21.15805,-14.603 -21.15805,-17.41168 0,-7.49874 3.2361,-6.54587 30.55083,8.99629 49.46649,28.14614 73.92662,61.51806 54.08041,73.78364 -3.58031,2.2128 -6.50988,8.24487 -6.50988,13.40448 0,7.27443 10.23284,9.38081 45.57061,9.38081 l 45.57074,0 0,-21.48317 c 0,-23.62909 9.67839,-37.10759 26.64601,-37.10759 11.46262,0 19.07332,12.79007 18.71772,31.45535 -0.1897,9.88449 -0.9841,9.8367 -8.8555,-0.53237 -10.76155,-14.17667 -20.87217,-14.58011 -26.06777,-1.04017 -5.87615,15.31301 1.78692,23.29255 17.7752,18.50904 13.20077,-3.9497 13.41267,-3.50146 3.31992,7.02762 -8.08072,8.43021 -25.57001,12.08963 -69.84427,14.61386 -52.75509,3.00809 -59.5466,2.1118 -63.57611,-8.38878 z M 668.1203,658.38524 c -0.0544,-6.05475 2.83006,-12.8191 6.4104,-15.03192 8.23945,-5.09215 8.23945,3.52599 0,16.27522 -5.43825,8.41559 -6.32418,8.24374 -6.4104,-1.2433 z"
       style="fill:#000000" />
  </g>
</svg>
