<svg xmlns="http://www.w3.org/2000/svg" id="uuid-84fda5f9-fee0-491d-936c-9b1c55592e98" data-name="Layer 2" viewBox="0 0 75.19 57.39"><defs></defs><g id="uuid-cc7dfa7c-27e2-4493-b740-f819edd29cdc" data-name="Layer 1"><path d="M71.79 57.39H9.19c-1.88 0-3.41-1.53-3.41-3.41v-7.29c0-.75.61-1.36 1.36-1.36s1.36.61 1.36 1.36v7.29c0 .38.31.69.69.69h62.6c.38 0 .69-.31.69-.69V43.07c0-.38-.31-.69-.69-.69H25.63c-.75 0-1.36-.61-1.36-1.36s.61-1.36 1.36-1.36h46.16c1.88 0 3.41 1.53 3.41 3.41v10.91c0 1.88-1.53 3.41-3.41 3.41Z" class="uuid-c0939588-cd67-445e-8e2d-a82568547183"></path><path d="M73.84 44.42c-.75 0-1.36-.61-1.36-1.36 0-1.09-.26-2.19-.75-3.17l-8.89-17.61c-.3-.59-.9-.96-1.56-.96h-24.7c-.75 0-1.36-.61-1.36-1.36s.61-1.36 1.36-1.36h24.7c1.69 0 3.22.94 3.98 2.45l8.89 17.61a9.821 9.821 0 0 1 1.05 4.39c0 .75-.61 1.36-1.36 1.36ZM34.05 37.4h-.63c-.75 0-1.36-.61-1.36-1.36s.61-1.36 1.36-1.36h.63c.75 0 1.36.61 1.36 1.36s-.61 1.36-1.36 1.36ZM47.56 37.4h-.63c-.75 0-1.36-.61-1.36-1.36s.61-1.36 1.36-1.36h.63c.75 0 1.36.61 1.36 1.36s-.61 1.36-1.36 1.36Z" class="uuid-c0939588-cd67-445e-8e2d-a82568547183"></path><path d="M61.07 37.4h-.63c-.75 0-1.36-.61-1.36-1.36s.61-1.36 1.36-1.36h.63c.75 0 1.36.61 1.36 1.36s-.61 1.36-1.36 1.36ZM34.5 31.92h-.59c-.75 0-1.36-.61-1.36-1.36s.61-1.36 1.36-1.36h.59c.75 0 1.36.61 1.36 1.36s-.61 1.36-1.36 1.36ZM47.07 31.92h-.59c-.75 0-1.36-.61-1.36-1.36s.61-1.36 1.36-1.36h.59c.75 0 1.36.61 1.36 1.36s-.61 1.36-1.36 1.36ZM59.65 31.92h-.59c-.75 0-1.36-.61-1.36-1.36s.61-1.36 1.36-1.36h.59c.75 0 1.36.61 1.36 1.36s-.61 1.36-1.36 1.36ZM34.93 26.31h-.55c-.75 0-1.36-.61-1.36-1.36s.61-1.36 1.36-1.36h.55c.75 0 1.36.61 1.36 1.36s-.61 1.36-1.36 1.36ZM46.6 26.31h-.55c-.75 0-1.36-.61-1.36-1.36s.61-1.36 1.36-1.36h.55c.75 0 1.36.61 1.36 1.36s-.61 1.36-1.36 1.36ZM58.28 26.31h-.55c-.75 0-1.36-.61-1.36-1.36s.61-1.36 1.36-1.36h.55c.75 0 1.36.61 1.36 1.36s-.61 1.36-1.36 1.36ZM73.84 52.16H7.14c-.75 0-1.36-.61-1.36-1.36s.61-1.36 1.36-1.36h66.7c.75 0 1.36.61 1.36 1.36s-.61 1.36-1.36 1.36ZM17 46.15c-.36 0-.71-.14-.97-.41l-4.26-4.33-5.73 2.02c-.47.16-.99.06-1.36-.27-.37-.33-.53-.84-.42-1.32l2.92-12.62c.17-.73.9-1.19 1.63-1.02.73.17 1.19.9 1.02 1.63L7.47 40.04l4.21-1.49c.5-.18 1.05-.05 1.42.33l3.13 3.18 1.56-6.73c.17-.73.9-1.19 1.63-1.02.73.17 1.19.9 1.02 1.63l-2.11 9.14c-.11.48-.48.87-.95 1-.12.03-.25.05-.37.05Z" class="uuid-c0939588-cd67-445e-8e2d-a82568547183"></path><path d="M14.62 33a4.447 4.447 0 0 1-3.56-1.79c-1.13.25-2.32.06-3.33-.57a4.46 4.46 0 0 1-1.92-2.59 4.53 4.53 0 0 1-2.76-1.76c-.69-.95-.96-2.11-.8-3.24-.97-.62-1.68-1.6-1.95-2.76a4.48 4.48 0 0 1 .47-3.19c-.62-.93-.88-2.07-.7-3.2.19-1.16.82-2.17 1.73-2.85a4.46 4.46 0 0 1 .57-3.33c.6-.95 1.53-1.63 2.59-1.93a4.53 4.53 0 0 1 1.76-2.76c.95-.69 2.11-.96 3.24-.8.62-.97 1.6-1.68 2.76-1.95a4.48 4.48 0 0 1 3.19.47c.93-.62 2.07-.88 3.2-.7 1.16.19 2.17.82 2.85 1.73 1.13-.25 2.32-.06 3.33.57.95.6 1.63 1.53 1.93 2.59 1.09.21 2.09.84 2.76 1.76.69.95.96 2.11.8 3.24.97.62 1.68 1.6 1.95 2.76a4.48 4.48 0 0 1-.47 3.19 4.447 4.447 0 0 1-1.03 6.05 4.46 4.46 0 0 1-.57 3.33c-.6.95-1.53 1.63-2.59 1.93a4.53 4.53 0 0 1-1.76 2.76c-.95.69-2.11.96-3.24.8-.62.97-1.6 1.68-2.76 1.95a4.48 4.48 0 0 1-3.19-.47c-.73.49-1.6.76-2.49.76Zm-2.93-4.84a1.341 1.341 0 0 1 1.29.92 1.73 1.73 0 0 0 3 .54c.25-.31.61-.49 1.01-.51.4-.02.77.14 1.04.43.43.46 1.05.65 1.66.51.64-.15 1.14-.64 1.3-1.28.1-.4.38-.73.75-.9.37-.17.81-.16 1.18.02.58.29 1.27.24 1.8-.14.51-.36.78-.98.71-1.6-.04-.39.09-.78.35-1.07.27-.29.65-.45 1.04-.44a1.73 1.73 0 0 0 1.54-2.63c-.21-.35-.25-.78-.11-1.17.14-.39.45-.69.84-.82a1.73 1.73 0 0 0 .54-3c-.31-.25-.49-.61-.51-1.01-.02-.39.14-.77.43-1.04.46-.43.65-1.05.51-1.66-.15-.64-.64-1.14-1.28-1.3-.4-.1-.73-.38-.9-.75-.17-.37-.16-.81.02-1.18.29-.58.24-1.27-.14-1.8-.36-.51-.98-.78-1.6-.71-.39.04-.78-.09-1.07-.35-.29-.27-.45-.65-.44-1.04.02-.63-.28-1.2-.81-1.53a1.73 1.73 0 0 0-1.82-.01c-.35.21-.78.25-1.17.11-.39-.14-.69-.45-.82-.84a1.73 1.73 0 0 0-3-.54c-.25.31-.61.49-1.01.51-.39.02-.77-.14-1.04-.43-.43-.46-1.05-.65-1.66-.51-.64.15-1.14.64-1.3 1.28-.1.4-.38.73-.75.9-.37.17-.81.17-1.18-.02-.58-.29-1.27-.24-1.8.14-.51.36-.78.98-.71 1.6.04.39-.09.78-.35 1.07-.27.29-.65.45-1.04.43a1.73 1.73 0 0 0-1.54 2.63c.21.35.25.78.11 1.17-.14.39-.45.69-.85.82a1.73 1.73 0 0 0-.54 3c.31.25.49.61.51 1.01.02.39-.14.77-.43 1.04-.46.43-.65 1.05-.51 1.66.15.64.64 1.14 1.28 1.3.4.1.73.38.9.75.17.37.16.81-.02 1.18a1.736 1.736 0 0 0 1.74 2.51c.39-.04.78.09 1.07.35.29.27.45.65.44 1.04a1.73 1.73 0 0 0 2.63 1.54c.21-.13.46-.19.7-.19Z" class="uuid-c0939588-cd67-445e-8e2d-a82568547183"></path><path d="M20.32 40.57c-.08 0-.16 0-.24-.02-.49-.09-.89-.43-1.05-.9l-2.82-8.33a1.356 1.356 0 1 1 2.57-.87l2.02 5.98 1.45-1.8c.33-.41.87-.59 1.38-.47l2.25.55-1.81-5.34a1.356 1.356 0 1 1 2.57-.87l2.6 7.68c.16.47.05.99-.29 1.35-.34.37-.84.52-1.32.4L23.82 37l-2.46 3.05c-.26.32-.65.51-1.06.51ZM16.43 27.44c-4.98 0-9.49-3.43-10.65-8.48-1.35-5.87 2.33-11.75 8.2-13.1 2.84-.65 5.77-.16 8.25 1.39 2.47 1.55 4.2 3.97 4.85 6.81.65 2.84.16 5.77-1.39 8.25-1.55 2.47-3.97 4.2-6.81 4.85-.82.19-1.64.28-2.45.28Zm1.84-2.93.3 1.32-.3-1.32a8.162 8.162 0 0 0 5.12-3.64 8.185 8.185 0 0 0 1.04-6.2 8.162 8.162 0 0 0-3.64-5.12 8.185 8.185 0 0 0-6.2-1.04c-4.41 1.01-7.18 5.43-6.16 9.84 1.01 4.41 5.43 7.18 9.84 6.16Z" class="uuid-c0939588-cd67-445e-8e2d-a82568547183"></path></g></svg>