<svg xmlns="http://www.w3.org/2000/svg" viewBox="0 0 700 700"><g><path d="m159.78 277.81-.34.83h2.25c-.62-.3-1.26-.58-1.91-.83Zm20.74 49.96.07.1c.67.9 1.58 1.04 2.07 1.04s1.39-.14 2.06-1.04l.08-.11c-1.43 0-2.85 0-4.28.01Zm377.66 112.55c17.24-21.6 16.94-42.88-1.14-63.97 7.89-4.66 12.78-11.47 13.6-20.73 1.31-14.69-10.15-27.49-24.93-27.72-13.8-.22-27.6-.06-41.4-.07H499c4.97-2.92 8.92-5.11 12.74-7.51 11.03-6.94 20.81-15.34 29.25-25.27 2.31-2.71 4.97-3.99 8.54-4.2 12.14-.68 21.08-9.99 21.19-21.79.11-11.53-8.93-21.27-21-22.07-3.97-.27-6.62-1.78-9.16-4.66-23.5-26.6-53.25-41.34-88.26-45.54-9.39-1.13-18.92-1.42-28.39-1.43-39.06-.08-78.13-.2-117.2-.09-4.94.01-8.5 4.77-7.12 9.52l.04.15c.9 3.1 3.73 5.23 6.95 5.26 14.56.11 29.12.34 43.69.34 30.9-.01 61.85-1.04 92.69.26 34.62 1.47 64.24 15.22 87.14 41.92 4.65 5.42 10.2 8.61 17.46 8.85 5.13.16 8.45 3.25 8.46 7.37 0 4.13-3.17 6.97-8.45 7.31-6.81.43-12.43 3.08-16.88 8.31-25.04 29.37-57.67 42.69-95.47 43.09-56.92.61-113.85.64-170.77-.01-.59 0-1.18-.02-1.76-.03-1.67-.04-3.28.52-4.62 1.52-.08.06-.16.12-.23.18-5.65 4.22-2.57 13.24 4.49 13.24 93.01 0 186.01 0 279.01.03 2.55 0 5.23.13 7.62.89 4.52 1.44 7.34 6.11 7.05 10.75-.3 4.73-3.55 8.87-8.21 9.9-2.35.52-4.84.58-7.27.58-120.88.03-241.76.03-362.65.03-1.72 0-3.45-.06-5.17.1-3.85.37-6.43 3-6.6 6.68-.18 4.01 1.79 6.63 5.62 7.56 1.91.46 3.99.36 5.99.36 115.28.02 230.55.04 345.83-.03 7.24 0 13.99 1.1 20 5.38 10.49 7.46 14.93 20.58 11.09 32.8-3.84 12.23-14.82 20.57-27.82 20.62-31.04.13-62.09.05-93.14.06H159.42c-1.29 0-2.59.02-3.88-.01-6.73-.2-11.51-4.62-11.67-10.79-.16-6.09 4.47-10.79 11.18-11.29 1.58-.11 3.16-.05 4.74-.05 120.74 0 241.48 0 362.22-.01 1.87 0 3.76.09 5.6-.18 3.75-.54 5.91-2.83 6.16-6.62.25-3.78-1.55-6.45-5.21-7.41-2.04-.53-4.26-.5-6.4-.5-115.28-.02-230.55-.04-345.83.03-7.71 0-14.82-1.32-21.03-6.17-9.77-7.63-13.77-20.28-10.05-32.03 1-3.16 2.49-6.06 4.38-8.63 2.74-3.74 1.11-9.01-3.19-10.74-.08-.03-.17-.07-.25-.1-3.06-1.24-6.59-.29-8.49 2.41-.68.97-1.34 1.97-1.97 3.02-3.04 5.04-4.44 11.06-6.59 16.62v12.08c2.25 9.95 6.06 19.09 14.08 26.47-7.87 3.94-11.77 10.58-14.08 18.38v8.63c1.94 4.4 3.88 8.81 5.78 13.11-1.84 3.79-3.81 7.84-5.78 11.9v96.6c.5 1.16 1 2.32 1.48 3.49 3.28 7.96 9.11 12.72 17.67 13.97 1.84.27 3.72.35 5.58.35 130.67.02 261.33.02 391.99-.02 2.99 0 6.09-.22 8.95-1 9.32-2.52 15.84-10.91 15.88-20.71.12-29.62.13-59.23 0-88.84-.04-8.97-4.66-15.45-12.51-19.87Zm-2.13 105.65c0 7.64-2.37 10.04-10.06 10.05-130.63.01-261.27.01-391.9 0-7.97 0-10.25-2.32-10.25-10.29v-82.77c0-7.65 2.38-10.03 10.05-10.03h391.48c5.9 0 10.68 4.78 10.68 10.68 0 27.46.01 54.91 0 82.36Z"></path><path d="M180.67 474.86c.11 3.98-3.26 7.4-7.3 7.43-4.01.03-7.1-2.89-7.28-6.89-.19-4.15 2.88-7.56 6.95-7.73 3.94-.16 7.52 3.21 7.63 7.18Zm58.84.24c-.04 4.07-3.4 7.28-7.51 7.19-4.11-.09-7.27-3.45-7.11-7.55.15-3.84 3.45-7.05 7.26-7.07 3.96-.02 7.4 3.46 7.36 7.44Zm228 7.19c-4.1-.1-7.3-3.5-7.13-7.56.16-3.82 3.51-7.05 7.3-7.06 3.98-.01 7.38 3.44 7.33 7.45-.05 4.1-3.37 7.27-7.5 7.18Zm58.96-14.62c4.03-.07 7.35 3.26 7.34 7.36 0 4.02-2.94 7.1-6.92 7.25-4.07.16-7.54-3.02-7.67-7.05-.13-3.95 3.27-7.49 7.25-7.56ZM210.1 504.58c-.07 4.05-3.45 7.22-7.58 7.11-4.18-.11-7.2-3.36-7.03-7.56.16-3.87 3.44-7.04 7.27-7.03 3.96.01 7.41 3.53 7.34 7.48Zm294.3-.34c.11 4.18-2.98 7.4-7.15 7.46-4.13.05-7.46-3.18-7.46-7.23 0-3.8 3.2-7.15 7.02-7.35 3.97-.21 7.49 3.09 7.6 7.13Zm-264.89 29.59c.05 4.08-3.23 7.35-7.35 7.33-3.97-.01-7.12-3.03-7.27-6.96-.16-4.06 3.05-7.49 7.11-7.6 4.03-.11 7.46 3.19 7.51 7.23Zm220.87-.19c.16-4.04 3.67-7.24 7.69-7.02 4.07.22 7.18 3.72 6.92 7.78-.25 3.92-3.47 6.84-7.45 6.76-4.11-.08-7.32-3.44-7.16-7.51Zm-169.29-51.35c-4.05.02-7.45-3.35-7.4-7.34.05-3.96 3.6-7.38 7.55-7.27 3.88.1 7 3.29 7.07 7.21.07 4.19-3.05 7.38-7.22 7.4Zm125.1-7.18c-.06 4.01-3.5 7.27-7.56 7.17-4.16-.1-7.19-3.36-7.04-7.56.14-3.92 3.35-7.04 7.22-7.05 3.95 0 7.44 3.51 7.38 7.44Zm-147.29 29.4c-.03 4.15-3.26 7.27-7.44 7.19-3.94-.07-7.09-3.17-7.18-7.08-.1-3.96 3.32-7.49 7.28-7.53 3.99-.04 7.36 3.38 7.34 7.42Zm169.22-7.4c3.95-.09 7.46 3.34 7.49 7.32.02 3.89-3.07 7.1-6.99 7.27-4.2.18-7.5-2.84-7.63-6.98-.13-4.06 3.11-7.51 7.13-7.61Zm-110.39 7.37c-.01 4.19-3.17 7.29-7.36 7.22-3.92-.06-7.09-3.16-7.2-7.05-.12-3.95 3.27-7.48 7.24-7.54 4.02-.06 7.33 3.27 7.32 7.37Zm51.52-7.37c3.94-.08 7.45 3.34 7.48 7.31.03 3.86-3.09 7.11-6.98 7.28-4.22.18-7.46-2.81-7.58-6.99-.12-4.12 3.03-7.51 7.08-7.6Zm-29.29-14.82c-4.12 0-7.35-3.25-7.3-7.36.05-4.05 3.48-7.38 7.48-7.26 3.85.12 7.02 3.35 7.08 7.23.07 4.11-3.15 7.38-7.27 7.39Zm-169.3 51.45c.11 4.01-3.2 7.38-7.29 7.41-4.01.03-7.13-2.9-7.29-6.86-.18-4.15 2.87-7.52 6.96-7.68 4.01-.16 7.51 3.12 7.62 7.13Zm117.63.16c0 4.18-3.17 7.31-7.35 7.25-3.91-.05-7.12-3.17-7.25-7.03-.13-3.95 3.25-7.47 7.24-7.53 4.06-.07 7.36 3.21 7.36 7.32Zm117.9-.07c.05 4.03-3.28 7.33-7.38 7.32-4.01-.01-7.08-2.98-7.21-6.95-.14-4.13 2.98-7.49 7.06-7.59 3.99-.1 7.49 3.24 7.54 7.22Zm110.44 7.32c-4.08.03-7.44-3.28-7.41-7.29.04-3.99 3.5-7.34 7.5-7.25 3.92.08 7.01 3.2 7.08 7.13.08 4.2-3 7.38-7.18 7.41ZM357.2 533.7c.11 4.14-3.02 7.39-7.16 7.44-3.97.05-7.15-2.9-7.35-6.82-.22-4.09 2.89-7.54 6.94-7.73 4.03-.18 7.46 3.03 7.57 7.1ZM220.65 255.54c.33.86.51 1.78.51 2.74 0 2.58-1.16 4.98-2.95 6.64l2.44-9.38Zm256.63 12.9c-1.61.49-3.39.56-5.1.56-54.41.02-108.83.03-163.23.01-4.62 0-8.05-4.24-7.12-8.76l.03-.15a7.26 7.26 0 0 1 7.12-5.8h41.4c40.25 0 80.5 0 120.74.01 1.58 0 3.18-.07 4.74.11 3.8.44 6.02 2.74 6.39 6.45.37 3.7-1.32 6.46-4.97 7.57Z"></path></g><path fill="#fff" d="M178.76 207.97c0 12.32-9.86 22.3-22.04 22.3s-22.18-9.85-22.18-22.17 9.86-22.17 21.4-22.17c12.96 0 22.82 9.59 22.82 22.04Zm-17.07 70.67h-2.25l.34-.83c.65.25 1.29.53 1.91.83Z"></path><path d="M234.36 254.31c-1.98-10.37-11-17.81-22.54-17.81s-21.39 10.37-21.39 22.17c0 3.27.71 6.37 1.98 9.16 2.8 6.2 8.37 10.85 15.12 12.42h.01c1.63.39 3.32.59 5.06.59 8.58 0 15.96-4.78 19.65-11.84a22.22 22.22 0 0 0 2.52-10.33c0-1.5-.14-2.96-.41-4.36Zm-21.76 12.92c-4.67 0-8.43-4.02-8.43-8.95s3.5-8.04 8.69-8.04c3.55 0 6.62 2.22 7.79 5.3.33.86.51 1.78.51 2.74 0 2.58-1.16 4.98-2.95 6.64-1.53 1.42-3.51 2.31-5.61 2.31Z"></path><path fill="#fff" d="M221.16 258.28c0 2.58-1.16 4.98-2.95 6.64-1.53 1.42-3.51 2.31-5.61 2.31-4.67 0-8.43-4.02-8.43-8.95s3.5-8.04 8.69-8.04c3.55 0 6.62 2.22 7.79 5.3.33.86.51 1.78.51 2.74Zm-45.36 84.25c2.13.9 4.45 1.38 6.86 1.38s4.72-.48 6.85-1.38H175.8Zm4.72-14.76.07.1c.67.9 1.58 1.04 2.07 1.04s1.39-.14 2.06-1.04l.08-.11c-1.43 0-2.85 0-4.28.01Z"></path><g><path d="M221.03 126.29c-1.55-.56-3.13-.91-4.72-1.02 2.18.52 4.33 1.11 6.45 1.76-.56-.28-1.14-.52-1.73-.74ZM175.8 342.53c2.13.9 4.45 1.38 6.86 1.38s4.72-.48 6.85-1.38H175.8Z"></path><path d="m288.61 236.07-17.5-18.51a2.57 2.57 0 0 1-.5-2.79l1.92-4.45 6.46-14.92 1.74-4.02c2.23-5.15 1.89-10.9-.91-15.76-2.81-4.86-7.62-8.02-13.2-8.67l-25.31-2.93a2.594 2.594 0 0 1-2.17-1.82l-7.28-24.42c-1.43-4.77-4.7-8.61-9.1-10.75-2.12-.65-4.27-1.24-6.45-1.76-3.82-.3-7.65.68-10.96 2.86l-21.28 14.02c-.86.57-1.97.57-2.83 0l-21.28-14.02c-.93-.61-1.9-1.13-2.89-1.55-4.04-1.7-8.55-1.83-12.78-.29-4.71 1.71-8.36 5.23-10.22 9.79-.24.55-.44 1.12-.61 1.7l-7.29 24.42a2.57 2.57 0 0 1-2.17 1.82l-25.31 2.93c-.26.03-.52.07-.78.11-5.25.84-9.74 3.93-12.41 8.56-2.59 4.49-3.07 9.73-1.37 14.56.13.4.29.8.46 1.2l10.11 23.39c.41.94.22 2.04-.49 2.79l-17.5 18.52c-.98 1.04-1.82 2.17-2.51 3.37-2.02 3.52-2.75 7.63-2.03 11.75.59 3.35 2.09 6.37 4.29 8.78 1.43 1.57 3.16 2.89 5.14 3.88l22.79 11.41c.92.46 1.47 1.42 1.41 2.45l-1.5 25.44c-.34 5.6 1.94 10.89 6.24 14.5 4.3 3.61 9.9 4.93 15.37 3.63l24.78-5.9c1.01-.24 2.05.14 2.67.97l9.47 12.75 5.72 7.7c1.91 2.58 4.41 4.53 7.25 5.72h13.71c2.84-1.19 5.34-3.14 7.25-5.72l14.91-20.06.29-.39a2.56 2.56 0 0 1 2.66-.97l24.79 5.9c5.46 1.3 11.06-.02 15.36-3.63 1.68-1.41 3.06-3.08 4.08-4.92 1.6-2.87 2.37-6.16 2.17-9.58l-.3-5.11-1.21-20.33a2.57 2.57 0 0 1 1.42-2.45l12.5-6.26 10.28-5.15c4.05-2.03 7.07-5.42 8.59-9.56.37-.99.65-2.03.84-3.1.98-5.53-.67-11.04-4.53-15.13Zm-10.24 12.52c-.08.48-.37 1.35-1.38 1.86l-7.7 3.86-15.08 7.55a17.532 17.532 0 0 0-7.47 7.14 17.52 17.52 0 0 0-2.2 9.61l1.04 17.59.47 7.84c.06 1.13-.55 1.82-.92 2.13-.37.31-1.15.79-2.25.53l-24.79-5.9c-1.92-.46-3.85-.58-5.74-.39h-.01c-4.85.46-9.4 2.95-12.42 7.01l-1.67 2.25-8.63 11.61-4.82 6.48-.08.11c-.67.9-1.58 1.04-2.06 1.04s-1.4-.14-2.07-1.04l-.07-.1-15.13-20.35a17.534 17.534 0 0 0-18.17-6.62l-24.79 5.9c-1.09.26-1.88-.22-2.25-.53-.37-.31-.98-1-.91-2.12l1.5-25.44a17.55 17.55 0 0 0-9.67-16.75l-22.78-11.41c-1-.51-1.29-1.38-1.38-1.86-.08-.47-.11-1.39.66-2.21l17.51-18.52a17.569 17.569 0 0 0 3.36-19.05l-10.12-23.38c-.44-1.04-.11-1.89.14-2.31.24-.42.81-1.14 1.93-1.27l25.31-2.94c6.99-.81 12.8-5.69 14.81-12.43l7.29-24.41c.32-1.08 1.13-1.52 1.58-1.69.46-.16 1.36-.35 2.3.27l21.28 14.03a17.56 17.56 0 0 0 19.34 0l21.27-14.03c.94-.62 1.85-.43 2.3-.27.45.17 1.26.61 1.58 1.69l7.29 24.41a17.556 17.556 0 0 0 14.81 12.43l25.32 2.94c1.11.13 1.69.85 1.93 1.27.24.42.58 1.27.13 2.31l-4.36 10.1-5.75 13.29c-.29.66-.53 1.34-.73 2.02a17.545 17.545 0 0 0 4.09 17.02l17.5 18.52c.77.82.75 1.74.66 2.21Z"></path><path d="M155.94 185.93c-11.54 0-21.4 10.24-21.4 22.17s9.86 22.17 22.18 22.17 22.04-9.98 22.04-22.3-9.86-22.04-22.82-22.04Zm.65 30.6c-4.67 0-8.43-3.89-8.43-8.56s3.76-8.43 8.82-8.43c4.27 0 8.03 3.89 8.03 8.43s-3.76 8.56-8.42 8.56Zm3.19 61.28-.34.83h2.25c-.62-.3-1.26-.58-1.91-.83Z"></path><path d="m209.62 187.62-9.53 23.08-9.27 22.43-18.8 45.51h-10.33c-.62-.3-1.26-.58-1.91-.83l10.69-25.87 12.86-31.13 13.71-33.19h12.58Z"></path></g></svg>