<svg xmlns="http://www.w3.org/2000/svg" viewBox="0 0 700 700"><path d="M132.47 370.02v-12.08c2.15-5.57 3.55-11.59 6.59-16.62 8.33-13.79 21.01-20.84 37.13-21.28 8.94-.25 17.9-.04 26.84-.04-.59-1.14-1.28-1.57-1.99-1.94-12.53-6.64-23.97-14.81-33.59-25.23-5.05-5.47-9.69-11.03-18.09-10.39-.13.01-.27-.09-.41-.12-8.69-2.39-13.53-8.59-16.48-16.66v-8.63c3.63-11.59 11.14-17.93 23.63-18.28 2.03-.06 4.24-2.12 5.93-3.71 5.13-4.81 9.73-10.23 15.1-14.74 26.52-22.27 57.61-32.41 91.85-32.67 52.75-.4 105.51-.22 158.26-.12 9.47.02 19 .31 28.38 1.43 35.01 4.2 64.76 18.94 88.26 45.54 2.54 2.88 5.2 4.39 9.16 4.65 12.08.81 21.12 10.55 21.01 22.07-.11 11.8-9.06 21.11-21.19 21.79-3.57.2-6.23 1.48-8.54 4.2-8.44 9.92-18.22 18.33-29.25 25.27-3.82 2.4-7.78 4.6-12.74 7.52h5.31c13.8 0 27.6-.15 41.4.06 14.78.23 26.24 13.04 24.94 27.73-.82 9.26-5.71 16.06-13.6 20.72 18.08 21.1 18.38 42.37 1.14 63.98 7.85 4.41 12.47 10.89 12.51 19.87.13 29.61.12 59.22 0 88.83-.04 9.8-6.56 18.19-15.88 20.72-2.87.78-5.96.99-8.95.99-130.66.05-261.33.04-391.99.03-1.86 0-3.74-.09-5.58-.35-8.56-1.24-14.39-6-17.67-13.96-.48-1.17-.99-2.33-1.49-3.49v-96.6c1.97-4.05 3.94-8.11 5.78-11.89l-5.78-13.12v-8.63c2.31-7.8 6.21-14.44 14.08-18.38-8.02-7.37-11.83-16.52-14.08-26.47Zm220.92 75.07H157.22c-7.67 0-10.05 2.37-10.05 10.02v82.78c0 7.96 2.28 10.28 10.25 10.28 130.63.01 261.27.01 391.9 0 7.69 0 10.06-2.4 10.06-10.04v-82.35c0-8.54-2.15-10.7-10.69-10.7H353.38Zm.21-242.4c-31.19 0-62.43-1.07-93.56.29-34.43 1.5-63.95 15.21-86.79 41.73-4.76 5.53-10.39 8.81-17.82 9.03-5.07.15-8.35 3.42-8.23 7.58.11 4 3.21 6.77 8.23 7.07 6.98.41 12.68 3.14 17.25 8.49 24.96 29.21 57.48 42.5 95.1 42.92 56.92.64 113.85.62 170.77.01 37.8-.4 70.43-13.72 95.47-43.09 4.45-5.23 10.07-7.88 16.88-8.31 5.28-.33 8.46-3.17 8.45-7.3 0-4.12-3.33-7.21-8.45-7.37-7.26-.23-12.82-3.43-17.46-8.85-22.91-26.7-52.52-40.45-87.14-41.92-30.85-1.31-61.79-.27-92.7-.27Zm-8.44 227.71h91.85c31.05 0 62.09.07 93.14-.05 12.99-.05 23.97-8.4 27.82-20.62 3.84-12.23-.6-25.34-11.09-32.81-6.01-4.28-12.76-5.38-20-5.38-115.28.07-230.55.05-345.83.03-2 0-4.08.1-5.99-.37-3.83-.93-5.8-3.54-5.61-7.56.17-3.68 2.75-6.31 6.6-6.68 1.71-.16 3.45-.1 5.17-.1 120.88 0 241.76 0 362.65-.03 2.43 0 4.92-.06 7.27-.58 4.66-1.03 7.91-5.17 8.21-9.9.29-4.65-2.53-9.31-7.05-10.75-2.4-.76-5.07-.89-7.62-.89-121.6-.04-243.2-.04-364.8-.03-1.58 0-3.16-.03-4.74.06-12.26.64-22.8 8.84-26.53 20.62-3.72 11.75.28 24.4 10.05 32.03 6.21 4.85 13.32 6.17 21.03 6.17 115.28-.07 230.55-.05 345.83-.03 2.14 0 4.36-.03 6.4.5 3.66.95 5.45 3.63 5.2 7.4-.25 3.79-2.41 6.09-6.16 6.63-1.84.27-3.73.18-5.59.18H163.15c-1.58 0-3.17-.06-4.74.05-6.71.49-11.34 5.19-11.18 11.29.16 6.16 4.94 10.59 11.67 10.78 1.29.04 2.59.01 3.88.01h182.4Z"></path><path d="M184 467.02c.11 3.98-3.26 7.4-7.3 7.43-4.01.03-7.1-2.89-7.28-6.89-.19-4.15 2.88-7.56 6.95-7.73 3.94-.16 7.52 3.21 7.63 7.18Zm58.84.24c-.04 4.07-3.4 7.28-7.51 7.19-4.11-.09-7.27-3.45-7.11-7.55.15-3.84 3.45-7.05 7.26-7.07 3.96-.02 7.4 3.46 7.36 7.44Zm228 7.19c-4.1-.1-7.3-3.5-7.13-7.56.16-3.82 3.51-7.05 7.3-7.06 3.98-.01 7.38 3.44 7.33 7.45-.05 4.1-3.37 7.27-7.5 7.18Zm58.96-14.62c4.03-.07 7.35 3.26 7.34 7.36 0 4.02-2.94 7.1-6.92 7.25-4.07.16-7.54-3.02-7.67-7.05-.13-3.95 3.27-7.49 7.25-7.56Zm-316.37 36.91c-.07 4.05-3.45 7.22-7.58 7.11-4.18-.11-7.2-3.36-7.03-7.56.16-3.87 3.44-7.04 7.27-7.03 3.96.01 7.41 3.53 7.34 7.48Zm294.3-.34c.11 4.18-2.98 7.4-7.15 7.46-4.13.05-7.46-3.18-7.46-7.23 0-3.8 3.2-7.15 7.02-7.35 3.97-.21 7.49 3.09 7.6 7.13Zm-264.89 29.58c.05 4.08-3.23 7.35-7.35 7.33-3.97-.01-7.12-3.03-7.27-6.96-.16-4.06 3.05-7.49 7.11-7.6 4.03-.11 7.46 3.19 7.51 7.23Zm220.87-.19c.16-4.04 3.67-7.24 7.69-7.02 4.07.22 7.18 3.72 6.92 7.78-.25 3.92-3.47 6.84-7.45 6.76-4.11-.08-7.32-3.44-7.16-7.51Zm-169.29-51.34c-4.05.02-7.45-3.35-7.4-7.34.05-3.96 3.6-7.38 7.55-7.27 3.88.1 7 3.29 7.07 7.21.07 4.19-3.05 7.38-7.22 7.4Zm125.1-7.18c-.06 4.01-3.5 7.27-7.56 7.17-4.16-.1-7.19-3.36-7.04-7.56.14-3.92 3.35-7.04 7.22-7.05 3.95 0 7.44 3.51 7.38 7.44Zm-147.29 29.4c-.03 4.15-3.26 7.27-7.44 7.19-3.94-.07-7.09-3.17-7.18-7.08-.1-3.96 3.32-7.49 7.28-7.53 3.99-.04 7.36 3.38 7.34 7.42Zm169.22-7.4c3.95-.09 7.46 3.34 7.49 7.32.02 3.89-3.07 7.1-6.99 7.27-4.2.18-7.5-2.84-7.63-6.98-.13-4.06 3.11-7.51 7.13-7.61Zm-110.39 7.37c-.01 4.19-3.17 7.29-7.36 7.22-3.92-.06-7.09-3.16-7.2-7.05-.12-3.95 3.27-7.48 7.24-7.54 4.02-.06 7.33 3.27 7.32 7.37Zm51.52-7.37c3.94-.08 7.45 3.34 7.48 7.31.03 3.86-3.09 7.11-6.98 7.28-4.22.18-7.46-2.81-7.58-6.99-.12-4.12 3.03-7.51 7.08-7.6Zm-29.3-14.83c-4.12 0-7.35-3.25-7.3-7.36.05-4.05 3.48-7.38 7.48-7.26 3.85.12 7.02 3.35 7.08 7.23.07 4.11-3.15 7.38-7.27 7.39ZM183.99 525.9c.11 4.01-3.2 7.38-7.29 7.41-4.01.03-7.13-2.9-7.29-6.86-.18-4.15 2.87-7.52 6.96-7.68 4.01-.16 7.51 3.12 7.62 7.13Zm117.63.16c0 4.18-3.17 7.31-7.35 7.25-3.91-.05-7.12-3.17-7.25-7.03-.13-3.95 3.25-7.47 7.24-7.53 4.06-.07 7.36 3.21 7.36 7.32Zm117.9-.07c.05 4.03-3.28 7.33-7.38 7.32-4.01-.01-7.08-2.98-7.21-6.95-.14-4.13 2.98-7.49 7.06-7.59 3.99-.1 7.49 3.24 7.54 7.22Zm110.44 7.31c-4.08.03-7.44-3.28-7.41-7.29.04-3.99 3.5-7.34 7.5-7.25 3.92.08 7.01 3.2 7.08 7.13.08 4.2-3 7.38-7.18 7.41Zm-169.43-7.44c.11 4.14-3.02 7.39-7.16 7.44-3.97.05-7.15-2.9-7.35-6.82-.22-4.09 2.89-7.54 6.94-7.73 4.03-.18 7.46 3.03 7.57 7.1Zm-6.82-279.4h120.74c1.58 0 3.17-.07 4.74.11 3.8.44 6.02 2.74 6.39 6.45.37 3.7-1.32 6.46-4.97 7.58-1.61.49-3.39.56-5.09.56-81.5.03-163 .03-244.51 0-1.84 0-3.79-.1-5.5-.7-3.39-1.2-4.92-3.93-4.56-7.45.36-3.51 2.41-5.81 5.99-6.37 1.69-.26 3.44-.17 5.16-.17h121.61Zm-84.98 58.81c-29.76-1.15-55.95-9.57-77.43-30.04-1.35-1.28-2.71-2.59-3.83-4.07-2.29-3.02-2.01-6.81.5-9.42 2.59-2.69 6.65-2.99 9.78-.67.8.59 1.5 1.34 2.21 2.05 16.49 16.43 36.73 24.51 59.59 26.73 3.85.37 7.73.54 11.6.71 5.34.24 8.69 3.2 8.51 7.61-.18 4.3-3.51 7.05-8.61 7.09h-2.31Z"></path></svg>