<svg xmlns="http://www.w3.org/2000/svg" viewBox="0 0 700 700"><path d="M547 525.56H176.82c-10.37 0-18.8-8.43-18.8-18.8v-67.87c0-10.37 8.43-18.8 18.8-18.8H547c10.37 0 18.8 8.43 18.8 18.8v67.87c0 10.37-8.43 18.8-18.8 18.8Zm-370.18-90.74c-2.24 0-4.06 1.82-4.06 4.06v67.87c0 2.24 1.82 4.06 4.06 4.06H547c2.24 0 4.06-1.82 4.06-4.06v-67.87c0-2.24-1.82-4.06-4.06-4.06H176.82Z"></path><path d="M558.44 446.26a7.37 7.37 0 0 1-7.37-7.37c0-6.14-1.46-12.28-4.23-17.76l-31.43-62.24c-1.83-3.63-.38-8.07 3.26-9.9a7.357 7.357 0 0 1 9.9 3.26L560 414.48c3.8 7.53 5.81 15.97 5.81 24.4 0 4.07-3.3 7.37-7.37 7.37Zm-393.05 0a7.37 7.37 0 0 1-7.37-7.37 54.4 54.4 0 0 1 5.81-24.4l31.43-62.23c1.83-3.63 6.27-5.09 9.9-3.26 3.63 1.83 5.09 6.27 3.26 9.9l-31.43 62.23a39.551 39.551 0 0 0-4.23 17.76c0 4.07-3.3 7.37-7.37 7.37Zm114.06-85.15h-9.22c-54.6 0-87.01-42.51-88.36-44.32a7.365 7.365 0 0 1 0-8.83c1.35-1.81 33.76-44.32 88.36-44.32h9.22c54.6 0 87.01 42.51 88.36 44.32a7.365 7.365 0 0 1 0 8.83c-1.35 1.81-33.76 44.32-88.36 44.32Zm-81.97-48.73c9.35 10.1 35.45 33.99 72.75 33.99h9.22c37.48 0 63.46-23.88 72.77-33.98-9.34-10.09-35.44-34-72.77-34h-9.22c-37.3 0-63.39 23.89-72.75 33.99Z"></path><path d="M229.56 315c-2.37 0-4.69-1.14-6.12-3.25-2.28-3.37-1.38-7.95 1.99-10.23 9.79-6.6 20.51-10.67 31.88-12.12 4.03-.51 7.73 2.34 8.24 6.38.51 4.04-2.34 7.73-6.38 8.24-9.06 1.15-17.64 4.42-25.5 9.72a7.35 7.35 0 0 1-4.11 1.26Zm328.88 181.65H165.39a7.37 7.37 0 0 1 0-14.74h393.05a7.37 7.37 0 0 1 0 14.74Zm-348.5 63.84h-10.82c-8.55 0-15.5-6.95-15.5-15.5v-26.8a7.37 7.37 0 0 1 14.74 0v26.8c0 .42.34.76.76.76h10.82c.34 0 .64-.23.73-.55l8.16-29c1.1-3.92 5.17-6.2 9.09-5.1 3.92 1.1 6.2 5.17 5.1 9.09l-8.16 29c-1.87 6.65-8.01 11.3-14.92 11.3Zm314.76 0h-10.82c-6.91 0-13.05-4.65-14.92-11.3l-8.16-29c-1.1-3.92 1.18-7.99 5.1-9.09 3.92-1.1 7.99 1.18 9.09 5.1l8.16 29c.09.33.39.55.73.55h10.82c.42 0 .76-.34.76-.76v-26.8a7.37 7.37 0 0 1 14.74 0v26.8c0 8.55-6.95 15.5-15.5 15.5Zm-71.1-199.38h-9.22c-30.09 0-53.48-13.2-67.8-24.28-13.07-10.11-20.26-19.64-20.56-20.04a7.365 7.365 0 0 1 0-8.83c.34-.46 8.57-11.35 23.46-22.22 19.81-14.46 42.26-22.1 64.9-22.1h9.22c54.6 0 87.01 42.51 88.36 44.32a7.365 7.365 0 0 1 0 8.83c-1.35 1.81-33.76 44.32-88.36 44.32Zm-82-48.73c3 3.26 7.73 7.96 13.99 12.79 12.51 9.67 32.85 21.2 58.79 21.2h9.22c37.3 0 63.39-23.89 72.75-33.99-9.36-10.09-35.45-33.99-72.75-33.99h-9.22c-19.78 0-38.69 6.48-56.21 19.26-7.54 5.5-13.16 11.03-16.56 14.73Z"></path><path d="M403.71 315c-2.37 0-4.69-1.14-6.12-3.25-2.28-3.37-1.38-7.95 1.99-10.23 9.78-6.6 20.51-10.67 31.88-12.12 4.03-.52 7.73 2.34 8.24 6.38.51 4.04-2.34 7.73-6.38 8.24-9.06 1.15-17.64 4.42-25.49 9.72a7.35 7.35 0 0 1-4.11 1.26Zm103.85-47.46a7.37 7.37 0 0 1-7.37-7.37v-53.56c0-8.01-6.52-14.53-14.53-14.53h-247.5c-8.01 0-14.53 6.52-14.53 14.53v53.56a7.37 7.37 0 0 1-14.74 0v-53.56c0-16.14 13.13-29.27 29.27-29.27h247.5c16.14 0 29.27 13.13 29.27 29.27v53.56c0 4.07-3.3 7.37-7.37 7.37Z"></path><path d="M475.84 231.38H247.99a7.37 7.37 0 0 1 0-14.74h227.84a7.37 7.37 0 0 1 0 14.74Z"></path></svg>