<svg xmlns="http://www.w3.org/2000/svg" viewBox="0 0 700 700"><g><path d="M186.52 509.78c-1.54 0-3.07-.59-4.24-1.76l-8.24-8.24a5.991 5.991 0 0 1 0-8.48c2.35-2.34 6.15-2.34 8.49 0l8.24 8.24a5.991 5.991 0 0 1 0 8.48 5.991 5.991 0 0 1-4.24 1.76Z"></path><path d="M186.52 511.78c-2.14 0-4.15-.83-5.66-2.34l-8.24-8.24c-1.51-1.51-2.34-3.52-2.34-5.66s.83-4.15 2.34-5.66c3.12-3.12 8.2-3.12 11.32 0l8.24 8.24c1.51 1.51 2.34 3.52 2.34 5.66s-.83 4.15-2.34 5.66a7.949 7.949 0 0 1-5.66 2.34Zm-8.24-20.24a3.998 3.998 0 0 0-2.83 6.83l8.24 8.24c1.51 1.51 4.15 1.51 5.66 0 .76-.76 1.17-1.76 1.17-2.83s-.42-2.07-1.17-2.83l-8.24-8.24c-.78-.78-1.8-1.17-2.83-1.17Zm190.98-170.89c-1.54 0-3.07-.59-4.24-1.76-2.34-2.34-2.34-6.14 0-8.49l110.32-110.32c2.34-2.34 6.14-2.34 8.49 0 2.34 2.34 2.34 6.14 0 8.49L373.51 318.89a5.991 5.991 0 0 1-4.24 1.76Z"></path><path d="M369.26 322.65c-2.14 0-4.15-.83-5.66-2.34-1.51-1.51-2.34-3.52-2.34-5.66s.83-4.15 2.34-5.66l110.31-110.32c3.12-3.12 8.2-3.12 11.32 0 1.51 1.51 2.34 3.52 2.34 5.66s-.83 4.15-2.34 5.66L374.92 320.31a7.949 7.949 0 0 1-5.66 2.34Zm110.32-122.32c-1.03 0-2.05.39-2.83 1.17L366.44 311.82c-.76.76-1.17 1.76-1.17 2.83s.42 2.07 1.17 2.83c1.51 1.51 4.15 1.51 5.66 0l110.31-110.32c.76-.76 1.17-1.76 1.17-2.83s-.42-2.07-1.17-2.83-1.81-1.17-2.83-1.17ZM228.4 461.51c-1.54 0-3.07-.59-4.24-1.76-2.34-2.34-2.34-6.14 0-8.49l74.83-74.83c2.34-2.34 6.14-2.34 8.49 0 2.34 2.34 2.34 6.14 0 8.49l-74.83 74.83a5.991 5.991 0 0 1-4.24 1.76Z"></path><path d="M228.4 463.51c-2.14 0-4.15-.83-5.66-2.34-1.51-1.51-2.34-3.52-2.34-5.66s.83-4.15 2.34-5.66l74.83-74.83c3.12-3.12 8.2-3.12 11.32 0 1.51 1.51 2.34 3.52 2.34 5.66s-.83 4.15-2.34 5.66l-74.83 74.83a7.949 7.949 0 0 1-5.66 2.34Zm74.83-86.83c-1.02 0-2.05.39-2.83 1.17l-74.83 74.83c-.76.76-1.17 1.76-1.17 2.83s.42 2.07 1.17 2.83c1.51 1.51 4.15 1.51 5.66 0l74.83-74.83c.76-.76 1.17-1.76 1.17-2.83s-.42-2.07-1.17-2.83-1.81-1.17-2.83-1.17Z"></path><path d="M174.83 518.16c-2.04 0-4.03-.8-5.54-2.31a7.826 7.826 0 0 1-1.86-8.18l23.11-65.79c.3-.85.78-1.62 1.42-2.25l84.46-84.47c2.34-2.34 6.14-2.34 8.49 0 2.34 2.34 2.34 6.14 0 8.49l-83.49 83.5-19.81 56.38 56.37-19.81 84.78-84.79c2.34-2.34 6.14-2.34 8.49 0 2.34 2.34 2.34 6.14 0 8.49l-85.75 85.75c-.64.64-1.41 1.12-2.25 1.42l-65.78 23.11c-.87.3-1.76.45-2.64.45Z"></path><path d="M174.83 520.16c-2.62 0-5.09-1.03-6.96-2.9-2.71-2.71-3.6-6.64-2.33-10.26l23.11-65.79a8.124 8.124 0 0 1 1.89-3.01L275 353.73c3.12-3.12 8.2-3.12 11.32 0 3.12 3.12 3.12 8.2 0 11.32l-83.17 83.18-18.28 52.02 52.01-18.28 84.46-84.46c3.12-3.12 8.2-3.12 11.32 0a7.949 7.949 0 0 1 2.34 5.66c0 2.14-.83 4.15-2.34 5.66l-85.75 85.75c-.84.84-1.88 1.5-3.01 1.89l-65.78 23.12c-1.07.38-2.18.57-3.3.57ZM280.66 355.4c-1.03 0-2.05.39-2.83 1.17l-84.46 84.47c-.42.42-.75.94-.95 1.5l-23.11 65.79a5.823 5.823 0 0 0 1.39 6.1 5.879 5.879 0 0 0 6.1 1.39l65.78-23.12c.56-.2 1.08-.52 1.5-.95L329.83 406c.76-.76 1.17-1.76 1.17-2.83s-.42-2.07-1.17-2.83a4.008 4.008 0 0 0-5.66 0l-85.1 85.11-.43.15-60.31 21.19 21.34-60.74.32-.32 83.49-83.5a3.998 3.998 0 0 0-2.83-6.83Zm112.35-12.23c-1.54 0-3.07-.59-4.24-1.76-2.34-2.34-2.34-6.14 0-8.49l116.99-117c6.83-6.83 6.83-17.93 0-24.76l-11.81-11.81c-3.31-3.31-7.7-5.13-12.38-5.13s-9.07 1.82-12.38 5.13L352.36 296.19c-2.34 2.34-6.14 2.34-8.49 0-2.34-2.34-2.34-6.14 0-8.49L460.7 170.86c5.57-5.57 12.98-8.64 20.87-8.64s15.29 3.07 20.87 8.64l11.81 11.81c11.5 11.51 11.5 30.23 0 41.73l-116.99 117a5.991 5.991 0 0 1-4.24 1.76Z"></path><path d="M393.01 345.17c-2.14 0-4.15-.83-5.66-2.34-3.12-3.12-3.12-8.2 0-11.32l116.99-117c6.05-6.05 6.05-15.88 0-21.93l-11.81-11.81c-2.93-2.93-6.82-4.54-10.96-4.54s-8.03 1.61-10.96 4.54L353.78 297.61c-3.12 3.12-8.2 3.12-11.32 0a7.949 7.949 0 0 1-2.34-5.66c0-2.14.83-4.15 2.34-5.66l116.83-116.84c5.95-5.95 13.86-9.23 22.28-9.23s16.33 3.28 22.28 9.23l11.81 11.81c12.28 12.29 12.28 32.28 0 44.56l-116.99 117a7.949 7.949 0 0 1-5.66 2.34Zm88.55-172.94c5.21 0 10.11 2.03 13.79 5.71l11.81 11.81c7.6 7.6 7.6 19.98 0 27.59l-116.99 117a4.008 4.008 0 0 0 0 5.66c1.51 1.51 4.15 1.51 5.66 0l116.99-117c10.72-10.73 10.72-28.18 0-38.91l-11.81-11.81c-5.2-5.2-12.1-8.06-19.45-8.06s-14.26 2.86-19.45 8.06L345.28 289.12c-.76.76-1.17 1.76-1.17 2.83s.42 2.07 1.17 2.83a4.008 4.008 0 0 0 5.66 0l116.83-116.84a19.38 19.38 0 0 1 13.79-5.71ZM239.71 491.77c-2.43 0-4.72-1.49-5.62-3.9l-10.35-27.68-28.33-10.45a6 6 0 0 1-3.55-7.71 6 6 0 0 1 7.71-3.55l30.92 11.41c1.64.6 2.93 1.89 3.55 3.53l11.31 30.26a6 6 0 0 1-5.62 8.1Z"></path><path d="M239.71 493.77c-3.32 0-6.33-2.09-7.5-5.2l-10.03-26.83-27.48-10.14c-4.14-1.53-6.27-6.14-4.74-10.28.74-2.01 2.22-3.6 4.16-4.5 1.94-.89 4.12-.98 6.12-.24l30.92 11.41c2.19.81 3.91 2.52 4.73 4.71l11.31 30.26c1.54 4.13-.56 8.75-4.69 10.3-.9.34-1.84.51-2.8.51Zm-42.23-53.68c-.57 0-1.14.12-1.67.37-.97.45-1.71 1.25-2.08 2.25-.76 2.07.3 4.38 2.37 5.14l29.19 10.77 10.67 28.54c.58 1.56 2.09 2.6 3.75 2.6.48 0 .95-.09 1.4-.25a4.006 4.006 0 0 0 2.35-5.15l-11.31-30.26a3.998 3.998 0 0 0-2.36-2.35l-30.92-11.41c-.45-.17-.92-.25-1.39-.25Zm275.31 112.95a5.97 5.97 0 0 1-4.24-1.76L134.12 216.83c-2.34-2.34-2.34-6.14 0-8.49l64.53-64.54a5.987 5.987 0 0 1 8.48 0l334.43 334.46c2.34 2.34 2.34 6.14 0 8.49l-64.53 64.54a5.987 5.987 0 0 1-4.24 1.76ZM146.85 212.58l325.94 325.97 56.04-56.05L202.9 156.53l-56.04 56.05Z"></path><path d="M472.79 555.04a8.05 8.05 0 0 1-5.66-2.34L132.71 218.24c-3.12-3.12-3.12-8.2 0-11.32l64.53-64.54c1.51-1.51 3.52-2.34 5.66-2.34s4.15.83 5.66 2.34l334.43 334.46c3.12 3.12 3.12 8.2 0 11.32l-64.53 64.54a8.05 8.05 0 0 1-5.66 2.34Zm-269.89-411c-1.07 0-2.07.42-2.83 1.17l-64.53 64.54a4.008 4.008 0 0 0 0 5.66l334.43 334.46c.75.74 1.78 1.17 2.83 1.17s2.09-.43 2.83-1.17l64.53-64.54a4.008 4.008 0 0 0 0-5.66L205.73 145.21a3.962 3.962 0 0 0-2.83-1.17Zm269.89 397.34-328.77-328.8 58.87-58.88 328.77 328.79-58.87 58.88Zm-323.11-328.8 323.11 323.14 53.22-53.22L202.9 159.36l-53.22 53.22Z"></path><path d="M172.46 252.68c-1.54 0-3.07-.59-4.24-1.76a5.991 5.991 0 0 1 0-8.48l21.51-21.51c2.34-2.34 6.14-2.34 8.49 0a5.991 5.991 0 0 1 0 8.48l-21.51 21.51a5.991 5.991 0 0 1-4.24 1.76Z"></path><path d="M172.46 254.68c-2.14 0-4.15-.83-5.66-2.34-1.51-1.51-2.34-3.52-2.34-5.66s.83-4.15 2.34-5.66l21.51-21.51c3.12-3.12 8.2-3.12 11.32 0 1.51 1.51 2.34 3.52 2.34 5.66s-.83 4.15-2.34 5.66l-21.51 21.51a7.949 7.949 0 0 1-5.66 2.34Zm21.51-33.52c-1.03 0-2.05.39-2.83 1.17l-21.51 21.51c-.76.76-1.17 1.76-1.17 2.83s.42 2.07 1.17 2.83c.76.76 1.76 1.17 2.83 1.17s2.07-.42 2.83-1.17l21.51-21.51c.76-.76 1.17-1.76 1.17-2.83s-.42-2.07-1.17-2.83a3.998 3.998 0 0 0-2.83-1.17Zm11.59 64.62c-1.54 0-3.07-.59-4.24-1.76a5.991 5.991 0 0 1 0-8.48l35.16-35.17c2.34-2.34 6.14-2.34 8.49 0a5.991 5.991 0 0 1 0 8.48l-35.16 35.17a5.991 5.991 0 0 1-4.24 1.76Z"></path><path d="M205.56 287.78c-2.14 0-4.15-.83-5.66-2.34-1.51-1.51-2.34-3.52-2.34-5.66s.83-4.15 2.34-5.66l35.16-35.17c3.12-3.12 8.2-3.12 11.32 0 1.51 1.51 2.34 3.52 2.34 5.66s-.83 4.15-2.34 5.66l-35.16 35.17a7.949 7.949 0 0 1-5.66 2.34Zm35.16-47.17c-1.03 0-2.05.39-2.83 1.17l-35.16 35.17a4.004 4.004 0 0 0 0 5.66c.76.76 1.76 1.17 2.83 1.17s2.07-.42 2.83-1.17l35.16-35.17c.76-.76 1.17-1.76 1.17-2.83s-.42-2.07-1.17-2.83-1.81-1.17-2.83-1.17Zm-2.07 78.27c-1.54 0-3.07-.59-4.24-1.76a5.991 5.991 0 0 1 0-8.48l21.51-21.51c2.34-2.34 6.14-2.34 8.49 0a5.991 5.991 0 0 1 0 8.48l-21.51 21.51a5.991 5.991 0 0 1-4.24 1.76Z"></path><path d="M238.65 320.88c-2.14 0-4.15-.83-5.66-2.34s-2.34-3.52-2.34-5.66.83-4.15 2.34-5.66l21.51-21.51c3.12-3.12 8.2-3.12 11.32 0 1.51 1.51 2.34 3.52 2.34 5.66s-.83 4.15-2.34 5.66l-21.51 21.51a7.949 7.949 0 0 1-5.66 2.34Zm21.51-33.52c-1.02 0-2.05.39-2.83 1.17l-21.51 21.51c-.76.76-1.17 1.76-1.17 2.83s.42 2.07 1.17 2.83c1.51 1.51 4.15 1.51 5.66 0l21.51-21.51c.76-.76 1.17-1.76 1.17-2.83s-.42-2.07-1.17-2.83-1.81-1.17-2.83-1.17Zm11.58 64.62c-1.54 0-3.07-.59-4.24-1.76a5.991 5.991 0 0 1 0-8.48l21.51-21.51c2.34-2.34 6.14-2.34 8.49 0a5.991 5.991 0 0 1 0 8.48l-21.51 21.51a5.991 5.991 0 0 1-4.24 1.76Z"></path><path d="M271.74 353.97c-2.14 0-4.15-.83-5.66-2.34-1.51-1.51-2.34-3.52-2.34-5.66s.83-4.15 2.34-5.66l21.51-21.51c3.12-3.12 8.2-3.12 11.32 0 1.51 1.51 2.34 3.52 2.34 5.66s-.83 4.15-2.34 5.66l-21.51 21.51a7.949 7.949 0 0 1-5.66 2.34Zm21.51-33.52c-1.02 0-2.05.39-2.83 1.17l-21.51 21.51c-.76.76-1.17 1.76-1.17 2.83s.42 2.07 1.17 2.83c1.51 1.51 4.15 1.51 5.66 0l21.51-21.51c.76-.76 1.17-1.76 1.17-2.83s-.42-2.07-1.17-2.83-1.81-1.17-2.83-1.17Zm44.68 97.72c-1.54 0-3.07-.59-4.24-1.76a5.991 5.991 0 0 1 0-8.48l21.51-21.51c2.34-2.34 6.14-2.34 8.49 0a5.991 5.991 0 0 1 0 8.48l-21.51 21.51a5.991 5.991 0 0 1-4.24 1.76Z"></path><path d="M337.93 420.17c-2.14 0-4.15-.83-5.66-2.34-1.51-1.51-2.34-3.52-2.34-5.66s.83-4.15 2.34-5.66L353.78 385c3.12-3.12 8.2-3.12 11.32 0 1.51 1.51 2.34 3.52 2.34 5.66s-.83 4.15-2.34 5.66l-21.51 21.51a7.949 7.949 0 0 1-5.66 2.34Zm21.51-33.52c-1.02 0-2.05.39-2.83 1.17l-21.51 21.51c-.76.76-1.17 1.76-1.17 2.83s.42 2.07 1.17 2.83c1.51 1.51 4.15 1.51 5.66 0l21.51-21.51c.76-.76 1.17-1.76 1.17-2.83s-.42-2.07-1.17-2.83-1.81-1.17-2.83-1.17Zm11.59 64.62c-1.54 0-3.07-.59-4.24-1.76a5.991 5.991 0 0 1 0-8.48l21.51-21.51c2.34-2.34 6.14-2.34 8.49 0a5.991 5.991 0 0 1 0 8.48l-21.51 21.51a5.991 5.991 0 0 1-4.24 1.76Z"></path><path d="M371.03 453.27c-2.14 0-4.15-.83-5.66-2.34s-2.34-3.52-2.34-5.66.83-4.15 2.34-5.66l21.51-21.51c3.12-3.12 8.2-3.12 11.32 0 1.51 1.51 2.34 3.52 2.34 5.66s-.83 4.15-2.34 5.66l-21.51 21.51a7.949 7.949 0 0 1-5.66 2.34Zm21.51-33.52c-1.02 0-2.05.39-2.83 1.17l-21.51 21.51c-.76.76-1.17 1.76-1.17 2.83s.42 2.07 1.17 2.83c1.51 1.51 4.15 1.51 5.66 0l21.51-21.51c.76-.76 1.17-1.76 1.17-2.83s-.42-2.07-1.17-2.83-1.81-1.17-2.83-1.17Zm11.58 64.61c-1.54 0-3.07-.59-4.24-1.76a5.991 5.991 0 0 1 0-8.48l35.16-35.17c2.34-2.34 6.14-2.34 8.49 0a5.991 5.991 0 0 1 0 8.48l-35.16 35.17a5.991 5.991 0 0 1-4.24 1.76Z"></path><path d="M404.12 486.36c-2.14 0-4.15-.83-5.66-2.34s-2.34-3.52-2.34-5.66.83-4.15 2.34-5.66l35.16-35.17c3.12-3.12 8.2-3.12 11.32 0 1.51 1.51 2.34 3.52 2.34 5.66s-.83 4.15-2.34 5.66l-35.16 35.17a7.949 7.949 0 0 1-5.66 2.34Zm35.16-47.17c-1.03 0-2.05.39-2.83 1.17l-35.16 35.17c-.76.76-1.17 1.76-1.17 2.83s.42 2.07 1.17 2.83c.76.76 1.76 1.17 2.83 1.17s2.07-.42 2.83-1.17l35.16-35.17c.76-.76 1.17-1.76 1.17-2.83s-.42-2.07-1.17-2.83a3.998 3.998 0 0 0-2.83-1.17Zm-134.63-54.3c-1.54 0-3.07-.59-4.24-1.76a5.991 5.991 0 0 1 0-8.48l35.16-35.17c2.34-2.34 6.14-2.34 8.49 0a5.991 5.991 0 0 1 0 8.48l-35.16 35.17a5.991 5.991 0 0 1-4.24 1.76Z"></path><path d="M304.65 386.89c-2.14 0-4.15-.83-5.66-2.34s-2.34-3.52-2.34-5.66.83-4.15 2.34-5.66l35.16-35.17c3.12-3.12 8.2-3.12 11.32 0 1.51 1.51 2.34 3.52 2.34 5.66s-.83 4.15-2.34 5.66l-35.16 35.17a7.949 7.949 0 0 1-5.66 2.34Zm35.16-47.17c-1.02 0-2.05.39-2.83 1.17l-35.16 35.17c-.76.76-1.17 1.76-1.17 2.83s.42 2.07 1.17 2.83c1.51 1.51 4.15 1.51 5.66 0l35.16-35.17a4.004 4.004 0 0 0 0-5.66 3.998 3.998 0 0 0-2.83-1.17Zm97.4 177.74c-1.54 0-3.07-.59-4.24-1.76a5.991 5.991 0 0 1 0-8.48l21.51-21.51c2.34-2.34 6.14-2.34 8.49 0a5.991 5.991 0 0 1 0 8.48l-21.51 21.51a5.991 5.991 0 0 1-4.24 1.76Z"></path><path d="M437.21 519.46c-2.14 0-4.15-.83-5.66-2.34-1.51-1.51-2.34-3.52-2.34-5.66s.83-4.15 2.34-5.66l21.51-21.51c1.51-1.51 3.52-2.34 5.66-2.34s4.15.83 5.66 2.34c1.51 1.51 2.34 3.52 2.34 5.66s-.83 4.15-2.34 5.66l-21.51 21.51a7.949 7.949 0 0 1-5.66 2.34Zm21.51-33.52c-1.07 0-2.07.42-2.83 1.17l-21.51 21.51a4.004 4.004 0 0 0 0 5.66c1.51 1.51 4.15 1.51 5.66 0l21.51-21.51c.76-.76 1.17-1.76 1.17-2.83s-.42-2.07-1.17-2.83a3.962 3.962 0 0 0-2.83-1.17Zm42.77-253.69c-1.54 0-3.07-.59-4.24-1.76l-42.87-42.87a5.991 5.991 0 0 1 0-8.48c2.34-2.34 6.14-2.34 8.49 0l42.87 42.87a5.991 5.991 0 0 1 0 8.48 5.991 5.991 0 0 1-4.24 1.76Z"></path><path d="M501.49 234.25c-2.14 0-4.15-.83-5.66-2.34l-42.88-42.88c-1.51-1.51-2.34-3.52-2.34-5.66s.83-4.15 2.34-5.66c3.12-3.12 8.2-3.12 11.32 0l42.88 42.88c1.51 1.51 2.34 3.52 2.34 5.66s-.83 4.15-2.34 5.66a7.949 7.949 0 0 1-5.66 2.34Zm-42.88-54.88c-1.02 0-2.05.39-2.83 1.17s-1.17 1.76-1.17 2.83.42 2.08 1.17 2.83l42.88 42.88c1.51 1.51 4.15 1.51 5.66 0 .76-.76 1.17-1.76 1.17-2.83s-.42-2.07-1.17-2.83l-42.88-42.88a3.998 3.998 0 0 0-2.83-1.17Z"></path></g></svg>