<svg xmlns="http://www.w3.org/2000/svg" viewBox="0 0 700 700"><path  d="M547.96 558.56H152.04c-11.09 0-20.11-9.02-20.11-20.11v-93.61c0-11.09 9.02-20.11 20.11-20.11h395.92c11.09 0 20.11 9.02 20.11 20.11v93.61c0 11.09-9.02 20.11-20.11 20.11ZM152.04 440.5c-2.4 0-4.35 1.95-4.35 4.35v93.61c0 2.4 1.95 4.35 4.35 4.35h395.92c2.4 0 4.35-1.95 4.35-4.35v-93.61c0-2.4-1.95-4.35-4.35-4.35H152.04Z"/><path  d="M208.02 525.14c-4.35 0-7.88-3.53-7.88-7.88v-49.53c0-4.35 3.53-7.88 7.88-7.88s7.88 3.53 7.88 7.88v49.53c0 4.35-3.53 7.88-7.88 7.88Zm31.55 0c-4.35 0-7.88-3.53-7.88-7.88v-49.53c0-4.35 3.53-7.88 7.88-7.88s7.88 3.53 7.88 7.88v49.53c0 4.35-3.53 7.88-7.88 7.88Zm31.55 0c-4.35 0-7.88-3.53-7.88-7.88v-49.53c0-4.35 3.53-7.88 7.88-7.88s7.88 3.53 7.88 7.88v49.53c0 4.35-3.53 7.88-7.88 7.88Zm31.55 0c-4.35 0-7.88-3.53-7.88-7.88v-49.53c0-4.35 3.53-7.88 7.88-7.88s7.88 3.53 7.88 7.88v49.53c0 4.35-3.53 7.88-7.88 7.88Zm31.56 0c-4.35 0-7.88-3.53-7.88-7.88v-49.53c0-4.35 3.53-7.88 7.88-7.88s7.88 3.53 7.88 7.88v49.53c0 4.35-3.53 7.88-7.88 7.88Zm31.55 0c-4.35 0-7.88-3.53-7.88-7.88v-49.53c0-4.35 3.53-7.88 7.88-7.88s7.88 3.53 7.88 7.88v49.53c0 4.35-3.53 7.88-7.88 7.88Zm31.55 0c-4.35 0-7.88-3.53-7.88-7.88v-49.53c0-4.35 3.53-7.88 7.88-7.88s7.88 3.53 7.88 7.88v49.53c0 4.35-3.53 7.88-7.88 7.88Zm31.55 0c-4.35 0-7.88-3.53-7.88-7.88v-49.53c0-4.35 3.53-7.88 7.88-7.88s7.88 3.53 7.88 7.88v49.53c0 4.35-3.53 7.88-7.88 7.88Zm31.55 0c-4.35 0-7.88-3.53-7.88-7.88v-49.53c0-4.35 3.53-7.88 7.88-7.88s7.88 3.53 7.88 7.88v49.53c0 4.35-3.53 7.88-7.88 7.88Zm80.87-242.39H158.71c-6.83 0-13.03-3.47-16.61-9.29-3.57-5.82-3.87-12.92-.78-19.01l49.89-98.52c4.51-8.94 13.55-14.49 23.57-14.49h270.45c10.02 0 19.05 5.56 23.57 14.5l49.88 98.51c3.08 6.09 2.79 13.2-.78 19.01-3.57 5.82-9.78 9.29-16.61 9.29ZM214.77 157.2c-4.04 0-7.68 2.24-9.5 5.84l-49.89 98.53c-.82 1.62-.26 2.97.15 3.64.41.66 1.36 1.78 3.18 1.78H541.3c1.81 0 2.77-1.11 3.18-1.78.41-.66.97-2.02.15-3.64l-49.89-98.52a10.585 10.585 0 0 0-9.5-5.85H214.77Z"/><path  d="M219.74 256.81h-3.78c-4.35 0-7.88-3.53-7.88-7.88s3.53-7.88 7.88-7.88h3.78c4.35 0 7.88 3.53 7.88 7.88s-3.53 7.88-7.88 7.88Zm88.1 0h-3.78c-4.35 0-7.88-3.53-7.88-7.88s3.53-7.88 7.88-7.88h3.78c4.35 0 7.88 3.53 7.88 7.88s-3.53 7.88-7.88 7.88Zm88.1 0h-3.78c-4.35 0-7.88-3.53-7.88-7.88s3.53-7.88 7.88-7.88h3.78c4.35 0 7.88 3.53 7.88 7.88s-3.53 7.88-7.88 7.88Zm88.11 0h-3.78c-4.35 0-7.88-3.53-7.88-7.88s3.53-7.88 7.88-7.88h3.78c4.35 0 7.88 3.53 7.88 7.88s-3.53 7.88-7.88 7.88Zm-256.06-25.17h-3.54c-4.35 0-7.88-3.53-7.88-7.88s3.53-7.88 7.88-7.88h3.54c4.35 0 7.88 3.53 7.88 7.88s-3.53 7.88-7.88 7.88Zm82.52 0h-3.54c-4.35 0-7.88-3.53-7.88-7.88s3.53-7.88 7.88-7.88h3.54c4.35 0 7.88 3.53 7.88 7.88s-3.53 7.88-7.88 7.88Zm82.52 0h-3.54c-4.35 0-7.88-3.53-7.88-7.88s3.53-7.88 7.88-7.88h3.54c4.35 0 7.88 3.53 7.88 7.88s-3.53 7.88-7.88 7.88Zm82.52 0h-3.54c-4.35 0-7.88-3.53-7.88-7.88s3.53-7.88 7.88-7.88h3.54c4.35 0 7.88 3.53 7.88 7.88s-3.53 7.88-7.88 7.88Zm-239.61-26.02h-3.31c-4.35 0-7.88-3.53-7.88-7.88s3.53-7.88 7.88-7.88h3.31c4.35 0 7.88 3.53 7.88 7.88s-3.53 7.88-7.88 7.88Zm77.14 0h-3.31c-4.35 0-7.88-3.53-7.88-7.88s3.53-7.88 7.88-7.88h3.31c4.35 0 7.88 3.53 7.88 7.88s-3.53 7.88-7.88 7.88Zm77.15 0h-3.31c-4.35 0-7.88-3.53-7.88-7.88s3.53-7.88 7.88-7.88h3.31c4.35 0 7.88 3.53 7.88 7.88s-3.53 7.88-7.88 7.88Zm77.14 0h-3.31c-4.35 0-7.88-3.53-7.88-7.88s3.53-7.88 7.88-7.88h3.31c4.35 0 7.88 3.53 7.88 7.88s-3.53 7.88-7.88 7.88Zm-224.7-23.51h-3.11c-4.35 0-7.88-3.53-7.88-7.88s3.53-7.88 7.88-7.88h3.11c4.35 0 7.88 3.53 7.88 7.88s-3.53 7.88-7.88 7.88Zm72.59 0h-3.11c-4.35 0-7.88-3.53-7.88-7.88s3.53-7.88 7.88-7.88h3.11c4.35 0 7.88 3.53 7.88 7.88s-3.53 7.88-7.88 7.88Zm72.59 0h-3.11c-4.35 0-7.88-3.53-7.88-7.88s3.53-7.88 7.88-7.88h3.11c4.35 0 7.88 3.53 7.88 7.88s-3.53 7.88-7.88 7.88Zm72.6 0h-3.11c-4.35 0-7.88-3.53-7.88-7.88s3.53-7.88 7.88-7.88h3.11c4.35 0 7.88 3.53 7.88 7.88s-3.53 7.88-7.88 7.88ZM541.3 335.3H158.71c-6.83 0-13.03-3.47-16.61-9.29-3.57-5.82-3.87-12.92-.78-19.01l5.48-10.83c1.97-3.88 6.71-5.44 10.59-3.47 3.88 1.97 5.44 6.71 3.47 10.59l-5.48 10.83c-.82 1.62-.26 2.97.15 3.64.41.66 1.36 1.78 3.18 1.78H541.3c1.81 0 2.77-1.11 3.18-1.78.41-.66.97-2.02.15-3.64l-5.48-10.83c-1.97-3.88-.41-8.63 3.47-10.59 3.88-1.97 8.63-.41 10.59 3.47l5.48 10.83c3.08 6.09 2.79 13.2-.78 19.01-3.57 5.82-9.78 9.29-16.61 9.29Zm0 52.54H158.71c-6.83 0-13.03-3.47-16.61-9.29-3.57-5.82-3.87-12.92-.78-19.01l5.48-10.83c1.97-3.88 6.71-5.44 10.59-3.47 3.88 1.97 5.44 6.71 3.47 10.59l-5.48 10.83c-.82 1.62-.26 2.97.15 3.64.41.66 1.36 1.78 3.18 1.78H541.3c1.81 0 2.77-1.11 3.18-1.78s.97-2.02.15-3.64l-5.48-10.83c-1.97-3.88-.41-8.63 3.47-10.59 3.88-1.97 8.63-.41 10.59 3.47l5.48 10.83c3.08 6.09 2.79 13.2-.78 19.01-3.57 5.81-9.78 9.29-16.61 9.29Z"/></svg>