<svg xmlns="http://www.w3.org/2000/svg" viewBox="0 0 700 700"><path d="M478.67 190.16h-30.51c-2.26 0-4.32-1.28-5.32-3.31-1-2.03-.76-4.44.62-6.23l23.18-30.16h-18.48a5.93 5.93 0 0 1 0-11.86h30.51c2.26 0 4.32 1.28 5.32 3.31 1 2.03.76 4.44-.62 6.23l-23.18 30.16h18.48a5.93 5.93 0 0 1 0 11.86Zm77.24-46.86h-40.73c-2.26 0-4.32-1.28-5.32-3.31-1-2.03-.76-4.44.62-6.23l33.4-43.46h-28.69a5.93 5.93 0 0 1 0-11.86h40.73c2.26 0 4.32 1.28 5.32 3.31s.76 4.44-.62 6.23l-33.4 43.46h28.69a5.93 5.93 0 0 1 0 11.86Z"></path><g><path d="M226.47 281.14c-.11.78-.21 1.56-.3 2.35.22-.36.38-.84.35-1.45l-.05-.9ZM516.2 514.81c-.28-.44-.5-.9-.74-1.34 14.03-15.24 16.22-34.71 18.82-53.74 6.24-45.6 6.39-91.53 5.12-137.42-.61-22.45-2.4-44.89-4.32-67.28-1.27-14.84-4-29.52-9.39-43.53-2.91-7.55-6.7-14.48-14.81-17.75h-8.63c-17.88 4.35-27.22 17.78-34.75 32.97-1.47 2.98-2.91 3.75-6.16 3.18-10.26-1.78-20.59-3.17-30.7-4.68-.47-5.68-.45-11.31-1.53-16.73-1.1-5.5-2.12-11.4-7.68-14.74h-3.92c-10.24 8.69-22.86 10.92-35.47 11.6-22.29 1.18-44.64 1.55-66.97 1.68-8.96.05-17.56 1.12-25.78 3.36-2.73.74-4.64 3.21-4.76 6.03v.14c-.2 4.37 3.89 7.67 8.13 6.58 3.51-.9 7.1-1.51 10.74-1.8 17.94-1.42 36.05-.61 54.09-.91 16.76-.27 33.43-1.37 49.61-6.24 2.87-.87 5.65-2 8.67-3.08 3.17 7.93 1 16.85-5.39 22.72-.86.79-1.86 1.46-2.64 2.33-2.31 2.56-2.4 5.96-.34 8.6 2.01 2.57 5.47 3.3 8.46 1.68 1.24-.68 2.37-1.57 3.76-2.5 10.54 11.45 17.83 24.7 18.85 40.09 1.12 16.89.26 33.92.26 50.71-.05-.07-.45-.49-.68-.99-12.27-26.43-33.72-38.52-62.12-39.43-3.79-.12-5.51-1.04-6.19-4.88-.93-5.25-2.58-10.38-3.77-15.6-.73-3.21-2.22-5.63-5.61-6.28-3.41-.66-5.64 1.19-7.56 3.79-5.04 6.84-10.08 13.68-15.36 20.34-1.02 1.27-3.1 2.33-4.73 2.39-12.67.4-25.41-.21-38.01.9-25.03 2.2-43.2 15.01-54.23 37.72-.38.78-.79 1.54-1.86 2.27 0-1.22-.02-2.44 0-3.67.05-3.42.06-6.85.05-10.28-.01-5.3-5.91-8.44-10.34-5.53l-.14.09c-1.88 1.23-3 3.33-2.99 5.58.02 4.24.04 8.47.04 12.7-16.84 3.51-24.19 17.25-18.47 35.08 3.02 9.41 8.24 17.77 15.37 24.74 4.86 4.74 10.8 7.14 17.61 7.59 1.44.1 3.39.93 4.11 2.06 8.7 13.72 19.37 25.61 32.27 35.5.47.36.83.89 1.6 1.73-20.99 4.3-40.72 10.84-59.11 21s-34.3 23.32-48.09 40.84c-2.06-3.45-4.49-6.14-5.38-9.27-2.77-9.77-5.67-19.59-7.23-29.6-5.68-36.4-6.75-73.16-6.2-109.89.06-3.81.14-7.61.23-11.41.09-3.53-2.52-6.56-6.03-6.95l-.14-.02c-4.06-.45-7.61 2.69-7.61 6.77v44.73c.53 10.15.98 20.3 1.59 30.44 1.36 22.57 3.09 45.09 8.59 67.12 1.16 4.67 2.4 9.42 4.44 13.74 2.52 5.34 5.91 10.27 9.27 15.94-2.8 5.29-6.4 11.49-9.44 17.95-7.35 15.58-11.94 31.98-13.75 49.14-.1.89-.46 1.75-.7 2.62v7.06c2.04 3.81 5.26 4.78 9.45 4.78 127.62-.08 255.25-.07 382.88-.07 7.69 0 9.93-2.6 9.2-10.38-2.36-25.27-10.04-48.75-23.49-70.31ZM231.94 383.99c-7.87-7.1-13.27-15.57-13.16-26.49.08-8.83 2.48-10.58 11.14-9.28 1.51.22 2.98.67 4.67 1.05-3.01 12.3-3.93 24.28.98 37.21-1.89-1.28-2.85-1.79-3.63-2.49Zm206.07 17.33c8.97-.49 16.12-4.42 21.46-11.38 6.54-8.54 12.97-17.46 13.15-28.71.09-5.71-1.06-11.76-3.11-17.09-2.69-6.98-9.25-9.44-16.67-10.04 0-9.32-.36-18.48.07-27.59 1.15-24.39-3.38-47.07-19.84-67.37 7.38 1.04 13.81 1.58 20.07 2.91 16.95 3.62 33.85 7.55 50.75 11.44 4.44 1.02 7.87-.55 9-4.48 1.03-3.61-.9-6.96-5.24-8.26-9.23-2.76-18.52-5.31-28.4-8.12 5.73-10.18 10.84-20.72 23.13-24.91 3.92-1.34 7.01-.27 8.31 3.45 2.93 8.33 6.21 16.67 7.9 25.29 6.32 32.33 7.59 65.17 7.67 97.97.07 31.36-.86 62.74-2.25 94.07-.9 20.21-3.26 40.38-9.27 59.88-1.49 4.82-3.08 9.7-7.57 13.45-27.75-34.78-64.69-52.56-106.8-61.32l-.11-1.28c.93-.34 1.91-.61 2.66-1.19 12.33-9.53 22.5-21.01 30.95-34.09.82-1.28 2.7-2.55 4.15-2.63Zm5.35-52.43c3.71-.42 7.06-1.23 10.32-.97 1.62.13 4.05 1.95 4.44 3.44.91 3.43 1.6 7.29.94 10.7-1.91 9.88-6.97 18-15.73 23.69 3.93-12.1 3.29-24.15.03-36.86Zm-192.45 39.89c-8.69-16.37-6.3-32.73.71-48.73 9.54-21.78 27.37-31.44 50.37-32.34 11.75-.47 23.54-.21 35.3-.1 3.64.03 6.19-1.27 8.27-4.2 3.23-4.55 6.7-8.94 10.47-13.94 1.04 4.19 1.9 7.7 2.8 11.19 1.38 5.4 3.26 6.95 8.8 6.88 9.99-.14 19.89.47 29.31 4.12 19.18 7.41 29.13 22.38 33.93 41.61 3.57 14.33 1.42 27.57-6.25 40.23-10.51 17.34-24.12 31.48-41.56 41.83-1.86 1.1-4.45 1.74-6.58 1.52-18.9-1.98-37.81-2.7-56.78-1.44-5.34.35-10.7.68-16.01 1.38-3.82.51-7.01-.18-10.32-2.28-18.18-11.54-32.36-26.73-42.46-45.73Zm-99.64 193.13c2.11-9.38 3.53-18.54 6.25-27.29 13.61-43.73 42.91-72.94 84.84-90.02 24.45-9.97 50.13-14.33 76.37-15.82 27.79-1.58 55.41-.32 82.69 5.51 32.43 6.94 61.87 19.88 85.54 43.89 21.85 22.16 34.28 48.97 38.7 79.64.18 1.27.15 2.57.23 4.09H151.27Z"></path><path d="M339.44 428.24c-13.49.11-24.03-4.57-31.71-15.07-2.93-4-2.64-7.95.59-10.38 3.21-2.42 7.32-1.72 10.04 2.43 8.43 12.87 32.9 13.06 41.5-.16 2.63-4.04 6.92-4.68 10.08-2.2 3.09 2.42 3.38 6.2.6 10.07-7.79 10.85-18.57 15.55-31.1 15.31Zm46.57-53.79c-10.44.05-19.06-7.71-20.14-18.13-.46-4.47 1.79-7.83 5.68-8.47 3.83-.63 6.83 1.94 7.61 6.54.75 4.43 3.05 6.68 6.82 6.64 3.65-.04 5.8-2.15 6.55-6.4.82-4.67 3.69-7.29 7.49-6.81 3.91.49 6.07 3.56 5.82 8.28-.54 10.13-9.36 18.3-19.83 18.36Zm-93.89 0c-10.45-.02-19.32-8.19-19.88-18.3-.26-4.76 1.85-7.81 5.76-8.34 3.8-.51 6.73 2.1 7.55 6.74.78 4.44 3.07 6.59 6.88 6.46 3.43-.11 5.73-2.32 6.45-6.19.94-5.08 3.69-7.61 7.59-7 4.27.67 6.46 4.43 5.55 9.58-1.78 10.14-9.85 17.05-19.9 17.03Z"></path></g><path fill="#fff" d="M136.41 163.93c-11.54 0-21.4 10.24-21.4 22.17s9.86 22.17 22.18 22.17 22.04-9.98 22.04-22.3-9.86-22.04-22.82-22.04Zm3.5 92.71h3.19c.23-2.64.47-5.28.72-7.92l.21-2.06-4.12 9.98Zm-3.5-92.71c-11.54 0-21.4 10.24-21.4 22.17s9.86 22.17 22.18 22.17 22.04-9.98 22.04-22.3-9.86-22.04-22.82-22.04Zm3.5 92.71h3.19c.23-2.64.47-5.28.72-7.92l.21-2.06-4.12 9.98Zm0 0h3.19c.23-2.64.47-5.28.72-7.92l.21-2.06-4.12 9.98Zm-3.5-92.71c-11.54 0-21.4 10.24-21.4 22.17s9.86 22.17 22.18 22.17 22.04-9.98 22.04-22.3-9.86-22.04-22.82-22.04Zm0 0c-11.54 0-21.4 10.24-21.4 22.17s9.86 22.17 22.18 22.17 22.04-9.98 22.04-22.3-9.86-22.04-22.82-22.04Zm3.5 92.71h3.19c.23-2.64.47-5.28.72-7.92l.21-2.06-4.12 9.98Zm0 0h3.19c.23-2.64.47-5.28.72-7.92l.21-2.06-4.12 9.98Zm-3.5-92.71c-11.54 0-21.4 10.24-21.4 22.17s9.86 22.17 22.18 22.17 22.04-9.98 22.04-22.3-9.86-22.04-22.82-22.04Zm0 0c-11.54 0-21.4 10.24-21.4 22.17s9.86 22.17 22.18 22.17 22.04-9.98 22.04-22.3-9.86-22.04-22.82-22.04Zm6.69 92.71c.23-2.64.47-5.28.72-7.92l.21-2.06-4.12 9.98h3.19Zm83.37 24.5c-.11.78-.21 1.56-.3 2.35.22-.36.38-.84.35-1.45l-.05-.9Zm-90.06-117.21c-11.54 0-21.4 10.24-21.4 22.17s9.86 22.17 22.18 22.17 22.04-9.98 22.04-22.3-9.86-22.04-22.82-22.04Zm6.69 92.71c.23-2.64.47-5.28.72-7.92l.21-2.06-4.12 9.98h3.19Zm-3.19 0h3.19c.23-2.64.47-5.28.72-7.92l.21-2.06-4.12 9.98Zm-3.5-92.71c-11.54 0-21.4 10.24-21.4 22.17s9.86 22.17 22.18 22.17 22.04-9.98 22.04-22.3-9.86-22.04-22.82-22.04Zm0 0c-11.54 0-21.4 10.24-21.4 22.17s9.86 22.17 22.18 22.17 22.04-9.98 22.04-22.3-9.86-22.04-22.82-22.04Zm3.5 92.71h3.19c.23-2.64.47-5.28.72-7.92l.21-2.06-4.12 9.98Zm0 0h3.19c.23-2.64.47-5.28.72-7.92l.21-2.06-4.12 9.98Zm-3.5-92.71c-11.54 0-21.4 10.24-21.4 22.17s9.86 22.17 22.18 22.17 22.04-9.98 22.04-22.3-9.86-22.04-22.82-22.04Zm0 0c-11.54 0-21.4 10.24-21.4 22.17s9.86 22.17 22.18 22.17 22.04-9.98 22.04-22.3-9.86-22.04-22.82-22.04Zm3.5 92.71h3.19c.23-2.64.47-5.28.72-7.92l.21-2.06-4.12 9.98Z"></path><g><path d="M271.55 217.37c-.68-1.17-1.51-2.28-2.47-3.3l-17.5-18.51a2.57 2.57 0 0 1-.5-2.79l10.12-23.39c2.23-5.15 1.89-10.9-.91-15.76-2.81-4.86-7.62-8.02-13.2-8.67l-25.31-2.93a2.594 2.594 0 0 1-2.17-1.82l-7.28-24.42c-1.61-5.38-5.56-9.57-10.83-11.49-5.28-1.92-10.99-1.25-15.68 1.84l-21.28 14.02c-.86.57-1.97.57-2.83 0l-21.28-14.02c-4.69-3.09-10.4-3.76-15.67-1.84-5.28 1.92-9.23 6.11-10.83 11.49l-7.29 24.42a2.57 2.57 0 0 1-2.17 1.82l-25.31 2.93c-5.58.65-10.39 3.81-13.19 8.67-2.81 4.86-3.14 10.61-.91 15.76l10.11 23.39c.41.94.22 2.04-.49 2.79l-17.5 18.52c-3.86 4.08-5.51 9.59-4.54 15.12.98 5.53 4.41 10.14 9.43 12.66l22.79 11.41c.92.46 1.47 1.42 1.41 2.45l-1.5 25.44c-.34 5.6 1.94 10.89 6.24 14.5 4.3 3.61 9.9 4.93 15.37 3.63l24.78-5.9c1.01-.24 2.05.14 2.67.97l5.91 7.95 9.28 12.5c1.07 1.43 2.31 2.67 3.7 3.69 2.97 2.2 6.58 3.41 10.41 3.41 5.61 0 10.75-2.59 14.1-7.1l15.2-20.45a2.56 2.56 0 0 1 2.66-.97l24.79 5.9c1.79.43 3.6.57 5.37.44 3.63-.25 7.1-1.65 9.99-4.07 1.53-1.28 2.8-2.77 3.79-4.41 1.8-2.99 2.67-6.47 2.46-10.09l-.37-6.2-1.14-19.24a2.57 2.57 0 0 1 1.42-2.45l15.26-7.64 7.52-3.77c4.25-2.13 7.37-5.77 8.8-10.19.27-.8.48-1.62.63-2.47.74-4.15-.01-8.29-2.06-11.83Zm-36.87 22.49a17.547 17.547 0 0 0-9.67 16.75l1.46 24.53.05.9c.03.61-.13 1.09-.35 1.45-.18.31-.4.53-.57.68-.37.31-1.15.79-2.25.53l-24.79-5.9c-6.83-1.63-13.97.97-18.17 6.62l-15.2 20.45c-.67.9-1.58 1.04-2.06 1.04s-1.4-.14-2.07-1.04l-7.3-9.83-7.9-10.62c-1.3-1.75-2.89-3.22-4.67-4.35-2.8-1.79-6.07-2.75-9.42-2.75-1.35 0-2.72.16-4.08.48l-24.79 5.9c-1.09.26-1.88-.22-2.25-.53-.37-.31-.98-1-.91-2.12l1.5-25.44a17.55 17.55 0 0 0-9.67-16.75l-22.78-11.41c-1-.51-1.29-1.38-1.38-1.86-.08-.47-.11-1.39.66-2.21l17.51-18.52a17.569 17.569 0 0 0 3.36-19.05l-10.12-23.38c-.44-1.04-.11-1.89.14-2.31.24-.42.81-1.14 1.93-1.27l25.31-2.94c6.99-.81 12.8-5.69 14.81-12.43l7.29-24.41c.32-1.08 1.13-1.52 1.58-1.69.46-.16 1.36-.35 2.3.27l21.28 14.03a17.56 17.56 0 0 0 19.34 0l21.27-14.03c.94-.62 1.85-.43 2.3-.27.45.17 1.26.61 1.58 1.69l7.29 24.41a17.556 17.556 0 0 0 14.81 12.43l25.32 2.94c1.11.13 1.69.85 1.93 1.27.24.42.58 1.27.13 2.31l-10.11 23.39a17.537 17.537 0 0 0 3.36 19.04l17.46 18.48.04.04c.77.82.75 1.74.66 2.21-.08.48-.37 1.35-1.38 1.86l-22.78 11.41Z"></path><path d="M139.91 256.64h3.19c.23-2.64.47-5.28.72-7.92l.21-2.06-4.12 9.98Zm-3.5-92.71c-11.54 0-21.4 10.24-21.4 22.17s9.86 22.17 22.18 22.17 22.04-9.98 22.04-22.3-9.86-22.04-22.82-22.04Zm.65 30.6c-4.67 0-8.43-3.89-8.43-8.56s3.76-8.43 8.82-8.43c4.27 0 8.03 3.89 8.03 8.43s-3.76 8.56-8.42 8.56Zm77.25 35.63a21.413 21.413 0 0 0-7.87-11.18c-3.84-2.83-8.72-4.48-14.15-4.48-1.73 0-3.43.24-5.06.68-9.15 2.5-16.33 11.48-16.33 21.49 0 1.28.11 2.54.32 3.76.79 4.66 3.03 8.81 6.23 11.98a22.11 22.11 0 0 0 15.62 6.43c9.82 0 18.06-6.25 21-15.03a22.13 22.13 0 0 0 1.17-7.14c0-2.28-.32-4.46-.93-6.51Zm-21.24 15.07c-4.57 0-8.28-3.86-8.42-8.65-.01-.1-.01-.2-.01-.3 0-4.8 3.5-8.04 8.69-8.04 1.25 0 2.44.28 3.51.77 2.82 1.29 4.79 4.07 4.79 7.27 0 4.8-4.02 8.95-8.56 8.95Z"></path><path d="m190.09 165.62-11.88 28.76-5.24 12.67-15.27 36.97-5.21 12.62h-9.39c.23-2.64.47-5.28.72-7.92l.21-2.06 21.56-52.19 11.92-28.85h12.58Z"></path></g></svg>