<svg xmlns="http://www.w3.org/2000/svg" xml:space="preserve" fill-rule="evenodd" clip-rule="evenodd" viewBox="0 0 9.3 9.3"><defs></defs><path id="Layer_x0020_1" d="M3.43 9.3c-.22-.1-.26-.2-.22-.44.06-.32.11-.63.16-.95.01-.04-.01-.1-.04-.13-.24-.23-.48-.47-.72-.7-.11-.09-.15-.21-.11-.34.04-.14.14-.2.28-.22.33-.05.66-.1.99-.14.07-.01.11-.04.15-.11.14-.29.29-.59.44-.88.06-.13.15-.21.29-.21.15 0 .24.08.3.21.14.3.3.59.44.89.03.06.07.09.14.1.34.04.68.09 1.02.14.12.02.22.09.26.21.04.13.01.24-.09.33l-.75.72c-.04.04-.05.07-.04.13.06.33.12.65.17.98.04.21-.02.32-.23.41h-.13c-.06-.03-.12-.06-.19-.09-.27-.14-.55-.29-.83-.43-.03-.02-.09-.02-.12-.01-.34.18-.68.36-1.02.53h-.15zM1.78 5.02c-.13.26-.25.5-.36.74-.06.13-.14.17-.27.18-.25.03-.5.07-.75.11-.01 0-.02.01-.04.01l.15.15c.15.15.31.31.47.46.06.05.08.11.06.2-.05.28-.09.56-.14.86.04-.02.06-.04.09-.05.23-.12.45-.23.68-.35.08-.05.15-.05.23-.01.27.15.54.29.81.43.07.03.11.09.09.17-.01.08-.06.12-.13.13-.04 0-.09-.02-.12-.04-.23-.11-.46-.23-.69-.35a.12.12 0 0 0-.15-.01c-.23.13-.46.24-.69.36-.11.06-.22.08-.33 0-.11-.08-.13-.19-.11-.32.05-.25.09-.51.14-.76.01-.06 0-.09-.04-.12-.19-.18-.38-.36-.56-.54-.09-.09-.14-.19-.11-.31.04-.13.13-.19.26-.21.26-.03.52-.07.78-.1.06-.01.09-.04.12-.1.11-.22.23-.45.34-.67.05-.12.13-.21.27-.21s.22.09.28.21c.11.23.23.46.34.68.02.05.04.07.1.08.26.03.53.07.79.11.13.02.18.09.16.19-.01.09-.09.14-.21.12-.3-.04-.59-.09-.89-.13-.09-.01-.14-.06-.18-.14-.13-.25-.25-.5-.39-.77zM7.45 2.8c0 1.16-.75 2.23-1.85 2.62-.11.04-.2.01-.23-.09-.03-.08.01-.16.12-.2.24-.09.46-.21.65-.36.03-.02.05-.05.06-.08.04-.51-.22-.97-.66-1.19-.06-.03-.1-.02-.16.01-.49.29-.98.29-1.46 0-.06-.03-.1-.03-.16 0-.44.21-.71.68-.66 1.18.01.03.03.06.05.08.21.11.41.22.61.34.02.01.04.01.06.02.1.04.14.12.11.21-.03.08-.11.12-.22.08-.72-.27-1.25-.74-1.58-1.43A2.8 2.8 0 0 1 3.91.1c1.62-.45 3.28.64 3.5 2.32.02.12.03.25.04.38zm-3.86.43c-.53-.65-.38-1.47.11-1.92.5-.47 1.26-.51 1.8-.09.26.2.44.47.51.8.1.45-.01.85-.3 1.22.47.26.73.65.8 1.18.8-.86.9-2.42-.15-3.43C5.32 0 3.65.1 2.75 1.2c-.91 1.09-.63 2.54.04 3.21.1-.56.24-.77.8-1.18zm2.15-.9c0-.6-.49-1.09-1.09-1.09-.59 0-1.08.49-1.09 1.08a1.09 1.09 0 0 0 2.18.01zM9.3 6.11c-.05.06-.1.14-.16.2-.16.16-.33.33-.5.48-.05.05-.07.09-.05.15.04.25.08.5.13.74.03.2-.05.35-.23.38-.06 0-.13-.01-.19-.04-.22-.11-.44-.22-.65-.34-.09-.05-.16-.06-.25 0-.22.12-.44.23-.66.34-.09.05-.16.03-.21-.03-.06-.08-.05-.18.05-.23.29-.16.57-.31.87-.45.04-.02.12-.01.17.01.23.11.46.24.69.36.03.01.05.02.1.04a5.34 5.34 0 0 1-.09-.53c-.02-.1-.03-.21-.06-.31-.02-.09.01-.16.08-.23.18-.17.36-.34.54-.52.02-.02.04-.03.08-.07-.19-.03-.37-.06-.54-.08-.11-.02-.22-.04-.34-.05-.08-.01-.13-.05-.17-.12-.11-.24-.23-.47-.34-.69-.02-.03-.03-.06-.05-.09-.13.25-.26.5-.38.75a.27.27 0 0 1-.21.16c-.3.03-.6.08-.89.12-.1.02-.18-.04-.19-.12-.01-.1.03-.17.14-.18l.81-.12c.04-.01.08-.04.1-.08a14 14 0 0 0 .34-.67c.06-.12.13-.22.28-.22.14 0 .22.09.28.22.1.21.22.43.32.65.03.07.08.1.15.11.24.03.47.07.7.09.15.02.27.07.33.22v.15zm-6.49.72-.01.02a.5.5 0 0 1 .08.07c.25.23.49.47.74.71.07.06.1.14.08.24-.07.35-.13.71-.19 1.07v.05c.04-.02.06-.03.09-.05l.93-.48c.09-.05.16-.05.25 0 .31.16.62.32.92.48a.3.3 0 0 0 .1.04c-.01-.03-.01-.04-.01-.06l-.18-1.06c-.02-.1 0-.17.07-.23l.75-.72c.02-.02.06-.03.08-.05-.03-.03-.04-.04-.06-.04l-1.06-.15a.262.262 0 0 1-.23-.16c-.15-.31-.31-.62-.46-.92-.01-.03-.03-.06-.05-.1-.18.36-.35.7-.51 1.04-.04.08-.1.12-.2.14-.18.02-.36.05-.54.07l-.59.09z" class="fil0"></path></svg>