<svg xmlns="http://www.w3.org/2000/svg" viewBox="0 0 700 700"><path d="M393.51 599.6H164.14c-12.69 0-23.02-10.33-23.02-23.02V126.49c0-12.57 10.23-22.8 22.8-22.8h229.8c12.57 0 22.8 10.23 22.8 22.8v450.1c0 12.69-10.33 23.02-23.02 23.02ZM163.93 114.49c-6.61 0-12 5.38-12 12v450.1c0 6.73 5.48 12.21 12.21 12.21h229.37c6.73 0 12.21-5.48 12.21-12.21v-450.1c0-6.61-5.38-12-12-12H163.93Z"></path><path d="M369.97 141.1H187.69c-2.98 0-5.4-2.42-5.4-5.4s2.42-5.4 5.4-5.4h182.27c2.98 0 5.4 2.42 5.4 5.4s-2.42 5.4-5.4 5.4Zm0 45.57H187.69c-2.98 0-5.4-2.42-5.4-5.4s2.42-5.4 5.4-5.4h182.27c2.98 0 5.4 2.42 5.4 5.4s-2.42 5.4-5.4 5.4Z"></path><path d="M369.97 186.67c-2.98 0-5.4-2.42-5.4-5.4s2.42-5.4 5.4-5.4c9.59 0 17.38-7.8 17.38-17.38s-7.8-17.38-17.38-17.38c-2.98 0-5.4-2.42-5.4-5.4s2.42-5.4 5.4-5.4c15.54 0 28.19 12.64 28.19 28.19s-12.65 28.19-28.19 28.19Zm-182.28 0c-15.54 0-28.19-12.65-28.19-28.19s12.65-28.19 28.19-28.19c2.98 0 5.4 2.42 5.4 5.4s-2.42 5.4-5.4 5.4c-9.59 0-17.38 7.8-17.38 17.38s7.8 17.38 17.38 17.38c2.98 0 5.4 2.42 5.4 5.4s-2.42 5.4-5.4 5.4Zm161.39 0h-18.57c-2.98 0-5.4-2.42-5.4-5.4V135.7c0-2.98 2.42-5.4 5.4-5.4h18.57c2.98 0 5.4 2.42 5.4 5.4v45.57c0 2.98-2.42 5.4-5.4 5.4Zm-13.17-10.81h7.77V141.1h-7.77v34.76Zm-108.76 10.81h-18.57c-2.98 0-5.4-2.42-5.4-5.4V135.7c0-2.98 2.42-5.4 5.4-5.4h18.57c2.98 0 5.4 2.42 5.4 5.4v45.57c0 2.98-2.42 5.4-5.4 5.4Zm-13.17-10.81h7.77V141.1h-7.77v34.76Z"></path><path d="M369.97 186.67H187.69c-2.98 0-5.4-2.42-5.4-5.4s2.42-5.4 5.4-5.4h182.27c2.98 0 5.4 2.42 5.4 5.4s-2.42 5.4-5.4 5.4Zm0 45.57H187.69c-2.98 0-5.4-2.42-5.4-5.4s2.42-5.4 5.4-5.4h182.27c2.98 0 5.4 2.42 5.4 5.4s-2.42 5.4-5.4 5.4Z"></path><path d="M369.97 232.24c-2.98 0-5.4-2.42-5.4-5.4s2.42-5.4 5.4-5.4c9.59 0 17.38-7.8 17.38-17.38s-7.8-17.38-17.38-17.38c-2.98 0-5.4-2.42-5.4-5.4s2.42-5.4 5.4-5.4c15.54 0 28.19 12.64 28.19 28.18s-12.65 28.19-28.19 28.19Zm-182.28 0c-15.54 0-28.19-12.65-28.19-28.19s12.65-28.18 28.19-28.18c2.98 0 5.4 2.42 5.4 5.4s-2.42 5.4-5.4 5.4c-9.59 0-17.38 7.8-17.38 17.38s7.8 17.38 17.38 17.38c2.98 0 5.4 2.42 5.4 5.4s-2.42 5.4-5.4 5.4Zm161.39 0h-18.57c-2.98 0-5.4-2.42-5.4-5.4v-45.57c0-2.98 2.42-5.4 5.4-5.4h18.57c2.98 0 5.4 2.42 5.4 5.4v45.57c0 2.98-2.42 5.4-5.4 5.4Zm-13.17-10.81h7.77v-34.76h-7.77v34.76Zm-108.76 10.81h-18.57c-2.98 0-5.4-2.42-5.4-5.4v-45.57c0-2.98 2.42-5.4 5.4-5.4h18.57c2.98 0 5.4 2.42 5.4 5.4v45.57c0 2.98-2.42 5.4-5.4 5.4Zm-13.17-10.81h7.77v-34.76h-7.77v34.76Z"></path><path d="M369.97 232.24H187.69c-2.98 0-5.4-2.42-5.4-5.4s2.42-5.4 5.4-5.4h182.27c2.98 0 5.4 2.42 5.4 5.4s-2.42 5.4-5.4 5.4Zm-.01 45.56H236.21c-2.98 0-5.4-2.42-5.4-5.4s2.42-5.4 5.4-5.4h133.75c2.98 0 5.4 2.42 5.4 5.4s-2.42 5.4-5.4 5.4Z"></path><path d="M369.97 277.81c-2.98 0-5.4-2.42-5.4-5.4s2.42-5.4 5.4-5.4c9.59 0 17.38-7.8 17.38-17.38s-7.8-17.38-17.38-17.38c-2.98 0-5.4-2.42-5.4-5.4s2.42-5.4 5.4-5.4c15.54 0 28.19 12.65 28.19 28.19s-12.65 28.19-28.19 28.19Zm-20.89 0h-18.57c-2.98 0-5.4-2.42-5.4-5.4v-45.57c0-2.98 2.42-5.4 5.4-5.4h18.57c2.98 0 5.4 2.42 5.4 5.4v45.57c0 2.98-2.42 5.4-5.4 5.4ZM335.91 267h7.77v-34.76h-7.77V267Zm-108.77 1.74c-2.98 0-5.4-2.42-5.4-5.4v-31.09h-7.76v12.52c0 2.98-2.42 5.4-5.4 5.4s-5.4-2.42-5.4-5.4v-17.92c0-2.98 2.42-5.4 5.4-5.4h18.57c2.98 0 5.4 2.42 5.4 5.4v36.49c0 2.98-2.42 5.4-5.4 5.4Zm142.82 54.64H281.8c-2.98 0-5.4-2.42-5.4-5.4s2.42-5.4 5.4-5.4h88.16c2.98 0 5.4 2.42 5.4 5.4s-2.42 5.4-5.4 5.4Z"></path><path d="M369.97 323.38c-2.98 0-5.4-2.42-5.4-5.4s2.42-5.4 5.4-5.4c9.59 0 17.38-7.8 17.38-17.38s-7.8-17.38-17.38-17.38c-2.98 0-5.4-2.42-5.4-5.4s2.42-5.4 5.4-5.4c15.54 0 28.19 12.65 28.19 28.19s-12.65 28.19-28.19 28.19Zm-20.89 0h-18.57c-2.98 0-5.4-2.42-5.4-5.4v-45.57c0-2.98 2.42-5.4 5.4-5.4h18.57c2.98 0 5.4 2.42 5.4 5.4v45.57c0 2.98-2.42 5.4-5.4 5.4Zm-13.17-10.81h7.77V277.8h-7.77v34.77Zm34.05 56.38h-42.58c-2.98 0-5.4-2.42-5.4-5.4s2.42-5.4 5.4-5.4h42.58c2.98 0 5.4 2.42 5.4 5.4s-2.42 5.4-5.4 5.4Z"></path><path d="M369.97 368.95c-2.98 0-5.4-2.42-5.4-5.4s2.42-5.4 5.4-5.4c9.59 0 17.38-7.8 17.38-17.38s-7.8-17.38-17.38-17.38c-2.98 0-5.4-2.42-5.4-5.4s2.42-5.4 5.4-5.4c15.54 0 28.19 12.65 28.19 28.19s-12.65 28.19-28.19 28.19Zm-20.89 0h-18.57c-2.98 0-5.4-2.42-5.4-5.4v-45.57c0-2.98 2.42-5.4 5.4-5.4h18.57c2.98 0 5.4 2.42 5.4 5.4v45.57c0 2.98-2.42 5.4-5.4 5.4Zm-13.17-10.81h7.77v-34.76h-7.77v34.76Z"></path><path d="M372.8 414.35a5.402 5.402 0 0 1-.66-10.76c8.68-1.09 15.22-8.51 15.22-17.26 0-9.58-7.8-17.37-17.39-17.37-2.98 0-5.4-2.42-5.4-5.4s2.42-5.4 5.4-5.4c15.55 0 28.2 12.64 28.2 28.18 0 14.19-10.61 26.22-24.68 27.98-.23.03-.46.04-.68.04Zm-23.72-23.72c-2.98 0-5.4-2.42-5.4-5.4v-16.27h-8.26a5.4 5.4 0 0 1-10.3-2.27v-3.13c0-2.98 2.42-5.4 5.4-5.4h18.57c2.98 0 5.4 2.42 5.4 5.4v21.68c0 2.98-2.42 5.4-5.4 5.4Z"></path><path d="M411.19 452.74a5.4 5.4 0 0 1-3.82-1.58L190.71 234.54c-.09-.09-.18-.19-.27-.29l-2.02-2.01h-41.89c-2.98 0-5.4-2.42-5.4-5.4s2.42-5.4 5.4-5.4h44.12c1.43 0 2.8.57 3.81 1.57l3.88 3.86c.1.1.2.2.29.31l216.39 216.34a5.402 5.402 0 0 1-3.82 9.22Z"></path><path d="M411.18 452.75H194.53c-2.98 0-5.4-2.42-5.4-5.4V230.71c0-2.98 2.42-5.4 5.4-5.4s5.4 2.42 5.4 5.4v211.23h211.26c2.98 0 5.4 2.42 5.4 5.4s-2.42 5.4-5.4 5.4Zm45.15-54.76c-2.98 0-5.4-2.42-5.4-5.4 0-8.57-6.97-15.54-15.54-15.54-2.98 0-5.4-2.42-5.4-5.4s2.42-5.4 5.4-5.4c14.53 0 26.35 11.82 26.35 26.35 0 2.98-2.42 5.4-5.4 5.4Z"></path><path d="M456.33 546.95c-2.98 0-5.4-2.42-5.4-5.4V392.6c0-2.98 2.42-5.4 5.4-5.4s5.4 2.42 5.4 5.4v148.95c0 2.98-2.42 5.4-5.4 5.4Z"></path><path d="M489.23 579.84c-21.12 0-38.3-17.18-38.3-38.3 0-2.98 2.42-5.4 5.4-5.4s5.4 2.42 5.4 5.4c0 15.16 12.34 27.49 27.5 27.49s27.47-12.33 27.47-27.49c0-2.98 2.42-5.4 5.4-5.4s5.4 2.42 5.4 5.4c0 21.12-17.17 38.3-38.28 38.3Z"></path><path d="M522.1 546.94c-2.98 0-5.4-2.42-5.4-5.4V312.42c0-2.98 2.42-5.4 5.4-5.4s5.4 2.42 5.4 5.4v229.12c0 2.98-2.42 5.4-5.4 5.4Zm-86.72-169.89h-24.26c-2.98 0-5.4-2.42-5.4-5.4s2.42-5.4 5.4-5.4h24.26c2.98 0 5.4 2.42 5.4 5.4s-2.42 5.4-5.4 5.4Z"></path><path d="M547.86 317.82h-51.51c-11.68 0-21.18-9.5-21.18-21.18v-93.66c0-11.89 9.67-21.56 21.56-21.56h50.76c11.89 0 21.56 9.67 21.56 21.56v93.66c0 11.68-9.5 21.18-21.18 21.18Zm-51.14-125.6c-5.93 0-10.75 4.82-10.75 10.75v93.66c0 5.72 4.65 10.38 10.38 10.38h51.51c5.72 0 10.38-4.65 10.38-10.38v-93.66c0-5.93-4.82-10.75-10.75-10.75h-50.76Z"></path><path d="M522.1 293.95c-11.88 0-21.55-9.67-21.55-21.55s9.67-21.55 21.55-21.55 21.55 9.67 21.55 21.55-9.67 21.55-21.55 21.55Zm0-32.29c-5.92 0-10.74 4.82-10.74 10.74s4.82 10.74 10.74 10.74 10.75-4.82 10.75-10.74-4.82-10.74-10.75-10.74Zm16.15-44.84h-32.29c-2.98 0-5.4-2.42-5.4-5.4s2.42-5.4 5.4-5.4h32.29c2.98 0 5.4 2.42 5.4 5.4s-2.42 5.4-5.4 5.4Zm0 21.32h-32.29c-2.98 0-5.4-2.42-5.4-5.4s2.42-5.4 5.4-5.4h32.29c2.98 0 5.4 2.42 5.4 5.4s-2.42 5.4-5.4 5.4Z"></path></svg>