<svg version="1.1" id="Layer_1" xmlns="http://www.w3.org/2000/svg" xmlns:xlink="http://www.w3.org/1999/xlink" x="0px" y="0px" viewBox="0 0 700 700" style="enable-background:new 0 0 700 700;" xml:space="preserve">
<style type="text/css">
	.st0{fill:#505050;}
	.st1{fill:#00B1EB;}
	.st2{fill:#FFFFFF;}
	.st3{fill:#78B833;}
	.st4{opacity:0.15;}
	.st5{fill:none;stroke:#353535;stroke-width:13.0208;stroke-linecap:round;stroke-linejoin:round;stroke-miterlimit:10;}
	.st6{fill:#353535;}
	.st7{fill:none;stroke:#505050;stroke-width:13.0208;stroke-linecap:round;stroke-linejoin:round;stroke-miterlimit:10;}
	.st8{fill:none;stroke:#505050;stroke-width:13.0208;stroke-linecap:round;stroke-linejoin:round;}
	.st9{fill:none;stroke:#505050;stroke-width:13.0208;stroke-linecap:round;stroke-miterlimit:10;}
	.st10{fill:none;stroke:#353535;stroke-width:13.0208;stroke-linejoin:round;stroke-miterlimit:10;}
	.st11{fill:none;stroke:#353535;stroke-width:13.0208;stroke-miterlimit:10;}
	.st12{fill:none;stroke:#353535;stroke-width:13.0208;stroke-linecap:round;stroke-linejoin:round;}
	.st13{fill-rule:evenodd;clip-rule:evenodd;fill:#505050;}
	.st14{fill:#505050;stroke:#505050;stroke-width:2;stroke-linecap:round;stroke-miterlimit:10;}
	.st15{fill:#505050;stroke:#505050;stroke-width:2;stroke-miterlimit:10;}
	.st16{fill:none;}
	.st17{fill:#1D1D1B;}
	.st18{fill:#494E5B;}
	.st19{fill:none;stroke:#505050;stroke-width:16;stroke-miterlimit:10;}
	.st20{fill:none;stroke:#505050;stroke-width:14;stroke-miterlimit:10;}
	.st21{fill:#606060;}
	.st22{fill-rule:evenodd;clip-rule:evenodd;fill:#505050;stroke:#505050;stroke-width:5;stroke-miterlimit:10;}
	.st23{fill:none;stroke:#505050;stroke-width:12;stroke-linecap:round;stroke-miterlimit:10;}
	.st24{fill-rule:evenodd;clip-rule:evenodd;fill:#505050;stroke:#505050;stroke-width:8;stroke-miterlimit:10;}
	.st25{fill-rule:evenodd;clip-rule:evenodd;fill:#505050;stroke:#505050;stroke-width:9;stroke-miterlimit:10;}
	.st26{fill:none;stroke:#505050;stroke-width:14;stroke-linecap:round;stroke-miterlimit:10;}
	.st27{fill:#505050;stroke:#505050;stroke-width:4;stroke-miterlimit:10;}
	.st28{font-family:'Exo2-ExtraBold';}
	.st29{font-size:130px;}
	.st30{letter-spacing:-6;}
</style>
<g>
	<path class="st0" d="M287.4,374c1.6,1.7,3.3,3.5,5,5.3s3.1,3.6,4.3,5.2l-4.9,4.1l-6.6-6.9c-0.4-0.4-0.8-0.6-1.2-0.6
		c-0.4,0-0.8,0.1-1.1,0.4L268,395.9l-6.3-6.6l16.3-15.6c1.4-1.4,3-2,4.8-1.9C284.5,371.9,286.1,372.6,287.4,374z"></path>
	<path class="st0" d="M309.2,391.2c2.1,1.3,3.8,2.5,5.1,3.8s2,2.7,2.4,4.2c0.3,1.5,0.2,3.2-0.4,5.1c-0.6,1.9-1.6,4.2-3.2,6.7
		c-1.5,2.6-3,4.6-4.4,6c-1.4,1.4-2.9,2.4-4.3,2.8c-1.5,0.4-3.1,0.4-4.8-0.1c-1.7-0.5-3.6-1.4-5.8-2.6c-2.1-1.3-3.8-2.5-5.1-3.8
		c-1.2-1.3-2-2.7-2.4-4.2c-0.3-1.5-0.2-3.2,0.4-5.2c0.6-1.9,1.6-4.2,3.1-6.7c1.5-2.6,3-4.6,4.4-6c1.4-1.4,2.8-2.4,4.3-2.8
		c1.5-0.4,3.1-0.4,4.8,0.1C305.2,389.1,307.1,389.9,309.2,391.2z M305.8,397c-0.9-0.5-1.7-0.7-2.4-0.6c-0.7,0.1-1.5,0.6-2.3,1.5
		c-0.8,0.9-1.8,2.3-2.9,4.3c-1.1,1.9-1.9,3.5-2.3,4.6c-0.4,1.2-0.5,2.1-0.2,2.7c0.3,0.7,0.8,1.3,1.7,1.8c0.9,0.5,1.7,0.7,2.4,0.6
		c0.7-0.1,1.5-0.6,2.3-1.5c0.8-0.9,1.8-2.3,2.9-4.3c1.1-1.9,1.9-3.5,2.3-4.6c0.4-1.1,0.5-2.1,0.2-2.7
		C307.2,398.1,306.6,397.5,305.8,397z"></path>
	<path class="st0" d="M313.6,426.8l-0.1,0.3l0.7,0.2c0.1-0.1,0.1-0.2,0.2-0.3L313.6,426.8z M313.6,426.8l-0.1,0.3l0.7,0.2
		c0.1-0.1,0.1-0.2,0.2-0.3L313.6,426.8z"></path>
	<path class="st0" d="M347.3,405l-13.7-3.1c-2-0.4-3.7-0.2-5.2,0.7c-1.5,0.9-2.6,2.2-3.2,4c-0.8,2.4-1.7,4.8-2.8,7.1
		c-1,2.3-2.2,4.6-3.5,6.9c-0.3,0.5-0.6,0.9-0.9,1.4l-3.1-0.7l-1.3,5.5l0.8,0.2c-0.1,0.1-0.1,0.2-0.2,0.3l-0.7-0.2l-1.4,6.2l6.4,1.5
		l2-6l0.8,0.2l10.5,2.4l5.7,1.3l-0.8,6.3l6.4,1.5l1.4-6.2h0l1.3-5.8l-3.9-0.9L347.3,405z M333.2,425.4l-6.9-1.6
		c0.2-0.3,0.4-0.5,0.6-0.8c0.7-1,1.4-2.1,2.1-3.2c0.7-1.2,1.3-2.6,1.9-4.2c0.6-1.6,1.3-3.5,2.1-5.7c0.2-0.7,0.5-1.1,0.9-1.4
		c0.4-0.3,0.9-0.3,1.4-0.2l1.7,0.4L333.2,425.4z"></path>
	<path class="st0" d="M378.7,402.9l3,28.8l-8.6,0.9l-1.4-13.2c-0.1-0.8-0.1-1.5-0.1-2.2c0-0.7,0-1.5,0.1-2.3l-0.3,0
		c-0.1,0.8-0.3,1.6-0.5,2.3c-0.2,0.8-0.5,1.5-0.8,2.3l-5.7,14l-8.6,0.9l-3-28.8l8.6-0.9l1.3,12.8c0.1,0.7,0.1,1.5,0.1,2.3
		c0,0.8,0,1.6-0.1,2.5l0.3,0c0.2-0.8,0.4-1.6,0.6-2.4c0.2-0.8,0.5-1.5,0.8-2.2l5.7-13.8L378.7,402.9z"></path>
	<polygon class="st0" points="417.3,418.1 408.9,421.8 404,410.6 397.3,413.6 402.2,424.7 393.9,428.4 382.2,401.9 390.6,398.2 
		394.8,407.8 401.4,404.8 397.2,395.3 405.6,391.6 	"></polygon>
	<path class="st0" d="M428,372.3l19.3,21.6l-6.4,5.8l-8.9-9.9c-0.5-0.6-1-1.2-1.4-1.8c-0.4-0.6-0.8-1.2-1.3-1.9l-0.2,0.2
		c0.4,0.7,0.7,1.5,1,2.2c0.3,0.7,0.5,1.5,0.7,2.3l3.6,14.7l-6.5,5.8l-19.3-21.6l6.4-5.8l8.6,9.6c0.5,0.5,0.9,1.1,1.4,1.8
		c0.5,0.7,0.9,1.3,1.4,2l0.2-0.2c-0.3-0.8-0.6-1.5-0.9-2.3c-0.3-0.8-0.5-1.5-0.7-2.3l-3.5-14.5L428,372.3z"></path>
</g>
<rect x="258.5" y="270" class="st16" width="193.6" height="132.4"></rect>
<text transform="matrix(1 0 0 1 292.7981 361.0181)" class="st0 st28 st29 st30">15</text>
<g>
	<path class="st0" d="M252.7,254.8c1.1-2.1,2.3-4.3,3.5-6.5c1.2-2.2,2.4-4.1,3.6-5.7l5.5,3.3l-4.4,8.4c-0.2,0.5-0.3,0.9-0.2,1.3
		c0.1,0.4,0.3,0.7,0.7,0.9l18.3,9.6l-4.2,8.1l-20-10.5c-1.7-0.9-2.8-2.2-3.3-3.9S251.8,256.6,252.7,254.8z"></path>
	<path class="st0" d="M277.8,224.6c-0.7-0.3-1.3-0.4-2-0.3c-0.7,0.1-1.3,0.5-1.8,1l-5.6,6.1c-0.5,0.5-0.8,1.1-0.8,1.9
		c-0.1,0.7,0.1,1.4,0.5,2l14.6,23.5l6.3-6.9l-3.6-5.3l5.4-5.9l5.6,3.2l6.3-6.9L277.8,224.6z M281.5,241.2l-3.6-5.3
		c-0.3-0.4-0.7-0.9-1-1.3c-0.4-0.4-0.7-0.9-1.1-1.3l0.8-0.8c0.4,0.3,0.9,0.6,1.4,1c0.5,0.3,1,0.6,1.4,0.9l5.5,3.1L281.5,241.2z"></path>
	<path class="st0" d="M314.8,207.9c-1.3-2.2-2.6-3.8-3.9-4.7c-1.3-0.9-2.9-1.1-4.7-0.8c-1.8,0.4-4,1.3-6.7,2.8
		c-1.7,1-3.1,1.8-4.2,2.5c-1.2,0.7-2.2,1.3-3.2,1.9c-0.9,0.6-2,1.3-3,2.1l14.4,25.2l7.9-4.5l-5-8.7c0.1,0,0.1-0.1,0.2-0.1
		c1.3-0.6,2.5-1.2,3.8-1.9c2.3-1.3,4-2.6,5.1-3.9c1.1-1.3,1.6-2.7,1.5-4.3C316.8,212,316.1,210.1,314.8,207.9z M307.4,215.7
		c-0.3,0.4-0.8,0.8-1.5,1.2c-0.8,0.5-1.7,1-2.5,1.5l-3.4-5.9c0.8-0.5,1.7-0.9,2.5-1.5c0.7-0.4,1.3-0.7,1.8-0.7
		c0.5-0.1,0.9,0.1,1.3,0.4c0.4,0.3,0.8,0.9,1.3,1.7c0.4,0.8,0.7,1.4,0.8,1.9C307.8,214.9,307.7,215.3,307.4,215.7z"></path>
	<path class="st0" d="M339.4,194.2c-0.3-0.7-0.8-1.1-1.5-1.4c-0.6-0.3-1.3-0.4-2-0.2l-8.1,1.8c-0.7,0.1-1.3,0.5-1.8,1
		s-0.7,1.2-0.7,1.9l-1.7,27.6l9.1-2l0.1-6.4l7.8-1.7l2.8,5.8l9.1-2L339.4,194.2z M332.9,210l0.1-6.4c0-0.5,0-1.1-0.1-1.7
		c0-0.6-0.1-1.1-0.2-1.7l1.1-0.2c0.2,0.5,0.3,1,0.5,1.6c0.2,0.5,0.4,1.1,0.6,1.6l2.7,5.8L332.9,210z"></path>
	<polygon class="st0" points="381.7,193 378.5,221.8 369.5,220.8 370.8,208.7 363.5,207.9 362.2,220 353.1,218.9 356.4,190.1 
		365.4,191.2 364.3,201.5 371.5,202.3 372.7,192 	"></polygon>
	<polygon class="st0" points="406.6,227.9 409.5,229.3 407.1,234.4 406.9,234.7 404.2,240.4 398.3,237.6 400.4,231.6 395.8,229.4 
		390,226.6 389.7,226.5 381.8,222.7 394.2,196.5 402.5,200.4 392.6,221.2 398.4,224 408.3,203.2 416.5,207.1 	"></polygon>
	<path class="st0" d="M446.9,233.5l-20.4,20.6l-6.1-6.1l9.4-9.5c0.5-0.5,1.1-1,1.7-1.5c0.6-0.5,1.2-0.9,1.8-1.4l-0.2-0.2
		c-0.7,0.4-1.4,0.8-2.1,1.1c-0.7,0.3-1.5,0.6-2.3,0.8l-14.4,4.5l-6.2-6.1l20.4-20.6l6.1,6.1l-9,9.1c-0.5,0.5-1.1,1-1.7,1.5
		s-1.3,1-2,1.5l0.2,0.2c0.7-0.4,1.5-0.7,2.2-1.1c0.8-0.3,1.5-0.6,2.2-0.8l14.2-4.3L446.9,233.5z"></path>
	<path class="st0" d="M463.3,261.4c-0.4-1-1-2.1-1.5-3.3c-0.6-1.2-1.3-2.6-2.1-4.3c-1.2-2.5-2.5-4.4-3.8-5.7
		c-1.3-1.3-2.7-2.1-4.2-2.2c-1.5-0.2-3.3,0.3-5.3,1.3c-1,0.5-1.9,1.1-2.7,1.9c-0.7,0.8-1.2,1.6-1.4,2.6c-0.2,1-0.1,2.2,0.4,3.6
		l-0.2,0.1c-0.3-0.4-0.7-0.9-1.2-1.3c-0.5-0.4-1.2-0.8-2-1c-0.8-0.2-1.8-0.2-2.9,0.2l-8.9,2.1l4.3,8.5l8.5-2.3
		c0.8-0.2,1.4-0.3,1.7-0.1c0.4,0.2,0.7,0.6,1,1.2c0.4,0.8,0.7,1.4,1,2l-9.5,4.8l4.1,8.2l25.9-13
		C464.2,263.5,463.7,262.4,463.3,261.4z M449.8,261.9l-1.2-2.3c-0.3-0.7-0.5-1.3-0.6-1.7c-0.1-0.5,0.1-0.9,0.4-1.2
		c0.3-0.3,0.8-0.7,1.5-1c0.7-0.4,1.3-0.6,1.8-0.6c0.4,0,0.8,0.1,1.2,0.4c0.3,0.3,0.7,0.8,1,1.5c0.4,0.8,0.8,1.6,1.2,2.3L449.8,261.9
		z"></path>
</g>
<g>
	<path class="st0" d="M356.3,461.3c-82,0-148.7-66.7-148.7-148.7c0-82,66.7-148.7,148.7-148.7S505,230.6,505,312.6
		C505,394.6,438.3,461.3,356.3,461.3z M356.3,177.9c-74.3,0-134.7,60.4-134.7,134.7c0,74.3,60.4,134.7,134.7,134.7
		S491,386.9,491,312.6C491,238.4,430.6,177.9,356.3,177.9z"></path>
</g>
<g>
	<path class="st0" d="M541.4,312.6c0-4.7,4.4-11.3,8.6-17.6c6.1-9.2,12.5-18.8,10.2-28.9c-2.4-10.5-12.5-16.4-22.2-22.2
		c-6.4-3.8-13-7.6-14.9-11.6c-2-4.1-0.9-11.8,0.1-19.2c1.5-11.1,3.1-22.6-3.4-30.8c-6.6-8.3-18.2-9.3-29.4-10.2
		c-7.5-0.6-15.2-1.3-18.7-4.1c-3.5-2.8-5.8-10.1-8.1-17.2c-3.4-10.7-7-21.8-16.6-26.5c-9.4-4.6-20.2-0.5-30.7,3.5
		c-7.1,2.7-14.4,5.5-18.9,4.4c-4.2-1-9.4-6.5-14.5-11.8c-7.4-7.9-15.9-16.8-26.7-16.8c-10.9,0-19.3,8.9-26.7,16.8
		c-5,5.3-10.3,10.8-14.5,11.8c-4.5,1-11.8-1.8-18.9-4.4c-10.4-4-21.2-8.1-30.7-3.5c-9.6,4.6-13.1,15.7-16.6,26.5
		c-2.3,7.1-4.6,14.4-8.1,17.2c-3.5,2.8-11.2,3.5-18.7,4.1c-11.2,0.9-22.8,1.9-29.4,10.2c-6.6,8.2-5,19.7-3.5,30.8
		c1,7.4,2.1,15.1,0.1,19.2c-1.9,4-8.5,7.9-14.9,11.6c-9.8,5.8-19.8,11.7-22.2,22.2c-2.3,10.1,4.1,19.7,10.2,28.9
		c4.2,6.3,8.6,12.9,8.6,17.6s-4.4,11.3-8.6,17.6c-6.2,9.2-12.5,18.8-10.2,28.9c2.4,10.5,12.5,16.4,22.2,22.2
		c6.4,3.8,13,7.7,14.9,11.6c2,4.1,0.9,11.8-0.1,19.2c-1.5,11.1-3.1,22.6,3.5,30.8c6.6,8.3,18.2,9.3,29.4,10.2
		c1.2,0.1,2.5,0.2,3.7,0.3L177.1,542c-2.9,5.2-2.4,11.3,1.2,15.1c3.2,3.4,8.1,4.3,12.6,2.2l59.8-27.6l8.4,64.7
		c0.6,4.9,4,8.6,8.6,9.5c0.7,0.1,1.4,0.2,2,0.2c4.5,0,8.9-2.7,11.4-7.3l50.6-91.8c7,7.2,14.8,14.6,24.7,14.6
		c9.9,0,17.8-7.5,24.8-14.8l50.7,91.9c2.5,4.5,6.9,7.3,11.4,7.3c0.7,0,1.4-0.1,2-0.2c4.6-0.9,7.9-4.6,8.6-9.5l8.4-64.7l59.8,27.6
		c4.5,2.1,9.4,1.2,12.6-2.2c3.6-3.8,4-9.9,1.2-15.1l-48.8-88.5c1.2-0.1,2.3-0.2,3.5-0.3c11.2-1,22.8-1.9,29.4-10.2
		c6.6-8.2,5-19.7,3.4-30.8c-1-7.4-2.1-15.1-0.1-19.2c1.9-4,8.5-7.9,14.9-11.6c9.8-5.8,19.8-11.7,22.2-22.2
		c2.3-10.1-4.1-19.7-10.2-28.9C545.8,323.9,541.4,317.4,541.4,312.6z M271.8,586.5l-7.6-58.4c-0.5-4-2.9-7.5-6.4-9.4
		c-3.5-1.9-7.8-2.1-11.4-0.4l-54,24.9l47.7-86.4c0.3,0.2,0.5,0.4,0.8,0.6c3.5,2.8,5.8,10.1,8.1,17.2c3.4,10.7,7,21.8,16.6,26.5
		c9.4,4.6,20.2,0.5,30.7-3.5c7.1-2.7,14.4-5.5,18.9-4.4c1.9,0.4,4,1.8,6.2,3.7L271.8,586.5z M520.4,543.2l-53.9-24.9
		c-3.6-1.7-7.9-1.5-11.4,0.4c-3.5,1.9-5.9,5.5-6.4,9.4l-7.6,58.4l-49.6-89.9c2.2-1.8,4.2-3.1,6.1-3.5c4.5-1,11.8,1.7,18.9,4.4
		c10.4,4,21.2,8.1,30.7,3.5c9.6-4.6,13.1-15.7,16.6-26.5c2.3-7.1,4.6-14.4,8.1-17.2c0.3-0.2,0.6-0.4,1-0.7L520.4,543.2z M546.5,356
		c-1.1,4.6-8.8,9.2-15.7,13.2c-8.2,4.8-16.6,9.8-20.4,17.6c-3.8,7.9-2.5,17.8-1.1,27.3c1.1,7.8,2.3,16.6-0.5,20.1
		c-2.9,3.6-11.8,4.3-19.6,5c-9.5,0.8-19.4,1.6-26.2,7.1c-6.8,5.4-9.8,14.8-12.7,23.9c-2.4,7.6-5.1,16.1-9.3,18.1
		c-4,1.9-12.3-1.2-19.6-4c-9-3.4-18.3-7-27-5c-8.3,1.9-15,9-21.5,15.8c-5.5,5.8-11.8,12.4-16.6,12.4c-4.8,0-11.1-6.6-16.6-12.4
		c-6.5-6.8-13.2-13.9-21.5-15.8c-1.7-0.4-3.5-0.6-5.2-0.6c-7.1,0-14.5,2.8-21.7,5.6c-7.3,2.8-15.6,5.9-19.6,4
		c-4.2-2-6.9-10.6-9.3-18.1c-2.9-9.1-5.9-18.5-12.7-23.9c-6.8-5.5-16.7-6.3-26.2-7.1c-7.9-0.7-16.8-1.4-19.6-5
		c-2.8-3.5-1.6-12.4-0.5-20.1c1.3-9.5,2.7-19.3-1.1-27.3c-3.8-7.8-12.2-12.8-20.4-17.6c-6.8-4.1-14.6-8.6-15.7-13.2
		c-1-4.3,3.9-11.6,8.2-18c5.4-8.1,10.9-16.4,10.9-25.4c0-9-5.6-17.3-10.9-25.4c-4.3-6.4-9.2-13.8-8.2-18c1-4.6,8.8-9.2,15.7-13.2
		c8.2-4.8,16.6-9.8,20.4-17.6c3.8-7.9,2.5-17.8,1.1-27.3c-1.1-7.8-2.3-16.6,0.5-20.1c2.9-3.6,11.8-4.3,19.6-5
		c9.5-0.8,19.4-1.7,26.2-7.1c6.8-5.4,9.8-14.8,12.7-23.9c2.4-7.6,5.1-16.1,9.3-18.1c4-1.9,12.3,1.2,19.6,4c9,3.4,18.3,7,27,5
		c8.4-1.9,15-9,21.5-15.8c5.5-5.8,11.8-12.4,16.6-12.4c4.8,0,11,6.6,16.6,12.4c6.5,6.8,13.2,13.9,21.5,15.8c8.7,2,18-1.6,27-5
		c7.3-2.8,15.6-5.9,19.6-4c4.2,2,6.9,10.6,9.3,18.1c2.9,9.1,5.9,18.5,12.7,23.9c6.9,5.5,16.7,6.3,26.2,7.1c7.9,0.7,16.8,1.4,19.6,5
		c2.8,3.5,1.6,12.3,0.5,20.1c-1.3,9.5-2.7,19.3,1.1,27.3c3.8,7.8,12.2,12.8,20.4,17.6c6.9,4,14.6,8.6,15.7,13.2
		c1,4.3-3.9,11.6-8.2,18c-5.4,8.1-11,16.4-11,25.4c0,9,5.6,17.3,11,25.4C542.6,344.5,547.5,351.8,546.5,356z"></path>
</g>
</svg>