<svg version="1.1" id="Layer_1" xmlns="http://www.w3.org/2000/svg" xmlns:xlink="http://www.w3.org/1999/xlink" x="0px" y="0px" viewBox="0 0 700 700" style="enable-background:new 0 0 700 700;" xml:space="preserve">
<style type="text/css">
	.st0{fill:#505050;}
	.st1{fill:#00B1EB;}
	.st2{fill:#FFFFFF;}
	.st3{fill:#78B833;}
	.st4{opacity:0.15;}
	.st5{fill:none;stroke:#353535;stroke-width:13.0208;stroke-linecap:round;stroke-linejoin:round;stroke-miterlimit:10;}
	.st6{fill:#353535;}
	.st7{fill:none;stroke:#505050;stroke-width:13.0208;stroke-linecap:round;stroke-linejoin:round;stroke-miterlimit:10;}
	.st8{fill:none;stroke:#505050;stroke-width:13.0208;stroke-linecap:round;stroke-linejoin:round;}
	.st9{fill:none;stroke:#505050;stroke-width:13.0208;stroke-linecap:round;stroke-miterlimit:10;}
	.st10{fill:none;stroke:#353535;stroke-width:13.0208;stroke-linejoin:round;stroke-miterlimit:10;}
	.st11{fill:none;stroke:#353535;stroke-width:13.0208;stroke-miterlimit:10;}
	.st12{fill:none;stroke:#353535;stroke-width:13.0208;stroke-linecap:round;stroke-linejoin:round;}
	.st13{fill-rule:evenodd;clip-rule:evenodd;fill:#505050;}
	.st14{fill:#505050;stroke:#505050;stroke-width:2;stroke-linecap:round;stroke-miterlimit:10;}
	.st15{fill:#505050;stroke:#505050;stroke-width:2;stroke-miterlimit:10;}
	.st16{fill:none;}
	.st17{fill:#1D1D1B;}
	.st18{fill:#494E5B;}
	.st19{fill:none;stroke:#505050;stroke-width:16;stroke-miterlimit:10;}
	.st20{fill:none;stroke:#505050;stroke-width:14;stroke-miterlimit:10;}
	.st21{fill:#606060;}
	.st22{fill-rule:evenodd;clip-rule:evenodd;fill:#505050;stroke:#505050;stroke-width:5;stroke-miterlimit:10;}
	.st23{fill:none;stroke:#505050;stroke-width:12;stroke-linecap:round;stroke-miterlimit:10;}
	.st24{fill-rule:evenodd;clip-rule:evenodd;fill:#505050;stroke:#505050;stroke-width:8;stroke-miterlimit:10;}
	.st25{fill-rule:evenodd;clip-rule:evenodd;fill:#505050;stroke:#505050;stroke-width:9;stroke-miterlimit:10;}
	.st26{fill:none;stroke:#505050;stroke-width:14;stroke-linecap:round;stroke-miterlimit:10;}
	.st27{fill:#505050;stroke:#505050;stroke-width:4;stroke-miterlimit:10;}
</style>
<g>
	<path class="st0" d="M495.9,186.5L495.9,186.5c-7.3-6.6-15.1-12.6-23.2-18.1c-35-23.7-77.3-37.6-122.7-37.6
		c-41.9,0-81,11.8-114.3,32.2c-9.4,5.7-18.3,12.2-26.6,19.2c-15,12.6-28.3,27.2-39.5,43.4c-3.5,5-6.7,10.2-9.8,15.5
		c-18.5,32.1-29,69.3-29,108.9c0,29.7,5.9,58,16.6,83.8c1.1,2.8,2.3,5.5,3.6,8.2c10,21.6,23.4,41.3,39.6,58.4l0,0
		c6.3,6.7,13.1,13,20.2,18.9c37.9,31.2,86.4,50,139.2,50c59.1,0,112.9-23.5,152.4-61.7c4.1-4,8-8.1,11.8-12.4
		c11.9-13.4,22.1-28.3,30.5-44.4c1.4-2.7,2.7-5.4,4-8.1c13.2-28.2,20.6-59.6,20.6-92.7C569.3,285.1,540.9,226.7,495.9,186.5z
		 M341.6,552.3c-39.1-1.6-75.4-14.4-105.8-35.2c4.3-0.9,8-1.9,11.6-3c7.8-2.3,15.1-4.4,30.2-4.4c15.1,0,22.4,2.2,30.2,4.4
		c8.4,2.5,17.1,5,33.9,5.1V552.3z M341.6,502.5c-14.4-0.1-21.5-2.2-29.1-4.4c-8.6-2.5-17.4-5.1-34.9-5.1c-17.5,0-26.3,2.6-34.9,5.1
		c-7,2.1-13.6,4-25.8,4.4c-18.6-16.3-34.3-35.9-45.9-58c2.3,0.6,4.5,1.2,6.6,1.9c8.6,2.5,17.4,5.1,34.9,5.1
		c17.5,0,26.3-2.6,34.9-5.1c7.8-2.3,15.1-4.4,30.2-4.4c15.1,0,22.4,2.2,30.2,4.4c8.4,2.5,17.1,5,33.9,5.1V502.5z M341.6,434.7
		c-14.4-0.1-21.5-2.2-29.1-4.4c-8.6-2.5-17.4-5.1-34.9-5.1c-17.5,0-26.3,2.6-34.9,5.1c-7.8,2.3-15.1,4.4-30.2,4.4
		c-15.1,0-22.4-2.2-30.2-4.4c-5.7-1.7-11.6-3.4-20-4.4c-6.4-15.7-10.8-32.4-13.1-49.8c13.9,0.2,21,2.2,28.4,4.4
		c8.6,2.5,17.4,5.1,34.9,5.1c17.5,0,26.3-2.6,34.9-5.1c7.8-2.3,15.1-4.4,30.2-4.4c15.1,0,22.4,2.2,30.2,4.4c8.4,2.5,17.1,5,33.9,5.1
		V434.7z M341.6,368.9c-14.4-0.1-21.5-2.2-29.1-4.4c-8.6-2.5-17.4-5.1-34.9-5.1c-17.5,0-26.3,2.6-34.9,5.1
		c-7.8,2.3-15.1,4.4-30.2,4.4c-15.1,0-22.4-2.2-30.2-4.4c-8.5-2.5-17.3-5.1-34.6-5.1c-0.1-3.1-0.2-6.2-0.2-9.4
		c0-14.3,1.5-28.2,4.3-41.6c12.2,0.4,18.8,2.3,25.8,4.4c8.6,2.5,17.4,5.1,34.9,5.1c17.5,0,26.3-2.6,34.9-5.1
		c7.8-2.3,15.1-4.4,30.2-4.4c15.1,0,22.4,2.2,30.2,4.4c8.4,2.5,17.1,5,33.9,5.1V368.9z M341.6,301.1c-14.4-0.1-21.5-2.2-29.1-4.4
		c-8.6-2.5-17.4-5.1-34.9-5.1c-17.5,0-26.3,2.6-34.9,5.1c-7.8,2.3-15.1,4.4-30.2,4.4c-15.1,0-22.4-2.2-30.2-4.4
		c-7-2.1-14.3-4.2-26.3-4.9c5-16.7,12.1-32.4,21-47c0.2,0,0.4,0.1,0.5,0.2c8.6,2.5,17.4,5.1,34.9,5.1c17.5,0,26.3-2.6,34.9-5.1
		c7.8-2.3,15.1-4.4,30.2-4.4c15.1,0,22.4,2.2,30.2,4.4c8.4,2.5,17.1,5,33.9,5.1V301.1z M341.6,233.3c-14.4-0.1-21.5-2.2-29.1-4.4
		c-8.6-2.5-17.4-5.1-34.9-5.1c-17.5,0-26.3,2.6-34.9,5.1c-7.8,2.3-15.1,4.4-30.2,4.4c-12.1,0-19.3-1.4-25.6-3.1
		c15.1-20.5,33.9-38,55.5-51.6c1.8-0.5,3.4-1,5.1-1.4c7.8-2.3,15.1-4.4,30.2-4.4c15.1,0,22.4,2.2,30.2,4.4c8.4,2.5,17.1,5,33.9,5.1
		V233.3z M341.6,165.5c-14.4-0.1-21.5-2.2-29.1-4.4c-6.2-1.8-12.5-3.7-22.1-4.6c16.3-5,33.5-8.1,51.3-8.8V165.5z M358.4,147.7
		c34.3,1.4,66.4,11.4,94.2,27.8c-3.1,1.9-5.9,3.9-8.6,5.8c-8.1,5.8-14.4,10.4-28.4,10.4c-13.9,0-20.3-4.6-28.4-10.4
		c-7.3-5.2-15.3-11-28.8-12.9V147.7z M358.4,185.3c7.9,1.6,13,5.2,19,9.5c8.8,6.3,18.8,13.5,38.2,13.5c19.3,0,29.3-7.2,38.2-13.5
		c5-3.6,9.4-6.7,15.3-8.6c30.3,22.1,54.3,52.4,68.6,87.6c-7-1.7-11.8-5.2-17.4-9.2c-8.8-6.3-18.8-13.5-38.2-13.5
		c-19.3,0-29.3,7.2-38.2,13.5c-8.1,5.8-14.4,10.4-28.4,10.4c-13.9,0-20.3-4.6-28.4-10.4c-7.3-5.2-15.3-11-28.8-12.9V185.3z
		 M358.4,552.3v-48.9c7.9,1.6,13,5.2,19,9.5c8.8,6.3,18.8,13.5,38.2,13.5c19.3,0,29.3-7.2,38.2-13.5c8.1-5.8,14.5-10.4,28.4-10.4
		c0.3,0,0.6,0,0.9,0C449.4,531.9,406,550.4,358.4,552.3z M498.3,487.8c-4.6-1.2-9.9-2-16.1-2c-19.3,0-29.3,7.2-38.2,13.5
		c-8.1,5.8-14.4,10.4-28.4,10.4c-13.9,0-20.3-4.6-28.4-10.4c-7.3-5.2-15.3-11-28.8-12.9v-58.6c7.9,1.6,13,5.2,19,9.5
		c8.8,6.4,18.8,13.5,38.2,13.5c19.3,0,29.3-7.2,38.2-13.5c8.1-5.8,14.5-10.4,28.4-10.4c13.9,0,20.3,4.6,28.4,10.4
		c4.9,3.5,10.1,7.3,17.1,9.9C519.5,462,509.6,475.6,498.3,487.8z M535.1,432.1c-5.7-1.9-9.9-4.9-14.8-8.4
		c-8.8-6.3-18.8-13.5-38.2-13.5c-19.3,0-29.3,7.2-38.2,13.5c-8.1,5.8-14.4,10.4-28.4,10.4c-13.9,0-20.3-4.6-28.4-10.4
		c-7.3-5.2-15.3-11-28.8-12.9v-58.7c8.7,1.6,14.3,5.4,20.4,9.7c9.1,6.3,19.4,13.5,39.3,13.5c19.9,0,30.2-7.2,39.3-13.5
		c8.1-5.6,15.1-10.5,29.8-10.5c14.7,0,21.7,4.9,29.8,10.5c8.2,5.7,17.5,12.1,33.9,13.3C548.5,395.1,543,414.3,535.1,432.1z
		 M526.6,348c-9.1-6.3-19.4-13.4-39.3-13.4c-19.9,0-30.2,7.1-39.3,13.4c-8.1,5.6-15.1,10.5-29.8,10.5c-14.7,0-21.7-4.9-29.8-10.5
		c-7.5-5.2-15.9-11-29.9-12.9v-66.4c7.9,1.6,13,5.2,19,9.5c8.8,6.3,18.8,13.5,38.2,13.5c19.3,0,29.3-7.2,38.2-13.5
		c8.1-5.8,14.5-10.4,28.4-10.4c13.9,0,20.3,4.6,28.4,10.4c8.1,5.8,17.1,12.3,33.4,13.4c5.6,18.5,8.6,38.1,8.6,58.3
		c0,2.8-0.1,5.6-0.2,8.4C540.3,357.6,533.9,353.1,526.6,348z"></path>
</g>
</svg>