<svg xmlns="http://www.w3.org/2000/svg" viewBox="0 0 700 700"><path d="M572.1 511.79H186.4c-11.58 0-21-9.42-21-21v-70.52c0-4.62 3.75-8.37 8.37-8.37s8.37 3.75 8.37 8.37v70.52c0 2.35 1.91 4.26 4.25 4.26h385.7c2.35 0 4.26-1.91 4.26-4.26v-67.24c0-2.35-1.91-4.26-4.26-4.26H269.77c-4.62 0-8.37-3.75-8.37-8.37s3.75-8.37 8.37-8.37H572.1c11.58 0 21 9.42 21 21v67.24c0 11.58-9.42 21-21 21Z"></path><path d="M584.73 431.92c-4.62 0-8.37-3.75-8.37-8.37 0-6.75-1.61-13.49-4.65-19.51l-54.79-108.5a10.713 10.713 0 0 0-9.6-5.91H341.58c-4.62 0-8.37-3.75-8.37-8.37s3.75-8.37 8.37-8.37h165.74c10.44 0 19.85 5.79 24.55 15.11l54.79 108.5a60.291 60.291 0 0 1 6.45 27.06c0 4.62-3.75 8.37-8.37 8.37Zm-238.54-43.28h-3.9c-4.62 0-8.37-3.75-8.37-8.37s3.75-8.37 8.37-8.37h3.9c4.62 0 8.37 3.75 8.37 8.37s-3.75 8.37-8.37 8.37Zm76.64 0h-3.9c-4.62 0-8.37-3.75-8.37-8.37s3.75-8.37 8.37-8.37h3.9c4.62 0 8.37 3.75 8.37 8.37s-3.75 8.37-8.37 8.37Z"></path><path d="M506.09 388.64h-3.9c-4.62 0-8.37-3.75-8.37-8.37s3.75-8.37 8.37-8.37h3.9c4.62 0 8.37 3.75 8.37 8.37s-3.75 8.37-8.37 8.37Zm-156.44-33.73H346c-4.62 0-8.37-3.75-8.37-8.37s3.75-8.37 8.37-8.37h3.65c4.62 0 8.37 3.75 8.37 8.37s-3.75 8.37-8.37 8.37Zm70.17 0h-3.65c-4.62 0-8.37-3.75-8.37-8.37s3.75-8.37 8.37-8.37h3.65c4.62 0 8.37 3.75 8.37 8.37s-3.75 8.37-8.37 8.37Zm77.49 0h-3.65c-4.62 0-8.37-3.75-8.37-8.37s3.75-8.37 8.37-8.37h3.65c4.62 0 8.37 3.75 8.37 8.37s-3.75 8.37-8.37 8.37Zm-145.3-34.61h-3.42c-4.62 0-8.37-3.75-8.37-8.37s3.75-8.37 8.37-8.37h3.42c4.62 0 8.37 3.75 8.37 8.37s-3.75 8.37-8.37 8.37Zm64.92 0h-3.42c-4.62 0-8.37-3.75-8.37-8.37s3.75-8.37 8.37-8.37h3.42c4.62 0 8.37 3.75 8.37 8.37s-3.75 8.37-8.37 8.37Zm71.93 0h-3.41c-4.62 0-8.37-3.75-8.37-8.37s3.75-8.37 8.37-8.37h3.41c4.62 0 8.37 3.75 8.37 8.37s-3.75 8.37-8.37 8.37Zm77.47 160.59H171.99c-4.44 0-3.7-3.6-3.7-8.03s-.74-8.03 3.7-8.03h394.34a8.03 8.03 0 1 1 0 16.06Z"></path><g><path d="M217.66 406.9c-5.62 0-10.76-2.59-14.1-7.09l-15.2-20.45a2.56 2.56 0 0 0-2.66-.97l-24.79 5.9c-5.47 1.3-11.06-.02-15.36-3.63-4.3-3.61-6.58-8.89-6.25-14.5l1.5-25.44c.06-1.03-.49-1.99-1.42-2.45l-22.78-11.41c-5.02-2.52-8.46-7.13-9.43-12.66-.97-5.53.68-11.04 4.53-15.12l17.5-18.52c.71-.75.9-1.84.49-2.79l-10.11-23.39c-2.23-5.15-1.9-10.9.91-15.76 2.81-4.86 7.62-8.02 13.19-8.67l25.31-2.93a2.58 2.58 0 0 0 2.17-1.82l7.28-24.42c1.61-5.38 5.55-9.57 10.83-11.49 5.27-1.92 10.99-1.25 15.68 1.84l21.28 14.02c.86.57 1.97.57 2.83 0l21.28-14.02c4.69-3.09 10.4-3.76 15.68-1.84 5.28 1.92 9.22 6.11 10.83 11.49l7.29 24.42c.29.99 1.15 1.7 2.17 1.82l25.31 2.93c5.58.65 10.39 3.81 13.19 8.67 2.81 4.86 3.14 10.61.91 15.76l-10.12 23.39c-.41.95-.22 2.04.49 2.79l17.5 18.52c3.86 4.08 5.51 9.59 4.53 15.12-.97 5.53-4.41 10.14-9.43 12.66l-22.78 11.41a2.57 2.57 0 0 0-1.42 2.45l1.51 25.44c.33 5.61-1.95 10.89-6.25 14.5-4.3 3.61-9.9 4.93-15.36 3.63l-24.79-5.9c-1-.24-2.05.14-2.66.97l-15.2 20.45c-3.35 4.51-8.49 7.09-14.1 7.09Zm-31.36-43.58c5.48 0 10.73 2.57 14.09 7.09l15.2 20.45c.67.9 1.58 1.04 2.06 1.04s1.4-.14 2.07-1.04l15.2-20.45a17.55 17.55 0 0 1 18.17-6.61l24.79 5.9c1.1.26 1.88-.22 2.25-.53.37-.31.98-1 .92-2.12l-1.51-25.44a17.55 17.55 0 0 1 9.67-16.75l22.78-11.41a2.5 2.5 0 0 0 1.38-1.85c.08-.48.11-1.4-.66-2.21l-17.5-18.52a17.556 17.556 0 0 1-3.36-19.04l10.12-23.39c.45-1.03.11-1.89-.13-2.31a2.51 2.51 0 0 0-1.93-1.27l-25.31-2.93c-6.99-.81-12.8-5.69-14.81-12.43l-7.29-24.42a2.493 2.493 0 0 0-1.59-1.68c-.45-.17-1.36-.35-2.3.27l-21.27 14.02a17.56 17.56 0 0 1-19.34 0l-21.28-14.02c-.94-.62-1.84-.43-2.3-.27-.45.17-1.26.6-1.59 1.68l-7.28 24.42a17.556 17.556 0 0 1-14.81 12.43l-25.31 2.93a2.51 2.51 0 0 0-1.93 1.27c-.24.42-.58 1.27-.13 2.31l10.11 23.39a17.552 17.552 0 0 1-3.36 19.04l-17.5 18.52c-.77.82-.75 1.74-.66 2.22s.37 1.35 1.38 1.85l22.78 11.41a17.566 17.566 0 0 1 9.67 16.75l-1.5 25.44c-.07 1.12.54 1.81.91 2.12.37.31 1.16.79 2.25.53l24.79-5.9c1.36-.32 2.73-.48 4.08-.48Z"></path><path d="M213.76 270.97c0 12.32-9.86 22.3-22.04 22.3s-22.17-9.85-22.17-22.17 9.85-22.17 21.39-22.17c12.97 0 22.82 9.59 22.82 22.04Zm-30.6 0c0 4.67 3.76 8.56 8.43 8.56s8.43-3.89 8.43-8.56-3.76-8.43-8.04-8.43c-5.06 0-8.82 3.63-8.82 8.43Zm48.88-20.36h12.58l-37.6 91.02h-12.58l37.6-91.02Zm37.73 71.05c0 12.32-9.85 22.17-22.17 22.17s-22.17-9.85-22.17-22.17 9.98-22.17 21.39-22.17c13.1 0 22.95 9.59 22.95 22.17Zm-30.6-.39c0 4.93 3.76 8.95 8.43 8.95s8.56-4.15 8.56-8.95c0-4.41-3.76-8.04-8.3-8.04-5.19 0-8.69 3.24-8.69 8.04Z"></path></g></svg>