<?xml version="1.0" encoding="utf-8"?>
<!-- Generator: Adobe Illustrator 26.3.1, SVG Export Plug-In . SVG Version: 6.00 Build 0)  -->
<svg version="1.1" id="Layer_1" xmlns="http://www.w3.org/2000/svg" xmlns:xlink="http://www.w3.org/1999/xlink" x="0px" y="0px"
	 viewBox="0 0 700 700" style="enable-background:new 0 0 700 700;" xml:space="preserve">
<style type="text/css">
	.st0{fill:#505050;}
	.st1{fill:#00B1EB;}
	.st2{fill:#FFFFFF;}
	.st3{fill:#78B833;}
	.st4{opacity:0.15;}
	.st5{fill:none;stroke:#353535;stroke-width:13.0208;stroke-linecap:round;stroke-linejoin:round;stroke-miterlimit:10;}
	.st6{fill:#353535;}
	.st7{fill:none;stroke:#505050;stroke-width:13.0208;stroke-linecap:round;stroke-linejoin:round;stroke-miterlimit:10;}
	.st8{fill:none;stroke:#505050;stroke-width:13.0208;stroke-linecap:round;stroke-linejoin:round;}
	.st9{fill:none;stroke:#505050;stroke-width:13.0208;stroke-linecap:round;stroke-miterlimit:10;}
	.st10{fill:none;stroke:#353535;stroke-width:13.0208;stroke-linejoin:round;stroke-miterlimit:10;}
	.st11{fill:none;stroke:#353535;stroke-width:13.0208;stroke-miterlimit:10;}
	.st12{fill:none;stroke:#353535;stroke-width:13.0208;stroke-linecap:round;stroke-linejoin:round;}
	.st13{fill-rule:evenodd;clip-rule:evenodd;fill:#505050;}
	.st14{fill:#505050;stroke:#505050;stroke-width:2;stroke-linecap:round;stroke-miterlimit:10;}
	.st15{fill:#505050;stroke:#505050;stroke-width:2;stroke-miterlimit:10;}
	.st16{fill:none;}
	.st17{fill:#1D1D1B;}
	.st18{fill:#494E5B;}
	.st19{fill:none;stroke:#505050;stroke-width:16;stroke-miterlimit:10;}
	.st20{fill:none;stroke:#505050;stroke-width:14;stroke-miterlimit:10;}
	.st21{fill:#606060;}
	.st22{fill-rule:evenodd;clip-rule:evenodd;fill:#505050;stroke:#505050;stroke-width:5;stroke-miterlimit:10;}
	.st23{fill:none;stroke:#505050;stroke-width:12;stroke-linecap:round;stroke-miterlimit:10;}
	.st24{fill-rule:evenodd;clip-rule:evenodd;fill:#505050;stroke:#505050;stroke-width:8;stroke-miterlimit:10;}
	.st25{fill-rule:evenodd;clip-rule:evenodd;fill:#505050;stroke:#505050;stroke-width:9;stroke-miterlimit:10;}
	.st26{fill:none;stroke:#505050;stroke-width:14;stroke-linecap:round;stroke-miterlimit:10;}
	.st27{fill:#505050;stroke:#505050;stroke-width:4;stroke-miterlimit:10;}
</style>
<g>
	<path class="st0" d="M240.3,501.4c-0.1,0.2-0.1,0.3-0.1,0.5c-0.3-0.3-0.6-0.5-0.9-0.8C239.6,501.2,240,501.3,240.3,501.4z"/>
</g>
<g>
	<g>
		<path class="st0" d="M136.4,394.4h-0.6v-3C136,392.4,136.2,393.4,136.4,394.4z"/>
	</g>
	<g>
		<path class="st0" d="M531.5,229.1c-4.5-6.7-9.3-13.1-14.4-19.2c-5.7-6.8-11.8-13.2-18.3-19.3c-4.2-3.9-8.6-7.7-13.1-11.3
			c-20.8-16.6-44.8-29.5-70.8-37.6c-5.1-1.6-10.2-3-15.4-4.2c-15.9-3.7-32.4-5.6-49.4-5.6c-9,0-17.8,0.5-26.5,1.6
			c-5.4,0.6-10.7,1.5-15.9,2.5c-29.5,5.8-56.8,17.6-80.7,34c-7.1,4.9-13.9,10.2-20.4,15.8l0,0c-5.1,4.4-9.9,9.1-14.6,14
			c-4.1,4.3-8,8.8-11.8,13.5c-17.2,21.4-30.5,46.1-38.7,73.1c-1.6,5.1-3,10.3-4.1,15.6c-3.5,15.4-5.3,31.5-5.3,47.9
			c0,14.2,1.4,28,3.9,41.4c0.2,1,0.4,2,0.6,3c5.9,28.7,17.5,55.3,33.5,78.7c4.4,6.4,9.1,12.6,14.2,18.5c4.4,5.1,9,10.1,13.8,14.8
			c4.4,4.3,8.9,8.3,13.7,12.2c37.7,31,85.9,49.6,138.3,49.6c44.9,0,86.7-13.6,121.4-37c6.1-4.1,12-8.5,17.6-13.2
			c6.4-5.4,12.5-11,18.3-17.1c4-4.2,7.9-8.6,11.7-13.2c17-20.9,30.3-44.9,38.7-71.1c1.7-5.1,3.1-10.3,4.4-15.6c3.9-16.4,6-33.4,6-51
			C568.1,305.3,554.6,263.7,531.5,229.1z M490.8,218.5c2.1,0.6,4.1,1.3,6.2,1.9c3.6,1.1,7.2,2.2,11,3.3c19.4,24.2,33.4,53,40,84.5
			c-24.7-1.4-39.1-5.8-54.2-10.5c-2.1-0.6-4.2-1.3-6.3-1.9c-0.9-8.2-1.5-17.7-1.5-29C486,245.5,488,230.8,490.8,218.5z M404.5,188.6
			c2.9-9.4,5.9-19,8.1-31.1c25.2,8.2,48.3,21.3,68.1,38.1c-0.3,1.2-0.7,2.3-1,3.5c-13.4-3.1-29.6-5.4-53-5.4c-9,0-16.9,0.3-24,0.9
			C403.3,192.7,403.9,190.6,404.5,188.6z M312.1,196.5c4.1-13.2,8.3-26.7,10.3-47c9-1.2,18.2-1.9,27.6-1.9c16.3,0,32.2,1.9,47.4,5.6
			c-2.1,11.8-4.9,21.1-7.9,30.7c-1.3,4.2-2.6,8.4-3.8,12.8c-13.5,2.2-23.9,5.5-34,8.6c-13.1,4.1-25.7,8-44.9,9.8
			C308.4,208.6,310.2,202.6,312.1,196.5z M306.2,152.4c-2,16.2-5.5,27.6-9.2,39.4c-2.4,7.6-4.7,15.3-6.7,24.3
			c-2.9,0.1-5.9,0.1-9.1,0.1c-31.5,0-48.5-4.3-64.8-9.2c1-3.6,2.1-7.1,3.2-10.6c0.2-0.5,0.3-1.1,0.5-1.6h0
			C244.6,174.4,274,159.5,306.2,152.4z M197,217.7c0.2-0.3,0.5-0.5,0.7-0.8c-0.1,0.3-0.1,0.6-0.2,0.9c-2.7,12.6-4.5,27.9-4.5,49.1
			c0,10.8,0.5,20.1,1.3,28.3c-10.3-3-21.7-5.9-36.8-7.5C165.9,261.6,179.5,237.9,197,217.7z M147.6,350c0-16.2,1.9-31.9,5.5-47
			c18.7,1.8,31,5.5,43.7,9.4c2.2,11.4,5,20.5,7.8,29.5c4.4,14.1,8.6,27.6,10.2,49.5v0c-1.3-0.4-2.6-0.8-3.9-1.2
			c-16-5-32.5-10.1-61.2-11.3v0C148.3,369.5,147.6,359.8,147.6,350z M205.1,480.9c-3.9-1.2-7.9-2.4-12.2-3.5
			c-19.3-23.7-33.3-51.8-40.3-82.6c24.3,1.4,38.6,5.8,53.5,10.5c3,0.9,6.1,1.9,9.3,2.8c0,1.4,0,2.8,0,4.2
			C215.5,446.3,210.6,463.4,205.1,480.9z M285.8,541.9c-26.2-8.8-50-22.8-70.2-40.8c-0.3-0.3-0.6-0.5-0.9-0.8c0.3,0.1,0.7,0.2,1,0.3
			c15.9,4.7,34.3,8.7,65.5,8.7c3,0,5.8,0,8.6-0.1C287.9,518.3,286.4,528.8,285.8,541.9z M381.9,549.8c-10.4,1.7-21,2.5-31.9,2.5
			c-16.8,0-33-2.1-48.6-5.9c0.6-16,2.4-27.9,4.8-38.1c22.1-1.9,36.3-6.3,50.1-10.6c9-2.8,17.8-5.5,28.6-7.5
			c-3.9,14.6-7.1,32.2-7.1,59.6H381.9z M474.7,509.3c-23.4,18.4-51,31.7-81.1,38.4c0.2-28.4,3.9-44.7,8.4-59.8
			c7.2-0.7,15.3-1.1,24.7-1.1c23.7,0,39.2,2.4,52.3,5.7C477.4,497.7,475.9,503.2,474.7,509.3z M483.5,477.4
			c-14.1-3.6-31.2-6.4-56.9-6.4c-7.2,0-13.7,0.2-19.7,0.6c-6.2,0.4-11.9,1-17,1.8c-15.7,2.2-27.1,5.8-38.3,9.3
			c-12.2,3.8-23.9,7.4-40.9,9.4c-5.1,0.6-10.7,1-16.9,1.3c-3.9,0.2-8.1,0.2-12.6,0.2c-29.1,0-45.8-3.6-61-8.1
			c5.5-17.9,11.1-36.9,11.1-73.2v-0.1c0-5.9-0.1-11.2-0.4-16.3c-1.5-27.1-6.4-43.1-11.2-58.7c-2-6.4-3.9-12.7-5.6-19.8
			c-1.3-5.2-2.4-10.9-3.3-17.3c-1.3-9.2-2-19.9-2-33.3c0-19.1,1.6-32.9,3.9-44.4c16.6,5,35.4,9.6,68.6,9.6c2.1,0,4.2,0,6.3,0
			c5.8-0.1,11.1-0.4,16-0.8c23.6-1.8,38.3-6.4,52.7-10.8c8.1-2.5,16-5,25.4-6.9c5-1,10.5-1.9,16.7-2.6c8.1-0.9,17.3-1.4,28.3-1.4
			c21.7,0,36.5,2,48.9,4.9c-3,13.3-5.3,29.4-5.3,52.5c0,9.2,0.4,17.3,1,24.6c0.5,6.1,1.2,11.7,2.1,16.8c2.2,13.4,5.4,23.6,8.6,33.7
			c4.1,13.2,8,25.8,9.8,45.3c0.5,5.1,0.8,10.6,1,16.8c0.1,2.7,0.1,5.4,0.1,8.3C492.8,444,488.5,461.1,483.5,477.4z M502.5,482.9
			c-0.3-0.1-0.5-0.2-0.8-0.2c-1-0.3-2-0.6-3-0.9c5.1-16.9,9.9-35.7,9.9-69.4c0-1.2,0-2.4,0-3.5c9.3,2.7,19.7,5.1,33,6.6
			C532.9,440.4,519.6,463.3,502.5,482.9z M546.1,400c-15.9-1.6-27.3-4.5-38.2-7.8c-1.7-24.9-6.4-40.1-11-54.9
			c-2.4-7.7-4.7-15.2-6.6-24c15.7,4.9,32.2,9.8,60.4,11c1.1,8.4,1.6,17,1.6,25.8C552.3,367.2,550.2,384,546.1,400z"/>
	</g>
	<g>
		<path class="st0" d="M197.7,216.9c-0.1,0.3-0.1,0.6-0.2,0.9c-0.1,0-0.3-0.1-0.5-0.1C197.3,217.4,197.5,217.1,197.7,216.9z"/>
	</g>
	<g>
		<g>
			<g>
				<path class="st27" d="M375.6,330.8h-1.5c-0.6,0-1.2-0.6-1.2-1.2v-1.5L375.6,330.8z"/>
				<path class="st27" d="M435.7,369.9c0-0.6,0-1.1,0-1.6v-33.7c0-0.5-0.1-0.9-0.2-1.4c-0.8-5.1-5-8.7-10.3-8.9c-0.4,0-0.8,0-1.3,0
					h-44.5v-43.2l0-0.8c0-1.2,0-2.6-0.3-4c-1-4.9-5.3-8.1-10.5-8.2c-7.8,0-15.8,0-23.5,0c-3.9,0-7.8,0-11.7,0c-0.3,0-0.6,0-0.9,0
					c-1.6,0-3.4-0.1-5.1,0.5c-4.3,1.4-7,5.5-7.1,10.6c0,3,0,6.1,0,9.2v35.9h-44c-1.2,0-2.6,0-4,0.3c-4.9,1-8.1,5.3-8.2,10.5
					c0,7.8,0,15.8,0,23.5c0,3.9,0,7.8,0,11.7c0,0.3,0,0.6,0,0.9c0,1.6-0.1,3.4,0.5,5.1c1.4,4.3,5.5,7,10.6,7.1c3,0,6.1,0,9.2,0h35.9
					v44c0,1.2,0,2.6,0.3,4c1,4.9,5.3,8.1,10.5,8.2c3.9,0,7.8,0,11.8,0c3.9,0,7.8,0,11.7,0c3.9,0,7.8,0,11.7,0c0.3,0,0.6,0,0.9,0
					c1.6,0,3.4,0.1,5.1-0.5c4.3-1.4,7-5.5,7.1-10.6c0-3,0-6.1,0-9.2v-35.9h44.4c5.8,0,10-2.8,11.4-7.5
					C435.9,373.9,435.8,371.7,435.7,369.9z M372.9,328.2l2.6,2.6h-1.5c-0.6,0-1.2-0.6-1.2-1.2V328.2z M424.9,372.5
					c-0.1,0-0.3,0-0.6,0h-50.1c-2.9,0-5.4,2.5-5.4,5.4v47.4c0,0.4,0,0.8,0,1.2c0,0.7,0,1.4,0,2.1v0h-34.9c-0.4,0-0.8,0-1.2,0.1
					c-0.5,0-1,0.1-1.4,0c0-0.3,0-0.7,0-1v-49.9c0-2.9-2.5-5.4-5.4-5.4h-47.4c-0.4,0-0.8,0-1.2,0c-0.7,0-1.4,0-2.1,0h0v-34.9
					c0-0.4,0-0.8-0.1-1.2c0-0.5-0.1-1,0-1.4c0.3,0,0.7,0,1,0h49.9c2.9,0,5.4-2.5,5.4-5.4v-47.4c0-0.4,0-0.8,0-1.2c0-0.7,0-1.4,0-2.1
					v0h34.9c0.4,0,0.8,0,1.2-0.1c0.5,0,1-0.1,1.4,0c0,0.3,0,0.7,0,1v49.9c0,2.9,2.5,5.4,5.4,5.4h50.5c0.1,0,0.2,0,0.3,0
					c0,4.1,0,8.1,0,12.2C425,355.5,425,364.1,424.9,372.5z"/>
			</g>
		</g>
	</g>
</g>
</svg>
