<svg xmlns="http://www.w3.org/2000/svg" viewBox="0 0 700 700"><g><path d="M396.65 445.69c-.12 4.03-3.63 7.14-7.66 7.14H99.05c-2.38 0-4.69-.38-6.86-1.1a21.343 21.343 0 0 1-13.12-12.22c-1.07-2.76-1.62-5.55-1.62-8.19v-.06c.02-5.68 2.3-11.2 6.29-15.17l21.98-21.96c2.58-2.58 6.69-2.87 9.57-.64l.12.09c3.49 2.7 3.86 7.84.74 10.96l-22 21.98c-1.25 1.23-1.96 2.97-1.97 4.77v.03c0 .81.2 1.79.58 2.74.99 2.41 3.47 4.04 6.29 4.04h290.24c4.13 0 7.48 3.42 7.36 7.59Zm156.53-85.66s-.03.07-.05.1c-.03.08-.06.15-.11.22-.03.05-.04.1-.07.14-.02.06-.05.12-.09.17-.04.08-.08.16-.13.23-.04.07-.08.13-.13.19-.23.35-.51.69-.82 1-2.86 2.88-7.53 2.89-10.41.02l-4.99-4.97-7.44-7.42-4.32-4.31c-6.71-6.73-15.67-10.43-25.24-10.43H322.77c-4.76 0-8.28-4.5-7.06-9.1l.04-.15c.85-3.22 3.73-5.48 7.06-5.48h176.57c13.51 0 26.17 5.23 35.66 14.74l16.72 16.68c2.27 2.26 2.74 5.63 1.42 8.37Zm47.85 92.8h-93.88a7.37 7.37 0 0 1 0-14.74h93.88c2.72 0 5.24-1.66 6.23-4.14.35-.89.56-1.86.56-2.64 0-1.82-.75-3.64-2.06-4.99l-45.5-45.4c-2.89-2.87-2.89-7.53-.02-10.42a7.363 7.363 0 0 1 10.42 0l45.61 45.5c4.1 4.23 6.29 9.64 6.29 15.32 0 2.64-.54 5.36-1.59 8.08-3.32 8.2-11.13 13.43-19.93 13.43Z"></path><path d="M601.03 511.76H99.05c-8.68 0-16.51-5.19-19.93-13.22-1.12-2.87-1.67-5.66-1.67-8.3 0-.17 0-.35.02-.53l-.02-58.43c0-4.07 3.3-7.37 7.37-7.37s7.37 3.29 7.37 7.37l.02 58.93v.35c.05.75.24 1.59.57 2.41 1.03 2.42 3.47 4.05 6.29 4.05h501.98c2.72 0 5.24-1.66 6.23-4.13.35-.89.56-1.86.56-2.65v-58.96a7.37 7.37 0 0 1 14.74 0v58.93c0 2.68-.54 5.39-1.59 8.11-3.32 8.19-11.13 13.43-19.93 13.43Z"></path><path d="M612.3 467.99a9.871 9.871 0 0 0-4.48-2.57c-.79-.2-1.61-.31-2.46-.31-5.4 0-9.82 4.41-9.82 9.82 0 2.7 1.1 5.15 2.88 6.93a9.806 9.806 0 0 0 9.4 2.58 9.889 9.889 0 0 0 4.48-2.58c1.78-1.78 2.88-4.23 2.88-6.93s-1.1-5.16-2.88-6.94Zm-29.46 0a9.797 9.797 0 0 0-6.94-2.88c-5.4 0-9.82 4.41-9.82 9.82 0 2.7 1.1 5.15 2.88 6.93 1.78 1.78 4.24 2.89 6.94 2.89s5.16-1.11 6.94-2.89c1.78-1.78 2.88-4.23 2.88-6.93s-1.1-5.16-2.88-6.94Zm-29.48 0a9.774 9.774 0 0 0-6.93-2.88c-5.4 0-9.82 4.41-9.82 9.82 0 2.7 1.11 5.15 2.89 6.93 1.78 1.78 4.23 2.89 6.93 2.89s5.15-1.11 6.93-2.89c1.78-1.78 2.89-4.23 2.89-6.93s-1.11-5.16-2.89-6.94Zm-29.46 0a9.774 9.774 0 0 0-6.93-2.88c-5.4 0-9.82 4.41-9.82 9.82 0 2.7 1.11 5.15 2.89 6.93 1.78 1.78 4.23 2.89 6.93 2.89s5.15-1.11 6.93-2.89c1.78-1.78 2.89-4.23 2.89-6.93s-1.11-5.16-2.89-6.94Zm-29.46 0a9.797 9.797 0 0 0-6.94-2.88c-5.4 0-9.82 4.41-9.82 9.82 0 2.7 1.1 5.15 2.88 6.93 1.78 1.78 4.24 2.89 6.94 2.89s5.16-1.11 6.94-2.89c1.78-1.78 2.88-4.23 2.88-6.93s-1.1-5.16-2.88-6.94Zm-29.46 0a9.797 9.797 0 0 0-6.94-2.88c-5.4 0-9.82 4.41-9.82 9.82 0 2.7 1.1 5.15 2.88 6.93 1.78 1.78 4.24 2.89 6.94 2.89s5.16-1.11 6.94-2.89c1.78-1.78 2.88-4.23 2.88-6.93s-1.1-5.16-2.88-6.94ZM84.82 465.2c2.55 0 5.1.89 6.97 2.75 1.76 1.87 2.85 4.42 2.85 6.97s-1.08 5.1-2.85 6.97c-1.87 1.76-4.42 2.85-6.97 2.85v-19.55Zm229.58 2.79a9.774 9.774 0 0 0-6.93-2.88 9.78 9.78 0 0 0-9.82 9.82c0 2.7 1.08 5.15 2.85 6.93 1.76 1.78 4.22 2.89 6.97 2.89s5.15-1.11 6.93-2.89c1.78-1.78 2.89-4.23 2.89-6.93s-1.11-5.16-2.89-6.94Zm-27.88 0a9.797 9.797 0 0 0-6.94-2.88c-5.41 0-9.82 4.41-9.82 9.82 0 2.7 1.1 5.15 2.88 6.93 1.78 1.78 4.24 2.89 6.94 2.89s5.16-1.11 6.94-2.89c1.78-1.78 2.88-4.23 2.88-6.93s-1.1-5.16-2.88-6.94Zm-27.8 0a9.797 9.797 0 0 0-6.94-2.88c-5.41 0-9.82 4.41-9.82 9.82 0 2.7 1.1 5.15 2.88 6.93 1.78 1.78 4.24 2.89 6.94 2.89s5.16-1.11 6.94-2.89c1.78-1.78 2.89-4.23 2.89-6.93s-1.11-5.16-2.89-6.94Zm-27.8 0a9.774 9.774 0 0 0-6.93-2.88c-5.51 0-9.82 4.41-9.82 9.82 0 2.7 1.08 5.15 2.84 6.93 1.77 1.78 4.23 2.89 6.98 2.89s5.15-1.11 6.93-2.89c1.78-1.78 2.89-4.23 2.89-6.93s-1.11-5.16-2.89-6.94Zm-27.85 0a9.78 9.78 0 0 0-6.97-2.88c-5.41 0-9.83 4.41-9.83 9.82 0 2.7 1.11 5.15 2.89 6.93 1.78 1.78 4.24 2.89 6.94 2.89s5.2-1.11 6.97-2.89c1.77-1.78 2.85-4.23 2.85-6.93s-1.08-5.16-2.85-6.94Zm-27.83 0a9.797 9.797 0 0 0-6.94-2.88c-5.41 0-9.82 4.41-9.82 9.82 0 2.7 1.1 5.15 2.88 6.93 1.78 1.78 4.24 2.89 6.94 2.89s5.16-1.11 6.94-2.89c1.78-1.78 2.88-4.23 2.88-6.93s-1.1-5.16-2.88-6.94Zm-27.8 0a9.797 9.797 0 0 0-6.94-2.88 9.78 9.78 0 0 0-9.82 9.82c0 2.7 1.08 5.15 2.85 6.93 1.77 1.78 4.22 2.89 6.97 2.89s5.16-1.11 6.94-2.89c1.78-1.78 2.89-4.23 2.89-6.93s-1.11-5.16-2.89-6.94Zm-27.86 0c-1.76-1.78-4.22-2.88-6.97-2.88-5.41 0-9.82 4.41-9.82 9.82 0 2.7 1.1 5.15 2.88 6.93 1.78 1.78 4.23 2.89 6.94 2.89s5.21-1.11 6.97-2.89c1.77-1.78 2.85-4.23 2.85-6.93s-1.08-5.16-2.85-6.94Zm215.69 16.76c-2.55 0-5.1-1.08-6.97-2.85-1.77-1.87-2.85-4.42-2.85-6.97s1.07-5.1 2.85-6.97c3.64-3.64 10.21-3.64 13.95 0 1.76 1.87 2.85 4.42 2.85 6.97s-1.08 5.1-2.85 6.97c-1.87 1.76-4.42 2.85-6.97 2.85Z"></path><path d="M399.64 482.3c-4.07 0-7.63-3.3-7.63-7.37s3.03-7.37 7.1-7.37h.53c22.57 0 44.25-9.54 59.51-26.18L541 352.09c2.74-2.99 7.43-3.19 10.41-.45 3 2.75 3.2 7.41.45 10.41l-81.85 89.29c-18.04 19.68-43.69 30.96-70.37 30.96Z"></path><path d="M450.49 466.19a7.362 7.362 0 0 1-7.15-9.15c3.17-12.72 1.38-26.61-4.91-38.08l-15.84-28.88a7.376 7.376 0 0 1 .12-7.29 7.36 7.36 0 0 1 6.34-3.61h90.37a7.37 7.37 0 0 1 0 14.74h-77.93l9.85 17.97c8.17 14.91 10.41 32.21 6.28 48.73-.83 3.35-3.84 5.58-7.14 5.58Z"></path><path d="M399.11 482.3h-9.81a7.37 7.37 0 0 1 0-14.74h8.84c6.78-1.96 12.46-6.92 15.31-13.39 2.99-6.84 2.67-14.53-.91-21.09l-27.63-50.65c-2.03-3.72-3.04-7.39-2.98-10.91.06-3.6 1.19-7.3 3.38-10.99 3.97-6.68 11.26-10.83 19.03-10.83h142.11a7.37 7.37 0 0 1 0 14.74H404.34c-2.6 0-5.04 1.39-6.35 3.62-.84 1.41-1.31 2.72-1.32 3.7 0 .53.13 1.71 1.18 3.62l27.63 50.66c5.78 10.6 6.31 23.01 1.47 34.06-4.78 10.89-14.51 19.11-26.04 21.99-.59.14-1.18.22-1.78.22Z"></path><path d="m389.29 474.93-26.59-9.55c-1.8-.54-3.79-.27-5.33.75s-2.46 2.63-2.46 4.36v8.88c0 1.74.91 3.35 2.46 4.36 1.54 1.02 3.53 1.29 5.33.75l26.59-9.55Z"></path><path d="M360.84 492.12c-2.7 0-5.3-.77-7.52-2.23-3.62-2.38-5.77-6.3-5.77-10.51v-8.88c0-4.21 2.16-8.14 5.77-10.52 3.31-2.19 7.62-2.81 11.48-1.65l26.98 9.68c2.93 1.06 4.87 3.83 4.87 6.93s-1.95 5.88-4.87 6.93l-26.59 9.55c-1.68.51-3.01.7-4.35.7Z"></path></g><g><path d="M196.49 406.9c-5.62 0-10.76-2.59-14.1-7.09l-15.2-20.45a2.56 2.56 0 0 0-2.66-.97l-24.79 5.9c-5.47 1.3-11.06-.02-15.36-3.63-4.3-3.61-6.58-8.89-6.25-14.5l1.5-25.44c.06-1.03-.49-1.99-1.42-2.45l-22.78-11.41c-5.02-2.52-8.46-7.13-9.43-12.66-.97-5.53.68-11.04 4.53-15.12l17.5-18.52c.71-.75.9-1.84.49-2.79l-10.11-23.39c-2.23-5.15-1.9-10.9.91-15.76 2.81-4.86 7.62-8.02 13.19-8.67l25.31-2.93a2.58 2.58 0 0 0 2.17-1.82l7.28-24.42c1.61-5.38 5.55-9.57 10.83-11.49 5.27-1.92 10.99-1.25 15.68 1.84l21.28 14.02c.86.57 1.97.57 2.83 0l21.28-14.02c4.69-3.09 10.4-3.76 15.68-1.84 5.28 1.92 9.22 6.11 10.83 11.49l7.29 24.42c.29.99 1.15 1.7 2.17 1.82l25.31 2.93c5.58.65 10.39 3.81 13.19 8.67 2.81 4.86 3.14 10.61.91 15.76l-10.12 23.39c-.41.95-.22 2.04.49 2.79l17.5 18.52c3.86 4.08 5.51 9.59 4.53 15.12-.97 5.53-4.41 10.14-9.43 12.66l-22.78 11.41a2.57 2.57 0 0 0-1.42 2.45l1.51 25.44c.33 5.61-1.95 10.89-6.25 14.5-4.3 3.61-9.9 4.93-15.36 3.63l-24.79-5.9c-1-.24-2.05.14-2.66.97l-15.2 20.45c-3.35 4.51-8.49 7.09-14.1 7.09Zm-31.36-43.58c5.48 0 10.73 2.57 14.09 7.09l15.2 20.45c.67.9 1.58 1.04 2.06 1.04s1.4-.14 2.07-1.04l15.2-20.45a17.55 17.55 0 0 1 18.17-6.61l24.79 5.9c1.1.26 1.88-.22 2.25-.53.37-.31.98-1 .92-2.12l-1.51-25.44a17.55 17.55 0 0 1 9.67-16.75l22.78-11.41a2.5 2.5 0 0 0 1.38-1.85c.08-.48.11-1.4-.66-2.21l-17.5-18.52a17.556 17.556 0 0 1-3.36-19.04l10.12-23.39c.45-1.03.11-1.89-.13-2.31a2.51 2.51 0 0 0-1.93-1.27l-25.31-2.93c-6.99-.81-12.8-5.69-14.81-12.43l-7.29-24.42a2.493 2.493 0 0 0-1.59-1.68c-.45-.17-1.36-.35-2.3.27l-21.27 14.02a17.56 17.56 0 0 1-19.34 0l-21.28-14.02c-.94-.62-1.84-.43-2.3-.27-.45.17-1.26.6-1.59 1.68l-7.28 24.42a17.556 17.556 0 0 1-14.81 12.43l-25.31 2.93a2.51 2.51 0 0 0-1.93 1.27c-.24.42-.58 1.27-.13 2.31l10.11 23.39a17.552 17.552 0 0 1-3.36 19.04l-17.5 18.52c-.77.82-.75 1.74-.66 2.22s.37 1.35 1.38 1.85l22.78 11.41a17.566 17.566 0 0 1 9.67 16.75l-1.5 25.44c-.07 1.12.54 1.81.91 2.12.37.31 1.16.79 2.25.53l24.79-5.9c1.36-.32 2.73-.48 4.08-.48Z"></path><path d="M192.59 270.97c0 12.32-9.86 22.3-22.04 22.3s-22.17-9.85-22.17-22.17 9.85-22.17 21.39-22.17c12.97 0 22.82 9.59 22.82 22.04Zm-30.6 0c0 4.67 3.76 8.56 8.43 8.56s8.43-3.89 8.43-8.56-3.76-8.43-8.04-8.43c-5.06 0-8.82 3.63-8.82 8.43Zm48.88-20.36h12.58l-37.6 91.02h-12.58l37.6-91.02Zm37.73 71.05c0 12.32-9.85 22.17-22.17 22.17s-22.17-9.85-22.17-22.17 9.98-22.17 21.39-22.17c13.1 0 22.95 9.59 22.95 22.17Zm-30.6-.39c0 4.93 3.76 8.95 8.43 8.95s8.56-4.15 8.56-8.95c0-4.41-3.76-8.04-8.3-8.04-5.19 0-8.69 3.24-8.69 8.04Z"></path></g></svg>