<svg xmlns="http://www.w3.org/2000/svg" xml:space="preserve" viewBox="0 0 700 700"><text transform="translate(4930.545 -2589.395)"><tspan x="0" y="0" font-family="'MyriadPro-Regular'" font-size="100">Декубитални</tspan><tspan x="0" y="120" font-family="'MyriadPro-Regular'" font-size="100">матраци</tspan></text><text transform="translate(6338.016 -4250.278)"><tspan x="0" y="0" font-family="'MyriadPro-Regular'" font-size="100">Декубитални</tspan><tspan x="0" y="120" font-family="'MyriadPro-Regular'" font-size="100">матраци</tspan></text><text transform="translate(3807.016 -4250.278)"><tspan x="0" y="0" font-family="'MyriadPro-Regular'" font-size="100">Ортопедичен </tspan><tspan x="0" y="120" font-family="'MyriadPro-Regular'" font-size="100">матрак</tspan></text><text transform="translate(4658.016 -4250.278)"><tspan x="0" y="0" font-family="'MyriadPro-Regular'" font-size="100">Матрак с </tspan><tspan x="0" y="120" font-family="'MyriadPro-Regular'" font-size="100">мемори пяна</tspan></text><text transform="translate(5516.016 -4250.278)"><tspan x="0" y="0" font-family="'MyriadPro-Regular'" font-size="100">Матрак</tspan><tspan x="0" y="120" font-family="'MyriadPro-Regular'" font-size="100">с покет </tspan><tspan x="0" y="240" font-family="'MyriadPro-Regular'" font-size="100">пружини</tspan></text><text transform="translate(5516.016 -5607.278)"><tspan x="0" y="0" font-family="'MyriadPro-Regular'" font-size="100">Протектори </tspan><tspan x="0" y="120" font-family="'MyriadPro-Regular'" font-size="100">за матраци</tspan></text><text font-family="'MyriadPro-Regular'" font-size="100" transform="translate(2977.016 -4250.278)">Матрак</text><text font-family="'MyriadPro-Regular'" font-size="100" transform="translate(6338.016 -2954.278)">Възглавници</text><text transform="translate(7225.016 -2954.278)"><tspan x="0" y="0" font-family="'MyriadPro-Regular'" font-size="100">Aнатомична</tspan><tspan x="0" y="120" font-family="'MyriadPro-Regular'" font-size="100">възглавница</tspan></text><text transform="translate(8112.016 -2954.278)"><tspan x="0" y="0" font-family="'MyriadPro-Regular'" font-size="100">Oртопедична</tspan><tspan x="0" y="120" font-family="'MyriadPro-Regular'" font-size="100">възглавница</tspan></text><text transform="translate(8918.016 -2954.278)"><tspan x="0" y="0" font-family="'MyriadPro-Regular'" font-size="100">Мемори пяна</tspan><tspan x="0" y="120" font-family="'MyriadPro-Regular'" font-size="100">възглавница</tspan></text><text font-family="'MyriadPro-Regular'" font-size="100" transform="translate(6338.016 -1786.278)">Спално бельо</text><text transform="translate(6338.016 326.722)"><tspan x="0" y="0" font-family="'MyriadPro-Regular'" font-size="100">Разопаковани</tspan><tspan x="0" y="120" font-family="'MyriadPro-Regular'" font-size="100">продукти</tspan></text><text transform="translate(7225.016 -1786.278)"><tspan x="0" y="0" font-family="'MyriadPro-Regular'" font-size="100">Калъфка за </tspan><tspan x="0" y="120" font-family="'MyriadPro-Regular'" font-size="100">възглавница</tspan></text><text transform="translate(8112.016 -1786.278)"><tspan x="0" y="0" font-family="'MyriadPro-Regular'" font-size="100">Калъфка за</tspan><tspan x="0" y="120" font-family="'MyriadPro-Regular'" font-size="100">завивка</tspan></text><text transform="translate(8918.016 -1786.278)"><tspan x="0" y="0" font-family="'MyriadPro-Regular'" font-size="100">Спални </tspan><tspan x="0" y="120" font-family="'MyriadPro-Regular'" font-size="100">комплекти</tspan></text><text transform="translate(9770.016 -1786.278)"><tspan x="0" y="0" font-family="'MyriadPro-Regular'" font-size="100">Олекотена </tspan><tspan x="0" y="120" font-family="'MyriadPro-Regular'" font-size="100">завивка</tspan></text><text font-family="'MyriadPro-Regular'" font-size="100" transform="translate(10714.016 -1786.278)">Aксеоари</text><text font-family="'MyriadPro-Regular'" font-size="100" transform="translate(11674.016 -1786.278)">Чаршафи</text><text font-family="'MyriadPro-Regular'" font-size="100" transform="translate(12586.016 -1786.278)">Пуфове</text><text font-family="'MyriadPro-Regular'" font-size="100" transform="translate(13361.016 -1786.278)">Легла за кучета</text><text font-family="'MyriadPro-Regular'" font-size="100" transform="translate(13263.016 -2803.278)">Защитно облекло</text><text font-family="'MyriadPro-Regular'" font-size="100" transform="translate(9726.016 -2954.278)">охляждащ гел</text><text font-family="'MyriadPro-Regular'" font-size="100" transform="translate(10571.016 -2954.278)">Силиконов пух</text><text transform="translate(7187.081 -4206.23)"><tspan x="0" y="0" font-family="'MyriadPro-Regular'" font-size="100">Tоп</tspan><tspan x="0" y="120" font-family="'MyriadPro-Regular'" font-size="100">матрак</tspan></text><text transform="translate(8101.35 -4237.277)"><tspan x="0" y="0" font-family="'MyriadPro-Regular'" font-size="100">Ортопедичен</tspan><tspan x="0" y="120" font-family="'MyriadPro-Regular'" font-size="100">топ матрак</tspan></text><text transform="translate(8836.349 -4237.277)"><tspan x="0" y="0" font-family="'MyriadPro-Regular'" font-size="100">Toп матрак с </tspan><tspan x="0" y="120" font-family="'MyriadPro-Regular'" font-size="100">мемори пяна</tspan></text><text font-family="'MyriadPro-Regular'" font-size="100" transform="translate(1492.499 -1792.04)">Спално бельо</text><text transform="translate(2299.499 -1848.04)"><tspan x="0" y="0" font-family="'MyriadPro-Regular'" font-size="100">Детски </tspan><tspan x="0" y="120" font-family="'MyriadPro-Regular'" font-size="100">продукти</tspan></text><text font-family="'MyriadPro-Regular'" font-size="100" transform="translate(3100.499 -1848.04)">Аксеосари</text><text font-family="'MyriadPro-Regular'" font-size="100" transform="translate(-84.5 -1806.04)">Топ матрацни</text><text transform="translate(-856.5 -1806.04)"><tspan x="0" y="0" font-family="'MyriadPro-Regular'" font-size="100">tag-pro</tspan><tspan x="312.4" y="0" font-family="'MyriadPro-Regular'" font-size="100">-</tspan><tspan x="0" y="120" font-family="'MyriadPro-Regular'" font-size="100">mo-cat-mat</tspan><tspan x="490.5" y="120" font-family="'MyriadPro-Regular'" font-size="100">-</tspan></text><text font-family="'MyriadPro-Regular'" font-size="100" transform="translate(-856.5 -163.04)">Височина</text><text font-family="'MyriadPro-Regular'" font-size="100" transform="translate(833.5 -163.04)">размер</text><text transform="translate(1930.499 -163.04)"><tspan x="0" y="0" font-family="'MyriadPro-Regular'" font-size="100">Наръчник за </tspan><tspan x="0" y="120" font-family="'MyriadPro-Regular'" font-size="100">сън</tspan></text><text transform="translate(2949.499 -163.04)"><tspan x="0" y="0" font-family="'MyriadPro-Regular'" font-size="100">Матрак по</tspan><tspan x="0" y="120" font-family="'MyriadPro-Regular'" font-size="100">поръчка</tspan></text><text transform="translate(4067.499 -163.04)"><tspan x="0" y="0" font-family="'MyriadPro-Regular'" font-size="100">Ниво на </tspan><tspan x="0" y="120" font-family="'MyriadPro-Regular'" font-size="100">твърдост</tspan></text><text transform="translate(4985.499 -163.04)"><tspan x="0" y="0" font-family="'MyriadPro-Regular'" font-size="100">Ниво на </tspan><tspan x="0" y="120" font-family="'MyriadPro-Regular'" font-size="100">комфорт</tspan></text><text font-family="'MyriadPro-Regular'" font-size="100" transform="translate(689.5 -1806.04)">Възглавници</text><circle cx="5641.4" cy="-6052" r="10.4" transform="rotate(-22.5 5641.14 -6051.686)"></circle><circle cx="5603.3" cy="-6052" r="10.4" transform="rotate(-45.001 5603.367 -6051.945)"></circle><path d="M448.9 271.7H233.2c-3.4 0-6.2-4.2-6.2-9.4s2.8-9.4 6.2-9.4h215.7c3.4 0 6.2 4.2 6.2 9.4s-2.8 9.4-6.2 9.4zm93.7 194h-403c-6.4 0-11.5-4.2-11.5-9.4s5.2-9.4 11.5-9.4h403c6.4 0 11.5 4.2 11.5 9.4s-5.2 9.4-11.5 9.4z"></path><g><path fill-rule="evenodd" d="M262 534.6c-1-3.1-3.7-5.5-7-6h-.4l-4.3-.5-2.7-.3-8.8-1-5.3-.6-.7-.1-12.8-1.5-12.4-27.1-2.1-4.6c-.5-1.2-1.3-2.2-2.2-3-1.6-1.4-3.6-2.2-5.8-2.2-3.5 0-6.6 2-8 5.2l-.6 1.4-4.7 10.2-9.2 20.1-11.4 1.3-1.8.2-5.2.6-7 .8-3.3.4-5.4.6h-.4c-3.4.4-6.3 2.8-7.4 6-1.1 3.3-.1 6.9 2.4 9.2l12.8 11.8 3.1 2.8 4.6 4.2 5.1 4.7-.1.4-.4 2-2.9 14.1v.2l-.6 3.1-.6 3.2-2.2 11.1c-.1.5-.2 1.1-.2 1.6 0 1.6.4 3.1 1.2 4.5.2.4.5.8.8 1.1.5.6 1.1 1.2 1.7 1.7.9.6 1.8 1.1 2.8 1.4 1.5.4 3.2.4 4.7 0 .3-.1.7-.2 1-.3.4-.1.7-.3 1-.5l.4-.2 3.5-2 26.4-14.9 26.4 14.9 4 2.2c.6.3 1.3.6 2 .8 1.5.4 3.2.4 4.7 0 1-.3 2-.7 2.8-1.4.7-.5 1.2-1.1 1.7-1.7 1.6-2 2.3-4.6 1.7-7.2l-2.8-14.1-.7-3.3-3.1-15.3-.3-1.5.7-.6 1.4-1.3 2-1.9 3.3-3 1.5-1.4 8.3-7.6.1-.1 3.5-3.2.3-.3 2.4-2.2 2.1-1.9c2.5-2.1 3.5-5.7 2.4-9zm-64.5 48.8c-1.2 0-2.5.3-3.6.9l-29.2 16.5 6.6-32.8c.1-.3.1-.5.1-.8.3-2.3-.6-4.6-2.3-6.2l-24.7-22.8 33.3-3.9c2.6-.3 4.8-1.9 5.9-4.2l14-30.5 14 30.5c1.1 2.3 3.3 3.9 5.8 4.2l33.4 3.9L226 561c-1.7 1.6-2.6 3.9-2.3 6.3l6.7 33.4-29.2-16.5c-1.2-.5-2.5-.8-3.7-.8z" clip-rule="evenodd"></path><path d="M232.2 613.2c-.9 0-1.8-.1-2.6-.4-.7-.2-1.5-.5-2.2-.9l-29.9-16.8-29.9 16.8c-.4.2-.8.4-1.1.5-.3.1-.7.3-1.1.4-1.7.5-3.5.5-5.2 0-1.2-.3-2.2-.8-3.2-1.5-.7-.5-1.4-1.2-1.9-1.9-.3-.4-.6-.8-.8-1.2l-.1-.2c-.8-1.4-1.2-3.1-1.2-4.7 0-.6.1-1.2.2-1.8l6.8-33.6-25.2-23.2c-2.8-2.6-3.9-6.6-2.7-10.3 1.2-3.7 4.4-6.3 8.2-6.7l34.1-4 14.3-31.2c1.6-3.5 5.1-5.7 8.9-5.7 2.4 0 4.7.9 6.5 2.4 1 .9 1.9 2 2.5 3.3l2.1 4.6 12.2 26.6 34.1 4c.1 0 .3 0 .4.1 3.7.6 6.6 3.1 7.8 6.7 1.2 3.7.1 7.7-2.7 10.3l-25.5 23 6.8 33.6c.6 2.8-.1 5.8-1.9 8-.5.7-1.2 1.3-1.9 1.9-.9.7-2 1.2-3.2 1.5-.9.3-1.8.4-2.6.4zm-34.8-20.4 30.9 17.4c.6.3 1.2.6 1.8.7 1.4.4 2.8.4 4.2 0 .9-.3 1.8-.7 2.5-1.2.6-.4 1.1-.9 1.5-1.5 1.4-1.8 2-4.2 1.5-6.4l-7-34.7 26-24c2.3-2.1 3.1-5.3 2.2-8.2-.9-2.8-3.3-4.8-6.2-5.3h-.3l-35.2-4.1-14.7-32.2c-.5-1-1.1-1.9-2-2.6-1.4-1.3-3.3-1.9-5.2-1.9-3.1 0-5.8 1.8-7.1 4.6l-14.8 32.2-35.2 4.1c-3 .3-5.6 2.4-6.6 5.4-.9 2.9-.1 6.1 2.1 8.2l26.1 24-.6 2.9-6.4 31.8c-.1.5-.2 1-.2 1.5 0 1.4.3 2.7 1 3.9l.1.2c.2.3.3.5.5.8.5.6 1 1.1 1.5 1.5.7.5 1.6.9 2.5 1.2 1.4.4 2.8.4 4.2 0l.9-.3c.3-.1.6-.3.9-.4l.4-.2 3.6-2 27.1-15.4zm34.3 9.9-31.1-17.5c-1.9-1.1-4.3-1.1-6.2 0l-31.1 17.5 7-34.9c.1-.2.1-.4.1-.7.2-2-.5-4-2-5.4L142 537.6l35.5-4.1c2.2-.2 4.1-1.6 5.1-3.6l14.9-32.5 14.9 32.5c.9 2 2.8 3.4 5 3.6l35.5 4.1-26.4 24.2c-1.5 1.4-2.2 3.4-2 5.5l7.2 35.4zm-34.2-20.3c1.5 0 2.9.4 4.1 1.1l27.3 15.4-6.3-31.2c-.3-2.8.6-5.5 2.6-7.3l23.2-21.3-31.2-3.6c-2.9-.3-5.4-2.2-6.6-4.8l-13.1-28.5-13.1 28.5c-1.2 2.7-3.7 4.5-6.7 4.8l-31.1 3.6 23.1 21.3c1.9 1.8 2.9 4.4 2.6 7 0 .3-.1.6-.1.9l-6.1 30.6 27.3-15.4c1.2-.8 2.6-1.1 4.1-1.1z"></path><path d="M232.2 613.7c-.9 0-1.8-.1-2.7-.4-.7-.2-1.5-.5-2.3-.9l-29.7-16.7-29.6 16.7c-.5.2-.8.4-1.2.6-.4.1-.8.3-1.2.4-1.8.5-3.7.5-5.5 0-1.2-.3-2.4-.9-3.3-1.6-.8-.6-1.4-1.2-2-2-.3-.4-.6-.8-.9-1.3l-.2-.4c-.8-1.5-1.2-3.2-1.2-4.8 0-.6.1-1.2.2-1.9l6.7-33.4-25-23c-3-2.7-4.1-7-2.8-10.8 1.3-3.8 4.6-6.6 8.6-7.1l33.8-3.9 14.2-30.9c1.7-3.7 5.3-6 9.4-6 2.5 0 4.9.9 6.8 2.6 1.1.9 2 2.1 2.6 3.5l2.1 4.6 12 26.3 33.8 3.9c.1 0 .3 0 .5.1 3.9.6 7 3.3 8.2 7 1.2 3.8.1 8.1-2.8 10.8l-25 23 6.7 33.3c.6 3-.1 6.1-2 8.5-.6.7-1.3 1.4-2 2-.9.7-2.1 1.2-3.3 1.6-1.1.1-2 .2-2.9.2zm-34.8-21.4 31.1 17.5c.5.3 1.1.5 1.7.7 1.3.4 2.6.4 3.9 0 .9-.2 1.7-.6 2.3-1.1.6-.4 1-.9 1.5-1.4 1.4-1.7 1.9-3.9 1.5-6l-7-35 26.3-24.2c2.1-1.9 2.9-5 2-7.7-.9-2.6-3.1-4.5-5.8-5h-.3l-35.5-4.1-14.9-32.5c-.4-.9-1.1-1.8-1.8-2.5-1.3-1.2-3-1.8-4.8-1.8-2.9 0-5.5 1.7-6.7 4.3L176 526l-35.5 4.1c-2.8.3-5.3 2.3-6.1 5-.9 2.7-.1 5.7 2 7.7l26.3 24.2-.7 3.2-6.4 31.8c-.1.5-.1 1-.2 1.4 0 1.3.3 2.6 1 3.7l.2.3c.1.2.3.4.5.7.4.6.9 1 1.4 1.4.7.5 1.5.9 2.4 1.1 1.3.3 2.6.3 3.9 0 .3-.1.6-.2.8-.3.3-.1.6-.3.9-.4l.4-.2 3.6-2 26.9-15.4zm35 11.4-32.1-18.1c-1.7-1-4-1-5.8 0l-32.1 18.1 7.2-36c.1-.2.1-.4.1-.6.2-1.9-.5-3.7-1.8-5l-27.1-25 36.6-4.2c2.1-.2 3.8-1.5 4.7-3.4l15.4-33.5 15.4 33.5c.9 1.8 2.6 3.1 4.6 3.4l36.6 4.2-27.2 25c-1.3 1.3-2 3.1-1.8 5l7.3 36.6zm-34.9-21.8c1.5 0 3.1.4 4.4 1.2l26.4 14.8-6.1-30.3c-.3-2.8.7-5.7 2.7-7.6l22.3-20.6-30.1-3.5c-3-.3-5.7-2.3-7-5.1l-12.6-27.6-12.6 27.5c-1.3 2.8-3.9 4.8-7.1 5.1l-30.1 3.5L170 560c2 1.9 3.1 4.7 2.8 7.5 0 .3-.1.7-.2.9l-5.9 29.5 26.4-14.9c1.3-.7 2.8-1.1 4.4-1.1z"></path><path d="M162.8 614.7c-1 0-2-.1-3-.4-1.4-.4-2.6-1-3.7-1.8-.8-.6-1.6-1.3-2.2-2.2-.3-.4-.7-.9-1-1.4l-.2-.4c-.8-1.6-1.3-3.5-1.3-5.3 0-.7.1-1.3.2-2.1l6.6-32.8-24.6-22.6c-3.3-3-4.5-7.6-3.1-11.9 1.4-4.2 5.1-7.3 9.5-7.8l33.2-3.9 13.9-30.4c1.8-4 5.9-6.6 10.3-6.6 2.8 0 5.4 1 7.5 2.8 1.2 1 2.2 2.3 2.8 3.8l2.1 4.6 11.8 25.8 33.2 3.9c.1 0 .3 0 .5.1 4.2.7 7.7 3.6 9 7.7 1.4 4.2.1 8.9-3.1 11.9l-24.6 22.6 6.6 32.8c.7 3.3-.2 6.7-2.2 9.3-.6.8-1.4 1.5-2.2 2.2-1 .8-2.3 1.4-3.6 1.7-2 .5-4.1.5-6 0-.8-.2-1.7-.5-2.5-1l-29.2-16.4-29.1 16.4c-.5.3-.9.5-1.3.6-.4.2-.8.3-1.3.4-1 .3-2 .4-3 .4zm34.6-127.5c-3.6 0-7 2.1-8.5 5.4L174.5 524l-34.3 4c-3.6.4-6.7 2.9-7.8 6.4-1.1 3.5-.1 7.3 2.6 9.8l25.4 23.4-6.8 33.9c-.1.6-.2 1.2-.2 1.7 0 1.5.4 3 1 4.4l.2.4c.2.4.5.8.8 1.1.5.7 1.2 1.3 1.8 1.8.9.6 1.9 1.1 3 1.4 1.6.4 3.3.4 4.9 0 .4-.1.7-.2 1.1-.4.3-.1.7-.3 1.1-.5l30.1-16.9 30.2 17c.7.4 1.4.6 2.1.8 1.6.5 3.3.5 5 0 1.1-.3 2.1-.8 3-1.4.7-.5 1.3-1.1 1.8-1.8 1.7-2.2 2.4-5 1.8-7.6l-6.8-33.9 25.4-23.4c2.7-2.5 3.7-6.3 2.6-9.8-1.1-3.3-3.9-5.8-7.4-6.3h-.4l-34.4-4-14.4-31.4c-.5-1.2-1.4-2.3-2.3-3.1-1.7-1.6-3.9-2.4-6.2-2.4zm-34.6 124.5c-.7 0-1.5-.1-2.2-.3-1-.3-1.9-.7-2.7-1.3-.6-.4-1.2-1-1.6-1.6-.2-.2-.4-.5-.5-.7l-.2-.3c-.7-1.3-1.1-2.7-1.1-4.2 0-.5.1-1 .2-1.6l7-34.5-25.9-23.8c-2.4-2.2-3.3-5.6-2.3-8.7 1-3.1 3.7-5.3 7-5.7l34.9-4.1 14.7-32c1.3-3 4.3-4.9 7.6-4.9 2 0 4 .7 5.5 2.1.9.8 1.6 1.7 2.1 2.8l14.6 31.9 35 4.1h.3c3.1.5 5.6 2.7 6.6 5.7 1 3.1.1 6.5-2.3 8.7l-25.8 23.8 6.9 34.4c.5 2.4-.1 4.9-1.6 6.8-.5.6-1 1.1-1.6 1.6-.8.6-1.7 1-2.7 1.3-1.5.4-3 .4-4.4 0-.6-.2-1.2-.4-1.8-.7l-30.6-17.2-30.6 17.2c-.3.2-.7.3-1 .5-.3.1-.6.2-1 .3-1.1.3-1.8.4-2.5.4zm34.6-121.5c-2.5 0-4.7 1.5-5.7 3.7l-15.1 33-36 4.2c-2.5.3-4.5 2-5.3 4.3-.8 2.3-.1 4.9 1.7 6.6l26.7 24.6-.8 3.7-6.4 31.8c-.1.4-.1.8-.1 1.2 0 1.1.3 2.2.8 3.2l.2.3c.1.2.2.3.4.5.4.5.8.9 1.3 1.2.6.4 1.3.8 2.1 1 1.1.3 2.3.3 3.3 0 .3-.1.5-.2.7-.2.3-.1.5-.2.8-.4l.3-.2 3.6-2 27.6-15.6 31.6 17.8c.5.2 1 .4 1.4.6 1.1.3 2.3.3 3.4 0 .8-.2 1.4-.5 2-1 .5-.4.9-.8 1.3-1.2 1.2-1.5 1.6-3.4 1.3-5.2l-7.2-35.5L258 542c1.8-1.7 2.5-4.3 1.8-6.6s-2.7-3.9-5-4.3h-.2l-36.1-4.2-15.1-33c-.4-.8-.9-1.5-1.6-2.1-1.3-1-2.8-1.6-4.4-1.6zm36.4 115.5-34-19.1c-1.4-.8-3.3-.8-4.8 0l-34 19.1 7.7-38.1c0-.2.1-.3.1-.5.2-1.6-.4-3.1-1.5-4.2l-28.7-26.4 38.7-4.5c1.7-.2 3.2-1.2 3.9-2.8l16.3-35.5 16.3 35.5c.7 1.5 2.2 2.6 3.8 2.8l38.8 4.5-28.8 26.5c-1.1 1-1.7 2.6-1.5 4.2l7.7 38.5zm-36.3-21.8c1.2 0 2.4.3 3.4.9l30.2 17-6.9-34.4c-.3-2.3.5-4.5 2.1-5.9l25.6-23.5-34.5-4c-2.3-.3-4.4-1.8-5.4-3.9l-14.4-31.5L183 530c-1 2.2-3 3.7-5.5 3.9l-34.4 4 25.5 23.5c1.6 1.5 2.4 3.7 2.1 5.8 0 .2-.1.4-.1.7l-6.8 33.8 30.2-17c1.1-.5 2.3-.8 3.5-.8zm32.1 15.9-28.3-15.9c-2.3-1.3-5.3-1.4-7.7 0l-28.3 15.9 6.4-31.6c.1-.2.1-.5.1-.8.3-2.5-.6-5-2.5-6.6l-23.9-22 32.2-3.7c2.8-.3 5.1-2 6.3-4.5l13.5-29.5 13.5 29.5c1.1 2.5 3.5 4.2 6.2 4.5l32.3 3.7-24 22c-1.8 1.7-2.7 4.2-2.4 6.8l6.6 32.2zm-32.1-18.9c1.7 0 3.4.4 4.9 1.3l24.5 13.8-5.7-28.1c-.4-3.2.7-6.4 3-8.5l20.8-19.1-27.9-3.2c-3.4-.4-6.4-2.5-7.8-5.7l-11.7-25.6-11.7 25.6c-1.4 3.2-4.4 5.3-7.9 5.7l-27.9 3.2 20.7 19.1c2.3 2.1 3.4 5.2 3.1 8.3 0 .4-.1.8-.2 1.1l-5.5 27.3 24.5-13.8c1.4-1 3.1-1.4 4.8-1.4z"></path></g><g><path fill-rule="evenodd" d="M415 534.6c-1-3.1-3.7-5.5-7-6h-.4l-4.3-.5-2.7-.3-8.8-1-5.3-.6-.7-.1-12.8-1.5-12.4-27.1-2.1-4.6c-.5-1.2-1.3-2.2-2.2-3-1.6-1.4-3.6-2.2-5.8-2.2-3.5 0-6.6 2-8 5.2l-.6 1.4-4.7 10.2-9.2 20.1-11.4 1.3-1.8.2-5.2.6-7 .8-3.3.4-5.4.6h-.4c-3.4.4-6.3 2.8-7.4 6-1.1 3.3-.1 6.9 2.4 9.2l12.8 11.8 3.1 2.8 4.6 4.2 5.1 4.7-.1.4-.4 2-2.9 14.1v.2l-.6 3.1-.6 3.2-2.2 11.1c-.1.5-.2 1.1-.2 1.6 0 1.6.4 3.1 1.2 4.5.2.4.5.8.8 1.1.5.6 1.1 1.2 1.7 1.7.9.6 1.8 1.1 2.8 1.4 1.5.4 3.2.4 4.7 0 .3-.1.7-.2 1-.3.4-.1.7-.3 1-.5l.4-.2 3.5-2 26.4-14.9 26.4 14.9 4 2.2c.6.3 1.3.6 2 .8 1.5.4 3.2.4 4.7 0 1-.3 2-.7 2.8-1.4.7-.5 1.2-1.1 1.7-1.7 1.6-2 2.3-4.6 1.7-7.2l-2.8-14.1-.7-3.3-3.1-15.3-.3-1.5.7-.6 1.4-1.3 2-1.9 3.3-3 1.5-1.4 8.3-7.6.1-.1 3.5-3.2.3-.3 2.4-2.2 2.1-1.9c2.5-2.1 3.5-5.7 2.4-9zm-64.5 48.8c-1.2 0-2.5.3-3.6.9l-29.2 16.5 6.6-32.8c.1-.3.1-.5.1-.8.3-2.3-.6-4.6-2.3-6.2l-24.7-22.8 33.3-3.9c2.6-.3 4.8-1.9 5.9-4.2l14-30.5 14 30.5c1.1 2.3 3.3 3.9 5.8 4.2l33.4 3.9L379 561c-1.7 1.6-2.6 3.9-2.3 6.3l6.7 33.4-29.2-16.5c-1.2-.5-2.5-.8-3.7-.8z" clip-rule="evenodd"></path><path d="M385.2 613.2c-.9 0-1.8-.1-2.6-.4-.7-.2-1.5-.5-2.2-.9l-29.9-16.8-29.9 16.8c-.4.2-.8.4-1.1.5-.3.1-.7.3-1.1.4-1.7.5-3.5.5-5.2 0-1.2-.3-2.2-.8-3.2-1.5-.7-.5-1.4-1.2-1.9-1.9-.3-.4-.6-.8-.8-1.2l-.1-.2c-.8-1.4-1.2-3.1-1.2-4.7 0-.6.1-1.2.2-1.8l6.8-33.6-25.2-23.2c-2.8-2.6-3.9-6.6-2.7-10.3 1.2-3.7 4.4-6.3 8.2-6.7l34.1-4 14.3-31.2c1.6-3.5 5.1-5.7 8.9-5.7 2.4 0 4.7.9 6.5 2.4 1 .9 1.9 2 2.5 3.3l2.1 4.6 12.2 26.6 34.1 4c.1 0 .3 0 .4.1 3.7.6 6.6 3.1 7.8 6.7 1.2 3.7.1 7.7-2.7 10.3l-25.5 23 6.8 33.6c.6 2.8-.1 5.8-1.9 8-.5.7-1.2 1.3-1.9 1.9-.9.7-2 1.2-3.2 1.5-.9.3-1.8.4-2.6.4zm-34.8-20.4 30.9 17.4c.6.3 1.2.6 1.8.7 1.4.4 2.8.4 4.2 0 .9-.3 1.8-.7 2.5-1.2.6-.4 1.1-.9 1.5-1.5 1.4-1.8 2-4.2 1.5-6.4l-7-34.7 26-24c2.3-2.1 3.1-5.3 2.2-8.2-.9-2.8-3.3-4.8-6.2-5.3h-.3l-35.2-4.1-14.7-32.2c-.5-1-1.1-1.9-2-2.6-1.4-1.3-3.3-1.9-5.2-1.9-3.1 0-5.8 1.8-7.1 4.6l-14.8 32.2-35.2 4.1c-3 .3-5.6 2.4-6.6 5.4-.9 2.9-.1 6.1 2.1 8.2l26.1 24-.6 2.9-6.4 31.8c-.1.5-.2 1-.2 1.5 0 1.4.3 2.7 1 3.9l.1.2c.2.3.3.5.5.8.5.6 1 1.1 1.5 1.5.7.5 1.6.9 2.5 1.2 1.4.4 2.8.4 4.2 0l.9-.3c.3-.1.6-.3.9-.4l.4-.2 3.6-2 27.1-15.4zm34.3 9.9-31.1-17.5c-1.9-1.1-4.3-1.1-6.2 0l-31.1 17.5 7-34.9c.1-.2.1-.4.1-.7.2-2-.5-4-2-5.4L295 537.6l35.5-4.1c2.2-.2 4.1-1.6 5.1-3.6l14.9-32.5 14.9 32.5c.9 2 2.8 3.4 5 3.6l35.5 4.1-26.4 24.2c-1.5 1.4-2.2 3.4-2 5.5l7.2 35.4zm-34.2-20.3c1.5 0 2.9.4 4.1 1.1l27.3 15.4-6.3-31.2c-.3-2.8.6-5.5 2.6-7.3l23.2-21.3-31.2-3.6c-2.9-.3-5.4-2.2-6.6-4.8l-13.1-28.5-13.1 28.5c-1.2 2.7-3.7 4.5-6.7 4.8l-31.1 3.6 23.1 21.3c1.9 1.8 2.9 4.4 2.6 7 0 .3-.1.6-.1.9l-6.1 30.6 27.3-15.4c1.2-.8 2.6-1.1 4.1-1.1z"></path><path d="M385.2 613.7c-.9 0-1.8-.1-2.7-.4-.7-.2-1.5-.5-2.3-.9l-29.7-16.7-29.6 16.7c-.5.2-.8.4-1.2.6-.4.1-.8.3-1.2.4-1.8.5-3.7.5-5.5 0-1.2-.3-2.4-.9-3.3-1.6-.8-.6-1.4-1.2-2-2-.3-.4-.6-.8-.9-1.3l-.2-.4c-.8-1.5-1.2-3.2-1.2-4.8 0-.6.1-1.2.2-1.9l6.7-33.4-25-23c-3-2.7-4.1-7-2.8-10.8 1.3-3.8 4.6-6.6 8.6-7.1l33.8-3.9 14.2-30.9c1.7-3.7 5.3-6 9.4-6 2.5 0 4.9.9 6.8 2.6 1.1.9 2 2.1 2.6 3.5l2.1 4.6 12 26.3 33.8 3.9c.1 0 .3 0 .5.1 3.9.6 7 3.3 8.2 7 1.2 3.8.1 8.1-2.8 10.8l-25 23 6.7 33.3c.6 3-.1 6.1-2 8.5-.6.7-1.3 1.4-2 2-.9.7-2.1 1.2-3.3 1.6-1.1.1-2 .2-2.9.2zm-34.8-21.4 31.1 17.5c.5.3 1.1.5 1.7.7 1.3.4 2.6.4 3.9 0 .9-.2 1.7-.6 2.3-1.1.6-.4 1-.9 1.5-1.4 1.4-1.7 1.9-3.9 1.5-6l-7-35 26.3-24.2c2.1-1.9 2.9-5 2-7.7-.9-2.6-3.1-4.5-5.8-5h-.3l-35.5-4.1-14.9-32.5c-.4-.9-1.1-1.8-1.8-2.5-1.3-1.2-3-1.8-4.8-1.8-2.9 0-5.5 1.7-6.7 4.3L329 526l-35.5 4.1c-2.8.3-5.3 2.3-6.1 5-.9 2.7-.1 5.7 2 7.7l26.3 24.2-.7 3.2-6.4 31.8c-.1.5-.1 1-.2 1.4 0 1.3.3 2.6 1 3.7l.2.3c.1.2.3.4.5.7.4.6.9 1 1.4 1.4.7.5 1.5.9 2.4 1.1 1.3.3 2.6.3 3.9 0 .3-.1.6-.2.8-.3.3-.1.6-.3.9-.4l.4-.2 3.6-2 26.9-15.4zm35 11.4-32.1-18.1c-1.7-1-4-1-5.8 0l-32.1 18.1 7.2-36c.1-.2.1-.4.1-.6.2-1.9-.5-3.7-1.8-5l-27.1-25 36.6-4.2c2.1-.2 3.8-1.5 4.7-3.4l15.4-33.5 15.4 33.5c.9 1.8 2.6 3.1 4.6 3.4l36.6 4.2-27.2 25c-1.3 1.3-2 3.1-1.8 5l7.3 36.6zm-34.9-21.8c1.5 0 3.1.4 4.4 1.2l26.4 14.8-6.1-30.3c-.3-2.8.7-5.7 2.7-7.6l22.3-20.6-30.1-3.5c-3-.3-5.7-2.3-7-5.1l-12.6-27.6-12.6 27.5c-1.3 2.8-3.9 4.8-7.1 5.1l-30.1 3.5L323 560c2 1.9 3.1 4.7 2.8 7.5 0 .3-.1.7-.2.9l-5.9 29.5 26.4-14.9c1.3-.7 2.8-1.1 4.4-1.1z"></path><path d="M315.8 614.7c-1 0-2-.1-3-.4-1.4-.4-2.6-1-3.7-1.8-.8-.6-1.6-1.3-2.2-2.2-.3-.4-.7-.9-1-1.4l-.2-.4c-.8-1.6-1.3-3.5-1.3-5.3 0-.7.1-1.3.2-2.1l6.6-32.8-24.6-22.6c-3.3-3-4.5-7.6-3.1-11.9 1.4-4.2 5.1-7.3 9.5-7.8l33.2-3.9 13.9-30.4c1.8-4 5.9-6.6 10.3-6.6 2.8 0 5.4 1 7.5 2.8 1.2 1 2.2 2.3 2.8 3.8l2.1 4.6 11.8 25.8 33.2 3.9c.1 0 .3 0 .5.1 4.2.7 7.7 3.6 9 7.7 1.4 4.2.1 8.9-3.1 11.9l-24.6 22.6 6.6 32.8c.7 3.3-.2 6.7-2.2 9.3-.6.8-1.4 1.5-2.2 2.2-1 .8-2.3 1.4-3.6 1.7-2 .5-4.1.5-6 0-.8-.2-1.7-.5-2.5-1l-29.2-16.4-29.1 16.4c-.5.3-.9.5-1.3.6-.4.2-.8.3-1.3.4-1 .3-2 .4-3 .4zm34.6-127.5c-3.6 0-7 2.1-8.5 5.4L327.5 524l-34.3 4c-3.6.4-6.7 2.9-7.8 6.4-1.1 3.5-.1 7.3 2.6 9.8l25.4 23.4-6.8 33.9c-.1.6-.2 1.2-.2 1.7 0 1.5.4 3 1 4.4l.2.4c.2.4.5.8.8 1.1.5.7 1.2 1.3 1.8 1.8.9.6 1.9 1.1 3 1.4 1.6.4 3.3.4 4.9 0 .4-.1.7-.2 1.1-.4.3-.1.7-.3 1.1-.5l30.1-16.9 30.2 17c.7.4 1.4.6 2.1.8 1.6.5 3.3.5 5 0 1.1-.3 2.1-.8 3-1.4.7-.5 1.3-1.1 1.8-1.8 1.7-2.2 2.4-5 1.8-7.6l-6.8-33.9 25.4-23.4c2.7-2.5 3.7-6.3 2.6-9.8-1.1-3.3-3.9-5.8-7.4-6.3h-.4l-34.4-4-14.4-31.4c-.5-1.2-1.4-2.3-2.3-3.1-1.7-1.6-3.9-2.4-6.2-2.4zm-34.6 124.5c-.7 0-1.5-.1-2.2-.3-1-.3-1.9-.7-2.7-1.3-.6-.4-1.2-1-1.6-1.6-.2-.2-.4-.5-.5-.7l-.2-.3c-.7-1.3-1.1-2.7-1.1-4.2 0-.5.1-1 .2-1.6l7-34.5-25.9-23.8c-2.4-2.2-3.3-5.6-2.3-8.7 1-3.1 3.7-5.3 7-5.7l34.9-4.1 14.7-32c1.3-3 4.3-4.9 7.6-4.9 2 0 4 .7 5.5 2.1.9.8 1.6 1.7 2.1 2.8l14.6 31.9 35 4.1h.3c3.1.5 5.6 2.7 6.6 5.7 1 3.1.1 6.5-2.3 8.7l-25.8 23.8 6.9 34.4c.5 2.4-.1 4.9-1.6 6.8-.5.6-1 1.1-1.6 1.6-.8.6-1.7 1-2.7 1.3-1.5.4-3 .4-4.4 0-.6-.2-1.2-.4-1.8-.7l-30.6-17.2-30.6 17.2c-.3.2-.7.3-1 .5-.3.1-.6.2-1 .3-1.1.3-1.8.4-2.5.4zm34.6-121.5c-2.5 0-4.7 1.5-5.7 3.7l-15.1 33-36 4.2c-2.5.3-4.5 2-5.3 4.3-.8 2.3-.1 4.9 1.7 6.6l26.7 24.6-.8 3.7-6.4 31.8c-.1.4-.1.8-.1 1.2 0 1.1.3 2.2.8 3.2l.2.3c.1.2.2.3.4.5.4.5.8.9 1.3 1.2.6.4 1.3.8 2.1 1 1.1.3 2.3.3 3.3 0 .3-.1.5-.2.7-.2.3-.1.5-.2.8-.4l.3-.2 3.6-2 27.6-15.6 31.6 17.8c.5.2 1 .4 1.4.6 1.1.3 2.3.3 3.4 0 .8-.2 1.4-.5 2-1 .5-.4.9-.8 1.3-1.2 1.2-1.5 1.6-3.4 1.3-5.2l-7.2-35.5L411 542c1.8-1.7 2.5-4.3 1.8-6.6s-2.7-3.9-5-4.3h-.2l-36.1-4.2-15.1-33c-.4-.8-.9-1.5-1.6-2.1-1.3-1-2.8-1.6-4.4-1.6zm36.4 115.5-34-19.1c-1.4-.8-3.3-.8-4.8 0l-34 19.1 7.7-38.1c0-.2.1-.3.1-.5.2-1.6-.4-3.1-1.5-4.2l-28.7-26.4 38.7-4.5c1.7-.2 3.2-1.2 3.9-2.8l16.3-35.5 16.3 35.5c.7 1.5 2.2 2.6 3.8 2.8l38.8 4.5-28.8 26.5c-1.1 1-1.7 2.6-1.5 4.2l7.7 38.5zm-36.3-21.8c1.2 0 2.4.3 3.4.9l30.2 17-6.9-34.4c-.3-2.3.5-4.5 2.1-5.9l25.6-23.5-34.5-4c-2.3-.3-4.4-1.8-5.4-3.9l-14.4-31.5L336 530c-1 2.2-3 3.7-5.5 3.9l-34.4 4 25.5 23.5c1.6 1.5 2.4 3.7 2.1 5.8 0 .2-.1.4-.1.7l-6.8 33.8 30.2-17c1.1-.5 2.3-.8 3.5-.8zm32.1 15.9-28.3-15.9c-2.3-1.3-5.3-1.4-7.7 0l-28.3 15.9 6.4-31.6c.1-.2.1-.5.1-.8.3-2.5-.6-5-2.5-6.6l-23.9-22 32.2-3.7c2.8-.3 5.1-2 6.3-4.5l13.5-29.5 13.5 29.5c1.1 2.5 3.5 4.2 6.2 4.5l32.3 3.7-24 22c-1.8 1.7-2.7 4.2-2.4 6.8l6.6 32.2zm-32.1-18.9c1.7 0 3.4.4 4.9 1.3l24.5 13.8-5.7-28.1c-.4-3.2.7-6.4 3-8.5l20.8-19.1-27.9-3.2c-3.4-.4-6.4-2.5-7.8-5.7l-11.7-25.6-11.7 25.6c-1.4 3.2-4.4 5.3-7.9 5.7l-27.9 3.2 20.7 19.1c2.3 2.1 3.4 5.2 3.1 8.3 0 .4-.1.8-.2 1.1l-5.5 27.3 24.5-13.8c1.4-1 3.1-1.4 4.8-1.4z"></path></g><g><path fill-rule="evenodd" d="M569 534.6c-1-3.1-3.7-5.5-7-6h-.4l-4.3-.5-2.7-.3-8.8-1-5.3-.6-.7-.1-12.8-1.5-12.4-27.1-2.1-4.6c-.5-1.2-1.3-2.2-2.2-3-1.6-1.4-3.6-2.2-5.8-2.2-3.5 0-6.6 2-8 5.2l-.6 1.4-4.7 10.2-9.2 20.1-11.4 1.3-1.8.2-5.2.6-7 .8-3.3.4-5.4.6h-.4c-3.4.4-6.3 2.8-7.4 6-1.1 3.3-.1 6.9 2.4 9.2l12.8 11.8 3.1 2.8 4.6 4.2 5.1 4.7-.1.4-.4 2-2.9 14.1v.2l-.6 3.1-.6 3.2-2.2 11.1c-.1.5-.2 1.1-.2 1.6 0 1.6.4 3.1 1.2 4.5.2.4.5.8.8 1.1.5.6 1.1 1.2 1.7 1.7.9.6 1.8 1.1 2.8 1.4 1.5.4 3.2.4 4.7 0 .3-.1.7-.2 1-.3.4-.1.7-.3 1-.5l.4-.2 3.5-2 26.4-14.9 26.4 14.9 4 2.2c.6.3 1.3.6 2 .8 1.5.4 3.2.4 4.7 0 1-.3 2-.7 2.8-1.4.7-.5 1.2-1.1 1.7-1.7 1.6-2 2.3-4.6 1.7-7.2l-2.8-14.1-.7-3.3-3.1-15.3-.3-1.5.7-.6 1.4-1.3 2-1.9 3.3-3 1.5-1.4 8.3-7.6.1-.1 3.5-3.2.3-.3 2.4-2.2 2.1-1.9c2.5-2.1 3.5-5.7 2.4-9zm-64.5 48.8c-1.2 0-2.5.3-3.6.9l-29.2 16.5 6.6-32.8c.1-.3.1-.5.1-.8.3-2.3-.6-4.6-2.3-6.2l-24.7-22.8 33.3-3.9c2.6-.3 4.8-1.9 5.9-4.2l14-30.5 14 30.5c1.1 2.3 3.3 3.9 5.8 4.2l33.4 3.9L533 561c-1.7 1.6-2.6 3.9-2.3 6.3l6.7 33.4-29.2-16.5c-1.2-.5-2.5-.8-3.7-.8z" clip-rule="evenodd"></path><path d="M539.2 613.2c-.9 0-1.8-.1-2.6-.4-.7-.2-1.5-.5-2.2-.9l-29.9-16.8-29.9 16.8c-.4.2-.8.4-1.1.5-.3.1-.7.3-1.1.4-1.7.5-3.5.5-5.2 0-1.2-.3-2.2-.8-3.2-1.5-.7-.5-1.4-1.2-1.9-1.9-.3-.4-.6-.8-.8-1.2l-.1-.2c-.8-1.4-1.2-3.1-1.2-4.7 0-.6.1-1.2.2-1.8l6.8-33.6-25.2-23.2c-2.8-2.6-3.9-6.6-2.7-10.3 1.2-3.7 4.4-6.3 8.2-6.7l34.1-4 14.3-31.2c1.6-3.5 5.1-5.7 8.9-5.7 2.4 0 4.7.9 6.5 2.4 1 .9 1.9 2 2.5 3.3l2.1 4.6 12.2 26.6 34.1 4c.1 0 .3 0 .4.1 3.7.6 6.6 3.1 7.8 6.7 1.2 3.7.1 7.7-2.7 10.3l-25.5 23 6.8 33.6c.6 2.8-.1 5.8-1.9 8-.5.7-1.2 1.3-1.9 1.9-.9.7-2 1.2-3.2 1.5-.9.3-1.8.4-2.6.4zm-34.8-20.4 30.9 17.4c.6.3 1.2.6 1.8.7 1.4.4 2.8.4 4.2 0 .9-.3 1.8-.7 2.5-1.2.6-.4 1.1-.9 1.5-1.5 1.4-1.8 2-4.2 1.5-6.4l-7-34.7 26-24c2.3-2.1 3.1-5.3 2.2-8.2-.9-2.8-3.3-4.8-6.2-5.3h-.3l-35.2-4.1-14.7-32.2c-.5-1-1.1-1.9-2-2.6-1.4-1.3-3.3-1.9-5.2-1.9-3.1 0-5.8 1.8-7.1 4.6l-14.8 32.2-35.2 4.1c-3 .3-5.6 2.4-6.6 5.4-.9 2.9-.1 6.1 2.1 8.2l26.1 24-.6 2.9-6.4 31.8c-.1.5-.2 1-.2 1.5 0 1.4.3 2.7 1 3.9l.1.2c.2.3.3.5.5.8.5.6 1 1.1 1.5 1.5.7.5 1.6.9 2.5 1.2 1.4.4 2.8.4 4.2 0l.9-.3c.3-.1.6-.3.9-.4l.4-.2 3.6-2 27.1-15.4zm34.3 9.9-31.1-17.5c-1.9-1.1-4.3-1.1-6.2 0l-31.1 17.5 7-34.9c.1-.2.1-.4.1-.7.2-2-.5-4-2-5.4L449 537.6l35.5-4.1c2.2-.2 4.1-1.6 5.1-3.6l14.9-32.5 14.9 32.5c.9 2 2.8 3.4 5 3.6l35.5 4.1-26.4 24.2c-1.5 1.4-2.2 3.4-2 5.5l7.2 35.4zm-34.2-20.3c1.5 0 2.9.4 4.1 1.1l27.3 15.4-6.3-31.2c-.3-2.8.6-5.5 2.6-7.3l23.1-21.3-31.2-3.6c-2.9-.3-5.4-2.2-6.6-4.8l-13.1-28.5-13.1 28.5c-1.2 2.7-3.7 4.5-6.7 4.8l-31.1 3.6 23.1 21.3c1.9 1.8 2.9 4.4 2.6 7 0 .3-.1.6-.1.9l-6.1 30.6 27.3-15.4c1.3-.8 2.7-1.1 4.2-1.1z"></path><path d="M539.2 613.7c-.9 0-1.8-.1-2.7-.4-.7-.2-1.5-.5-2.3-.9l-29.7-16.7-29.6 16.7c-.5.2-.8.4-1.2.6-.4.1-.8.3-1.2.4-1.8.5-3.7.5-5.5 0-1.2-.3-2.4-.9-3.3-1.6-.8-.6-1.4-1.2-2-2-.3-.4-.6-.8-.9-1.3l-.2-.4c-.8-1.5-1.2-3.2-1.2-4.8 0-.6.1-1.2.2-1.9l6.7-33.4-25-23c-3-2.7-4.1-7-2.8-10.8 1.3-3.8 4.6-6.6 8.6-7.1l33.8-3.9 14.2-30.9c1.7-3.7 5.3-6 9.4-6 2.5 0 4.9.9 6.8 2.6 1.1.9 2 2.1 2.6 3.5l2.1 4.6 12 26.3 33.8 3.9c.1 0 .3 0 .5.1 3.9.6 7 3.3 8.2 7 1.2 3.8.1 8.1-2.8 10.8l-25 23 6.7 33.3c.6 3-.1 6.1-2 8.5-.6.7-1.3 1.4-2 2-.9.7-2.1 1.2-3.3 1.6-1.1.1-2 .2-2.9.2zm-34.8-21.4 31.1 17.5c.5.3 1.1.5 1.7.7 1.3.4 2.6.4 3.9 0 .9-.2 1.7-.6 2.3-1.1.6-.4 1-.9 1.5-1.4 1.4-1.7 1.9-3.9 1.5-6l-7-35 26.3-24.2c2.1-1.9 2.9-5 2-7.7-.9-2.6-3.1-4.5-5.8-5h-.3l-35.5-4.1-14.9-32.5c-.4-.9-1.1-1.8-1.8-2.5-1.3-1.2-3-1.8-4.8-1.8-2.9 0-5.5 1.7-6.7 4.3L483 526l-35.5 4.1c-2.8.3-5.3 2.3-6.1 5-.9 2.7-.1 5.7 2 7.7l26.3 24.2-.7 3.2-6.4 31.8c-.1.5-.1 1-.2 1.4 0 1.3.3 2.6 1 3.7l.2.3c.1.2.3.4.5.7.4.6.9 1 1.4 1.4.7.5 1.5.9 2.4 1.1 1.3.3 2.6.3 3.9 0 .3-.1.6-.2.8-.3.3-.1.6-.3.9-.4l.4-.2 3.6-2 26.9-15.4zm35 11.4-32.1-18.1c-1.7-1-4-1-5.8 0l-32.1 18.1 7.2-36c.1-.2.1-.4.1-.6.2-1.9-.5-3.7-1.8-5l-27.1-25 36.6-4.2c2.1-.2 3.8-1.5 4.7-3.4l15.4-33.5 15.4 33.5c.9 1.8 2.6 3.1 4.6 3.4l36.6 4.2-27.2 25c-1.3 1.3-2 3.1-1.8 5l7.3 36.6zm-34.9-21.8c1.5 0 3.1.4 4.4 1.2l26.4 14.8-6.1-30.3c-.3-2.8.7-5.7 2.7-7.6l22.3-20.6-30.1-3.5c-3-.3-5.7-2.3-7-5.1l-12.6-27.6-12.6 27.5c-1.3 2.8-3.9 4.8-7.1 5.1l-30.1 3.5L477 560c2 1.9 3.1 4.7 2.8 7.5 0 .3-.1.7-.2.9l-5.9 29.5 26.4-14.9c1.3-.7 2.8-1.1 4.4-1.1z"></path><path d="M469.8 614.7c-1 0-2-.1-3-.4-1.4-.4-2.6-1-3.7-1.8-.8-.6-1.6-1.3-2.2-2.2-.3-.4-.7-.9-1-1.4l-.2-.4c-.8-1.6-1.3-3.5-1.3-5.3 0-.7.1-1.3.2-2.1l6.6-32.8-24.6-22.6c-3.3-3-4.5-7.6-3.1-11.9 1.4-4.2 5.1-7.3 9.5-7.8l33.2-3.9 13.9-30.4c1.8-4 5.9-6.6 10.3-6.6 2.8 0 5.4 1 7.5 2.8 1.2 1 2.2 2.3 2.8 3.8l2.1 4.6 11.8 25.8 33.2 3.9c.1 0 .3 0 .5.1 4.2.7 7.7 3.6 9 7.7 1.4 4.2.1 8.9-3.1 11.9l-24.6 22.6 6.6 32.8c.7 3.3-.2 6.7-2.2 9.3-.6.8-1.4 1.5-2.2 2.2-1 .8-2.3 1.4-3.6 1.7-2 .5-4.1.5-6 0-.8-.2-1.7-.5-2.5-1l-29.2-16.4-29.1 16.4c-.5.3-.9.5-1.3.6-.4.2-.8.3-1.3.4-1 .3-2 .4-3 .4zm34.6-127.5c-3.6 0-7 2.1-8.5 5.4L481.5 524l-34.3 4c-3.6.4-6.7 2.9-7.8 6.4-1.1 3.5-.1 7.3 2.6 9.8l25.4 23.4-6.8 33.9c-.1.6-.2 1.2-.2 1.7 0 1.5.4 3 1 4.4l.2.4c.2.4.5.8.8 1.1.5.7 1.2 1.3 1.8 1.8.9.6 1.9 1.1 3 1.4 1.6.4 3.3.4 4.9 0 .4-.1.7-.2 1.1-.4.3-.1.7-.3 1.1-.5l30.1-16.9 30.2 17c.7.4 1.4.6 2.1.8 1.6.5 3.3.5 5 0 1.1-.3 2.1-.8 3-1.4.7-.5 1.3-1.1 1.8-1.8 1.7-2.2 2.4-5 1.8-7.6l-6.8-33.9 25.4-23.4c2.7-2.5 3.7-6.3 2.6-9.8-1.1-3.3-3.9-5.8-7.4-6.3h-.4l-34.4-4-14.4-31.4c-.5-1.2-1.4-2.3-2.3-3.1-1.7-1.6-3.9-2.4-6.2-2.4zm-34.6 124.5c-.7 0-1.5-.1-2.2-.3-1-.3-1.9-.7-2.7-1.3-.6-.4-1.2-1-1.6-1.6-.2-.2-.4-.5-.5-.7l-.2-.3c-.7-1.3-1.1-2.7-1.1-4.2 0-.5.1-1 .2-1.6l7-34.5-25.9-23.8c-2.4-2.2-3.3-5.6-2.3-8.7 1-3.1 3.7-5.3 7-5.7l34.9-4.1 14.7-32c1.3-3 4.3-4.9 7.6-4.9 2 0 4 .7 5.5 2.1.9.8 1.6 1.7 2.1 2.8l14.6 31.9 35 4.1h.3c3.1.5 5.6 2.7 6.6 5.7 1 3.1.1 6.5-2.3 8.7l-25.8 23.8 6.9 34.4c.5 2.4-.1 4.9-1.6 6.8-.5.6-1 1.1-1.6 1.6-.8.6-1.7 1-2.7 1.3-1.5.4-3 .4-4.4 0-.6-.2-1.2-.4-1.8-.7l-30.6-17.2-30.6 17.2c-.3.2-.7.3-1 .5-.3.1-.6.2-1 .3-1.1.3-1.8.4-2.5.4zm34.6-121.5c-2.5 0-4.7 1.5-5.7 3.7l-15.1 33-36 4.2c-2.5.3-4.5 2-5.3 4.3-.8 2.3-.1 4.9 1.7 6.6l26.7 24.6-.8 3.7-6.4 31.8c-.1.4-.1.8-.1 1.2 0 1.1.3 2.2.8 3.2l.2.3c.1.2.2.3.4.5.4.5.8.9 1.3 1.2.6.4 1.3.8 2.1 1 1.1.3 2.3.3 3.3 0 .3-.1.5-.2.7-.2.3-.1.5-.2.8-.4l.3-.2 3.6-2 27.6-15.6 31.6 17.8c.5.2 1 .4 1.4.6 1.1.3 2.3.3 3.4 0 .8-.2 1.4-.5 2-1 .5-.4.9-.8 1.3-1.2 1.2-1.5 1.6-3.4 1.3-5.2l-7.2-35.5L565 542c1.8-1.7 2.5-4.3 1.8-6.6s-2.7-3.9-5-4.3h-.2l-36.1-4.2-15.1-33c-.4-.8-.9-1.5-1.6-2.1-1.3-1-2.8-1.6-4.4-1.6zm36.4 115.5-34-19.1c-1.4-.8-3.3-.8-4.8 0l-34 19.1 7.7-38.1c0-.2.1-.3.1-.5.2-1.6-.4-3.1-1.5-4.2l-28.7-26.4 38.7-4.5c1.7-.2 3.2-1.2 3.9-2.8l16.3-35.5 16.3 35.5c.7 1.5 2.2 2.6 3.8 2.8l38.8 4.5-28.8 26.5c-1.1 1-1.7 2.6-1.5 4.2l7.7 38.5zm-36.3-21.8c1.2 0 2.4.3 3.4.9l30.2 17-6.9-34.4c-.3-2.3.5-4.5 2.1-5.9l25.6-23.5-34.5-4c-2.3-.3-4.4-1.8-5.4-3.9l-14.4-31.5L490 530c-1 2.2-3 3.7-5.5 3.9l-34.4 4 25.5 23.5c1.6 1.5 2.4 3.7 2.1 5.8 0 .2-.1.4-.1.7l-6.8 33.8 30.2-17c1.1-.5 2.3-.8 3.5-.8zm32.1 15.9-28.3-15.9c-2.3-1.3-5.3-1.4-7.7 0l-28.3 15.9 6.4-31.6c.1-.2.1-.5.1-.8.3-2.5-.6-5-2.5-6.6l-23.9-22 32.2-3.7c2.8-.3 5.1-2 6.3-4.5l13.5-29.5 13.5 29.5c1.1 2.5 3.5 4.2 6.2 4.5l32.3 3.7-24 22c-1.8 1.7-2.7 4.2-2.4 6.8l6.6 32.2zm-32.1-18.9c1.7 0 3.4.4 4.9 1.3l24.5 13.8-5.7-28.1c-.4-3.2.7-6.4 3-8.5l20.8-19.1-27.9-3.2c-3.4-.4-6.4-2.5-7.8-5.7l-11.7-25.6-11.7 25.6c-1.4 3.2-4.4 5.3-7.9 5.7l-27.9 3.2 20.7 19.1c2.3 2.1 3.4 5.2 3.1 8.3 0 .4-.1.8-.2 1.1l-5.5 27.3 24.5-13.8c1.4-1 3.1-1.4 4.8-1.4z"></path></g><g><path fill-rule="evenodd" d="M329 336.6c-1-3.1-3.7-5.5-7-6h-.4l-4.3-.5-2.7-.3-8.8-1-5.3-.6-.7-.1-12.8-1.5-12.4-27.1-2.1-4.6c-.5-1.2-1.3-2.2-2.2-3-1.6-1.4-3.6-2.2-5.8-2.2-3.5 0-6.6 2-8 5.2l-.6 1.4-4.7 10.2-9.2 20.1-11.4 1.3-1.8.2-5.2.6-7 .8-3.3.4-5.4.6h-.4c-3.4.4-6.3 2.8-7.4 6-1.1 3.3-.1 6.9 2.4 9.2l12.8 11.8 3.1 2.8 4.6 4.2 5.1 4.7-.1.4-.4 2-2.9 14.1v.2l-.6 3.1-.6 3.2-2.2 11.1c-.1.5-.2 1.1-.2 1.6 0 1.6.4 3.1 1.2 4.5.2.4.5.8.8 1.1.5.6 1.1 1.2 1.7 1.7.9.6 1.8 1.1 2.8 1.4 1.5.4 3.2.4 4.7 0 .3-.1.7-.2 1-.3.4-.1.7-.3 1-.5l.4-.2 3.5-2 26.4-14.9 26.4 14.9 4 2.2c.6.3 1.3.6 2 .8 1.5.4 3.2.4 4.7 0 1-.3 2-.7 2.8-1.4.7-.5 1.2-1.1 1.7-1.7 1.6-2 2.3-4.6 1.7-7.2l-2.8-14.1-.7-3.3-3.1-15.3-.3-1.5.7-.6 1.4-1.3 2-1.9 3.3-3 1.5-1.4 8.3-7.6.1-.1 3.5-3.2.3-.3 2.4-2.2 2.1-1.9c2.5-2.1 3.5-5.7 2.4-9zm-64.5 48.8c-1.2 0-2.5.3-3.6.9l-29.2 16.5 6.6-32.8c.1-.3.1-.5.1-.8.3-2.3-.6-4.6-2.3-6.2l-24.7-22.8 33.3-3.9c2.6-.3 4.8-1.9 5.9-4.2l14-30.5 14 30.5c1.1 2.3 3.3 3.9 5.8 4.2l33.4 3.9L293 363c-1.7 1.6-2.6 3.9-2.3 6.3l6.7 33.4-29.2-16.5c-1.2-.5-2.5-.8-3.7-.8z" clip-rule="evenodd"></path><path d="M299.2 415.2c-.9 0-1.8-.1-2.6-.4-.7-.2-1.5-.5-2.2-.9l-29.9-16.8-29.9 16.8c-.4.2-.8.4-1.1.5-.3.1-.7.3-1.1.4-1.7.5-3.5.5-5.2 0-1.2-.3-2.2-.8-3.2-1.5-.7-.5-1.4-1.2-1.9-1.9-.3-.4-.6-.8-.8-1.2l-.1-.2c-.8-1.4-1.2-3.1-1.2-4.7 0-.6.1-1.2.2-1.8l6.8-33.6-25.2-23.2c-2.8-2.6-3.9-6.6-2.7-10.3 1.2-3.7 4.4-6.3 8.2-6.7l34.1-4 14.3-31.2c1.6-3.5 5.1-5.7 8.9-5.7 2.4 0 4.7.9 6.5 2.4 1 .9 1.9 2 2.5 3.3l2.1 4.6 12.2 26.6 34.1 4c.1 0 .3 0 .4.1 3.7.6 6.6 3.1 7.8 6.7 1.2 3.7.1 7.7-2.7 10.3l-25.5 23 6.8 33.6c.6 2.8-.1 5.8-1.9 8-.5.7-1.2 1.3-1.9 1.9-.9.7-2 1.2-3.2 1.5-.9.3-1.8.4-2.6.4zm-34.8-20.4 30.9 17.4c.6.3 1.2.6 1.8.7 1.4.4 2.8.4 4.2 0 .9-.3 1.8-.7 2.5-1.2.6-.4 1.1-.9 1.5-1.5 1.4-1.8 2-4.2 1.5-6.4l-7-34.7 26-24c2.3-2.1 3.1-5.3 2.2-8.2-.9-2.8-3.3-4.8-6.2-5.3h-.3l-35.2-4.1-14.7-32.2c-.5-1-1.1-1.9-2-2.6-1.4-1.3-3.3-1.9-5.2-1.9-3.1 0-5.8 1.8-7.1 4.6l-14.8 32.2-35.2 4.1c-3 .3-5.6 2.4-6.6 5.4-.9 2.9-.1 6.1 2.1 8.2l26.1 24-.6 2.9-6.4 31.8c-.1.5-.2 1-.2 1.5 0 1.4.3 2.7 1 3.9l.1.2c.2.3.3.5.5.8.5.6 1 1.1 1.5 1.5.7.5 1.6.9 2.5 1.2 1.4.4 2.8.4 4.2 0l.9-.3c.3-.1.6-.3.9-.4l.4-.2 3.6-2 27.1-15.4zm34.3 9.9-31.1-17.5c-1.9-1.1-4.3-1.1-6.2 0l-31.1 17.5 7-34.9c.1-.2.1-.4.1-.7.2-2-.5-4-2-5.4L209 339.6l35.5-4.1c2.2-.2 4.1-1.6 5.1-3.6l14.9-32.5 14.9 32.5c.9 2 2.8 3.4 5 3.6l35.5 4.1-26.4 24.2c-1.5 1.4-2.2 3.4-2 5.5l7.2 35.4zm-34.2-20.3c1.5 0 2.9.4 4.1 1.1l27.3 15.4-6.3-31.2c-.3-2.8.6-5.5 2.6-7.3l23.2-21.3-31.2-3.6c-2.9-.3-5.4-2.2-6.6-4.8l-13.1-28.5-13.1 28.5c-1.2 2.7-3.7 4.5-6.7 4.8l-31.1 3.6 23.1 21.3c1.9 1.8 2.9 4.4 2.6 7 0 .3-.1.6-.1.9l-6.1 30.6 27.3-15.4c1.2-.8 2.6-1.1 4.1-1.1z"></path><path d="M299.2 415.7c-.9 0-1.8-.1-2.7-.4-.7-.2-1.5-.5-2.3-.9l-29.7-16.7-29.6 16.7c-.5.2-.8.4-1.2.6-.4.1-.8.3-1.2.4-1.8.5-3.7.5-5.5 0-1.2-.3-2.4-.9-3.3-1.6-.8-.6-1.4-1.2-2-2-.3-.4-.6-.8-.9-1.3l-.2-.4c-.8-1.5-1.2-3.2-1.2-4.8 0-.6.1-1.2.2-1.9l6.7-33.4-25-23c-3-2.7-4.1-7-2.8-10.8 1.3-3.8 4.6-6.6 8.6-7.1l33.8-3.9 14.2-30.9c1.7-3.7 5.3-6 9.4-6 2.5 0 4.9.9 6.8 2.6 1.1.9 2 2.1 2.6 3.5l2.1 4.6 12 26.3 33.8 3.9c.1 0 .3 0 .5.1 3.9.6 7 3.3 8.2 7 1.2 3.8.1 8.1-2.8 10.8l-25 23 6.7 33.3c.6 3-.1 6.1-2 8.5-.6.7-1.3 1.4-2 2-.9.7-2.1 1.2-3.3 1.6-1.1.1-2 .2-2.9.2zm-34.8-21.4 31.1 17.5c.5.3 1.1.5 1.7.7 1.3.4 2.6.4 3.9 0 .9-.2 1.7-.6 2.3-1.1.6-.4 1-.9 1.5-1.4 1.4-1.7 1.9-3.9 1.5-6l-7-35 26.3-24.2c2.1-1.9 2.9-5 2-7.7-.9-2.6-3.1-4.5-5.8-5h-.3l-35.5-4.1-14.9-32.5c-.4-.9-1.1-1.8-1.8-2.5-1.3-1.2-3-1.8-4.8-1.8-2.9 0-5.5 1.7-6.7 4.3L243 328l-35.5 4.1c-2.8.3-5.3 2.3-6.1 5-.9 2.7-.1 5.7 2 7.7l26.3 24.2-.7 3.2-6.4 31.8c-.1.5-.1 1-.2 1.4 0 1.3.3 2.6 1 3.7l.2.3c.1.2.3.4.5.7.4.6.9 1 1.4 1.4.7.5 1.5.9 2.4 1.1 1.3.3 2.6.3 3.9 0 .3-.1.6-.2.8-.3.3-.1.6-.3.9-.4l.4-.2 3.6-2 26.9-15.4zm35 11.4-32.1-18.1c-1.7-1-4-1-5.8 0l-32.1 18.1 7.2-36c.1-.2.1-.4.1-.6.2-1.9-.5-3.7-1.8-5l-27.1-25 36.6-4.2c2.1-.2 3.8-1.5 4.7-3.4l15.4-33.5 15.4 33.5c.9 1.8 2.6 3.1 4.6 3.4l36.6 4.2-27.2 25c-1.3 1.3-2 3.1-1.8 5l7.3 36.6zm-34.9-21.8c1.5 0 3.1.4 4.4 1.2l26.4 14.8-6.1-30.3c-.3-2.8.7-5.7 2.7-7.6l22.3-20.6-30.1-3.5c-3-.3-5.7-2.3-7-5.1l-12.6-27.6-12.6 27.5c-1.3 2.8-3.9 4.8-7.1 5.1l-30.1 3.5L237 362c2 1.9 3.1 4.7 2.8 7.5 0 .3-.1.7-.2.9l-5.9 29.5 26.4-14.9c1.3-.7 2.8-1.1 4.4-1.1z"></path><path d="M229.8 416.7c-1 0-2-.1-3-.4-1.4-.4-2.6-1-3.7-1.8-.8-.6-1.6-1.3-2.2-2.2-.3-.4-.7-.9-1-1.4l-.2-.4c-.8-1.6-1.3-3.5-1.3-5.3 0-.7.1-1.3.2-2.1l6.6-32.8-24.6-22.6c-3.3-3-4.5-7.6-3.1-11.9 1.4-4.2 5.1-7.3 9.5-7.8l33.2-3.9 13.9-30.4c1.8-4 5.9-6.6 10.3-6.6 2.8 0 5.4 1 7.5 2.8 1.2 1 2.2 2.3 2.8 3.8l2.1 4.6 11.8 25.8 33.2 3.9c.1 0 .3 0 .5.1 4.2.7 7.7 3.6 9 7.7 1.4 4.2.1 8.9-3.1 11.9l-24.6 22.6 6.6 32.8c.7 3.3-.2 6.7-2.2 9.3-.6.8-1.4 1.5-2.2 2.2-1 .8-2.3 1.4-3.6 1.7-2 .5-4.1.5-6 0-.8-.2-1.7-.5-2.5-1l-29.2-16.4-29.1 16.4c-.5.3-.9.5-1.3.6-.4.2-.8.3-1.3.4-1 .3-2 .4-3 .4zm34.6-127.5c-3.6 0-7 2.1-8.5 5.4L241.5 326l-34.3 4c-3.6.4-6.7 2.9-7.8 6.4-1.1 3.5-.1 7.3 2.6 9.8l25.4 23.4-6.8 33.9c-.1.6-.2 1.2-.2 1.7 0 1.5.4 3 1 4.4l.2.4c.2.4.5.8.8 1.1.5.7 1.2 1.3 1.8 1.8.9.6 1.9 1.1 3 1.4 1.6.4 3.3.4 4.9 0 .4-.1.7-.2 1.1-.4.3-.1.7-.3 1.1-.5l30.1-16.9 30.2 17c.7.4 1.4.6 2.1.8 1.6.5 3.3.5 5 0 1.1-.3 2.1-.8 3-1.4.7-.5 1.3-1.1 1.8-1.8 1.7-2.2 2.4-5 1.8-7.6l-6.8-33.9 25.4-23.4c2.7-2.5 3.7-6.3 2.6-9.8-1.1-3.3-3.9-5.8-7.4-6.3h-.4l-34.4-4-14.4-31.4c-.5-1.2-1.4-2.3-2.3-3.1-1.7-1.6-3.9-2.4-6.2-2.4zm-34.6 124.5c-.7 0-1.5-.1-2.2-.3-1-.3-1.9-.7-2.7-1.3-.6-.4-1.2-1-1.6-1.6-.2-.2-.4-.5-.5-.7l-.2-.3c-.7-1.3-1.1-2.7-1.1-4.2 0-.5.1-1 .2-1.6l7-34.5-25.9-23.8c-2.4-2.2-3.3-5.6-2.3-8.7 1-3.1 3.7-5.3 7-5.7l34.9-4.1 14.7-32c1.3-3 4.3-4.9 7.6-4.9 2 0 4 .7 5.5 2.1.9.8 1.6 1.7 2.1 2.8l14.6 31.9 35 4.1h.3c3.1.5 5.6 2.7 6.6 5.7 1 3.1.1 6.5-2.3 8.7l-25.8 23.8 6.9 34.4c.5 2.4-.1 4.9-1.6 6.8-.5.6-1 1.1-1.6 1.6-.8.6-1.7 1-2.7 1.3-1.5.4-3 .4-4.4 0-.6-.2-1.2-.4-1.8-.7l-30.6-17.2-30.6 17.2c-.3.2-.7.3-1 .5-.3.1-.6.2-1 .3-1.1.3-1.8.4-2.5.4zm34.6-121.5c-2.5 0-4.7 1.5-5.7 3.7l-15.1 33-36 4.2c-2.5.3-4.5 2-5.3 4.3-.8 2.3-.1 4.9 1.7 6.6l26.7 24.6-.8 3.7-6.4 31.8c-.1.4-.1.8-.1 1.2 0 1.1.3 2.2.8 3.2l.2.3c.1.2.2.3.4.5.4.5.8.9 1.3 1.2.6.4 1.3.8 2.1 1 1.1.3 2.3.3 3.3 0 .3-.1.5-.2.7-.2.3-.1.5-.2.8-.4l.3-.2 3.6-2 27.6-15.6 31.6 17.8c.5.2 1 .4 1.4.6 1.1.3 2.3.3 3.4 0 .8-.2 1.4-.5 2-1 .5-.4.9-.8 1.3-1.2 1.2-1.5 1.6-3.4 1.3-5.2l-7.2-35.5L325 344c1.8-1.7 2.5-4.3 1.8-6.6s-2.7-3.9-5-4.3h-.2l-36.1-4.2-15.1-33c-.4-.8-.9-1.5-1.6-2.1-1.3-1-2.8-1.6-4.4-1.6zm36.4 115.5-34-19.1c-1.4-.8-3.3-.8-4.8 0l-34 19.1 7.7-38.1c0-.2.1-.3.1-.5.2-1.6-.4-3.1-1.5-4.2l-28.7-26.4 38.7-4.5c1.7-.2 3.2-1.2 3.9-2.8l16.3-35.5 16.3 35.5c.7 1.5 2.2 2.6 3.8 2.8l38.8 4.5-28.8 26.5c-1.1 1-1.7 2.6-1.5 4.2l7.7 38.5zm-36.3-21.8c1.2 0 2.4.3 3.4.9l30.2 17-6.9-34.4c-.3-2.3.5-4.5 2.1-5.9l25.6-23.5-34.5-4c-2.3-.3-4.4-1.8-5.4-3.9l-14.4-31.5L250 332c-1 2.2-3 3.7-5.5 3.9l-34.4 4 25.5 23.5c1.6 1.5 2.4 3.7 2.1 5.8 0 .2-.1.4-.1.7l-6.8 33.8 30.2-17c1.1-.5 2.3-.8 3.5-.8zm32.1 15.9-28.3-15.9c-2.3-1.3-5.3-1.4-7.7 0l-28.3 15.9 6.4-31.6c.1-.2.1-.5.1-.8.3-2.5-.6-5-2.5-6.6l-23.9-22 32.2-3.7c2.8-.3 5.1-2 6.3-4.5l13.5-29.5 13.5 29.5c1.1 2.5 3.5 4.2 6.2 4.5l32.3 3.7-24 22c-1.8 1.7-2.7 4.2-2.4 6.8l6.6 32.2zm-32.1-18.9c1.7 0 3.4.4 4.9 1.3l24.5 13.8-5.7-28.1c-.4-3.2.7-6.4 3-8.5l20.8-19.1-27.9-3.2c-3.4-.4-6.4-2.5-7.8-5.7l-11.7-25.6-11.7 25.6c-1.4 3.2-4.4 5.3-7.9 5.7l-27.9 3.2 20.7 19.1c2.3 2.1 3.4 5.2 3.1 8.3 0 .4-.1.8-.2 1.1l-5.5 27.3 24.5-13.8c1.4-1 3.1-1.4 4.8-1.4z"></path></g><g><path fill-rule="evenodd" d="M483 336.6c-1-3.1-3.7-5.5-7-6h-.4l-4.3-.5-2.7-.3-8.8-1-5.3-.6-.7-.1-12.8-1.5-12.4-27.1-2.1-4.6c-.5-1.2-1.3-2.2-2.2-3-1.6-1.4-3.6-2.2-5.8-2.2-3.5 0-6.6 2-8 5.2l-.6 1.4-4.7 10.2-9.2 20.1-11.4 1.3-1.8.2-5.2.6-7 .8-3.3.4-5.4.6h-.4c-3.4.4-6.3 2.8-7.4 6-1.1 3.3-.1 6.9 2.4 9.2l12.8 11.8 3.1 2.8 4.6 4.2 5.1 4.7-.1.4-.4 2-2.9 14.1v.2l-.6 3.1-.6 3.2-2.2 11.1c-.1.5-.2 1.1-.2 1.6 0 1.6.4 3.1 1.2 4.5.2.4.5.8.8 1.1.5.6 1.1 1.2 1.7 1.7.9.6 1.8 1.1 2.8 1.4 1.5.4 3.2.4 4.7 0 .3-.1.7-.2 1-.3.4-.1.7-.3 1-.5l.4-.2 3.5-2 26.4-14.9 26.4 14.9 4 2.2c.6.3 1.3.6 2 .8 1.5.4 3.2.4 4.7 0 1-.3 2-.7 2.8-1.4.7-.5 1.2-1.1 1.7-1.7 1.6-2 2.3-4.6 1.7-7.2l-2.8-14.1-.7-3.3-3.1-15.3-.3-1.5.7-.6 1.4-1.3 2-1.9 3.3-3 1.5-1.4 8.3-7.6.1-.1 3.5-3.2.3-.3 2.4-2.2 2.1-1.9c2.5-2.1 3.5-5.7 2.4-9zm-64.5 48.8c-1.2 0-2.5.3-3.6.9l-29.2 16.5 6.6-32.8c.1-.3.1-.5.1-.8.3-2.3-.6-4.6-2.3-6.2l-24.7-22.8 33.3-3.9c2.6-.3 4.8-1.9 5.9-4.2l14-30.5 14 30.5c1.1 2.3 3.3 3.9 5.8 4.2l33.4 3.9L447 363c-1.7 1.6-2.6 3.9-2.3 6.3l6.7 33.4-29.2-16.5c-1.2-.5-2.5-.8-3.7-.8z" clip-rule="evenodd"></path><path d="M453.2 415.2c-.9 0-1.8-.1-2.6-.4-.7-.2-1.5-.5-2.2-.9l-29.9-16.8-29.9 16.8c-.4.2-.8.4-1.1.5-.3.1-.7.3-1.1.4-1.7.5-3.5.5-5.2 0-1.2-.3-2.2-.8-3.2-1.5-.7-.5-1.4-1.2-1.9-1.9-.3-.4-.6-.8-.8-1.2l-.1-.2c-.8-1.4-1.2-3.1-1.2-4.7 0-.6.1-1.2.2-1.8l6.8-33.6-25.2-23.2c-2.8-2.6-3.9-6.6-2.7-10.3 1.2-3.7 4.4-6.3 8.2-6.7l34.1-4 14.3-31.2c1.6-3.5 5.1-5.7 8.9-5.7 2.4 0 4.7.9 6.5 2.4 1 .9 1.9 2 2.5 3.3l2.1 4.6 12.2 26.6 34.1 4c.1 0 .3 0 .4.1 3.7.6 6.6 3.1 7.8 6.7 1.2 3.7.1 7.7-2.7 10.3l-25.5 23 6.8 33.6c.6 2.8-.1 5.8-1.9 8-.5.7-1.2 1.3-1.9 1.9-.9.7-2 1.2-3.2 1.5-.9.3-1.8.4-2.6.4zm-34.8-20.4 30.9 17.4c.6.3 1.2.6 1.8.7 1.4.4 2.8.4 4.2 0 .9-.3 1.8-.7 2.5-1.2.6-.4 1.1-.9 1.5-1.5 1.4-1.8 2-4.2 1.5-6.4l-7-34.7 26-24c2.3-2.1 3.1-5.3 2.2-8.2-.9-2.8-3.3-4.8-6.2-5.3h-.3l-35.2-4.1-14.7-32.2c-.5-1-1.1-1.9-2-2.6-1.4-1.3-3.3-1.9-5.2-1.9-3.1 0-5.8 1.8-7.1 4.6l-14.8 32.2-35.2 4.1c-3 .3-5.6 2.4-6.6 5.4-.9 2.9-.1 6.1 2.1 8.2l26.1 24-.6 2.9-6.4 31.8c-.1.5-.2 1-.2 1.5 0 1.4.3 2.7 1 3.9l.1.2c.2.3.3.5.5.8.5.6 1 1.1 1.5 1.5.7.5 1.6.9 2.5 1.2 1.4.4 2.8.4 4.2 0l.9-.3c.3-.1.6-.3.9-.4l.4-.2 3.6-2 27.1-15.4zm34.3 9.9-31.1-17.5c-1.9-1.1-4.3-1.1-6.2 0l-31.1 17.5 7-34.9c.1-.2.1-.4.1-.7.2-2-.5-4-2-5.4L363 339.6l35.5-4.1c2.2-.2 4.1-1.6 5.1-3.6l14.9-32.5 14.9 32.5c.9 2 2.8 3.4 5 3.6l35.5 4.1-26.4 24.2c-1.5 1.4-2.2 3.4-2 5.5l7.2 35.4zm-34.2-20.3c1.5 0 2.9.4 4.1 1.1l27.3 15.4-6.3-31.2c-.3-2.8.6-5.5 2.6-7.3l23.2-21.3-31.2-3.6c-2.9-.3-5.4-2.2-6.6-4.8l-13.1-28.5-13.1 28.5c-1.2 2.7-3.7 4.5-6.7 4.8l-31.1 3.6 23.1 21.3c1.9 1.8 2.9 4.4 2.6 7 0 .3-.1.6-.1.9l-6.1 30.6 27.3-15.4c1.2-.8 2.6-1.1 4.1-1.1z"></path><path d="M453.2 415.7c-.9 0-1.8-.1-2.7-.4-.7-.2-1.5-.5-2.3-.9l-29.7-16.7-29.6 16.7c-.5.2-.8.4-1.2.6-.4.1-.8.3-1.2.4-1.8.5-3.7.5-5.5 0-1.2-.3-2.4-.9-3.3-1.6-.8-.6-1.4-1.2-2-2-.3-.4-.6-.8-.9-1.3l-.2-.4c-.8-1.5-1.2-3.2-1.2-4.8 0-.6.1-1.2.2-1.9l6.7-33.4-25-23c-3-2.7-4.1-7-2.8-10.8 1.3-3.8 4.6-6.6 8.6-7.1l33.8-3.9 14.2-30.9c1.7-3.7 5.3-6 9.4-6 2.5 0 4.9.9 6.8 2.6 1.1.9 2 2.1 2.6 3.5l2.1 4.6 12 26.3 33.8 3.9c.1 0 .3 0 .5.1 3.9.6 7 3.3 8.2 7 1.2 3.8.1 8.1-2.8 10.8l-25 23 6.7 33.3c.6 3-.1 6.1-2 8.5-.6.7-1.3 1.4-2 2-.9.7-2.1 1.2-3.3 1.6-1.1.1-2 .2-2.9.2zm-34.8-21.4 31.1 17.5c.5.3 1.1.5 1.7.7 1.3.4 2.6.4 3.9 0 .9-.2 1.7-.6 2.3-1.1.6-.4 1-.9 1.5-1.4 1.4-1.7 1.9-3.9 1.5-6l-7-35 26.3-24.2c2.1-1.9 2.9-5 2-7.7-.9-2.6-3.1-4.5-5.8-5h-.3l-35.5-4.1-14.9-32.5c-.4-.9-1.1-1.8-1.8-2.5-1.3-1.2-3-1.8-4.8-1.8-2.9 0-5.5 1.7-6.7 4.3L397 328l-35.5 4.1c-2.8.3-5.3 2.3-6.1 5-.9 2.7-.1 5.7 2 7.7l26.3 24.2-.7 3.2-6.4 31.8c-.1.5-.1 1-.2 1.4 0 1.3.3 2.6 1 3.7l.2.3c.1.2.3.4.5.7.4.6.9 1 1.4 1.4.7.5 1.5.9 2.4 1.1 1.3.3 2.6.3 3.9 0 .3-.1.6-.2.8-.3.3-.1.6-.3.9-.4l.4-.2 3.6-2 26.9-15.4zm35 11.4-32.1-18.1c-1.7-1-4-1-5.8 0l-32.1 18.1 7.2-36c.1-.2.1-.4.1-.6.2-1.9-.5-3.7-1.8-5l-27.1-25 36.6-4.2c2.1-.2 3.8-1.5 4.7-3.4l15.4-33.5 15.4 33.5c.9 1.8 2.6 3.1 4.6 3.4l36.6 4.2-27.2 25c-1.3 1.3-2 3.1-1.8 5l7.3 36.6zm-34.9-21.8c1.5 0 3.1.4 4.4 1.2l26.4 14.8-6.1-30.3c-.3-2.8.7-5.7 2.7-7.6l22.3-20.6-30.1-3.5c-3-.3-5.7-2.3-7-5.1l-12.6-27.6-12.6 27.5c-1.3 2.8-3.9 4.8-7.1 5.1l-30.1 3.5L391 362c2 1.9 3.1 4.7 2.8 7.5 0 .3-.1.7-.2.9l-5.9 29.5 26.4-14.9c1.3-.7 2.8-1.1 4.4-1.1z"></path><path d="M383.8 416.7c-1 0-2-.1-3-.4-1.4-.4-2.6-1-3.7-1.8-.8-.6-1.6-1.3-2.2-2.2-.3-.4-.7-.9-1-1.4l-.2-.4c-.8-1.6-1.3-3.5-1.3-5.3 0-.7.1-1.3.2-2.1l6.6-32.8-24.6-22.6c-3.3-3-4.5-7.6-3.1-11.9 1.4-4.2 5.1-7.3 9.5-7.8l33.2-3.9 13.9-30.4c1.8-4 5.9-6.6 10.3-6.6 2.8 0 5.4 1 7.5 2.8 1.2 1 2.2 2.3 2.8 3.8l2.1 4.6 11.8 25.8 33.2 3.9c.1 0 .3 0 .5.1 4.2.7 7.7 3.6 9 7.7 1.4 4.2.1 8.9-3.1 11.9l-24.6 22.6 6.6 32.8c.7 3.3-.2 6.7-2.2 9.3-.6.8-1.4 1.5-2.2 2.2-1 .8-2.3 1.4-3.6 1.7-2 .5-4.1.5-6 0-.8-.2-1.7-.5-2.5-1l-29.2-16.4-29.1 16.4c-.5.3-.9.5-1.3.6-.4.2-.8.3-1.3.4-1 .3-2 .4-3 .4zm34.6-127.5c-3.6 0-7 2.1-8.5 5.4L395.5 326l-34.3 4c-3.6.4-6.7 2.9-7.8 6.4-1.1 3.5-.1 7.3 2.6 9.8l25.4 23.4-6.8 33.9c-.1.6-.2 1.2-.2 1.7 0 1.5.4 3 1 4.4l.2.4c.2.4.5.8.8 1.1.5.7 1.2 1.3 1.8 1.8.9.6 1.9 1.1 3 1.4 1.6.4 3.3.4 4.9 0 .4-.1.7-.2 1.1-.4.3-.1.7-.3 1.1-.5l30.1-16.9 30.2 17c.7.4 1.4.6 2.1.8 1.6.5 3.3.5 5 0 1.1-.3 2.1-.8 3-1.4.7-.5 1.3-1.1 1.8-1.8 1.7-2.2 2.4-5 1.8-7.6l-6.8-33.9 25.4-23.4c2.7-2.5 3.7-6.3 2.6-9.8-1.1-3.3-3.9-5.8-7.4-6.3h-.4l-34.4-4-14.4-31.4c-.5-1.2-1.4-2.3-2.3-3.1-1.7-1.6-3.9-2.4-6.2-2.4zm-34.6 124.5c-.7 0-1.5-.1-2.2-.3-1-.3-1.9-.7-2.7-1.3-.6-.4-1.2-1-1.6-1.6-.2-.2-.4-.5-.5-.7l-.2-.3c-.7-1.3-1.1-2.7-1.1-4.2 0-.5.1-1 .2-1.6l7-34.5-25.9-23.8c-2.4-2.2-3.3-5.6-2.3-8.7 1-3.1 3.7-5.3 7-5.7l34.9-4.1 14.7-32c1.3-3 4.3-4.9 7.6-4.9 2 0 4 .7 5.5 2.1.9.8 1.6 1.7 2.1 2.8l14.6 31.9 35 4.1h.3c3.1.5 5.6 2.7 6.6 5.7 1 3.1.1 6.5-2.3 8.7l-25.8 23.8 6.9 34.4c.5 2.4-.1 4.9-1.6 6.8-.5.6-1 1.1-1.6 1.6-.8.6-1.7 1-2.7 1.3-1.5.4-3 .4-4.4 0-.6-.2-1.2-.4-1.8-.7l-30.6-17.2-30.6 17.2c-.3.2-.7.3-1 .5-.3.1-.6.2-1 .3-1.1.3-1.8.4-2.5.4zm34.6-121.5c-2.5 0-4.7 1.5-5.7 3.7l-15.1 33-36 4.2c-2.5.3-4.5 2-5.3 4.3-.8 2.3-.1 4.9 1.7 6.6l26.7 24.6-.8 3.7-6.4 31.8c-.1.4-.1.8-.1 1.2 0 1.1.3 2.2.8 3.2l.2.3c.1.2.2.3.4.5.4.5.8.9 1.3 1.2.6.4 1.3.8 2.1 1 1.1.3 2.3.3 3.3 0 .3-.1.5-.2.7-.2.3-.1.5-.2.8-.4l.3-.2 3.6-2 27.6-15.6 31.6 17.8c.5.2 1 .4 1.4.6 1.1.3 2.3.3 3.4 0 .8-.2 1.4-.5 2-1 .5-.4.9-.8 1.3-1.2 1.2-1.5 1.6-3.4 1.3-5.2l-7.2-35.5L479 344c1.8-1.7 2.5-4.3 1.8-6.6s-2.7-3.9-5-4.3h-.2l-36.1-4.2-15.1-33c-.4-.8-.9-1.5-1.6-2.1-1.3-1-2.8-1.6-4.4-1.6zm36.4 115.5-34-19.1c-1.4-.8-3.3-.8-4.8 0l-34 19.1 7.7-38.1c0-.2.1-.3.1-.5.2-1.6-.4-3.1-1.5-4.2l-28.7-26.4 38.7-4.5c1.7-.2 3.2-1.2 3.9-2.8l16.3-35.5 16.3 35.5c.7 1.5 2.2 2.6 3.8 2.8l38.8 4.5-28.8 26.5c-1.1 1-1.7 2.6-1.5 4.2l7.7 38.5zm-36.3-21.8c1.2 0 2.4.3 3.4.9l30.2 17-6.9-34.4c-.3-2.3.5-4.5 2.1-5.9l25.6-23.5-34.5-4c-2.3-.3-4.4-1.8-5.4-3.9l-14.4-31.5L404 332c-1 2.2-3 3.7-5.5 3.9l-34.4 4 25.5 23.5c1.6 1.5 2.4 3.7 2.1 5.8 0 .2-.1.4-.1.7l-6.8 33.8 30.2-17c1.1-.5 2.3-.8 3.5-.8zm32.1 15.9-28.3-15.9c-2.3-1.3-5.3-1.4-7.7 0l-28.3 15.9 6.4-31.6c.1-.2.1-.5.1-.8.3-2.5-.6-5-2.5-6.6l-23.9-22 32.2-3.7c2.8-.3 5.1-2 6.3-4.5l13.5-29.5 13.5 29.5c1.1 2.5 3.5 4.2 6.2 4.5l32.3 3.7-24 22c-1.8 1.7-2.7 4.2-2.4 6.8l6.6 32.2zm-32.1-18.9c1.7 0 3.4.4 4.9 1.3l24.5 13.8-5.7-28.1c-.4-3.2.7-6.4 3-8.5l20.8-19.1-27.9-3.2c-3.4-.4-6.4-2.5-7.8-5.7l-11.7-25.6-11.7 25.6c-1.4 3.2-4.4 5.3-7.9 5.7l-27.9 3.2 20.7 19.1c2.3 2.1 3.4 5.2 3.1 8.3 0 .4-.1.8-.2 1.1l-5.5 27.3 24.5-13.8c1.4-1 3.1-1.4 4.8-1.4z"></path></g><g><path fill-rule="evenodd" d="M406 149.6c-1-3.1-3.7-5.5-7-6h-.4l-4.3-.5-2.7-.3-8.8-1-5.3-.6-.7-.1-12.8-1.5-12.4-27.1-2.1-4.6c-.5-1.2-1.3-2.2-2.2-3-1.6-1.4-3.6-2.2-5.8-2.2-3.5 0-6.6 2-8 5.2l-.6 1.4-4.7 10.2-9.2 20.1-11.4 1.3-1.8.2-5.2.6-7 .8-3.3.4-5.4.6h-.4c-3.4.4-6.3 2.8-7.4 6-1.1 3.3-.1 6.9 2.4 9.2l12.8 11.8 3.1 2.8 4.6 4.2 5.1 4.7-.1.4-.4 2-2.9 14.1v.2l-.6 3.1-.6 3.2-2.2 11.1c-.1.5-.2 1.1-.2 1.6 0 1.6.4 3.1 1.2 4.5.2.4.5.8.8 1.1.5.6 1.1 1.2 1.7 1.7.9.6 1.8 1.1 2.8 1.4 1.5.4 3.2.4 4.7 0 .3-.1.7-.2 1-.3.4-.1.7-.3 1-.5l.4-.2 3.5-2 26.4-14.9 26.4 14.9 4 2.2c.6.3 1.3.6 2 .8 1.5.4 3.2.4 4.7 0 1-.3 2-.7 2.8-1.4.7-.5 1.2-1.1 1.7-1.7 1.6-2 2.3-4.6 1.7-7.2l-2.8-14.1-.7-3.3-3.1-15.3-.3-1.5.7-.6 1.4-1.3 2-1.9 3.3-3 1.5-1.4 8.3-7.6.1-.1 3.5-3.2.3-.3 2.4-2.2 2.1-1.9c2.5-2.1 3.5-5.7 2.4-9zm-64.5 48.8c-1.2 0-2.5.3-3.6.9l-29.2 16.5 6.6-32.8c.1-.3.1-.5.1-.8.3-2.3-.6-4.6-2.3-6.2l-24.7-22.8 33.3-3.9c2.6-.3 4.8-1.9 5.9-4.2l14-30.5 14 30.5c1.1 2.3 3.3 3.9 5.8 4.2l33.4 3.9L370 176c-1.7 1.6-2.6 3.9-2.3 6.3l6.7 33.4-29.2-16.5c-1.2-.5-2.5-.8-3.7-.8z" clip-rule="evenodd"></path><path d="M376.2 228.2c-.9 0-1.8-.1-2.6-.4-.7-.2-1.5-.5-2.2-.9l-29.9-16.8-29.9 16.8c-.4.2-.8.4-1.1.5-.3.1-.7.3-1.1.4-1.7.5-3.5.5-5.2 0-1.2-.3-2.2-.8-3.2-1.5-.7-.5-1.4-1.2-1.9-1.9-.3-.4-.6-.8-.8-1.2l-.1-.2c-.8-1.4-1.2-3.1-1.2-4.7 0-.6.1-1.2.2-1.8l6.8-33.6-25.2-23.2c-2.8-2.6-3.9-6.6-2.7-10.3 1.2-3.7 4.4-6.3 8.2-6.7l34.1-4 14.3-31.2c1.6-3.5 5.1-5.7 8.9-5.7 2.4 0 4.7.9 6.5 2.4 1 .9 1.9 2 2.5 3.3l2.1 4.6 12.2 26.6 34.1 4c.1 0 .3 0 .4.1 3.7.6 6.6 3.1 7.8 6.7 1.2 3.7.1 7.7-2.7 10.3l-25.5 23 6.8 33.6c.6 2.8-.1 5.8-1.9 8-.5.7-1.2 1.3-1.9 1.9-.9.7-2 1.2-3.2 1.5-.9.3-1.8.4-2.6.4zm-34.8-20.4 30.9 17.4c.6.3 1.2.6 1.8.7 1.4.4 2.8.4 4.2 0 .9-.3 1.8-.7 2.5-1.2.6-.4 1.1-.9 1.5-1.5 1.4-1.8 2-4.2 1.5-6.4l-7-34.7 26-24c2.3-2.1 3.1-5.3 2.2-8.2-.9-2.8-3.3-4.8-6.2-5.3h-.3l-35.2-4.1-14.7-32.2c-.5-1-1.1-1.9-2-2.6-1.4-1.3-3.3-1.9-5.2-1.9-3.1 0-5.8 1.8-7.1 4.6l-14.8 32.2-35.2 4.1c-3 .3-5.6 2.4-6.6 5.4-.9 2.9-.1 6.1 2.1 8.2l26.1 24-.6 2.9-6.4 31.8c-.1.5-.2 1-.2 1.5 0 1.4.3 2.7 1 3.9l.1.2c.2.3.3.5.5.8.5.6 1 1.1 1.5 1.5.7.5 1.6.9 2.5 1.2 1.4.4 2.8.4 4.2 0l.9-.3c.3-.1.6-.3.9-.4l.4-.2 3.6-2 27.1-15.4zm34.3 9.9-31.1-17.5c-1.9-1.1-4.3-1.1-6.2 0l-31.1 17.5 7-34.9c.1-.2.1-.4.1-.7.2-2-.5-4-2-5.4L286 152.6l35.5-4.1c2.2-.2 4.1-1.6 5.1-3.6l14.9-32.5 14.9 32.5c.9 2 2.8 3.4 5 3.6l35.5 4.1-26.4 24.2c-1.5 1.4-2.2 3.4-2 5.5l7.2 35.4zm-34.2-20.3c1.5 0 2.9.4 4.1 1.1l27.3 15.4-6.3-31.2c-.3-2.8.6-5.5 2.6-7.3l23.2-21.3-31.2-3.6c-2.9-.3-5.4-2.2-6.6-4.8l-13.1-28.5-13.1 28.5c-1.2 2.7-3.7 4.5-6.7 4.8l-31.1 3.6 23.1 21.3c1.9 1.8 2.9 4.4 2.6 7 0 .3-.1.6-.1.9l-6.1 30.6 27.3-15.4c1.2-.8 2.6-1.1 4.1-1.1z"></path><path d="M376.2 228.7c-.9 0-1.8-.1-2.7-.4-.7-.2-1.5-.5-2.3-.9l-29.7-16.7-29.6 16.7c-.5.2-.8.4-1.2.6-.4.1-.8.3-1.2.4-1.8.5-3.7.5-5.5 0-1.2-.3-2.4-.9-3.3-1.6-.8-.6-1.4-1.2-2-2-.3-.4-.6-.8-.9-1.3l-.2-.4c-.8-1.5-1.2-3.2-1.2-4.8 0-.6.1-1.2.2-1.9l6.7-33.4-25-23c-3-2.7-4.1-7-2.8-10.8 1.3-3.8 4.6-6.6 8.6-7.1l33.8-3.9 14.2-30.9c1.7-3.7 5.3-6 9.4-6 2.5 0 4.9.9 6.8 2.6 1.1.9 2 2.1 2.6 3.5l2.1 4.6 12 26.3 33.8 3.9c.1 0 .3 0 .5.1 3.9.6 7 3.3 8.2 7 1.2 3.8.1 8.1-2.8 10.8l-25 23 6.7 33.3c.6 3-.1 6.1-2 8.5-.6.7-1.3 1.4-2 2-.9.7-2.1 1.2-3.3 1.6-1.1.1-2 .2-2.9.2zm-34.8-21.4 31.1 17.5c.5.3 1.1.5 1.7.7 1.3.4 2.6.4 3.9 0 .9-.2 1.7-.6 2.3-1.1.6-.4 1-.9 1.5-1.4 1.4-1.7 1.9-3.9 1.5-6l-7-35 26.3-24.2c2.1-1.9 2.9-5 2-7.7-.9-2.6-3.1-4.5-5.8-5h-.3l-35.5-4.1-14.9-32.5c-.4-.9-1.1-1.8-1.8-2.5-1.3-1.2-3-1.8-4.8-1.8-2.9 0-5.5 1.7-6.7 4.3L320 141l-35.5 4.1c-2.8.3-5.3 2.3-6.1 5-.9 2.7-.1 5.7 2 7.7l26.3 24.2-.7 3.2-6.4 31.8c-.1.5-.1 1-.2 1.4 0 1.3.3 2.6 1 3.7l.2.3c.1.2.3.4.5.7.4.6.9 1 1.4 1.4.7.5 1.5.9 2.4 1.1 1.3.3 2.6.3 3.9 0 .3-.1.6-.2.8-.3.3-.1.6-.3.9-.4l.4-.2 3.6-2 26.9-15.4zm35 11.4-32.1-18.1c-1.7-1-4-1-5.8 0l-32.1 18.1 7.2-36c.1-.2.1-.4.1-.6.2-1.9-.5-3.7-1.8-5l-27.1-25 36.6-4.2c2.1-.2 3.8-1.5 4.7-3.4l15.4-33.5 15.4 33.5c.9 1.8 2.6 3.1 4.6 3.4l36.6 4.2-27.2 25c-1.3 1.3-2 3.1-1.8 5l7.3 36.6zm-34.9-21.8c1.5 0 3.1.4 4.4 1.2l26.4 14.8-6.1-30.3c-.3-2.8.7-5.7 2.7-7.6l22.3-20.6-30.1-3.5c-3-.3-5.7-2.3-7-5.1l-12.6-27.6-12.6 27.5c-1.3 2.8-3.9 4.8-7.1 5.1l-30.1 3.5L314 175c2 1.9 3.1 4.7 2.8 7.5 0 .3-.1.7-.2.9l-5.9 29.5 26.4-14.9c1.3-.7 2.8-1.1 4.4-1.1z"></path><path d="M306.8 229.7c-1 0-2-.1-3-.4-1.4-.4-2.6-1-3.7-1.8-.8-.6-1.6-1.3-2.2-2.2-.3-.4-.7-.9-1-1.4l-.2-.4c-.8-1.6-1.3-3.5-1.3-5.3 0-.7.1-1.3.2-2.1l6.6-32.8-24.6-22.6c-3.3-3-4.5-7.6-3.1-11.9 1.4-4.2 5.1-7.3 9.5-7.8l33.2-3.9 13.9-30.4c1.8-4 5.9-6.6 10.3-6.6 2.8 0 5.4 1 7.5 2.8 1.2 1 2.2 2.3 2.8 3.8l2.1 4.6 11.8 25.8 33.2 3.9c.1 0 .3 0 .5.1 4.2.7 7.7 3.6 9 7.7 1.4 4.2.1 8.9-3.1 11.9l-24.6 22.6 6.6 32.8c.7 3.3-.2 6.7-2.2 9.3-.6.8-1.4 1.5-2.2 2.2-1 .8-2.3 1.4-3.6 1.7-2 .5-4.1.5-6 0-.8-.2-1.7-.5-2.5-1l-29.2-16.4-29.1 16.4c-.5.3-.9.5-1.3.6-.4.2-.8.3-1.3.4-1 .3-2 .4-3 .4zm34.6-127.5c-3.6 0-7 2.1-8.5 5.4L318.5 139l-34.3 4c-3.6.4-6.7 2.9-7.8 6.4-1.1 3.5-.1 7.3 2.6 9.8l25.4 23.4-6.8 33.9c-.1.6-.2 1.2-.2 1.7 0 1.5.4 3 1 4.4l.2.4c.2.4.5.8.8 1.1.5.7 1.2 1.3 1.8 1.8.9.6 1.9 1.1 3 1.4 1.6.4 3.3.4 4.9 0 .4-.1.7-.2 1.1-.4.3-.1.7-.3 1.1-.5l30.1-16.9 30.2 17c.7.4 1.4.6 2.1.8 1.6.5 3.3.5 5 0 1.1-.3 2.1-.8 3-1.4.7-.5 1.3-1.1 1.8-1.8 1.7-2.2 2.4-5 1.8-7.6l-6.8-33.9 25.4-23.4c2.7-2.5 3.7-6.3 2.6-9.8-1.1-3.3-3.9-5.8-7.4-6.3h-.4l-34.4-4-14.4-31.4c-.5-1.2-1.4-2.3-2.3-3.1-1.7-1.6-3.9-2.4-6.2-2.4zm-34.6 124.5c-.7 0-1.5-.1-2.2-.3-1-.3-1.9-.7-2.7-1.3-.6-.4-1.2-1-1.6-1.6-.2-.2-.4-.5-.5-.7l-.2-.3c-.7-1.3-1.1-2.7-1.1-4.2 0-.5.1-1 .2-1.6l7-34.5-25.9-23.8c-2.4-2.2-3.3-5.6-2.3-8.7 1-3.1 3.7-5.3 7-5.7l34.9-4.1 14.7-32c1.3-3 4.3-4.9 7.6-4.9 2 0 4 .7 5.5 2.1.9.8 1.6 1.7 2.1 2.8l14.6 31.9 35 4.1h.3c3.1.5 5.6 2.7 6.6 5.7 1 3.1.1 6.5-2.3 8.7l-25.8 23.8 6.9 34.4c.5 2.4-.1 4.9-1.6 6.8-.5.6-1 1.1-1.6 1.6-.8.6-1.7 1-2.7 1.3-1.5.4-3 .4-4.4 0-.6-.2-1.2-.4-1.8-.7l-30.6-17.2-30.6 17.2c-.3.2-.7.3-1 .5-.3.1-.6.2-1 .3-1.1.3-1.8.4-2.5.4zm34.6-121.5c-2.5 0-4.7 1.5-5.7 3.7l-15.1 33-36 4.2c-2.5.3-4.5 2-5.3 4.3-.8 2.3-.1 4.9 1.7 6.6l26.7 24.6-.8 3.7-6.4 31.8c-.1.4-.1.8-.1 1.2 0 1.1.3 2.2.8 3.2l.2.3c.1.2.2.3.4.5.4.5.8.9 1.3 1.2.6.4 1.3.8 2.1 1 1.1.3 2.3.3 3.3 0 .3-.1.5-.2.7-.2.3-.1.5-.2.8-.4l.3-.2 3.6-2 27.6-15.6 31.6 17.8c.5.2 1 .4 1.4.6 1.1.3 2.3.3 3.4 0 .8-.2 1.4-.5 2-1 .5-.4.9-.8 1.3-1.2 1.2-1.5 1.6-3.4 1.3-5.2l-7.2-35.5L402 157c1.8-1.7 2.5-4.3 1.8-6.6s-2.7-3.9-5-4.3h-.2l-36.1-4.2-15.1-33c-.4-.8-.9-1.5-1.6-2.1-1.3-1-2.8-1.6-4.4-1.6zm36.4 115.5-34-19.1c-1.4-.8-3.3-.8-4.8 0l-34 19.1 7.7-38.1c0-.2.1-.3.1-.5.2-1.6-.4-3.1-1.5-4.2l-28.7-26.4 38.7-4.5c1.7-.2 3.2-1.2 3.9-2.8l16.3-35.5 16.3 35.5c.7 1.5 2.2 2.6 3.8 2.8l38.8 4.5-28.8 26.5c-1.1 1-1.7 2.6-1.5 4.2l7.7 38.5zm-36.3-21.8c1.2 0 2.4.3 3.4.9l30.2 17-6.9-34.4c-.3-2.3.5-4.5 2.1-5.9l25.6-23.5-34.5-4c-2.3-.3-4.4-1.8-5.4-3.9l-14.4-31.5L327 145c-1 2.2-3 3.7-5.5 3.9l-34.4 4 25.5 23.5c1.6 1.5 2.4 3.7 2.1 5.8 0 .2-.1.4-.1.7l-6.8 33.8 30.2-17c1.1-.5 2.3-.8 3.5-.8zm32.1 15.9-28.3-15.9c-2.3-1.3-5.3-1.4-7.7 0l-28.3 15.9 6.4-31.6c.1-.2.1-.5.1-.8.3-2.5-.6-5-2.5-6.6l-23.9-22 32.2-3.7c2.8-.3 5.1-2 6.3-4.5l13.5-29.5 13.5 29.5c1.1 2.5 3.5 4.2 6.2 4.5l32.3 3.7-24 22c-1.8 1.7-2.7 4.2-2.4 6.8l6.6 32.2zm-32.1-18.9c1.7 0 3.4.4 4.9 1.3l24.5 13.8-5.7-28.1c-.4-3.2.7-6.4 3-8.5l20.8-19.1-27.9-3.2c-3.4-.4-6.4-2.5-7.8-5.7l-11.7-25.6-11.7 25.6c-1.4 3.2-4.4 5.3-7.9 5.7l-27.9 3.2 20.7 19.1c2.3 2.1 3.4 5.2 3.1 8.3 0 .4-.1.8-.2 1.1l-5.5 27.3 24.5-13.8c1.4-1 3.1-1.4 4.8-1.4z"></path></g></svg>