<svg xmlns="http://www.w3.org/2000/svg" viewBox="0 0 700 700"><g><path d="m252.748 454.248 50.08-17.41 6.163 17.73-50.08 17.41z"></path><path d="m272.31 458.69-24.23-48.06-9.05 3.15-6.16-17.73 24.57-8.55 31.63 62.74-16.76 8.45zm-50.424-99.966 16.763-8.445 8.99 17.843-16.763 8.445z"></path><path d="m408.32 504.41-11.62-20.62-98.83-175.36-1.19-2.12a9.295 9.295 0 0 0-3.69-3.64c-4.07-2.21-8.52-4.01-13.37-5.39-33.97-9.68-87.41 1.04-165.95 33.02-2.46 1-4.38 2.99-5.28 5.49-.91 2.49-.72 5.25.53 7.6l106.17 200.34c1.68 3.16 4.92 5 8.3 5 1.2 0 2.41-.23 3.58-.72 84.86-35.08 141.6-45.43 168.67-30.75.2.11.41.21.62.31 1.07.49 2.19.76 3.31.82.19 0 .38.02.57.02.18 0 .36-.01.55-.02.16-.01.33-.02.5-.04.12-.01.25-.03.37-.05a9.372 9.372 0 0 0 2.59-.79c.14-.06.27-.13.41-.21.14-.07.28-.15.41-.23.54-.32 1.04-.69 1.51-1.13.1-.08.19-.17.28-.26.21-.21.42-.43.61-.67.12-.14.24-.29.35-.45l.09-.12a9.395 9.395 0 0 0 .51-10.03ZM227.7 527.43l-97.31-183.61c74.28-29.31 125.14-37.98 151.34-25.81l98.66 175.08c-33.72-4.92-83.35 6.32-152.69 34.34Z"></path><path d="m361.82 160.84 21.05 37.64c2.18 3.9 1.16 8.75-2.31 11.58-.08.06-.16.13-.23.19-4.41 3.63-11 2.48-13.79-2.51l-14.53-25.97c-27.5 34.07-53.95 84.57-54.14 126.66 0 .77 0 1.54.02 2.31.1 5.18-4.02 9.46-9.21 9.56h-.18c-5.1 0-9.28-4.08-9.38-9.21-.09-4.59.09-9.2.5-13.81 4.88-55.5 43.4-111.98 67.04-138.15a9.397 9.397 0 0 1 15.16 1.71Zm195.63 251.18a9.37 9.37 0 0 1-7.07 5.22c-54.05 8.14-100.69 39.94-142.57 97.2l-.09.12c-.11.16-.23.31-.35.45-.19.24-.4.46-.61.67-.09.09-.18.18-.28.26-.47.44-.97.81-1.51 1.13-.13.08-.27.16-.41.23-.14.08-.27.15-.41.21a9.372 9.372 0 0 1-2.59.79c-.12.02-.25.04-.37.05-.17.02-.34.03-.5.04-.19 0-.37.02-.55.02-.19 0-.38-.01-.57-.02a9.106 9.106 0 0 1-3.31-.82 9.407 9.407 0 0 1-5.28-10.61c1.77-7.89 3.68-15.62 5.72-23.17 13.07-48.43 31.56-89.91 55.14-123.6l-20.92-37.38c-2.74-4.9-.33-11.05 4.99-12.86.18-.06.36-.13.55-.19 4.16-1.47 8.78.17 10.93 4.03l23.74 42.44a9.381 9.381 0 0 1-.62 10.12c-20.75 28.38-37.57 63.09-50.22 103.53 13.53-14.41 27.62-26.73 42.15-36.81 22.4-15.54 46.48-26.23 71.75-31.88l-64.82-111.48a9.249 9.249 0 0 1-.29-8.77c.04-.07.07-.15.11-.22 3.28-6.64 12.62-6.97 16.34-.56l71.57 123.1a9.391 9.391 0 0 1 .35 8.77Z"></path></g><path fill="#505050" d="M395.29 297.04h-30.51c-2.26 0-4.32-1.28-5.32-3.31-1-2.03-.76-4.44.62-6.23l23.18-30.16h-18.48a5.93 5.93 0 0 1 0-11.86h30.51c2.26 0 4.32 1.28 5.32 3.31 1 2.03.76 4.44-.62 6.23l-23.18 30.16h18.48a5.93 5.93 0 0 1 0 11.86Zm59.23-28.87h-40.73c-2.26 0-4.32-1.28-5.32-3.31-1-2.03-.76-4.44.62-6.23l33.4-43.46H413.8a5.93 5.93 0 0 1 0-11.86h40.73c2.26 0 4.32 1.28 5.32 3.31s.76 4.44-.62 6.23l-33.4 43.46h28.69a5.93 5.93 0 0 1 0 11.86Z"></path></svg>