<svg xmlns="http://www.w3.org/2000/svg" viewBox="0 0 700 700"><path d="M535.09 506.65H164.91c-10.37 0-18.8-8.43-18.8-18.8v-67.87c0-10.37 8.43-18.8 18.8-18.8h370.18c10.37 0 18.8 8.43 18.8 18.8v67.87c0 10.37-8.43 18.8-18.8 18.8Zm-370.18-90.74c-2.24 0-4.06 1.82-4.06 4.06v67.87c0 2.24 1.82 4.06 4.06 4.06h370.18c2.24 0 4.06-1.82 4.06-4.06v-67.87c0-2.24-1.82-4.06-4.06-4.06H164.91Z"></path><path d="M546.52 427.34a7.37 7.37 0 0 1-7.37-7.37c0-6.14-1.46-12.28-4.23-17.76l-31.43-62.24c-1.83-3.63-.38-8.07 3.26-9.9a7.357 7.357 0 0 1 9.9 3.26l31.43 62.23c3.8 7.53 5.81 15.97 5.81 24.4 0 4.07-3.3 7.37-7.37 7.37Zm-379.18-48.99.14.04c4.34 1.34 6.47 6.22 4.42 10.27l-6.84 13.54a39.637 39.637 0 0 0-4.23 17.55c-.02 3.96-3.09 7.4-7.04 7.57-4.22.18-7.7-3.18-7.7-7.36 0-8.43 2.01-16.87 5.82-24.4l6.82-13.52c1.59-3.15 5.23-4.75 8.6-3.7Zm379.18 99.38H153.48a7.37 7.37 0 0 1 0-14.74h393.05a7.37 7.37 0 0 1 0 14.74Zm-348.49 63.85h-10.82c-8.55 0-15.5-6.95-15.5-15.5v-26.8a7.37 7.37 0 0 1 14.74 0v26.8c0 .42.34.76.76.76h10.82c.34 0 .64-.23.73-.55l8.16-29c1.1-3.92 5.17-6.2 9.09-5.1 3.92 1.1 6.2 5.17 5.1 9.09l-8.16 29c-1.87 6.65-8.01 11.3-14.92 11.3Zm314.76 0h-10.82c-6.91 0-13.05-4.65-14.92-11.3l-8.16-29c-1.1-3.92 1.18-7.99 5.1-9.09 3.92-1.1 7.99 1.18 9.09 5.1l8.16 29c.09.33.39.55.73.55h10.82c.42 0 .76-.34.76-.76v-26.8a7.37 7.37 0 0 1 14.74 0v26.8c0 8.55-6.95 15.5-15.5 15.5ZM441.68 342.2h-9.22c-30.09 0-53.48-13.2-67.8-24.28-13.07-10.11-20.26-19.64-20.56-20.04a7.365 7.365 0 0 1 0-8.83c.34-.46 8.57-11.35 23.46-22.22 19.81-14.46 42.26-22.1 64.9-22.1h9.22c54.6 0 87.01 42.51 88.36 44.32a7.365 7.365 0 0 1 0 8.83c-1.35 1.81-33.76 44.32-88.36 44.32Zm-82-48.73c3 3.26 7.73 7.96 13.99 12.79 12.51 9.67 32.85 21.2 58.79 21.2h9.22c37.3 0 63.39-23.89 72.75-33.99-9.36-10.09-35.45-33.99-72.75-33.99h-9.22c-19.78 0-38.69 6.48-56.21 19.26-7.54 5.5-13.16 11.03-16.56 14.73Z"></path><path d="M391.8 296.09c-2.37 0-4.69-1.14-6.12-3.25-2.28-3.37-1.38-7.95 1.99-10.23 9.78-6.6 20.51-10.67 31.88-12.12 4.03-.52 7.73 2.34 8.24 6.38.51 4.04-2.34 7.73-6.38 8.24-9.06 1.15-17.64 4.42-25.49 9.72a7.35 7.35 0 0 1-4.11 1.26Zm111.21-108.4v53.26c0 4.04-3.11 7.55-7.14 7.68s-7.6-3.22-7.6-7.37v-53.57c0-8.02-6.51-14.53-14.53-14.53H301.17a7.22 7.22 0 0 1-5.22-2.21l-.15-.16c-4.46-4.65-1.22-12.36 5.22-12.36h172.73c16.16 0 29.26 13.1 29.26 29.26Z"></path><path d="m232.34 210.62-.27.66c-.31-.19-.6-.41-.87-.66h1.14Zm238.95-5.29c-.12 4.03-3.64 7.14-7.68 7.14H327.29c-2.92 0-5.55-1.76-6.71-4.44l-.06-.15c-2.08-4.8 1.48-10.15 6.71-10.15h136.7c4.15 0 7.49 3.42 7.37 7.6Z"></path><g><path d="M188.11 330.42c-.19-.25-.38-.5-.58-.74l8.45 11.33-7.87-10.59Zm0 0c-.19-.25-.38-.5-.58-.74l8.45 11.33-7.87-10.59Zm0 0c-.19-.25-.38-.5-.58-.74l8.45 11.33-7.87-10.59Z"></path><path d="m311.33 259.07-17.5-18.51a2.57 2.57 0 0 1-.5-2.79l10.12-23.39c.27-.63.51-1.27.7-1.91 1.41-4.63.85-9.58-1.61-13.85-.18-.3-.36-.6-.55-.89-2.86-4.36-7.42-7.17-12.65-7.78l-25.31-2.93a2.594 2.594 0 0 1-2.17-1.82l-3.59-12.04-3.69-12.38c-.24-.81-.54-1.6-.89-2.35-1.94-4.25-5.47-7.51-9.94-9.14-5.28-1.92-10.99-1.25-15.68 1.84l-21.28 14.02c-.86.57-1.97.57-2.83 0l-21.28-14.02c-4.69-3.09-10.4-3.76-15.67-1.84-5.28 1.92-9.23 6.11-10.83 11.49l-7.29 24.42a2.57 2.57 0 0 1-2.17 1.82l-25.31 2.93c-5.58.65-10.39 3.81-13.19 8.67-2.81 4.86-3.14 10.61-.91 15.76l10.11 23.39c.41.94.22 2.04-.49 2.79l-17.5 18.52c-3.86 4.08-5.51 9.59-4.54 15.12.98 5.53 4.41 10.14 9.43 12.66l22.79 11.41c.92.46 1.47 1.42 1.41 2.45l-1.5 25.44c-.34 5.6 1.94 10.89 6.24 14.5 4.3 3.61 9.9 4.93 15.37 3.63l24.78-5.9c1.01-.24 2.05.14 2.67.97l2.51 3.38 9.83 13.24 2.85 3.83c3.35 4.51 8.49 7.1 14.11 7.1s10.75-2.59 14.1-7.1l15.2-20.45a2.56 2.56 0 0 1 2.66-.97l24.79 5.9c5.46 1.3 11.06-.02 15.36-3.63 4.3-3.61 6.58-8.89 6.25-14.5l-1.51-25.44a2.57 2.57 0 0 1 1.42-2.45l22.78-11.41c5.02-2.52 8.46-7.13 9.43-12.66.98-5.53-.67-11.04-4.53-15.13Zm-10.24 12.52c-.08.48-.37 1.35-1.38 1.86l-22.78 11.41a17.55 17.55 0 0 0-9.67 16.75l1.51 25.43c.06 1.13-.55 1.82-.92 2.13-.37.31-1.15.79-2.25.53l-24.79-5.9c-6.83-1.63-13.97.97-18.17 6.62l-15.2 20.45c-.67.9-1.58 1.04-2.06 1.04s-1.4-.14-2.07-1.04l-7.33-9.86-8.45-11.33a17.54 17.54 0 0 0-17.59-5.88l-24.79 5.9c-1.09.26-1.88-.22-2.25-.53-.37-.31-.98-1-.91-2.12l1.5-25.44a17.55 17.55 0 0 0-9.67-16.75l-22.78-11.41c-1-.51-1.29-1.38-1.38-1.86-.08-.47-.11-1.39.66-2.21l17.51-18.52a17.569 17.569 0 0 0 3.36-19.05l-10.12-23.38c-.44-1.04-.11-1.89.14-2.31.24-.42.81-1.14 1.93-1.27l25.31-2.94c6.99-.81 12.8-5.69 14.81-12.43l7.29-24.41c.32-1.08 1.13-1.52 1.58-1.69.46-.16 1.36-.35 2.3.27l21.28 14.03c.83.54 1.68 1.01 2.57 1.4a17.55 17.55 0 0 0 16.77-1.4l2.94-1.94.4-.26 17.93-11.83c.94-.62 1.85-.43 2.3-.27.45.17 1.26.61 1.58 1.69l2.42 8.09 4.87 16.32a17.5 17.5 0 0 0 5.32 8.25c2.62 2.27 5.9 3.76 9.49 4.18l25.32 2.94c1.11.13 1.69.85 1.93 1.27.24.42.58 1.27.13 2.31l-1.75 4.04-8.36 19.35a17.537 17.537 0 0 0 3.36 19.04l17.5 18.52c.77.82.75 1.74.66 2.21Z"></path><path d="M231.2 210.62c.27.25.56.47.87.66l.27-.66h-1.14Zm3.34 48.88c-11.41 0-21.39 10.37-21.39 22.17a22.088 22.088 0 0 0 5.28 14.37c4.07 4.78 10.14 7.8 16.89 7.8 12.32 0 22.17-9.85 22.17-22.17s-9.85-22.17-22.95-22.17Zm.78 30.73c-1.29 0-2.51-.31-3.6-.86-2.86-1.43-4.83-4.52-4.83-8.09 0-4.8 3.5-8.04 8.69-8.04 4.54 0 8.3 3.63 8.3 8.04 0 1.67-.49 3.26-1.32 4.63-1.54 2.56-4.28 4.32-7.24 4.32Z"></path><path d="m232.07 211.28-37.33 90.36h-12.58l21.9-53.03 7.66-18.53 8.04-19.46h11.44c.27.25.56.47.87.66Zm-35.09 6.29c-4.1-5.3-10.67-8.64-18.32-8.64-11.54 0-21.4 10.24-21.4 22.17s9.86 22.17 22.18 22.17c7.45 0 14.03-3.73 18.01-9.45a22.33 22.33 0 0 0 4.03-12.85c0-5.1-1.66-9.72-4.5-13.4Zm-17.67 21.96c-4.67 0-8.43-3.89-8.43-8.56s3.76-8.43 8.82-8.43c4.27 0 8.03 3.89 8.03 8.43s-3.76 8.56-8.42 8.56Z"></path></g></svg>