<svg xmlns="http://www.w3.org/2000/svg" id="uuid-d5c93e01-75be-46ed-9304-4cfb57563ab2" data-name="Layer 2" viewBox="0 0 74.32 61.86"><defs></defs><g id="uuid-a4e9b1bc-287c-40fa-8046-9c32535d3d5a" data-name="Layer 1"><path d="M74.32 53.72c-.57 1.51-1.65 2.13-3.26 2.06-1.81-.08-3.63-.01-5.44-.02-.88 0-1.34-.37-1.36-1.06-.01-.71.48-1.11 1.38-1.12 1.89 0 3.77-.02 5.66 0 .63 0 .85-.21.85-.84-.01-14.54-.01-29.08 0-43.61 0-.74-.3-.88-.96-.88-7.91.02-15.82 0-23.73.02-1.14 0-2.11-.32-3.02-1.01-2.04-1.56-4.11-3.07-6.17-4.59-.9-.67-1.32-.67-2.21-.01-2.1 1.55-4.2 3.1-6.29 4.68-.85.64-1.76.94-2.83.94-3.46-.02-6.92 0-10.38-.01-.29 0-.59 0-.85-.1-.52-.18-.83-.63-.65-1.13.13-.37.53-.67.88-.91.16-.12.47-.03.71-.03 3.41 0 6.82.02 10.23-.02.54 0 1.15-.21 1.59-.52 2.17-1.54 4.28-3.16 6.42-4.73 1.48-1.09 3-1.1 4.49-.02 2.07 1.52 4.13 3.03 6.17 4.59.67.52 1.36.71 2.2.71 7.76-.02 15.53.01 23.29-.03 1.61 0 2.69.55 3.26 2.06v45.58ZM0 30.92V9.15C0 7.08.99 6.1 3.08 6.1h7.62c.92 0 1.4.39 1.39 1.09 0 .69-.5 1.08-1.42 1.08-2.54 0-5.08.02-7.62-.01-.67 0-.88.22-.88.88.01 14.51.01 29.03 0 43.54 0 .71.24.91.93.91 7.91-.02 15.82 0 23.73-.02 1.14 0 2.12.3 3.03.99 2.04 1.55 4.11 3.07 6.17 4.59.94.69 1.35.7 2.27.01 2.1-1.55 4.2-3.11 6.28-4.68.83-.62 1.73-.91 2.76-.91 4.14.02 8.27 0 12.41 0 .24 0 .49-.02.72.04.55.15.88.52.84 1.11-.03.58-.37.93-.95 1.01-.21.03-.43.01-.65.01-4.09 0-8.18-.02-12.26.03-.56 0-1.19.23-1.65.55-2.11 1.5-4.16 3.07-6.25 4.61-1.65 1.22-3.12 1.22-4.79-.01-2.08-1.54-4.14-3.11-6.25-4.61-.46-.32-1.1-.54-1.65-.54-7.91-.03-15.82-.02-23.73-.02-2.18 0-3.13-.96-3.13-3.14v-21.7Z" class="uuid-84f06810-94ee-4a22-9f0d-a85bfd04aae1"></path><path d="M37.21 12.62h28.51c.83 0 1.66.07 2.16.78.34.48.6 1.12.64 1.7.1 1.2.04 2.42.03 3.63 0 .8-.42 1.28-1.06 1.29-.63 0-1.09-.49-1.11-1.26a92.97 92.97 0 0 1 0-3.34c.01-.47-.15-.68-.62-.62-.14.02-.29 0-.43 0H8.95q-1.01 0-1.01 1.02c0 .97.01 1.93 0 2.9-.01.79-.44 1.29-1.07 1.3-.66.02-1.09-.49-1.1-1.33-.01-1.09 0-2.18 0-3.27 0-1.91.89-2.8 2.79-2.8h28.66ZM19.12 29.94c0 .23-.09.42-.27.58-.18.16-.39.24-.63.24s-.47-.08-.65-.24a.744.744 0 0 1-.27-.58v-4.49l-1.49 2.92c-.09.17-.21.3-.36.38-.15.08-.32.12-.5.12s-.34-.04-.49-.12a.833.833 0 0 1-.36-.38l-1.49-2.92v4.49c0 .23-.09.42-.28.58-.19.16-.41.24-.66.24s-.46-.08-.63-.24a.758.758 0 0 1-.25-.58v-7.75c0-.25.09-.46.27-.62.18-.16.4-.24.67-.24.44 0 .74.17.91.51l2.32 4.6 2.32-4.62c.1-.19.22-.32.39-.39.16-.07.33-.1.51-.1.27 0 .49.08.67.25.18.17.27.37.27.61v7.75ZM22.67 30.15c-.07.19-.19.34-.37.45-.17.11-.34.16-.5.16-.25 0-.47-.08-.66-.23-.19-.15-.28-.35-.28-.61v-.14c0-.06.01-.11.03-.14l2.54-7.42c.09-.25.21-.46.36-.63.15-.17.38-.25.7-.25s.55.08.7.25c.15.17.28.38.37.64l2.54 7.42s.03.08.03.14v.14c0 .25-.09.45-.27.61-.18.15-.4.23-.67.23-.17 0-.35-.06-.52-.17a.856.856 0 0 1-.36-.44l-.46-1.32h-2.78l-.43 1.32Zm2.07-5.03c-.06-.19-.11-.4-.14-.63-.03-.23-.07-.45-.09-.65-.03.2-.06.42-.09.65-.03.23-.08.44-.14.63l-.69 2.23h1.83l-.66-2.23ZM36.16 27.11c0 .46-.07.9-.2 1.33-.14.43-.36.8-.67 1.13-.31.33-.72.59-1.23.78-.5.2-1.13.29-1.86.29h-1.47c-.14 0-.27-.03-.39-.08s-.23-.12-.32-.2c-.09-.08-.16-.18-.22-.29a.746.746 0 0 1-.08-.37v-7.33c0-.13.03-.25.08-.37.06-.11.13-.21.22-.29.09-.08.2-.15.32-.2.12-.05.25-.08.39-.08h1.47c.74 0 1.36.09 1.86.28.5.19.91.44 1.23.76.31.32.54.68.67 1.1.13.41.2.85.2 1.3v2.24Zm-1.83-2.24c0-.24-.03-.47-.1-.69-.07-.22-.18-.41-.33-.57-.15-.16-.35-.29-.59-.38-.25-.09-.55-.14-.89-.14h-.89v5.89h.89c.36 0 .66-.05.9-.15.24-.1.44-.23.59-.4.15-.17.26-.37.33-.59.07-.23.1-.47.1-.73v-2.24ZM43.45 29.8a.8.8 0 0 1-.27.6c-.18.17-.39.25-.65.25h-3.46c-.16 0-.31-.02-.46-.05-.15-.03-.28-.08-.39-.15a.838.838 0 0 1-.27-.29.985.985 0 0 1-.1-.44v-7.34c0-.11.03-.23.08-.34a1.019 1.019 0 0 1 .52-.51c.12-.05.26-.08.4-.08h3.53c.25 0 .47.08.65.25.18.17.27.37.27.59s-.09.43-.27.58c-.18.15-.39.23-.65.23h-2.71v2.1h2.47c.23 0 .43.08.62.23.19.16.28.35.28.59s-.09.43-.26.59c-.17.16-.39.24-.64.24h-2.47v2.13h2.84c.24 0 .46.08.64.23.18.16.27.35.27.57ZM48.93 22.17c0-.23.09-.42.27-.59.18-.17.39-.25.65-.25s.47.08.65.25c.18.17.27.36.27.59v7.76c0 .23-.09.42-.27.59-.18.17-.39.25-.65.25s-.47-.08-.65-.25a.764.764 0 0 1-.27-.59v-7.76ZM58.92 30.76c-.17 0-.34-.04-.5-.12a.914.914 0 0 1-.37-.33l-3.03-5.27v4.88c0 .23-.09.42-.27.59-.18.17-.4.25-.65.25s-.47-.09-.64-.25a.821.821 0 0 1-.26-.59v-7.69c0-.25.09-.46.27-.63.18-.17.41-.25.68-.25.17 0 .34.04.5.13.16.09.29.2.38.35.29.5.55.97.79 1.38.24.42.47.83.7 1.23.23.4.47.82.71 1.25.24.43.52.91.82 1.43v-4.93c0-.23.09-.42.27-.59.18-.17.4-.25.65-.25s.47.08.64.25c.17.17.26.37.26.59v7.7c0 .24-.09.45-.27.63-.18.17-.41.26-.7.26ZM9.57 45.39c-.29 0-.53-.09-.72-.28a.874.874 0 0 1-.29-.66v-7.32c0-.27.1-.49.3-.67.2-.18.44-.27.72-.27h2.2c.49 0 .91.07 1.28.22.37.14.68.34.92.57.24.24.43.51.55.82.12.31.18.62.18.95 0 .46-.13.84-.39 1.13-.26.29-.59.53-.98.72.2.08.4.18.59.29.2.12.37.26.52.42.15.17.27.36.37.57.09.22.14.47.14.76 0 .38-.07.74-.22 1.07-.15.33-.36.62-.64.87s-.62.44-1.02.59c-.4.14-.85.22-1.36.22H9.57Zm2.31-5.6a1.12 1.12 0 0 0 .68-.24c.1-.08.18-.19.24-.32s.09-.28.09-.46c0-.25-.07-.47-.2-.66-.13-.19-.37-.28-.71-.28h-1.59v1.96h1.5Zm-1.5 1.67v2.27h1.46c.43 0 .76-.1.97-.3.21-.2.32-.47.32-.81 0-.37-.12-.66-.35-.86-.23-.2-.52-.3-.87-.3h-1.54ZM22.36 43.56c-.15.4-.36.74-.64 1.03-.28.29-.63.52-1.03.68-.4.16-.86.24-1.38.24s-.99-.08-1.4-.25c-.41-.17-.75-.39-1.03-.68-.28-.29-.49-.63-.63-1.02-.14-.4-.22-.83-.22-1.3v-5.32c0-.25.09-.46.27-.62.18-.16.4-.24.66-.24.24 0 .45.08.63.25.18.17.27.37.27.61v5.32c0 .47.12.85.35 1.15.23.3.6.44 1.1.44s.86-.15 1.09-.44c.23-.3.34-.68.34-1.15v-5.32c0-.23.09-.43.26-.6.17-.17.39-.26.64-.26.27 0 .49.09.67.26a.8.8 0 0 1 .27.6v5.32c0 .47-.07.9-.22 1.3ZM30.53 44.56c0 .23-.09.43-.25.59-.17.16-.38.24-.63.24h-3.68c-.26 0-.49-.09-.68-.26a.805.805 0 0 1-.29-.64v-7.58c0-.23.09-.42.27-.59.18-.17.39-.25.65-.25s.47.08.65.25c.18.16.27.36.27.59v6.83h2.83c.24 0 .44.08.62.23.18.16.27.35.27.57ZM33.34 42.08c0 .28.03.53.08.76.05.23.14.42.26.57.12.16.28.28.48.37.2.09.45.13.74.13a2.126 2.126 0 0 0 1.08-.28V41.6h-.68c-.22 0-.41-.08-.57-.24-.17-.16-.25-.35-.25-.58s.08-.42.25-.58c.16-.16.36-.24.57-.24h1.42c.31 0 .56.07.76.22.2.15.31.38.31.69v2.88c0 .3-.09.57-.27.79-.18.22-.42.4-.7.55-.29.14-.6.25-.95.31s-.69.1-1.03.1c-.57 0-1.07-.08-1.49-.24a2.71 2.71 0 0 1-1.04-.69c-.27-.3-.48-.66-.61-1.08-.13-.42-.2-.89-.2-1.4v-2.58c0-.51.07-.98.2-1.4.13-.42.33-.78.61-1.08.27-.3.62-.53 1.04-.69.42-.16.91-.24 1.49-.24.35 0 .68.04 1 .11.32.07.61.17.86.3.25.13.45.27.61.44.15.17.23.35.23.54 0 .21-.08.39-.24.55-.16.16-.37.24-.62.24-.15 0-.26-.02-.33-.06-.07-.04-.15-.08-.24-.14l-.13-.08c-.17-.1-.33-.17-.51-.23-.17-.06-.36-.09-.57-.09-.3 0-.54.04-.74.13-.2.09-.36.21-.48.37s-.21.35-.26.57c-.05.23-.08.48-.08.76v2.58ZM40.94 44.9c-.07.19-.19.34-.36.45-.17.11-.34.16-.5.16-.25 0-.47-.08-.66-.23-.19-.15-.28-.35-.28-.61v-.14c0-.06.01-.11.03-.14l2.54-7.42c.09-.25.21-.46.36-.63.15-.17.39-.25.7-.25s.55.08.7.25c.15.16.28.38.37.64l2.54 7.42s.03.08.03.14v.14c0 .25-.09.45-.27.61-.18.15-.4.23-.67.23-.17 0-.35-.06-.52-.17a.929.929 0 0 1-.37-.44l-.46-1.32h-2.78l-.43 1.32Zm2.07-5.03c-.06-.19-.11-.4-.14-.63s-.06-.45-.09-.65c-.03.2-.06.42-.09.65-.04.23-.08.44-.14.63l-.69 2.23h1.83l-.66-2.23ZM54.46 38.96c0 .65-.16 1.19-.48 1.6-.32.42-.77.72-1.33.9l1.79 2.69c.1.17.15.33.14.49-.01.16-.07.3-.16.43s-.21.23-.35.31c-.14.08-.28.12-.43.12-.34 0-.6-.13-.77-.4l-2.19-3.43h-.89v2.99a.8.8 0 0 1-.08.33.972.972 0 0 1-.49.46c-.11.05-.23.07-.35.07-.24 0-.45-.09-.63-.25a.805.805 0 0 1-.27-.61v-7.51c0-.13.03-.25.08-.37.05-.11.12-.21.22-.29.09-.08.2-.15.32-.2.12-.05.25-.08.38-.08h2.27c.61 0 1.12.08 1.54.24.42.16.75.37 1 .63s.43.56.53.89c.11.33.16.67.16 1Zm-1.83 0c0-.14-.02-.27-.06-.4a.771.771 0 0 0-.22-.35c-.11-.1-.26-.19-.45-.25-.19-.07-.44-.1-.73-.1h-1.38v2.16h1.46c.45 0 .8-.09 1.03-.27.24-.18.35-.44.35-.78ZM56.51 36.91c0-.23.09-.42.27-.59.18-.17.39-.25.65-.25s.47.08.65.25c.18.16.27.36.27.59v7.76c0 .23-.09.42-.27.59-.18.16-.39.25-.65.25s-.47-.08-.65-.25a.779.779 0 0 1-.27-.59v-7.76ZM61.23 44.9c-.07.19-.19.34-.37.45-.17.11-.34.16-.49.16-.25 0-.47-.08-.66-.23-.19-.15-.28-.35-.28-.61v-.14c0-.06.01-.11.03-.14L62 36.97c.09-.25.21-.46.36-.63.15-.17.38-.25.7-.25s.54.08.7.25c.15.16.28.38.37.64l2.54 7.42s.03.08.03.14v.14c0 .25-.09.45-.27.61-.18.15-.4.23-.67.23-.17 0-.35-.06-.52-.17a.929.929 0 0 1-.37-.44l-.46-1.32h-2.78l-.43 1.32Zm2.07-5.03c-.06-.19-.11-.4-.14-.63-.04-.23-.07-.45-.09-.65-.03.2-.06.42-.09.65-.04.23-.08.44-.14.63l-.69 2.23h1.83l-.67-2.23Z" class="uuid-84f06810-94ee-4a22-9f0d-a85bfd04aae1"></path></g></svg>