<svg xmlns="http://www.w3.org/2000/svg" viewBox="0 0 700 700"><path d="M564.88 522.22H134.33c-12.06 0-21.87-9.81-21.87-21.87V364.27c0-12.06 9.81-21.87 21.87-21.87h430.55c12.06 0 21.87 9.81 21.87 21.87v136.08c0 12.06-9.81 21.87-21.87 21.87ZM134.33 359.54c-2.61 0-4.73 2.12-4.73 4.73v136.08c0 2.61 2.12 4.73 4.73 4.73h430.55c2.61 0 4.73-2.12 4.73-4.73V364.27c0-2.61-2.12-4.73-4.73-4.73H134.33Z"></path><path d="M578.18 372.84c-4.73 0-8.57-3.84-8.57-8.57 0-7.14-1.7-14.28-4.92-20.66L507 229.37a11.514 11.514 0 0 0-10.33-6.35H202.55c-4.39 0-8.35 2.44-10.33 6.35l-57.69 114.24a46.032 46.032 0 0 0-4.92 20.66c0 4.73-3.84 8.57-8.57 8.57s-8.57-3.84-8.57-8.57c0-9.81 2.34-19.62 6.76-28.38l57.69-114.24c4.91-9.73 14.73-15.77 25.63-15.77h294.12c10.9 0 20.72 6.04 25.63 15.77l57.69 114.24a63.301 63.301 0 0 1 6.76 28.38c0 4.73-3.84 8.57-8.57 8.57ZM160.9 468.73c-4.73 0-8.57-3.84-8.57-8.57v-53.87c0-4.73 3.84-8.57 8.57-8.57s8.57 3.84 8.57 8.57v53.87c0 4.73-3.84 8.57-8.57 8.57Z"></path><path d="M207.95 331.34h-4.11c-4.73 0-8.57-3.84-8.57-8.57s3.84-8.57 8.57-8.57h4.11c4.73 0 8.57 3.84 8.57 8.57s-3.84 8.57-8.57 8.57Zm95.81 0h-4.11c-4.73 0-8.57-3.84-8.57-8.57s3.84-8.57 8.57-8.57h4.11c4.73 0 8.57 3.84 8.57 8.57s-3.84 8.57-8.57 8.57Zm95.81 0h-4.11c-4.73 0-8.57-3.84-8.57-8.57s3.84-8.57 8.57-8.57h4.11c4.73 0 8.57 3.84 8.57 8.57s-3.84 8.57-8.57 8.57Zm95.8 0h-4.11c-4.73 0-8.57-3.84-8.57-8.57s3.84-8.57 8.57-8.57h4.11c4.73 0 8.57 3.84 8.57 8.57s-3.84 8.57-8.57 8.57Zm-278.44-27.38h-3.85c-4.73 0-8.57-3.84-8.57-8.57s3.84-8.57 8.57-8.57h3.85c4.73 0 8.57 3.84 8.57 8.57s-3.84 8.57-8.57 8.57Zm89.74 0h-3.85c-4.73 0-8.57-3.84-8.57-8.57s3.84-8.57 8.57-8.57h3.85c4.73 0 8.57 3.84 8.57 8.57s-3.84 8.57-8.57 8.57Zm89.73 0h-3.85c-4.73 0-8.57-3.84-8.57-8.57s3.84-8.57 8.57-8.57h3.85c4.73 0 8.57 3.84 8.57 8.57s-3.84 8.57-8.57 8.57Zm89.74 0h-3.85c-4.73 0-8.57-3.84-8.57-8.57s3.84-8.57 8.57-8.57h3.85c4.73 0 8.57 3.84 8.57 8.57s-3.84 8.57-8.57 8.57Zm-260.56-28.3h-3.6c-4.73 0-8.57-3.84-8.57-8.57s3.84-8.57 8.57-8.57h3.6c4.73 0 8.57 3.84 8.57 8.57s-3.84 8.57-8.57 8.57Zm83.88 0h-3.6c-4.73 0-8.57-3.84-8.57-8.57s3.84-8.57 8.57-8.57h3.6c4.73 0 8.57 3.84 8.57 8.57s-3.84 8.57-8.57 8.57Zm83.89 0h-3.6c-4.73 0-8.57-3.84-8.57-8.57s3.84-8.57 8.57-8.57h3.6c4.73 0 8.57 3.84 8.57 8.57s-3.84 8.57-8.57 8.57Zm83.89 0h-3.59c-4.73 0-8.57-3.84-8.57-8.57s3.84-8.57 8.57-8.57h3.59c4.73 0 8.57 3.84 8.57 8.57s-3.84 8.57-8.57 8.57ZM232.89 250.1h-3.38c-4.73 0-8.57-3.84-8.57-8.57s3.84-8.57 8.57-8.57h3.38c4.73 0 8.57 3.84 8.57 8.57s-3.84 8.57-8.57 8.57Zm78.94 0h-3.38c-4.73 0-8.57-3.84-8.57-8.57s3.84-8.57 8.57-8.57h3.38c4.73 0 8.57 3.84 8.57 8.57s-3.84 8.57-8.57 8.57Zm78.94 0h-3.38c-4.73 0-8.57-3.84-8.57-8.57s3.84-8.57 8.57-8.57h3.38c4.73 0 8.57 3.84 8.57 8.57s-3.84 8.57-8.57 8.57Zm78.94 0h-3.38c-4.73 0-8.57-3.84-8.57-8.57s3.84-8.57 8.57-8.57h3.38c4.73 0 8.57 3.84 8.57 8.57s-3.84 8.57-8.57 8.57Zm-274.5 218.63c-4.73 0-8.57-3.84-8.57-8.57v-53.87c0-4.73 3.84-8.57 8.57-8.57s8.57 3.84 8.57 8.57v53.87c0 4.73-3.84 8.57-8.57 8.57Zm34.31 0c-4.73 0-8.57-3.84-8.57-8.57v-53.87c0-4.73 3.84-8.57 8.57-8.57s8.57 3.84 8.57 8.57v53.87c0 4.73-3.84 8.57-8.57 8.57Zm34.31 0c-4.73 0-8.57-3.84-8.57-8.57v-53.87c0-4.73 3.84-8.57 8.57-8.57s8.57 3.84 8.57 8.57v53.87c0 4.73-3.84 8.57-8.57 8.57Zm34.31 0c-4.73 0-8.57-3.84-8.57-8.57v-53.87c0-4.73 3.84-8.57 8.57-8.57s8.57 3.84 8.57 8.57v53.87c0 4.73-3.84 8.57-8.57 8.57Zm34.31 0c-4.73 0-8.57-3.84-8.57-8.57v-53.87c0-4.73 3.84-8.57 8.57-8.57s8.57 3.84 8.57 8.57v53.87c0 4.73-3.84 8.57-8.57 8.57Zm34.32 0c-4.73 0-8.57-3.84-8.57-8.57v-53.87c0-4.73 3.84-8.57 8.57-8.57s8.57 3.84 8.57 8.57v53.87c0 4.73-3.84 8.57-8.57 8.57Zm34.31 0c-4.73 0-8.57-3.84-8.57-8.57v-53.87c0-4.73 3.84-8.57 8.57-8.57s8.57 3.84 8.57 8.57v53.87c0 4.73-3.84 8.57-8.57 8.57Zm34.31 0c-4.73 0-8.57-3.84-8.57-8.57v-53.87c0-4.73 3.84-8.57 8.57-8.57s8.57 3.84 8.57 8.57v53.87c0 4.73-3.84 8.57-8.57 8.57Zm34.31 0c-4.73 0-8.57-3.84-8.57-8.57v-53.87c0-4.73 3.84-8.57 8.57-8.57s8.57 3.84 8.57 8.57v53.87c0 4.73-3.84 8.57-8.57 8.57Zm34.31 0c-4.73 0-8.57-3.84-8.57-8.57v-53.87c0-4.73 3.84-8.57 8.57-8.57s8.57 3.84 8.57 8.57v53.87c0 4.73-3.84 8.57-8.57 8.57Zm34.31 0c-4.73 0-8.57-3.84-8.57-8.57v-53.87c0-4.73 3.84-8.57 8.57-8.57s8.57 3.84 8.57 8.57v53.87c0 4.73-3.84 8.57-8.57 8.57Zm39.86-79.28H121.04c-4.73 0-8.57-3.84-8.57-8.57s3.84-8.57 8.57-8.57h457.14c4.73 0 8.57 3.84 8.57 8.57s-3.84 8.57-8.57 8.57Zm0 102.85H121.04c-4.73 0-8.57-3.84-8.57-8.57s3.84-8.57 8.57-8.57h457.14c4.73 0 8.57 3.84 8.57 8.57s-3.84 8.57-8.57 8.57Z"></path></svg>