<svg xmlns="http://www.w3.org/2000/svg" viewBox="0 0 700 700"><path d="M564.84 543.91H134.29c-12.06 0-21.87-9.81-21.87-21.87V385.96c0-12.06 9.81-21.87 21.87-21.87h430.55c12.06 0 21.87 9.81 21.87 21.87v136.08c0 12.06-9.81 21.87-21.87 21.87ZM134.29 381.24c-2.61 0-4.73 2.12-4.73 4.73v136.08c0 2.61 2.12 4.73 4.73 4.73h430.55c2.61 0 4.73-2.12 4.73-4.73V385.97c0-2.61-2.12-4.73-4.73-4.73H134.29Z"></path><path d="M220 236.14c0 4.73-3.84 8.57-8.57 8.57h-8.92c-4.39 0-8.35 2.43-10.33 6.35l-57.69 114.25c-3.19 6.3-4.88 13.36-4.92 20.43-.02 4.5-3.44 8.44-7.94 8.77-5.02.36-9.21-3.61-9.21-8.55 0-9.81 2.34-19.62 6.76-28.38l57.7-114.24c4.91-9.73 14.73-15.77 25.63-15.77h8.92c4.73 0 8.57 3.84 8.57 8.57Zm366.71 149.82c0 4.95-4.2 8.92-9.22 8.55-4.49-.34-7.9-4.27-7.92-8.77a46.136 46.136 0 0 0-4.92-20.43l-57.7-114.25a11.499 11.499 0 0 0-10.32-6.35h-8.06c-4.73 0-8.57-3.84-8.57-8.57s3.84-8.57 8.57-8.57h8.06c10.89 0 20.71 6.04 25.63 15.77l57.69 114.24a63.301 63.301 0 0 1 6.76 28.38Z"></path><path d="M160.85 490.43c-4.73 0-8.57-3.84-8.57-8.57v-53.87c0-4.73 3.84-8.57 8.57-8.57s8.57 3.84 8.57 8.57v53.87c0 4.73-3.84 8.57-8.57 8.57Zm34.32 0c-4.73 0-8.57-3.84-8.57-8.57v-53.87c0-4.73 3.84-8.57 8.57-8.57s8.57 3.84 8.57 8.57v53.87c0 4.73-3.84 8.57-8.57 8.57Zm34.31 0c-4.73 0-8.57-3.84-8.57-8.57v-53.87c0-4.73 3.84-8.57 8.57-8.57s8.57 3.84 8.57 8.57v53.87c0 4.73-3.84 8.57-8.57 8.57Zm34.31 0c-4.73 0-8.57-3.84-8.57-8.57v-53.87c0-4.73 3.84-8.57 8.57-8.57s8.57 3.84 8.57 8.57v53.87c0 4.73-3.84 8.57-8.57 8.57Zm34.31 0c-4.73 0-8.57-3.84-8.57-8.57v-53.87c0-4.73 3.84-8.57 8.57-8.57s8.57 3.84 8.57 8.57v53.87c0 4.73-3.84 8.57-8.57 8.57Zm34.31 0c-4.73 0-8.57-3.84-8.57-8.57v-53.87c0-4.73 3.84-8.57 8.57-8.57s8.57 3.84 8.57 8.57v53.87c0 4.73-3.84 8.57-8.57 8.57Zm34.31 0c-4.73 0-8.57-3.84-8.57-8.57v-53.87c0-4.73 3.84-8.57 8.57-8.57s8.57 3.84 8.57 8.57v53.87c0 4.73-3.84 8.57-8.57 8.57Zm34.31 0c-4.73 0-8.57-3.84-8.57-8.57v-53.87c0-4.73 3.84-8.57 8.57-8.57s8.57 3.84 8.57 8.57v53.87c0 4.73-3.84 8.57-8.57 8.57Zm34.31 0c-4.73 0-8.57-3.84-8.57-8.57v-53.87c0-4.73 3.84-8.57 8.57-8.57s8.57 3.84 8.57 8.57v53.87c0 4.73-3.84 8.57-8.57 8.57Zm34.32 0c-4.73 0-8.57-3.84-8.57-8.57v-53.87c0-4.73 3.84-8.57 8.57-8.57s8.57 3.84 8.57 8.57v53.87c0 4.73-3.84 8.57-8.57 8.57Zm34.31 0c-4.73 0-8.57-3.84-8.57-8.57v-53.87c0-4.73 3.84-8.57 8.57-8.57s8.57 3.84 8.57 8.57v53.87c0 4.73-3.84 8.57-8.57 8.57Zm34.31 0c-4.73 0-8.57-3.84-8.57-8.57v-53.87c0-4.73 3.84-8.57 8.57-8.57s8.57 3.84 8.57 8.57v53.87c0 4.73-3.84 8.57-8.57 8.57Zm39.85-79.29H121c-4.73 0-8.57-3.84-8.57-8.57S116.27 394 121 394h457.14c4.73 0 8.57 3.84 8.57 8.57s-3.84 8.57-8.57 8.57Zm0 102.86H121c-4.73 0-8.57-3.84-8.57-8.57s3.84-8.57 8.57-8.57h457.14c4.73 0 8.57 3.84 8.57 8.57s-3.84 8.57-8.57 8.57Z"></path><g><path d="M379.89 196.29c-.45.09-.92.13-1.37.13-3.7 0-6.86-2.65-7.51-6.28a19.406 19.406 0 0 0-13.17-15.05 7.606 7.606 0 0 1-4.45-3.8 7.535 7.535 0 0 1-.46-5.83c1.29-4 5.61-6.21 9.62-4.92a34.698 34.698 0 0 1 23.52 26.88c.74 4.15-2.02 8.14-6.17 8.88Z"></path><path d="M350.81 135.18c-32.7 0-59.32 26.62-59.32 59.32s26.62 59.33 59.32 59.33 59.33-26.62 59.33-59.33-26.62-59.32-59.33-59.32Zm0 103.36c-24.27 0-44.03-19.76-44.03-44.04s19.76-44.03 44.03-44.03 44.04 19.76 44.04 44.03-19.76 44.04-44.04 44.04ZM462 317.13c0 4.21-3.42 7.65-7.65 7.65H247.27c-4.21 0-7.64-3.44-7.64-7.65s3.42-7.64 7.64-7.64h207.08c4.23 0 7.65 3.42 7.65 7.64Zm-4.43-39.51c-1.09.5-27.3 12.54-66.76 18.65-14.7 2.27-29.44 3.42-43.83 3.42-8.19 0-16.38-.38-24.37-1.12-27.71-2.57-54.14-9.63-78.55-20.96a7.61 7.61 0 0 1-3.96-4.32c-.7-1.92-.61-3.99.25-5.85 1.77-3.83 6.32-5.48 10.15-3.71 51.74 24.03 103.59 22.73 137.97 17.41 37.14-5.75 62.42-17.3 62.67-17.41 3.83-1.78 8.38-.11 10.15 3.71 1.78 3.83.11 8.38-3.71 10.16Z"></path><path d="M462 219.47c.01 2.04-.77 3.98-2.2 5.43-.51.53-12.41 12.53-32.15 24.57-18.33 11.18-47.2 24.51-80.67 24.51-37.76 0-73.14-16.51-105.16-49.08-2.95-3-2.91-7.84.08-10.8a7.573 7.573 0 0 1 5.37-2.21h.08c2.03.03 3.95.84 5.38 2.3 29.04 29.53 60.75 44.51 94.26 44.51 29.94 0 56.07-12.12 72.72-22.28 17.75-10.84 28.75-21.79 29.21-22.24a7.553 7.553 0 0 1 5.39-2.28h.05c2.02 0 3.93.79 5.36 2.21a7.589 7.589 0 0 1 2.28 5.37Z"></path></g></svg>