<svg xmlns="http://www.w3.org/2000/svg" viewBox="0 0 700 700"><path d="M209.14 312.18c.43-.62.99-1.17 1.66-1.61 16.45-10.78 36.2-14.88 55.62-11.53 3.31.57 5.53 3.71 4.96 7.02a6.075 6.075 0 0 1-7.02 4.96c-16.38-2.82-33.03.63-46.89 9.72a6.069 6.069 0 0 1-8.41-1.75 6.097 6.097 0 0 1 .09-6.81Z"></path><path d="M155.42 549.21c-6.38 0-11.26-.7-12.47-.89a7.889 7.889 0 0 1-6.67-7.79c0-.37.03-9.23 2.72-28.57 2.34-16.85 17.68-27.26 26.53-31.94-2.74-13.42-8.63-46.3-8.63-80.63 0-43.78 9.59-83.95 10-85.64 1.02-4.23 5.28-6.83 9.52-5.81a7.893 7.893 0 0 1 5.82 9.52c-.1.4-9.56 40.09-9.56 81.93s9.48 82.9 9.57 83.31c.9 3.85-1.19 7.77-4.89 9.17-5.76 2.22-21.11 10.55-22.73 22.25-1.18 8.53-1.82 14.88-2.17 19.21 8.17.28 19.82-.59 25.38-5.91 10.58-10.12 14.43-19.74 14.47-19.84 1.51-3.97 5.9-6.03 9.93-4.65.54.18 55.23 18.55 129.96 17.02 73.75-1.52 102.59-15.41 102.87-15.55 1.89-.94 4.1-1.09 6.1-.4 2 .69 3.65 2.14 4.56 4.05.05.1 6.34 12.79 19.01 18.83 8.41 4.02 18.31 4.92 24.48 5.03.83-7.15.82-17.72-3.76-24.51-8.01-11.86-21.07-17.53-21.2-17.59-3.55-1.52-5.51-5.4-4.59-9.15.11-.43 10.62-43.82 8.59-83.7-2.07-40.65-8.31-79.72-8.37-80.11-.69-4.3 2.23-8.35 6.53-9.04 4.31-.69 8.35 2.23 9.04 6.53.06.4 6.44 40.29 8.55 81.82 1.71 33.6-4.72 68.41-7.65 82.19 6.01 3.5 15.33 10.08 22.17 20.22 11.35 16.82 5.26 41.92 4.99 42.98a7.886 7.886 0 0 1-6.92 5.94c-.86.08-21.39 1.87-38.66-6.37-11.11-5.3-18.52-13.93-22.6-19.85-12.83 4.58-44.51 13.25-102.82 14.45-63.25 1.3-111.72-10.83-128.81-15.82-2.81 4.88-7.58 11.85-14.97 18.92-8.97 8.58-23.08 10.38-33.32 10.38Z"></path><path d="M174.01 490.8a7.9 7.9 0 0 1-7.78-6.63c-.06-.4-6.44-40.29-8.55-81.82-1.71-33.61 4.72-68.41 7.66-82.19-6.01-3.5-15.33-10.08-22.17-20.22-11.35-16.82-5.26-41.92-4.99-42.98a7.886 7.886 0 0 1 6.92-5.94c.87-.08 21.39-1.87 38.66 6.37 11.11 5.3 18.52 13.93 22.6 19.85 12.83-4.58 44.51-13.25 102.82-14.45 63.26-1.29 111.72 10.83 128.81 15.82 2.81-4.88 7.58-11.85 14.97-18.92 14.56-13.92 42.64-9.99 45.79-9.49a7.88 7.88 0 0 1 6.66 7.79c0 .37-.03 9.23-2.72 28.57-2.34 16.85-17.68 27.26-26.53 31.94 2.74 13.42 8.63 46.3 8.63 80.63 0 43.78-9.59 83.95-10 85.64-1.02 4.23-5.29 6.83-9.52 5.81a7.893 7.893 0 0 1-5.82-9.52c.1-.4 9.56-40.09 9.56-81.93s-9.48-82.9-9.57-83.31a7.885 7.885 0 0 1 4.89-9.17c5.76-2.22 21.11-10.55 22.73-22.25 1.18-8.53 1.82-14.88 2.17-19.21-8.17-.28-19.82.59-25.38 5.91-10.56 10.1-14.44 19.78-14.48 19.88-1.55 3.93-5.93 5.98-9.91 4.61-.54-.18-55.25-18.56-129.96-17.02-73.75 1.52-102.59 15.41-102.87 15.55-1.89.94-4.1 1.09-6.1.4-2-.69-3.65-2.14-4.56-4.05-.05-.1-6.34-12.79-19.01-18.83-8.41-4.02-18.31-4.92-24.48-5.03-.83 7.15-.82 17.72 3.76 24.51 8.01 11.86 21.07 17.53 21.2 17.59 3.55 1.52 5.51 5.4 4.59 9.15-.11.43-10.62 43.82-8.59 83.7 2.07 40.65 8.3 79.72 8.37 80.11.69 4.3-2.23 8.35-6.53 9.04-.42.07-.85.1-1.26.1Z"></path><path d="M525.9 442.56c-9.49 0-21-1.55-30.47-7.41-18.78-11.63-24.49-18.93-25.07-19.72l12.68-9.39-.09-.11c.05.06 4.81 5.92 20.79 15.81 9.75 6.03 23.81 5.42 31.57 4.46-.15-3.38-.89-8.36-3.25-14.52-3.92-10.2-17.6-21.22-22.54-24.61a7.89 7.89 0 0 1-3.21-8.36c.09-.37 9.04-37.93 9.04-77.51s-8.97-78.43-9.06-78.82a7.889 7.889 0 0 1 4.88-9.17c5.39-2.08 19.76-9.86 21.27-20.75 1.08-7.79 1.68-13.66 2.02-17.74-7.65-.22-18.23.64-23.3 5.5-9.93 9.5-13.58 18.59-13.62 18.68-1.55 3.92-5.93 5.98-9.91 4.61-.51-.17-52.26-17.55-122.96-16.1-69.72 1.43-97 14.55-97.27 14.68-1.89.94-4.1 1.09-6.1.4-2-.69-3.65-2.14-4.56-4.05-.04-.09-5.95-11.98-17.81-17.64-7.73-3.69-16.82-4.58-22.64-4.72-.74 6.69-.66 16.35 3.53 22.56 7.49 11.09 19.75 16.45 19.87 16.5 2.13.89 3.77 2.68 4.47 4.88.7 2.2.4 4.6-.82 6.57-.06.1-9.58 16.51-7.76 52.37.22 4.35-3.13 8.06-7.48 8.28-4.34.21-8.06-3.13-8.28-7.48-1.38-27.06 3.16-44.69 6.61-53.88-5.71-3.51-13.69-9.53-19.69-18.42-10.67-15.81-5.42-38.51-4.79-41.04a7.886 7.886 0 0 1 6.92-5.94c.83-.08 20.38-1.78 36.84 6.08 10.44 4.98 17.45 13.04 21.39 18.68 12.39-4.38 42.41-12.48 97.22-13.6 59.57-1.23 105.34 10.13 121.82 14.91 2.7-4.64 7.2-11.14 14.09-17.73 13.93-13.33 40.72-9.57 43.73-9.1 3.84.6 6.67 3.91 6.67 7.79 0 .35-.03 8.77-2.58 27.12-2.22 15.96-16.58 25.87-25.07 30.41 2.62 12.91 8.13 43.86 8.13 76.15s-5.8 64.11-8.33 76.07c6.77 5.28 19.18 16.23 23.99 28.75 6.4 16.65 3.93 27.67 3.63 28.87a7.89 7.89 0 0 1-5.87 5.76c-.62.14-8.48 1.91-18.64 1.91Z"></path></svg>