<svg xmlns="http://www.w3.org/2000/svg" viewBox="0 0 700 700"><g><path d="M156.93 395.78c-.02 1.2-.03 2.4-.03 3.61 0 34.33 5.89 67.21 8.63 80.63-8.85 4.68-24.19 15.09-26.53 31.94-2.69 19.34-2.72 28.2-2.72 28.57 0 3.88 2.83 7.19 6.67 7.79 1.21.19 6.09.89 12.47.89 10.24 0 24.35-1.8 33.32-10.38 7.39-7.07 12.16-14.04 14.97-18.92 17.09 4.98 65.55 17.11 128.81 15.82 58.31-1.2 89.99-9.87 102.82-14.45 4.08 5.92 11.48 14.54 22.6 19.85 17.27 8.24 37.79 6.45 38.66 6.37a7.886 7.886 0 0 0 6.92-5.94c.27-1.06 6.36-26.16-4.99-42.97-6.85-10.15-16.16-16.73-22.17-20.23 1.98-9.33 5.57-28.29 7.14-50v-.1c.03-.35.05-.7.08-1.05.45-6.45.71-13.13.7-19.85-.01-3.73-.09-7.47-.28-11.19-2.11-41.53-8.48-81.42-8.54-81.82-.7-4.3-4.74-7.22-9.05-6.53-4.3.69-7.22 4.74-6.53 9.04.01.07.2 1.24.5 3.33 1.55 10.3 6.15 43 7.87 76.78.5 9.76.24 19.73-.43 29.23v.19c-2.08 29.24-8.08 53.96-8.15 54.29-.93 3.75 1.03 7.63 4.59 9.14.03.01.73.32 1.89.92 3.93 2.04 13.12 7.51 19.31 16.67 4.58 6.79 4.59 17.37 3.75 24.51-6.16-.11-16.06-1.01-24.48-5.03-12.66-6.04-18.96-18.73-19.01-18.83-.91-1.91-2.56-3.36-4.56-4.05s-4.2-.54-6.1.4c-.28.14-29.12 14.03-102.87 15.55-74.73 1.53-129.42-16.84-129.96-17.02-4.02-1.38-8.41.68-9.93 4.65-.03.09-3.89 9.72-14.46 19.84-5.56 5.31-17.21 6.18-25.38 5.9.34-4.33.98-10.67 2.17-19.2 1.62-11.71 16.97-20.04 22.73-22.26 3.7-1.4 5.79-5.32 4.89-9.17-.02-.08-.38-1.62-.94-4.37-2.39-11.53-8.49-44.2-8.63-77.67-5.21-1.24-10.29-2.81-15.22-4.68l-.53-.2Z"></path><path d="m179.13 476.56-.1-.71c-4.49-33.53-5.95-66.51-6.31-76.92-.09-2.11-.11-3.29-.12-3.37-.11-4.35-3.72-7.8-8.07-7.69-.44 0-.86.05-1.27.12-3.74.7-6.52 4.02-6.43 7.95.01.4 1.05 40.78 6.57 82 .28 2.1.6 4.2.94 6.3 4.5-2.74 9.21-5.21 14.11-7.38l.69-.3ZM505.42 258c0 .36-.03 9.22-2.72 28.57-2.34 16.84-17.68 27.26-26.53 31.93 2.73 13.42 8.63 46.31 8.63 80.63 0 2.89-.04 5.75-.12 8.6-.18 6.68-.57 13.22-1.08 19.49l-.09 1.04v.1c-2.63 31.01-8.38 55.11-8.7 56.41-.95 3.94-4.72 6.47-8.65 5.97a7.88 7.88 0 0 1-6.68-9.68c.07-.3 5.8-24.34 8.35-54.67v-.19c.73-8.65 1.19-17.81 1.19-27.07 0-33.91-6.21-67.26-8.63-78.94-.56-2.75-.92-4.29-.94-4.37a7.89 7.89 0 0 1 4.89-9.17c5.76-2.21 21.11-10.55 22.73-22.25 1.19-8.53 1.83-14.88 2.17-19.21-8.17-.28-19.82.59-25.38 5.91-10.56 10.1-14.44 19.78-14.48 19.87-1.54 3.93-5.93 5.98-9.91 4.62-.48-.16-44.15-14.83-106.67-16.87a7.837 7.837 0 0 1-7.57-7.31v-.16c-.34-4.62 3.44-8.47 8.06-8.32 51.33 1.64 89.85 11.36 104.69 15.68 2.81-4.88 7.58-11.85 14.97-18.91 14.56-13.93 42.64-9.99 45.79-9.5 3.84.6 6.67 3.91 6.67 7.8Z"></path><path d="M550.4 434.89a7.875 7.875 0 0 1-5.87 5.76c-.61.14-8.48 1.91-18.64 1.91-9.49 0-20.99-1.55-30.46-7.41-4.73-2.92-8.63-5.58-11.83-7.93-9.5-6.97-12.8-11.2-13.24-11.79l12.68-9.39c.17.19.57.64 1.26 1.32.12.11.25.24.39.37 2.55 2.46 8.23 7.31 19.05 14.01 9.75 6.03 23.81 5.42 31.57 4.46-.15-3.38-.88-8.36-3.25-14.52-3.92-10.19-17.6-21.22-22.54-24.61a7.89 7.89 0 0 1-3.21-8.36c.09-.37 9.04-37.93 9.04-77.51s-8.97-78.43-9.06-78.81a7.896 7.896 0 0 1 4.89-9.18c5.39-2.07 19.76-9.86 21.27-20.75 1.08-7.79 1.68-13.65 2.01-17.73-7.64-.22-18.22.64-23.3 5.49-9.93 9.5-13.58 18.59-13.62 18.68-1.54 3.93-5.92 5.98-9.91 4.61-.51-.17-52.26-17.55-122.96-16.09-30.82.63-53.34 3.55-68.9 6.62-2.54.5-5.16-.3-7-2.12l-.14-.13c-4.47-4.41-2.18-12.02 3.98-13.23 16.51-3.26 39.96-6.25 71.74-6.91 59.57-1.22 105.34 10.13 121.82 14.91 2.7-4.64 7.2-11.14 14.09-17.73 13.93-13.33 40.72-9.57 43.73-9.1 3.83.6 6.66 3.91 6.66 7.79 0 .35-.03 8.77-2.58 27.13-2.21 15.95-16.58 25.87-25.07 30.41 2.62 12.91 8.12 43.86 8.12 76.15s-5.79 64.12-8.33 76.07c6.77 5.28 19.18 16.23 23.99 28.75 6.4 16.65 3.94 27.67 3.63 28.87Z"></path></g><path fill="none" d="M157.46 395.98c-.18-.07-.36-.14-.53-.2m16.48 5.05c-.25-.05-.49-.11-.73-.17"></path><g><path d="M202.02 393.9c-5.62 0-10.76-2.59-14.1-7.09l-15.2-20.45a2.56 2.56 0 0 0-2.66-.97l-24.79 5.9c-5.47 1.3-11.06-.02-15.36-3.63-4.3-3.61-6.58-8.89-6.25-14.5l1.5-25.44c.06-1.03-.49-1.99-1.42-2.45l-22.78-11.41c-5.02-2.52-8.46-7.13-9.43-12.66-.97-5.53.68-11.04 4.53-15.12l17.5-18.52c.71-.75.9-1.84.49-2.79l-10.11-23.39c-2.23-5.15-1.9-10.9.91-15.76 2.81-4.86 7.62-8.02 13.19-8.67l25.31-2.93a2.58 2.58 0 0 0 2.17-1.82l7.28-24.42c1.61-5.38 5.55-9.57 10.83-11.49 5.27-1.92 10.99-1.25 15.68 1.84l21.28 14.02c.86.57 1.97.57 2.83 0l21.28-14.02c4.69-3.09 10.4-3.76 15.68-1.84 5.28 1.92 9.22 6.11 10.83 11.49l7.29 24.42c.29.99 1.15 1.7 2.17 1.82l25.31 2.93c5.58.65 10.39 3.81 13.19 8.67 2.81 4.86 3.14 10.61.91 15.76l-10.12 23.39c-.41.95-.22 2.04.49 2.79l17.5 18.52c3.86 4.08 5.51 9.59 4.53 15.12-.97 5.53-4.41 10.14-9.43 12.66l-22.78 11.41a2.57 2.57 0 0 0-1.42 2.45l1.51 25.44c.33 5.61-1.95 10.89-6.25 14.5-4.3 3.61-9.9 4.93-15.36 3.63l-24.79-5.9c-1-.24-2.05.14-2.66.97l-15.2 20.45c-3.35 4.51-8.49 7.09-14.1 7.09Zm-31.36-43.58c5.48 0 10.73 2.57 14.09 7.09l15.2 20.45c.67.9 1.58 1.04 2.06 1.04s1.4-.14 2.07-1.04l15.2-20.45a17.55 17.55 0 0 1 18.17-6.61l24.79 5.9c1.1.26 1.88-.22 2.25-.53.37-.31.98-1 .92-2.12l-1.51-25.44a17.55 17.55 0 0 1 9.67-16.75l22.78-11.41a2.5 2.5 0 0 0 1.38-1.85c.08-.48.11-1.4-.66-2.21l-17.5-18.52a17.556 17.556 0 0 1-3.36-19.04l10.12-23.39c.45-1.03.11-1.89-.13-2.31a2.51 2.51 0 0 0-1.93-1.27l-25.31-2.93c-6.99-.81-12.8-5.69-14.81-12.43l-7.29-24.42a2.493 2.493 0 0 0-1.59-1.68c-.45-.17-1.36-.35-2.3.27l-21.27 14.02a17.56 17.56 0 0 1-19.34 0l-21.28-14.02c-.94-.62-1.84-.43-2.3-.27-.45.17-1.26.6-1.59 1.68l-7.28 24.42a17.556 17.556 0 0 1-14.81 12.43l-25.31 2.93a2.51 2.51 0 0 0-1.93 1.27c-.24.42-.58 1.27-.13 2.31l10.11 23.39a17.552 17.552 0 0 1-3.36 19.04l-17.5 18.52c-.77.82-.75 1.74-.66 2.22s.37 1.35 1.38 1.85l22.78 11.41a17.566 17.566 0 0 1 9.67 16.75l-1.5 25.44c-.07 1.12.54 1.81.91 2.12.37.31 1.16.79 2.25.53l24.79-5.9c1.36-.32 2.73-.48 4.08-.48Z"></path><path d="M198.12 257.97c0 12.32-9.86 22.3-22.04 22.3s-22.17-9.85-22.17-22.17 9.85-22.17 21.39-22.17c12.97 0 22.82 9.59 22.82 22.04Zm-30.6 0c0 4.67 3.76 8.56 8.43 8.56s8.43-3.89 8.43-8.56-3.76-8.43-8.04-8.43c-5.06 0-8.82 3.63-8.82 8.43Zm48.88-20.36h12.58l-37.6 91.02H178.8l37.6-91.02Zm37.73 71.05c0 12.32-9.85 22.17-22.17 22.17s-22.17-9.85-22.17-22.17 9.98-22.17 21.39-22.17c13.1 0 22.95 9.59 22.95 22.17Zm-30.6-.39c0 4.93 3.76 8.95 8.43 8.95s8.56-4.15 8.56-8.95c0-4.41-3.76-8.04-8.3-8.04-5.19 0-8.69 3.24-8.69 8.04Z"></path></g></svg>