<svg xmlns="http://www.w3.org/2000/svg" id="uuid-7e53e069-0d10-4219-8bd8-8e8bd85b341c" data-name="Layer 2" viewBox="0 0 66.51 57.83"><defs></defs><g id="uuid-9d16f182-7972-4199-b92c-571e1f8bb844" data-name="Layer 1"><path d="M57.84 11.6H2.89V33.3c0 2.73 1.56 4.29 4.28 4.29H26.9c.23 0 .45-.01.68 0 .77.07 1.35.69 1.35 1.44s-.57 1.35-1.36 1.42c-.14.01-.27.01-.41.01-6.76 0-13.51.01-20.27 0-3.49 0-6.17-2.25-6.78-5.63-.1-.55-.1-1.12-.1-1.69V11.18c0-1.58-.03-3.16.02-4.74C.15 2.94 2.97.15 6.48.02c.2 0 .41-.01.61-.01C22.61 0 38.14.01 53.66 0c3.02 0 5.23 1.3 6.46 4.05.39.86.59 1.87.6 2.82.06 4.86.03 9.71.02 14.57 0 1.05-.57 1.67-1.45 1.67s-1.45-.63-1.45-1.67V11.6Zm0-2.95V7.01c-.03-2.56-1.61-4.12-4.17-4.12H6.96c-1.67 0-2.91.7-3.67 2.2-.58 1.14-.39 2.36-.37 3.57h54.92Z" class="uuid-768fa880-d350-4b5d-b178-ec162c9cf7d9"></path><path d="M50.61 26.04c8.8 0 15.9 7.08 15.9 15.88s-7.08 15.9-15.88 15.91c-8.8 0-15.9-7.08-15.91-15.89 0-8.8 7.08-15.9 15.89-15.9ZM37.6 41.89c-.02 7.19 5.8 13.04 12.97 13.06 7.19.02 13.04-5.79 13.06-12.97.02-7.19-5.79-13.04-12.97-13.06-7.19-.02-13.05 5.79-13.06 12.97ZM13.09 30.37h5.42c1.08 0 1.75.57 1.73 1.46-.02.86-.68 1.42-1.71 1.42H7.42c-.8 0-1.33-.35-1.54-.97-.21-.61-.04-1.29.51-1.61.31-.18.72-.28 1.08-.28 1.87-.03 3.75-.01 5.62-.01ZM10.13 26.04c-.9 0-1.81.01-2.71 0-.98-.02-1.63-.6-1.64-1.44 0-.84.63-1.45 1.61-1.46 1.81-.02 3.62-.02 5.42 0 1 0 1.61.58 1.62 1.44 0 .89-.62 1.45-1.66 1.47-.88.01-1.76 0-2.64 0Z" class="uuid-768fa880-d350-4b5d-b178-ec162c9cf7d9"></path><path d="M50.6 44.25c1.52-1.53 2.96-2.96 4.39-4.4.9-.9 1.75-1.04 2.41-.4.68.65.55 1.54-.37 2.46-1.69 1.69-3.38 3.39-5.08 5.08-.98.97-1.69.97-2.65 0-1.33-1.32-2.66-2.64-3.97-3.98-.65-.67-.65-1.53-.05-2.11.58-.57 1.4-.55 2.07.06.18.17.36.35.53.52.89.9 1.77 1.8 2.72 2.77Z" class="uuid-768fa880-d350-4b5d-b178-ec162c9cf7d9"></path></g></svg>