<svg xmlns="http://www.w3.org/2000/svg" viewBox="0 0 700 700"><path d="M371.66 460.39c-6.67 0-12.77-3.07-16.75-8.42l-18.04-24.28a3.044 3.044 0 0 0-3.16-1.15l-29.43 7c-6.49 1.54-13.14-.03-18.24-4.31-5.11-4.29-7.81-10.56-7.42-17.22l1.79-30.2a3.06 3.06 0 0 0-1.68-2.91l-27.05-13.55c-5.96-2.99-10.04-8.46-11.2-15.03-1.16-6.57.8-13.11 5.38-17.96l20.78-21.99c.84-.89 1.07-2.19.58-3.31l-12.01-27.77c-2.65-6.12-2.25-12.94 1.08-18.71 3.33-5.77 9.04-9.52 15.66-10.29l30.06-3.48c1.21-.14 2.23-.99 2.58-2.16l8.65-28.99c1.91-6.39 6.59-11.36 12.86-13.64 6.26-2.28 13.05-1.49 18.62 2.18l25.26 16.65c1.02.67 2.34.67 3.36 0l25.26-16.65c5.57-3.67 12.35-4.46 18.62-2.18 6.26 2.28 10.95 7.25 12.86 13.64l8.65 28.99a3.052 3.052 0 0 0 2.58 2.16l30.05 3.48c6.62.77 12.33 4.52 15.67 10.29 3.33 5.77 3.73 12.59 1.08 18.71l-12.01 27.77a3.06 3.06 0 0 0 .58 3.31l20.78 21.99c4.58 4.85 6.54 11.39 5.38 17.95-1.16 6.57-5.24 12.04-11.2 15.03l-27.05 13.55a3.06 3.06 0 0 0-1.68 2.91l1.79 30.2c.39 6.66-2.31 12.93-7.42 17.22-5.11 4.29-11.75 5.86-18.24 4.31l-29.43-7c-1.19-.29-2.43.17-3.16 1.15l-18.04 24.29c-3.98 5.35-10.08 8.42-16.75 8.42Zm-37.23-51.75c6.5 0 12.74 3.05 16.73 8.42l18.04 24.29c.8 1.07 1.88 1.23 2.45 1.23.57 0 1.66-.16 2.45-1.23l18.04-24.29c4.98-6.7 13.46-9.79 21.58-7.85l29.43 7c1.3.31 2.23-.26 2.67-.63.44-.37 1.17-1.19 1.09-2.52l-1.79-30.2a20.855 20.855 0 0 1 11.48-19.89l27.05-13.55c1.2-.6 1.54-1.64 1.64-2.2.1-.56.13-1.66-.79-2.63l-20.78-21.99a20.846 20.846 0 0 1-3.99-22.61l12.01-27.77c.53-1.23.13-2.24-.16-2.74-.29-.5-.97-1.35-2.29-1.51l-30.05-3.48c-8.3-.96-15.2-6.76-17.59-14.76L413 220.74c-.38-1.28-1.34-1.8-1.88-2a3.01 3.01 0 0 0-2.73.32l-25.26 16.65a20.844 20.844 0 0 1-22.96 0l-25.26-16.65a2.98 2.98 0 0 0-2.73-.32c-.54.2-1.5.72-1.88 2l-8.65 28.99c-2.39 8-9.29 13.8-17.59 14.76L274 267.97a2.956 2.956 0 0 0-2.29 1.51c-.29.5-.69 1.51-.16 2.74l12.01 27.77a20.824 20.824 0 0 1-3.99 22.61l-20.78 21.99c-.92.97-.89 2.07-.79 2.63.1.57.44 1.6 1.64 2.2l27.05 13.55a20.846 20.846 0 0 1 11.48 19.89l-1.79 30.2c-.08 1.33.65 2.15 1.09 2.52.44.37 1.37.94 2.67.63l29.43-7c1.61-.38 3.24-.57 4.84-.57Z"></path><path d="M367.03 298.99c0 14.63-11.7 26.48-26.17 26.48s-26.33-11.7-26.33-26.33 11.7-26.33 25.4-26.33c15.4 0 27.1 11.39 27.1 26.17Zm-36.33 0c0 5.54 4.46 10.16 10.01 10.16s10.01-4.62 10.01-10.16-4.46-10.01-9.54-10.01c-6 0-10.47 4.31-10.47 10.01Zm58.04-24.17h14.93l-44.65 108.07h-14.93l44.65-108.07Zm44.8 84.37c0 14.63-11.7 26.33-26.33 26.33s-26.33-11.7-26.33-26.33 11.85-26.33 25.4-26.33c15.55 0 27.25 11.39 27.25 26.33Zm-36.33-.46c0 5.85 4.46 10.62 10.01 10.62s10.16-4.93 10.16-10.62c0-5.23-4.46-9.55-9.85-9.55-6.16 0-10.32 3.85-10.32 9.55Z"></path></svg>