<svg xmlns="http://www.w3.org/2000/svg" viewBox="0 0 700 700"><path d="M574.01 549.52H143.46c-12.06 0-21.87-9.81-21.87-21.87V357.28c0-12.06 9.81-21.87 21.87-21.87h430.55c12.06 0 21.87 9.81 21.87 21.87v170.37c0 12.06-9.81 21.87-21.87 21.87ZM143.46 352.56c-2.61 0-4.73 2.12-4.73 4.73v170.37c0 2.61 2.12 4.73 4.73 4.73h430.55c2.61 0 4.73-2.12 4.73-4.73V357.29c0-2.61-2.12-4.73-4.73-4.73H143.46Z"></path><path d="M587.31 360.14c-4.73 0-8.57-3.84-8.57-8.57 0-7.14-1.7-14.28-4.92-20.66l-57.69-114.24a11.514 11.514 0 0 0-10.33-6.35H211.68c-4.39 0-8.35 2.43-10.33 6.35l-57.69 114.24a46.032 46.032 0 0 0-4.92 20.66c0 4.73-3.84 8.57-8.57 8.57s-8.57-3.84-8.57-8.57c0-9.81 2.34-19.62 6.76-28.38l57.69-114.24c4.91-9.73 14.73-15.77 25.63-15.77H505.8c10.9 0 20.72 6.04 25.63 15.77l57.69 114.24a63.333 63.333 0 0 1 6.76 28.38c0 4.73-3.84 8.57-8.57 8.57Z"></path><path d="M217.08 318.64h-4.11c-4.73 0-8.57-3.84-8.57-8.57s3.84-8.57 8.57-8.57h4.11c4.73 0 8.57 3.84 8.57 8.57s-3.84 8.57-8.57 8.57Zm95.81 0h-4.11c-4.73 0-8.57-3.84-8.57-8.57s3.84-8.57 8.57-8.57h4.11c4.73 0 8.57 3.84 8.57 8.57s-3.84 8.57-8.57 8.57Zm95.81 0h-4.11c-4.73 0-8.57-3.84-8.57-8.57s3.84-8.57 8.57-8.57h4.11c4.73 0 8.57 3.84 8.57 8.57s-3.84 8.57-8.57 8.57Zm95.8 0h-4.11c-4.73 0-8.57-3.84-8.57-8.57s3.84-8.57 8.57-8.57h4.11c4.73 0 8.57 3.84 8.57 8.57s-3.84 8.57-8.57 8.57Zm-278.44-27.37h-3.85c-4.73 0-8.57-3.84-8.57-8.57s3.84-8.57 8.57-8.57h3.85c4.73 0 8.57 3.84 8.57 8.57s-3.84 8.57-8.57 8.57Zm89.74 0h-3.85c-4.73 0-8.57-3.84-8.57-8.57s3.84-8.57 8.57-8.57h3.85c4.73 0 8.57 3.84 8.57 8.57s-3.84 8.57-8.57 8.57Zm89.73 0h-3.85c-4.73 0-8.57-3.84-8.57-8.57s3.84-8.57 8.57-8.57h3.85c4.73 0 8.57 3.84 8.57 8.57s-3.84 8.57-8.57 8.57Zm89.74 0h-3.85c-4.73 0-8.57-3.84-8.57-8.57s3.84-8.57 8.57-8.57h3.85c4.73 0 8.57 3.84 8.57 8.57s-3.84 8.57-8.57 8.57Zm-260.56-28.3h-3.6c-4.73 0-8.57-3.84-8.57-8.57s3.84-8.57 8.57-8.57h3.6c4.73 0 8.57 3.84 8.57 8.57s-3.84 8.57-8.57 8.57Zm83.88 0h-3.6c-4.73 0-8.57-3.84-8.57-8.57s3.84-8.57 8.57-8.57h3.6c4.73 0 8.57 3.84 8.57 8.57s-3.84 8.57-8.57 8.57Zm83.89 0h-3.6c-4.73 0-8.57-3.84-8.57-8.57s3.84-8.57 8.57-8.57h3.6c4.73 0 8.57 3.84 8.57 8.57s-3.84 8.57-8.57 8.57Zm83.89 0h-3.59c-4.73 0-8.57-3.84-8.57-8.57s3.84-8.57 8.57-8.57h3.59c4.73 0 8.57 3.84 8.57 8.57s-3.84 8.57-8.57 8.57ZM242.02 237.4h-3.38c-4.73 0-8.57-3.84-8.57-8.57s3.84-8.57 8.57-8.57h3.38c4.73 0 8.57 3.84 8.57 8.57s-3.84 8.57-8.57 8.57Zm78.94 0h-3.38c-4.73 0-8.57-3.84-8.57-8.57s3.84-8.57 8.57-8.57h3.38c4.73 0 8.57 3.84 8.57 8.57s-3.84 8.57-8.57 8.57Zm78.94 0h-3.38c-4.73 0-8.57-3.84-8.57-8.57s3.84-8.57 8.57-8.57h3.38c4.73 0 8.57 3.84 8.57 8.57s-3.84 8.57-8.57 8.57Zm78.94 0h-3.38c-4.73 0-8.57-3.84-8.57-8.57s3.84-8.57 8.57-8.57h3.38c4.73 0 8.57 3.84 8.57 8.57s-3.84 8.57-8.57 8.57Zm108.47 139.35H130.17c-4.73 0-8.57-3.84-8.57-8.57s3.84-8.57 8.57-8.57h457.14c4.73 0 8.57 3.84 8.57 8.57s-3.84 8.57-8.57 8.57Zm0 148.57H130.17c-4.73 0-8.57-3.84-8.57-8.57s3.84-8.57 8.57-8.57h457.14c4.73 0 8.57 3.84 8.57 8.57s-3.84 8.57-8.57 8.57Zm-382.86-87.48c-20.94 0-43.48-7.32-43.48-23.39s22.54-23.38 43.48-23.38 43.48 7.32 43.48 23.38-22.54 23.39-43.48 23.39Zm-25.84-23.39c2.55 2.31 11.45 6.24 25.84 6.24s23.3-3.93 25.85-6.24c-2.55-2.31-11.45-6.24-25.85-6.24s-23.3 3.93-25.84 6.24Zm52.33.75Z"></path><path d="M204.45 466.41c-20.94 0-43.48-7.32-43.48-23.39 0-4.73 3.84-8.57 8.57-8.57s8.27 3.54 8.55 8.02c1.59 2.16 10.74 6.79 26.35 6.79s24.77-4.63 26.36-6.79c.28-4.48 4-8.02 8.55-8.02s8.57 3.84 8.57 8.57c0 16.07-22.54 23.39-43.48 23.39Z"></path><path d="M204.45 494.98c-20.94 0-43.48-7.32-43.48-23.38 0-4.73 3.84-8.57 8.57-8.57s8.27 3.54 8.55 8.02c1.59 2.16 10.74 6.79 26.35 6.79s24.77-4.63 26.36-6.79c.28-4.48 4-8.02 8.55-8.02s8.57 3.84 8.57 8.57c0 16.07-22.54 23.38-43.48 23.38Zm102.86-57.14c-20.94 0-43.48-7.32-43.48-23.39s22.54-23.38 43.48-23.38 43.48 7.32 43.48 23.38-22.54 23.39-43.48 23.39Zm-25.84-23.39c2.55 2.31 11.45 6.24 25.84 6.24s23.3-3.93 25.84-6.24c-2.55-2.31-11.45-6.24-25.84-6.24s-23.3 3.93-25.84 6.24Zm52.33.75Z"></path><path d="M307.31 466.41c-20.94 0-43.48-7.32-43.48-23.39 0-4.73 3.84-8.57 8.57-8.57s8.27 3.54 8.55 8.02c1.59 2.16 10.74 6.79 26.35 6.79s24.77-4.63 26.35-6.79c.28-4.48 4-8.02 8.55-8.02s8.57 3.84 8.57 8.57c0 16.07-22.54 23.39-43.48 23.39Z"></path><path d="M307.31 494.98c-20.94 0-43.48-7.32-43.48-23.38 0-4.73 3.84-8.57 8.57-8.57s8.27 3.54 8.55 8.02c1.59 2.16 10.74 6.79 26.35 6.79s24.77-4.63 26.35-6.79c.28-4.48 4-8.02 8.55-8.02s8.57 3.84 8.57 8.57c0 16.07-22.54 23.38-43.48 23.38Zm102.86-57.14c-20.94 0-43.48-7.32-43.48-23.39s22.54-23.38 43.48-23.38 43.48 7.32 43.48 23.38-22.54 23.39-43.48 23.39Zm-25.84-23.39c2.55 2.31 11.44 6.24 25.84 6.24s23.3-3.93 25.85-6.24c-2.55-2.31-11.45-6.24-25.85-6.24s-23.3 3.93-25.84 6.24Zm52.33.75Z"></path><path d="M410.17 466.41c-20.94 0-43.48-7.32-43.48-23.39 0-4.73 3.84-8.57 8.57-8.57s8.27 3.54 8.55 8.02c1.59 2.16 10.74 6.79 26.35 6.79s24.77-4.63 26.36-6.79c.28-4.48 4-8.02 8.55-8.02s8.57 3.84 8.57 8.57c0 16.07-22.54 23.39-43.48 23.39Z"></path><path d="M410.17 494.98c-20.94 0-43.48-7.32-43.48-23.38 0-4.73 3.84-8.57 8.57-8.57s8.27 3.54 8.55 8.02c1.59 2.16 10.74 6.79 26.35 6.79s24.77-4.63 26.36-6.79c.28-4.48 4-8.02 8.55-8.02s8.57 3.84 8.57 8.57c0 16.07-22.54 23.38-43.48 23.38Zm102.85-57.14c-20.94 0-43.48-7.32-43.48-23.39s22.54-23.38 43.48-23.38 43.48 7.32 43.48 23.38-22.54 23.39-43.48 23.39Zm-25.84-23.39c2.55 2.31 11.45 6.24 25.84 6.24s23.3-3.93 25.85-6.24c-2.55-2.31-11.45-6.24-25.85-6.24s-23.3 3.93-25.84 6.24Zm52.33.75Z"></path><path d="M513.02 466.41c-20.94 0-43.48-7.32-43.48-23.39 0-4.73 3.84-8.57 8.57-8.57s8.27 3.54 8.55 8.02c1.59 2.16 10.74 6.79 26.35 6.79s24.77-4.63 26.36-6.79c.28-4.48 4-8.02 8.55-8.02s8.57 3.84 8.57 8.57c0 16.07-22.54 23.39-43.48 23.39Z"></path><path d="M513.02 494.98c-20.94 0-43.48-7.32-43.48-23.38 0-4.73 3.84-8.57 8.57-8.57s8.27 3.54 8.55 8.02c1.59 2.16 10.74 6.79 26.35 6.79s24.77-4.63 26.36-6.79c.28-4.48 4-8.02 8.55-8.02s8.57 3.84 8.57 8.57c0 16.07-22.54 23.38-43.48 23.38Z"></path></svg>