<svg xmlns="http://www.w3.org/2000/svg" viewBox="0 0 700 700"><path d="M389.62 423.83H99.38c-8.83 0-16.67-5.23-19.98-13.32-1.07-2.76-1.62-5.56-1.62-8.2 0-5.7 2.29-11.25 6.29-15.23l81.21-81.12c9.36-9.36 22.36-14.73 35.65-14.73h298.78c13.51 0 26.17 5.23 35.66 14.74l16.73 16.68c2.89 2.87 2.89 7.54.02 10.42a7.372 7.372 0 0 1-10.42.01l-16.75-16.7c-6.71-6.73-15.67-10.43-25.24-10.43H200.94c-9.42 0-18.62 3.8-25.23 10.42L94.49 397.5c-1.26 1.25-1.97 2.99-1.97 4.8 0 .82.2 1.79.58 2.74.99 2.41 3.47 4.04 6.29 4.04h290.23a7.37 7.37 0 0 1 0 14.74Zm211.74 0h-93.88a7.37 7.37 0 0 1 0-14.74h93.88c2.72 0 5.24-1.66 6.23-4.14.35-.89.56-1.86.56-2.64 0-1.82-.75-3.64-2.06-4.99l-45.5-45.4c-2.89-2.87-2.89-7.53-.02-10.42a7.363 7.363 0 0 1 10.42 0L616.6 387c4.1 4.23 6.29 9.64 6.29 15.32 0 2.64-.54 5.36-1.59 8.08-3.32 8.2-11.13 13.43-19.93 13.43Z"></path><path d="M601.36 482.76H99.38c-8.68 0-16.51-5.19-19.93-13.22-1.12-2.87-1.67-5.66-1.67-8.3 0-.17 0-.35.02-.53l-.02-58.43c0-4.07 3.3-7.37 7.37-7.37s7.37 3.29 7.37 7.37l.02 58.93v.35c.05.75.24 1.59.57 2.41 1.03 2.42 3.47 4.05 6.29 4.05h501.98c2.72 0 5.24-1.66 6.23-4.13.35-.89.56-1.86.56-2.65v-58.96a7.37 7.37 0 0 1 14.74 0v58.93c0 2.68-.54 5.39-1.59 8.11-3.32 8.19-11.13 13.43-19.93 13.43Z"></path><path d="M595.87 445.93c0-5.41 4.42-9.82 9.82-9.82s9.82 4.41 9.82 9.82c0 5.4-4.42 9.82-9.82 9.82s-9.82-4.42-9.82-9.82Zm-29.46 0c0-5.41 4.42-9.82 9.82-9.82s9.82 4.41 9.82 9.82c0 5.4-4.42 9.82-9.82 9.82s-9.82-4.42-9.82-9.82Zm-29.46 0c0-5.41 4.42-9.82 9.82-9.82s9.82 4.41 9.82 9.82c0 5.4-4.42 9.82-9.82 9.82s-9.82-4.42-9.82-9.82Zm-29.46 0c0-5.41 4.42-9.82 9.82-9.82s9.82 4.41 9.82 9.82c0 5.4-4.42 9.82-9.82 9.82s-9.82-4.42-9.82-9.82Zm-29.46 0c0-5.41 4.42-9.82 9.82-9.82s9.82 4.41 9.82 9.82c0 5.4-4.42 9.82-9.82 9.82s-9.82-4.42-9.82-9.82Zm-29.46 0c0-5.41 4.42-9.82 9.82-9.82s9.82 4.41 9.82 9.82c0 5.4-4.42 9.82-9.82 9.82s-9.82-4.42-9.82-9.82ZM85.15 436.2c2.55 0 5.1.89 6.97 2.75 1.76 1.87 2.85 4.42 2.85 6.97s-1.08 5.1-2.85 6.97c-1.87 1.76-4.42 2.85-6.97 2.85v-19.55Zm212.83 9.73a9.78 9.78 0 0 1 9.82-9.82c5.4 0 9.82 4.41 9.82 9.82 0 5.4-4.42 9.82-9.82 9.82-5.51 0-9.82-4.42-9.82-9.82Zm-27.89 0c0-5.41 4.41-9.82 9.82-9.82 5.4 0 9.82 4.41 9.82 9.82 0 5.4-4.42 9.82-9.82 9.82-5.41 0-9.82-4.42-9.82-9.82Zm-27.8 0c0-5.41 4.41-9.82 9.82-9.82 5.4 0 9.82 4.41 9.82 9.82 0 5.4-4.42 9.82-9.82 9.82-5.41 0-9.82-4.42-9.82-9.82Zm-27.8 0a9.78 9.78 0 0 1 9.82-9.82c5.4 0 9.82 4.41 9.82 9.82 0 5.4-4.42 9.82-9.82 9.82-5.51 0-9.82-4.42-9.82-9.82Zm-27.89 0c0-5.41 4.41-9.82 9.82-9.82 5.5 0 9.82 4.41 9.82 9.82 0 5.4-4.33 9.82-9.82 9.82-5.41 0-9.82-4.42-9.82-9.82Zm-27.8 0c0-5.41 4.41-9.82 9.82-9.82 5.4 0 9.82 4.41 9.82 9.82 0 5.4-4.42 9.82-9.82 9.82-5.41 0-9.82-4.42-9.82-9.82Zm-27.8 0a9.78 9.78 0 0 1 9.82-9.82c5.4 0 9.82 4.41 9.82 9.82 0 5.4-4.42 9.82-9.82 9.82-5.51 0-9.82-4.42-9.82-9.82Zm-27.89 0c0-5.41 4.41-9.82 9.82-9.82 5.5 0 9.82 4.41 9.82 9.82 0 5.4-4.33 9.82-9.82 9.82-5.41 0-9.82-4.42-9.82-9.82Zm232.49 9.82c-2.55 0-5.1-1.08-6.97-2.85-1.77-1.87-2.85-4.42-2.85-6.97s1.07-5.1 2.85-6.97c3.64-3.64 10.21-3.64 13.95 0 1.76 1.87 2.85 4.42 2.85 6.97s-1.08 5.1-2.85 6.97c-1.87 1.76-4.42 2.85-6.97 2.85Z"></path><path d="M399.97 453.3c-4.07 0-7.63-3.3-7.63-7.37s3.03-7.37 7.1-7.37h.53c22.57 0 44.25-9.54 59.51-26.18l81.85-89.29c2.74-2.99 7.43-3.19 10.41-.45 3 2.75 3.2 7.41.45 10.41l-81.85 89.29c-18.04 19.68-43.69 30.96-70.37 30.96Z"></path><path d="M450.82 437.19a7.362 7.362 0 0 1-7.15-9.15c3.17-12.72 1.38-26.61-4.91-38.08l-15.84-28.88a7.376 7.376 0 0 1 .12-7.29 7.36 7.36 0 0 1 6.34-3.61h90.37a7.37 7.37 0 0 1 0 14.74h-77.93l9.85 17.97c8.17 14.91 10.41 32.21 6.28 48.73-.83 3.35-3.84 5.58-7.14 5.58Z"></path><path d="M399.44 453.3h-9.81a7.37 7.37 0 0 1 0-14.74h8.84c6.78-1.96 12.46-6.92 15.31-13.39 2.99-6.84 2.67-14.53-.91-21.09l-27.63-50.65c-2.03-3.72-3.04-7.39-2.98-10.91.06-3.6 1.19-7.3 3.38-10.99 3.97-6.68 11.26-10.83 19.03-10.83h142.11a7.37 7.37 0 0 1 0 14.74H404.67c-2.6 0-5.04 1.39-6.35 3.62-.84 1.41-1.31 2.72-1.32 3.7 0 .53.13 1.71 1.18 3.62l27.63 50.66c5.78 10.6 6.31 23.01 1.47 34.06-4.78 10.89-14.51 19.11-26.04 21.99-.59.14-1.18.22-1.78.22Z"></path><g><path d="m389.62 445.93-26.59-9.55c-1.8-.54-3.79-.27-5.33.75s-2.46 2.63-2.46 4.36v8.88c0 1.74.91 3.35 2.46 4.36 1.54 1.02 3.53 1.29 5.33.75l26.59-9.55Z"></path><path d="M361.17 463.12c-2.7 0-5.3-.77-7.52-2.23-3.62-2.38-5.77-6.3-5.77-10.51v-8.88c0-4.21 2.16-8.14 5.77-10.52 3.31-2.19 7.62-2.81 11.48-1.65l26.98 9.68c2.93 1.06 4.87 3.83 4.87 6.93s-1.95 5.88-4.87 6.93l-26.59 9.55c-1.68.51-3.01.7-4.35.7Z"></path></g></svg>