<svg xmlns="http://www.w3.org/2000/svg" viewBox="0 0 700 700"><path  d="M465.17 153.49v393.47c0 5.17-4.19 9.37-9.37 9.37H352.75c-5.18 0-9.37-4.19-9.37-9.37V153.49c0-5.17 4.19-9.37 9.37-9.37H455.8c5.18 0 9.37 4.19 9.37 9.37Zm-18.74 384.1V162.86h-84.31v374.73h84.31Z"/><path  d="M352.75 200.33h46.84v18.74h-46.84zm0 46.84h37.47v18.74h-37.47zm0 46.85h37.47v18.74h-37.47zm0 46.84h46.84v18.74h-46.84zm0 46.84h37.47v18.74h-37.47zm0 46.84h37.47v18.74h-37.47zm0 46.84h46.84v18.74h-46.84zM244.77 184.99h18.74v346.63h-18.74z"/><path  d="m298.93 490.63-37.47 46.84a9.37 9.37 0 0 1-14.64 0l-37.47-46.84 14.64-11.71 30.15 37.7 30.15-37.7 14.64 11.71Zm0-274.02-14.64 11.71-30.15-37.7-30.15 37.7-14.64-11.71 37.47-46.84a9.37 9.37 0 0 1 14.64 0l37.47 46.84Z"/></svg>