<?xml version="1.0" encoding="utf-8"?>
<!-- Generator: Adobe Illustrator 26.3.1, SVG Export Plug-In . SVG Version: 6.00 Build 0)  -->
<svg version="1.1" id="Layer_1" xmlns="http://www.w3.org/2000/svg" xmlns:xlink="http://www.w3.org/1999/xlink" x="0px" y="0px"
	 viewBox="0 0 700 700" style="enable-background:new 0 0 700 700;" xml:space="preserve">
<style type="text/css">
	.st0{fill:#505050;}
	.st1{fill:#00B1EB;}
	.st2{fill:#FFFFFF;}
	.st3{fill:#78B833;}
	.st4{opacity:0.15;}
	.st5{fill:none;stroke:#353535;stroke-width:13.0208;stroke-linecap:round;stroke-linejoin:round;stroke-miterlimit:10;}
	.st6{fill:#353535;}
	.st7{fill:none;stroke:#505050;stroke-width:13.0208;stroke-linecap:round;stroke-linejoin:round;stroke-miterlimit:10;}
	.st8{fill:none;stroke:#505050;stroke-width:13.0208;stroke-linecap:round;stroke-linejoin:round;}
	.st9{fill:none;stroke:#505050;stroke-width:13.0208;stroke-linecap:round;stroke-miterlimit:10;}
	.st10{fill:none;stroke:#353535;stroke-width:13.0208;stroke-linejoin:round;stroke-miterlimit:10;}
	.st11{fill:none;stroke:#353535;stroke-width:13.0208;stroke-miterlimit:10;}
	.st12{fill:none;stroke:#353535;stroke-width:13.0208;stroke-linecap:round;stroke-linejoin:round;}
	.st13{fill-rule:evenodd;clip-rule:evenodd;fill:#505050;}
	.st14{fill:#505050;stroke:#505050;stroke-width:2;stroke-linecap:round;stroke-miterlimit:10;}
	.st15{fill:#505050;stroke:#505050;stroke-width:2;stroke-miterlimit:10;}
	.st16{fill:none;}
	.st17{fill:#1D1D1B;}
	.st18{fill:#494E5B;}
	.st19{fill:none;stroke:#505050;stroke-width:16;stroke-miterlimit:10;}
	.st20{fill:none;stroke:#505050;stroke-width:14;stroke-miterlimit:10;}
	.st21{fill:#606060;}
	.st22{fill-rule:evenodd;clip-rule:evenodd;fill:#505050;stroke:#505050;stroke-width:5;stroke-miterlimit:10;}
	.st23{fill:none;stroke:#505050;stroke-width:12;stroke-linecap:round;stroke-miterlimit:10;}
	.st24{fill-rule:evenodd;clip-rule:evenodd;fill:#505050;stroke:#505050;stroke-width:8;stroke-miterlimit:10;}
	.st25{fill-rule:evenodd;clip-rule:evenodd;fill:#505050;stroke:#505050;stroke-width:9;stroke-miterlimit:10;}
	.st26{fill:none;stroke:#505050;stroke-width:14;stroke-linecap:round;stroke-miterlimit:10;}
	.st27{fill:#505050;stroke:#505050;stroke-width:4;stroke-miterlimit:10;}
</style>
<g>
	<g>
		<path class="st0" d="M233.2,532.7c-6.7-4.3-13.2-8.9-19.3-13.9c-2.2-7.5-4.6-14.1-7.1-20.8c-1.3-3.6-2.7-7.2-4-11
			c-5.1-14.7-9.7-32.1-11.2-60.9c-0.5-10.4-0.5-19.7,0-28.4l-10.1-0.3l19-31.2l17.4,32.4l-10.7-0.3c-0.5,8.3-0.5,17.2,0,27.1
			c1.7,33.9,7.8,50.1,14.2,67.2c2,5.4,4.1,11,6,17.1C229.6,516.3,231.6,523.8,233.2,532.7z"/>
	</g>
	<g>
		<path class="st0" d="M292.7,559.2c-5.7-1.6-11.3-3.4-16.8-5.4c-1.4-7.1-3-13.2-4.8-18.8c-1.8-5.5-3.7-10.6-5.6-15.8
			c-6.6-17.5-13.4-35.6-15.2-71.9c-0.5-10.4-0.5-19.7,0-28.4l-10.1-0.3l19-31.2l17.4,32.4l-10.7-0.4c-0.5,8.3-0.5,17.2,0,27.1
			c1.7,33.8,7.8,50,14.2,67.2c3.2,8.6,6.5,17.2,9.2,28.1C290.6,547.1,291.7,552.8,292.7,559.2z"/>
	</g>
	<g>
		<path class="st0" d="M355.2,566.8c-1.7,0-3.5,0.1-5.2,0.1c-3.5,0-7-0.1-10.5-0.2c-0.4-5.8-1-11-1.8-15.8
			c-2.8-18.6-7.2-30.5-11.9-43c-6.6-17.5-13.4-35.7-15.2-71.9c-0.5-10.4-0.5-19.7,0-28.5l-10.1-0.3l19-31.2l17.4,32.4l-10.7-0.4
			c-0.5,8.3-0.5,17.2,0,27.1c1.7,33.9,7.8,50,14.2,67.2c5,13.3,10.1,27,13.1,48.8C354.3,556,354.8,561.2,355.2,566.8z"/>
	</g>
	<g>
		<path class="st0" d="M411.3,558.1c-5.2,1.5-10.4,2.9-15.7,4c0-2.3,0-4.6-0.1-6.9c-0.2-3.2-0.4-6.1-0.6-9
			c-2.2-27.9-7.8-42.6-13.6-58.2c-6.6-17.5-13.4-35.6-15.2-71.9c-0.5-10.4-0.5-19.7,0-28.4l-10.1-0.3l19-31.2l17.4,32.4l-10.7-0.3
			c-0.5,8.3-0.5,17.2,0,27.1c1.7,33.9,7.8,50.1,14.2,67.2c5.8,15.4,11.7,31.3,14.3,59.5c0.4,3.9,0.6,8,0.9,12.4
			C411.2,555.6,411.3,556.9,411.3,558.1z"/>
	</g>
	<g>
		<path class="st0" d="M470.2,530.5c-4.8,3.2-9.8,6.3-14.9,9.1c-0.5-6.3-1.2-11.9-2-17c-2.8-17.3-7.1-28.8-11.6-40.8
			c-6.6-17.5-13.4-35.7-15.2-71.9c-0.5-10.4-0.5-19.7,0-28.4l-10.1-0.3l19-31.2l17.4,32.4l-10.7-0.3c-0.5,8.3-0.5,17.2,0,27.1
			c1.7,33.8,7.8,50,14.2,67.2c4,10.7,8.1,21.7,11.1,36.9C468.6,518.4,469.5,524.1,470.2,530.5z"/>
	</g>
	<g>
		<path class="st0" d="M511.6,469.7c1.5,7,3.3,13,5.3,18.7c-3.8,4.6-7.8,9-11.9,13.2c-2-5.3-3.9-10.7-5.7-16.9
			c-3.7-12.6-6.7-28.1-7.8-50.3c-0.5-10.4-0.5-19.7,0-28.4l-10.1-0.3l19-31.2l17.4,32.4l-10.7-0.3c-0.5,8.3-0.5,17.2,0,27.1
			C507.9,448.6,509.5,460.1,511.6,469.7z"/>
	</g>
	<g>
		<path class="st0" d="M350,133.1c-119.6,0-216.9,97.3-216.9,216.9c0,68.1,31.5,128.9,80.8,168.7c6.2,5,12.6,9.6,19.3,13.9
			c13.3,8.5,27.6,15.7,42.7,21.2c5.5,2,11.1,3.8,16.8,5.4c15,4.1,30.7,6.7,46.8,7.4c3.5,0.2,7,0.2,10.5,0.2c1.8,0,3.5,0,5.2-0.1
			c13.8-0.3,27.3-2,40.4-4.8c5.3-1.1,10.5-2.5,15.7-4c15.4-4.6,30.2-10.8,44-18.5c5.1-2.8,10.1-5.9,14.9-9.1
			c12.6-8.4,24.2-18.1,34.7-28.8c4.2-4.2,8.1-8.7,11.9-13.2c31.2-37.6,50-85.8,50-138.4C566.9,230.4,469.6,133.1,350,133.1z
			 M350,148.8c106.5,0,194,83.2,200.8,188c-28.8,0.4-44.2-3.9-60.5-8.4c-18-5-36.7-10.1-73-8.7c-36.3,1.4-54.5,8-72.1,14.4
			c-17.2,6.2-33.5,12.2-67.3,13.5c-33.8,1.3-50.5-3.3-68.2-8.2c-15.8-4.4-32-8.8-60-9C159.5,228.7,245.6,148.8,350,148.8z
			 M511.6,469.7c-3.9,5.2-8,10.2-12.3,15.1c-9.5,10.6-20.2,20.1-31.7,28.4c-4.6,3.3-9.4,6.5-14.3,9.4c-13.4,8.1-27.8,14.6-43,19.4
			c-5,1.6-10.2,3-15.4,4.2c-13.3,3-27.2,4.8-41.3,5c-1.2,0-2.4,0-3.6,0c-4.1,0-8.2-0.1-12.3-0.4c-16.8-1-33-4.1-48.5-9
			c-6.2-2-12.3-4.2-18.2-6.8c-15.6-6.7-30.2-15.3-43.5-25.6c-8.9-6.8-17.2-14.4-24.8-22.6c-33.5-35.9-53.9-84.1-53.9-136.9
			c0-1.3,0-2.5,0-3.8c26.4,0,41.2,4.1,56.7,8.4c16,4.4,32.4,9,61.1,9c3.7,0,7.7-0.1,11.9-0.2c36.3-1.4,54.5-8,72.1-14.4
			c17.2-6.2,33.5-12.2,67.3-13.5c33.9-1.3,50.5,3.3,68.2,8.2c16.7,4.6,33.9,9.4,65,8.9C550.7,396.4,536,436.9,511.6,469.7z"/>
	</g>
</g>
</svg>
