<?xml version="1.0" encoding="utf-8"?>
<!-- Generator: Adobe Illustrator 26.3.1, SVG Export Plug-In . SVG Version: 6.00 Build 0)  -->
<svg version="1.1" id="Layer_1" xmlns="http://www.w3.org/2000/svg" xmlns:xlink="http://www.w3.org/1999/xlink" x="0px" y="0px"
	 viewBox="0 0 700 700" style="enable-background:new 0 0 700 700;" xml:space="preserve">
<style type="text/css">
	.st0{fill:#505050;}
	.st1{fill:#00B1EB;}
	.st2{fill:#FFFFFF;}
	.st3{fill:#78B833;}
	.st4{opacity:0.15;}
	.st5{fill:none;stroke:#353535;stroke-width:13.0208;stroke-linecap:round;stroke-linejoin:round;stroke-miterlimit:10;}
	.st6{fill:#353535;}
	.st7{fill:none;stroke:#505050;stroke-width:13.0208;stroke-linecap:round;stroke-linejoin:round;stroke-miterlimit:10;}
	.st8{fill:none;stroke:#505050;stroke-width:13.0208;stroke-linecap:round;stroke-linejoin:round;}
	.st9{fill:none;stroke:#505050;stroke-width:13.0208;stroke-linecap:round;stroke-miterlimit:10;}
	.st10{fill:none;stroke:#353535;stroke-width:13.0208;stroke-linejoin:round;stroke-miterlimit:10;}
	.st11{fill:none;stroke:#353535;stroke-width:13.0208;stroke-miterlimit:10;}
	.st12{fill:none;stroke:#353535;stroke-width:13.0208;stroke-linecap:round;stroke-linejoin:round;}
	.st13{fill-rule:evenodd;clip-rule:evenodd;fill:#505050;}
	.st14{fill:#505050;stroke:#505050;stroke-width:2;stroke-linecap:round;stroke-miterlimit:10;}
	.st15{fill:#505050;stroke:#505050;stroke-width:2;stroke-miterlimit:10;}
	.st16{fill:none;}
	.st17{fill:#1D1D1B;}
	.st18{fill:#494E5B;}
	.st19{fill:none;stroke:#505050;stroke-width:16;stroke-miterlimit:10;}
	.st20{fill:none;stroke:#505050;stroke-width:14;stroke-miterlimit:10;}
	.st21{fill:#606060;}
	.st22{fill-rule:evenodd;clip-rule:evenodd;fill:#505050;stroke:#505050;stroke-width:5;stroke-miterlimit:10;}
	.st23{fill:none;stroke:#505050;stroke-width:12;stroke-linecap:round;stroke-miterlimit:10;}
	.st24{fill-rule:evenodd;clip-rule:evenodd;fill:#505050;stroke:#505050;stroke-width:8;stroke-miterlimit:10;}
	.st25{fill-rule:evenodd;clip-rule:evenodd;fill:#505050;stroke:#505050;stroke-width:9;stroke-miterlimit:10;}
	.st26{fill:none;stroke:#505050;stroke-width:14;stroke-linecap:round;stroke-miterlimit:10;}
	.st27{fill:#505050;stroke:#505050;stroke-width:4;stroke-miterlimit:10;}
</style>
<g>
	<path class="st0" d="M476.8,453.1c3.5,1.6,5.4-0.9,7.6-2.3c21.3-13.9,42.6-27.8,64-41.6c5.4-3.5,10.2-2.7,13.1,1.7
		c2.8,4.2,1.3,9.3-3.6,12.9c-0.9,0.7-1.9,1.3-2.8,1.9c-27,17.6-54,35.2-81,52.8c-2.4,1.6-4.7,3-5.9,6.2
		c-8.8,22.8-26.7,32.8-50.1,34.4c-4.4,0.3-8.2,1.4-12.1,3.7c-35,20.6-70.1,20.6-105-0.2c-3.7-2.2-7.2-3.2-11.4-3.5
		c-23.7-1.6-41.8-11.5-50.6-34.7c-1.2-3.2-3.6-4.5-6-6.1c-27.2-17.8-54.4-35.5-81.6-53.3c-1-0.6-1.9-1.2-2.9-1.8
		c-4.7-3.4-5.6-7.9-2.5-12.5c2.9-4.4,7.4-5.1,11.9-2.1c12.4,8,24.8,16.1,37.1,24.1c9.7,6.3,19.4,12.7,29.1,19c1.3,0.9,2.8,3,4.7,1.4
		c1.3-1.2,0.4-3-0.1-4.5c-12.9-47.4-25.9-94.8-38.7-142.3c-1-3.8-2.9-6.3-6.2-8.4c-10.9-6.9-21.7-14.1-32.6-21.2
		c-6.9-4.5-8.8-9.6-5.5-14.4c3.3-4.8,7.9-4.9,14.9-0.3c48.7,31.7,97.3,63.6,146.1,95.2c31,20.1,62.3,20.2,93.2,0.2
		c48.4-31.3,96.6-63,144.9-94.5c1.1-0.7,2.3-1.5,3.4-2.2c5.5-3.3,10.5-2.7,13,2c2.9,5.3,1.3,9.6-3.7,12.9
		c-5.9,3.8-11.5,8.4-17.8,11.3c-17.1,7.9-24.4,21.3-28.7,39.4c-9.9,41.6-22.1,82.7-33.5,124C477.6,451.2,477.2,452,476.8,453.1z
		 M264.8,350.9c0,1.7-0.1,2.4,0,3c13.4,49.2,26.8,98.3,40.1,147.5c0.9,3.1,2.7,5,5.3,6.6c28.5,16.6,57.1,16.9,85.9,0.5
		c3.6-2.1,5.5-4.8,6.5-8.8c10.2-37.8,20.5-75.6,30.8-113.4c3.1-11.5,6.2-23,9.7-35.9c-12.7,8.3-24,15.9-35.6,23
		c-35.9,22-72,22-107.9,0.1C288,366.4,276.8,358.7,264.8,350.9z M496.4,315.6c-10.9,7.1-20.4,13.2-29.8,19.4c-1.8,1.2-2,3.4-2.6,5.4
		c-10.3,38-20.8,76-31.2,114c-4.2,15.4-8.3,30.9-12.5,46.8c17.6-2.2,28.5-10.8,33-27.5c11.1-41.1,22.5-82.1,33.7-123.2
		C490.1,339.4,493,328.3,496.4,315.6z M211.4,316c0.1,2.1,0,3,0.2,3.9c14.1,51.3,28.3,102.6,42.2,154c4.5,16.7,15.5,25.2,32.2,27.3
		c0.2-0.7,0.4-1.2,0.3-1.6c-14.5-53.6-29.1-107.1-43.6-160.7c-0.6-2.1-1.7-3.6-3.6-4.8C230.2,328.3,221.3,322.5,211.4,316z"/>
	<path class="st0" d="M510.6,197.8c3.4,0,6.9-0.4,10.2,0.1c4.7,0.7,7.3,3.9,7.1,8.6c-0.1,4.6-2.7,8-7.5,8.3
		c-6.6,0.4-13.2,0.4-19.8,0c-4.7-0.3-7.4-3.6-7.5-8.3c-0.1-4.7,2.5-7.9,7.1-8.6C503.7,197.4,507.2,197.8,510.6,197.8z"/>
	<path class="st0" d="M327.2,214.9c-3.2,0-6.4,0.3-9.5-0.1c-5-0.5-7.8-3.9-7.8-8.7c0-4.5,2.7-8,7.4-8.3c6.8-0.4,13.6-0.4,20.3,0.1
		c4.8,0.3,7.2,4.1,7.1,8.5c-0.1,4.3-2.6,7.8-7.4,8.3C334,215.1,330.6,214.9,327.2,214.9C327.2,214.9,327.2,214.9,327.2,214.9z"/>
	<path class="st0" d="M405.3,162.7c-2.5,0-5,0-7.5,0c-5.2-0.1-8.5-2.6-9.1-8c-0.6-5.6,2.7-8.9,7.6-9.4c6.3-0.7,12.7-0.7,19,0
		c4.9,0.5,8.3,3.8,7.8,9.3c-0.5,5.4-3.8,7.9-9,8.1C411.1,162.8,408.2,162.7,405.3,162.7z"/>
	<path class="st0" d="M432.3,249.9c2.9,0,5.9-0.2,8.8,0.1c4.9,0.5,7.9,3.2,8.2,8.3c0.3,5.1-2.7,8.5-7.4,9c-6.5,0.7-13.1,0.7-19.6,0
		c-4.7-0.4-7.8-3.7-7.5-8.9c0.2-5.4,3.5-8.1,8.7-8.5C426.4,249.8,429.4,249.9,432.3,249.9z"/>
	<path class="st0" d="M257.1,258.5c-3,0-5.9,0.1-8.9,0c-4.8-0.3-7.5-3.1-7.9-7.7c-0.4-4.7,1.8-8.2,6.5-9c7.2-1.1,14.5-1.1,21.7,0
		c4.4,0.7,6.5,4.1,6.3,8.4c-0.2,4.6-2.7,7.7-7.5,8.2C263.9,258.7,260.5,258.4,257.1,258.5C257.1,258.4,257.1,258.5,257.1,258.5z"/>
	<path class="st0" d="M362.2,310.8c-3.4,0-6.9,0.4-10.2-0.1c-4.7-0.7-7-3.8-6.9-8.6c0.1-4.9,2.7-7.9,7.4-8.2
		c6.6-0.5,13.2-0.5,19.8,0c4.6,0.4,7.3,3.5,7.3,8.3c0.1,4.8-2.7,7.8-7.1,8.5C369.1,311.3,365.6,310.8,362.2,310.8z"/>
</g>
</svg>
