<svg xmlns="http://www.w3.org/2000/svg" id="uuid-47e64bf2-03df-4eb5-b2d9-671f68ff47f9" data-name="Layer 2" viewBox="0 0 79.39 50.24"><defs></defs><g id="uuid-a2e5c19c-1655-4f95-8ed6-4bf9e551ac44" data-name="Layer 1"><path d="M79.39 41.41c-.37.7-.97.91-1.74.89-1.16-.04-2.31 0-3.53 0-.12 2.59-1.08 4.72-3.1 6.3-1.5 1.17-3.23 1.71-5.13 1.65-3.26-.11-7.27-2.55-7.61-7.89H30.35c-.12 2.63-1.15 4.81-3.29 6.38-1.51 1.11-3.23 1.6-5.1 1.5-3.06-.17-7.07-2.42-7.45-7.94H8.12c-1.8-.01-2.83-1.06-2.84-2.85v-2.47H1.96c-.31 0-.62.01-.93-.03-.62-.09-.97-.49-1.02-1.09-.05-.64.27-1.1.9-1.27.24-.07.51-.08.77-.08h11.09c.18 0 .36 0 .54.03.69.11 1.14.64 1.1 1.28-.03.64-.51 1.15-1.22 1.16-1.5.03-3 .01-4.5.02h-.88v2.77c.19.03.38.07.58.07 2.02 0 4.03 0 6.05.01.44 0 .61-.17.79-.55 1.43-3.05 3.84-4.74 7.2-4.75 3.39 0 5.83 1.68 7.25 4.77.18.39.38.53.81.53 8.19-.01 16.39 0 24.58-.01.18 0 .35-.03.61-.05V31.1c0-.21-.01-.41 0-.62.06-.73.57-1.25 1.23-1.26.69 0 1.24.52 1.24 1.3.02 2.79 0 5.58 0 8.38 0 .18-.03.37.01.54.04.14.16.36.26.37.14.01.3-.12.43-.23.07-.06.07-.19.12-.28 1.44-3.04 3.85-4.74 7.2-4.75 3.39-.01 5.83 1.69 7.26 4.77.18.39.38.54.8.53.85-.03 1.7 0 2.61 0v-5.5c-.43 0-.89.01-1.34 0-2.28-.06-3.86-1.67-3.9-3.96-.01-.8-.01-1.6 0-2.4.02-.97.46-1.41 1.44-1.42 1.16-.01 2.32 0 3.59 0-.19-.82-.6-1.47-1.23-1.84-.71-.42-1.54-.9-2.32-.91-4.86-.08-9.72-.04-14.58-.04-.1 0-.19.03-.37.06 0 .45.02.89 0 1.32-.04.74-.53 1.24-1.21 1.26-.67.01-1.19-.48-1.26-1.21-.02-.23 0-.47 0-.7V2.54H7.77v21.91c0 .26.01.52-.01.77-.07.69-.48 1.09-1.16 1.13-.65.04-1.08-.32-1.25-.94-.07-.27-.06-.56-.06-.85V3c-.01-2.01.99-3 2.99-3H55.2c1.98 0 2.96.98 2.97 2.94v2.31c.33.02.6.04.87.04 2.66 0 5.33.06 7.99-.01 3.34-.09 6.26 2.22 5.68 6.76-.05.41-.49.78-.85 1.31.59 2.36 1.23 4.94 1.89 7.51.05.2.28.45.47.5 2.78.72 4.46 2.47 5.07 5.26.02.07.07.14.11.2V41.4ZM71.2 21.2c-.04-.24-.07-.44-.12-.64-.55-2.23-1.12-4.45-1.65-6.69-.13-.57-.36-.78-.98-.78-3.15.03-6.3.02-9.45.02-.25 0-.5.02-.77.04v8.05H71.2Zm-5 26.56c2.94 0 5.38-2.41 5.41-5.36.03-2.96-2.45-5.44-5.42-5.42-2.95.02-5.38 2.45-5.37 5.39 0 2.94 2.44 5.38 5.38 5.39Zm-43.71 0c2.94-.02 5.36-2.46 5.35-5.41-.01-2.95-2.43-5.36-5.39-5.37-2.98 0-5.42 2.46-5.39 5.44.03 2.94 2.49 5.35 5.43 5.33Zm47.7-37.2c.1-1.56-1.09-2.75-2.78-2.76-2.89-.02-5.78 0-8.67 0-.17 0-.34.04-.53.07v2.69H70.2Zm6.68 21.19v-2.68h-2.7c-.31 2.38.34 3.03 2.7 2.68Z" class="uuid-d3f559ab-192f-462d-a7e3-28cadf97b60d"></path><path d="m30.32 23.48 9.31-9.34c.58-.59 1.16-1.18 1.76-1.75.61-.58 1.35-.59 1.85-.05.48.51.47 1.23-.1 1.8-3.92 3.94-7.85 7.87-11.79 11.79-.63.62-1.27.61-1.91-.02-2.17-2.15-4.32-4.3-6.47-6.47-.57-.58-.58-1.29-.08-1.8.52-.54 1.24-.53 1.85.07 1.68 1.65 3.34 3.32 4.99 4.99.2.2.34.45.59.78ZM42.33 36.96h-8.68c-.28 0-.57.01-.85-.04-.62-.12-1.02-.57-.94-1.14.07-.43.46-.86.8-1.18.18-.17.59-.12.9-.12h17.6c.18 0 .36 0 .54.02.73.1 1.21.64 1.16 1.3-.04.64-.52 1.12-1.23 1.14-.96.03-1.91.01-2.87.01h-6.43ZM11.79 31.66H4.2c-.99 0-1.55-.45-1.56-1.22 0-.76.59-1.26 1.54-1.26h15.34c.94 0 1.54.53 1.52 1.28-.02.74-.58 1.19-1.51 1.2h-7.75ZM66.18 39.82c1.43-.02 2.58 1.1 2.6 2.52.02 1.4-1.13 2.58-2.53 2.61-1.39.03-2.58-1.13-2.6-2.54a2.546 2.546 0 0 1 2.53-2.59ZM22.43 39.82c1.44 0 2.56 1.1 2.57 2.54 0 1.43-1.12 2.58-2.54 2.59-1.39.01-2.58-1.16-2.59-2.56a2.56 2.56 0 0 1 2.56-2.57Z" class="uuid-d3f559ab-192f-462d-a7e3-28cadf97b60d"></path></g></svg>